<?xml version="1.0" encoding="UTF-8" standalone="no"?>
<!-- Created with Inkscape (http://www.inkscape.org/) -->

<svg
   width="101.96458"
   height="32.000023"
   viewBox="0 0 26.978126 8.4666736"
   version="1.1"
   id="svg5"
   xmlns="http://www.w3.org/2000/svg"
   xmlns:svg="http://www.w3.org/2000/svg">
  <defs
     id="defs2" />
  <g
     id="layer1"
     transform="translate(-160.32379,-788.15427)">
    <path
       style="fill:#ffffff;stroke-width:0.0191057;fill-opacity:1"
       d="m 172.61324,796.35366 c -0.0216,0.008 -0.0484,-0.002 -0.0738,-0.0274 -0.0313,-0.0313 -0.0375,-0.0548 -0.0288,-0.10831 0.009,-0.0528 -0.007,-0.11428 -0.0687,-0.2701 -0.0439,-0.11096 -0.21057,-0.46396 -0.3704,-0.78446 -0.15984,-0.32049 -0.32658,-0.66869 -0.37052,-0.77378 -0.0439,-0.10508 -0.0913,-0.21685 -0.10524,-0.24838 -0.0139,-0.0315 -0.0635,-0.16478 -0.11016,-0.29613 -0.0466,-0.13135 -0.11115,-0.3248 -0.14335,-0.42988 -0.0322,-0.10508 -0.0797,-0.26844 -0.10562,-0.36301 -0.0259,-0.0946 -0.0692,-0.27082 -0.0962,-0.39167 -0.027,-0.12084 -0.0584,-0.2756 -0.0698,-0.3439 -0.0114,-0.0683 -0.0858,-0.32193 -0.16547,-0.56361 -0.0796,-0.2417 -0.15218,-0.44746 -0.1612,-0.45727 -0.009,-0.01 -0.0206,-0.0136 -0.0257,-0.009 -0.005,0.005 -0.0146,0.10772 -0.021,0.22799 -0.006,0.12029 -0.0203,0.24156 -0.0308,0.26951 -0.013,0.0345 -0.0127,0.0628 8.1e-4,0.0881 0.0161,0.03 0.0112,0.0456 -0.0251,0.0797 l -0.0451,0.0423 -0.10514,-0.0698 c -0.0725,-0.0481 -0.1218,-0.0679 -0.15879,-0.0636 -0.0394,0.005 -0.0759,0.0355 -0.13713,0.11629 -0.0459,0.0605 -0.092,0.1048 -0.1024,0.0984 -0.0104,-0.006 -0.0151,-0.0216 -0.0105,-0.0336 0.006,-0.0162 -0.11561,-0.022 -0.46201,-0.022 -0.40666,0 -0.47847,-0.004 -0.5297,-0.0325 -0.0326,-0.0179 -0.0858,-0.0627 -0.11833,-0.0998 -0.0411,-0.0468 -0.066,-0.1023 -0.0817,-0.18248 -0.0125,-0.0634 -0.028,-0.11499 -0.0345,-0.11474 -0.007,2.7e-4 -0.0545,0.0239 -0.10676,0.0525 -0.0522,0.0286 -0.11322,0.0793 -0.13557,0.11264 -0.0326,0.0485 -0.0678,0.22691 -0.17753,0.89796 -0.0753,0.46059 -0.1368,0.86759 -0.1367,0.90445 1.2e-4,0.0369 0.0217,0.10741 0.048,0.15676 0.0263,0.0494 0.0478,0.11203 0.0478,0.1393 0,0.0273 -0.0125,0.0737 -0.0277,0.10312 -0.0152,0.0294 -0.0475,0.0663 -0.0717,0.0819 -0.0242,0.0156 -0.0843,0.0384 -0.13361,0.0506 -0.0493,0.0122 -0.12704,0.0222 -0.17273,0.0222 -0.0457,0 -0.20737,-0.0221 -0.35932,-0.0492 -0.15195,-0.0271 -0.30497,-0.0628 -0.34006,-0.0794 -0.0351,-0.0166 -0.0856,-0.0631 -0.11217,-0.10332 -0.0266,-0.0402 -0.0525,-0.10984 -0.0576,-0.15475 -0.006,-0.0515 0.0455,-0.41751 0.13866,-0.98956 0.14782,-0.90759 0.14785,-0.90791 0.11741,-1.01263 -0.0192,-0.0661 -0.0567,-0.13288 -0.10158,-0.18103 -0.0419,-0.0449 -0.0804,-0.1116 -0.0938,-0.16224 l -0.0227,-0.086 h -0.20789 c -0.14653,0 -0.21361,0.007 -0.22723,0.0245 -0.0116,0.0147 -0.29409,0.0698 -0.70691,0.13793 -0.37817,0.0624 -0.82945,0.144 -1.00282,0.1814 -0.17339,0.0374 -0.41564,0.0977 -0.53833,0.13403 -0.12269,0.0363 -0.86209,0.31461 -1.6431,0.61843 -0.781,0.30382 -1.50598,0.57877 -1.61106,0.611 -0.10508,0.0322 -0.26844,0.0706 -0.36301,0.0853 -0.0946,0.0147 -0.23357,0.0283 -0.30888,0.0303 -0.11718,0.003 -0.13839,-10e-4 -0.14716,-0.0308 -0.006,-0.0189 -0.003,-0.0895 0.005,-0.15681 0.0111,-0.0906 0.0258,-0.13112 0.0564,-0.15591 0.0228,-0.0184 0.0414,-0.0471 0.0414,-0.0637 0,-0.0166 -0.0172,-0.0409 -0.0382,-0.0541 -0.0295,-0.0184 -0.0379,-0.0436 -0.0368,-0.11002 7.7e-4,-0.0474 0.008,-0.13255 0.016,-0.18925 0.009,-0.0648 0.0276,-0.11256 0.0494,-0.12854 0.0326,-0.0238 0.034,-0.0538 0.0223,-0.46992 -0.0118,-0.42054 -0.0147,-0.4461 -0.0524,-0.47454 -0.0349,-0.0263 -0.0436,-0.0684 -0.0703,-0.33888 -0.0284,-0.28761 -0.0282,-0.31125 0.002,-0.34416 0.0176,-0.0194 0.0318,-0.0519 0.0317,-0.072 -1.6e-4,-0.0202 -0.007,-0.0459 -0.0143,-0.0572 -0.008,-0.0113 -0.0278,-0.0256 -0.0447,-0.0318 -0.017,-0.006 -0.0357,-0.0423 -0.042,-0.0809 -0.006,-0.0383 -0.006,-0.0825 -3.8e-4,-0.0981 0.008,-0.021 0.0441,-0.029 0.1375,-0.0302 0.0696,-9.5e-4 1.46778,-0.008 3.10705,-0.0158 1.72868,-0.008 3.02301,-0.0217 3.08172,-0.0322 0.0585,-0.0105 0.10563,-0.011 0.11168,-10e-4 0.006,0.009 0.0204,0.004 0.0325,-0.0111 0.0149,-0.0189 0.191,-0.056 0.54066,-0.11401 0.33177,-0.055 0.5365,-0.0977 0.56828,-0.11852 0.0273,-0.0179 0.16665,-0.22075 0.30961,-0.45077 0.14294,-0.23004 0.26981,-0.42461 0.28191,-0.4324 0.0121,-0.008 0.0607,-0.0246 0.10798,-0.0373 0.0473,-0.0127 0.10436,-0.0236 0.12683,-0.024 0.0314,-6.4e-4 0.0438,-0.0165 0.0535,-0.0681 0.007,-0.037 0.0294,-0.0778 0.0499,-0.0906 0.0293,-0.0183 0.0373,-0.0448 0.0373,-0.12375 0,-0.0766 0.007,-0.10049 0.0287,-0.10049 0.022,0 0.0287,0.0243 0.0287,0.1038 0,0.087 0.006,0.10575 0.0382,0.11591 0.021,0.007 0.0383,0.018 0.0385,0.0252 1.6e-4,0.007 0.008,0.0256 0.018,0.041 0.0146,0.0231 0.0259,0.019 0.0657,-0.0239 0.0264,-0.0285 0.0645,-0.0518 0.0846,-0.0518 0.0201,0 0.0596,0.0181 0.0878,0.0403 0.0498,0.0391 0.0659,0.0401 0.54328,0.033 0.47809,-0.007 0.49357,-0.009 0.54752,-0.051 0.0391,-0.0307 0.0695,-0.0402 0.10276,-0.0318 0.026,0.007 0.10803,0.0539 0.18233,0.10521 l 0.1351,0.0934 0.22926,0.014 c 0.1261,0.008 0.39262,0.0146 0.59228,0.0153 0.25334,8.8e-4 0.37562,0.008 0.40474,0.0251 0.0316,0.0181 0.23504,0.0239 0.83331,0.0239 0.76347,0 0.79328,-0.001 0.84029,-0.0383 0.0477,-0.0375 0.0775,-0.0384 1.42118,-0.04 0.75484,-9.4e-4 2.11183,-0.004 3.01553,-0.006 0.90371,-0.002 1.71474,-1.1e-4 1.80231,0.005 0.15,0.008 0.16035,0.0117 0.17878,0.0584 0.0108,0.0273 0.0229,0.16996 0.0269,0.31707 0.004,0.14711 0.007,0.28253 0.007,0.30092 2.2e-4,0.0314 0.0553,0.0334 0.88858,0.0334 0.77696,0 0.88842,0.004 0.88842,0.0287 0,0.0251 0.12525,0.0287 1.0126,0.0287 h 1.01261 v -0.10541 c 0,-0.058 0.0221,-0.20627 0.0492,-0.32957 0.0437,-0.19885 0.0489,-0.26355 0.0469,-0.57285 l -0.002,-0.34868 0.21584,2.7e-4 c 0.11872,1.6e-4 0.22873,0.008 0.2445,0.0185 0.0238,0.0151 0.0287,0.0802 0.0289,0.3866 2.1e-4,0.21072 0.0119,0.45377 0.0274,0.5679 0.0225,0.16499 0.0357,0.20889 0.0762,0.25375 0.0378,0.0418 0.072,0.0569 0.14929,0.0659 0.0552,0.006 0.1003,0.019 0.1003,0.0281 0,0.009 0.0116,0.0164 0.0257,0.0164 0.0141,0 0.0413,-0.0172 0.0603,-0.0382 0.019,-0.021 0.0542,-0.0382 0.0783,-0.0382 0.024,0 0.0484,-0.008 0.0542,-0.017 0.006,-0.009 0.15028,-0.0179 0.32114,-0.019 0.23841,-0.002 0.31512,-0.008 0.3299,-0.0281 0.0155,-0.0209 0.16323,-0.0279 0.75155,-0.0352 0.67727,-0.008 0.73542,-0.007 0.77364,0.0243 0.0396,0.032 0.0413,0.0479 0.0413,0.3761 0,0.26233 -0.006,0.35005 -0.0262,0.37426 -0.0236,0.0284 -0.10099,0.0316 -0.76667,0.0316 -0.63486,0 -0.74383,-0.004 -0.76422,-0.0287 -0.0182,-0.0219 -0.068,-0.0287 -0.21234,-0.0287 -0.16787,0 -0.19118,-0.004 -0.21243,-0.0382 -0.0226,-0.0362 -0.0446,-0.0382 -0.41282,-0.0382 -0.31463,0 -0.4011,0.006 -0.45247,0.0301 -0.0362,0.0172 -0.0765,0.0575 -0.0936,0.0936 -0.0208,0.0438 -0.0301,0.11913 -0.0301,0.24309 0,0.11418 -0.008,0.18791 -0.0229,0.20249 -0.0126,0.0126 -0.0492,0.0229 -0.0813,0.0229 -0.0321,0 -0.0878,0.008 -0.12379,0.0187 -0.036,0.0103 -0.0931,0.0481 -0.12686,0.0839 -0.0338,0.0359 -0.0673,0.0919 -0.0745,0.12453 l -0.013,0.0594 h -0.6248 -0.62479 l -0.11404,-0.11619 -0.11403,-0.11621 -0.90752,0.0111 c -0.49914,0.006 -1.01618,0.0163 -1.14899,0.0226 l -0.24147,0.0115 -0.0135,0.17959 -0.0135,0.17961 h -0.0573 c -0.0413,0 -0.0601,-0.0107 -0.0673,-0.0382 -0.009,-0.0332 -0.0261,-0.0382 -0.13196,-0.0382 -0.10921,0 -0.12195,0.004 -0.12195,0.0382 0,0.0311 -0.0127,0.0382 -0.0687,0.0382 -0.0526,0 -0.071,-0.009 -0.0786,-0.0382 -0.008,-0.029 -0.0261,-0.0382 -0.0764,-0.0382 -0.0504,0 -0.0688,0.009 -0.0764,0.0382 -0.007,0.0274 -0.0261,0.0382 -0.0669,0.0382 -0.0408,0 -0.0597,-0.0108 -0.0669,-0.0382 -0.008,-0.0299 -0.0261,-0.0382 -0.0842,-0.0382 -0.0615,0 -0.0742,0.007 -0.0742,0.0382 0,0.0308 -0.0127,0.0382 -0.0656,0.0382 -0.0488,0 -0.0687,-0.01 -0.0777,-0.0382 -0.009,-0.0284 -0.0289,-0.0382 -0.0777,-0.0382 -0.0528,0 -0.0656,0.007 -0.0656,0.0382 0,0.0311 -0.0127,0.0382 -0.0687,0.0382 -0.0526,0 -0.071,-0.009 -0.0787,-0.0382 -0.008,-0.0299 -0.0261,-0.0382 -0.0842,-0.0382 -0.0615,0 -0.0742,0.007 -0.0742,0.0382 0,0.03 -0.0127,0.0382 -0.0591,0.0382 -0.043,0 -0.0618,-0.0104 -0.0691,-0.0382 -0.008,-0.0299 -0.0261,-0.0382 -0.0842,-0.0382 -0.0615,0 -0.0742,0.007 -0.0742,0.0382 0,0.0311 -0.0127,0.0382 -0.0687,0.0382 -0.0526,0 -0.071,-0.009 -0.0786,-0.0382 -0.008,-0.029 -0.0261,-0.0382 -0.0764,-0.0382 -0.0504,0 -0.0688,0.009 -0.0764,0.0382 -0.007,0.0274 -0.0261,0.0382 -0.0669,0.0382 -0.0408,0 -0.0597,-0.0108 -0.0669,-0.0382 -0.008,-0.0299 -0.0261,-0.0382 -0.0842,-0.0382 -0.0615,0 -0.0742,0.007 -0.0742,0.0382 0,0.0309 -0.0127,0.0382 -0.0669,0.0382 -0.0541,0 -0.0669,-0.007 -0.0669,-0.0382 0,-0.0317 -0.0127,-0.0382 -0.0742,-0.0382 -0.0581,0 -0.0764,0.008 -0.0842,0.0382 -0.007,0.0281 -0.0261,0.0382 -0.0709,0.0382 -0.0448,0 -0.0635,-0.0101 -0.0709,-0.0382 -0.008,-0.0297 -0.0261,-0.0382 -0.082,-0.0382 -0.0546,0 -0.0742,0.009 -0.0814,0.0362 -0.009,0.0342 -0.0395,0.0367 -0.54197,0.0451 -0.46712,0.008 -0.56886,0.0153 -0.82864,0.0605 -0.16287,0.0284 -0.33053,0.0553 -0.37256,0.0598 -0.042,0.005 -0.1495,0.0212 -0.23882,0.037 -0.0893,0.0159 -0.23118,0.0369 -0.31524,0.0467 -0.0841,0.01 -0.18746,0.0235 -0.22977,0.0304 -0.0596,0.01 -0.0864,0.005 -0.11924,-0.0227 -0.0345,-0.0287 -0.048,-0.0742 -0.0731,-0.24535 -0.0169,-0.1156 -0.0389,-0.22543 -0.0489,-0.24408 -0.0164,-0.0306 -0.0471,-0.0334 -0.31793,-0.0287 l -0.29983,0.005 -0.01,0.0573 c -0.01,0.0573 -0.01,0.0573 -0.15779,0.0629 -0.14303,0.005 -0.14795,0.004 -0.14823,-0.0382 -1.6e-4,-0.0241 -0.008,-0.0552 -0.0164,-0.0692 -0.0129,-0.0204 -0.0739,-0.0227 -0.3054,-0.0117 l -0.28928,0.0138 v 0.0952 c 0,0.0524 0.0135,0.18657 0.0299,0.29825 0.0164,0.11168 0.0504,0.29764 0.0755,0.41322 0.0251,0.11559 0.0792,0.32194 0.12024,0.45854 0.0411,0.13661 0.13193,0.43752 0.20191,0.66871 0.07,0.23117 0.15432,0.49769 0.18743,0.59227 0.0331,0.0946 0.13128,0.31476 0.21816,0.48931 0.0869,0.17454 0.20067,0.38948 0.2529,0.47763 0.0522,0.0882 0.17741,0.25917 0.27818,0.38001 0.10077,0.12084 0.18327,0.23366 0.18331,0.25071 4e-5,0.0175 -0.11015,0.11385 -0.25308,0.22127 -0.13923,0.10467 -0.47238,0.34511 -0.74035,0.53432 -0.26795,0.18921 -0.52158,0.36538 -0.56361,0.3915 -0.042,0.0261 -0.0917,0.0531 -0.11029,0.06 z m -3.01422,-4.38106 c 0.22632,-5e-5 0.44214,-0.009 0.47958,-0.019 0.0495,-0.0138 0.0795,-0.0392 0.10985,-0.0933 0.0389,-0.0693 0.0418,-0.0993 0.0418,-0.44076 0,-0.22177 -0.008,-0.3814 -0.0203,-0.40431 -0.0111,-0.0208 -0.042,-0.0461 -0.0685,-0.0562 -0.0313,-0.0119 -0.0896,-0.0114 -0.16602,10e-4 -0.0648,0.0109 -0.23251,0.02 -0.37275,0.0203 -0.19885,3.3e-4 -0.26495,-0.006 -0.30024,-0.0292 -0.0249,-0.0163 -0.0618,-0.0297 -0.0821,-0.0297 -0.0203,0 -0.0421,0.0136 -0.0484,0.0302 -0.006,0.0166 -0.0116,0.0796 -0.0116,0.13988 0,0.0603 0.0136,0.14941 0.0301,0.19799 0.0165,0.0486 0.063,0.12566 0.10313,0.17129 0.0402,0.0456 0.10401,0.0997 0.14186,0.12005 0.0378,0.0204 0.0688,0.0437 0.0688,0.0518 0,0.008 -0.005,0.0148 -0.0109,0.0148 -0.006,0 -0.0483,-0.0219 -0.0939,-0.0486 -0.0456,-0.0267 -0.11884,-0.0876 -0.16272,-0.13517 -0.0439,-0.0476 -0.0961,-0.12348 -0.11609,-0.16863 -0.02,-0.0451 -0.0428,-0.1274 -0.0508,-0.18279 -0.009,-0.059 -0.0264,-0.10635 -0.0432,-0.11438 -0.0158,-0.008 -0.0558,-0.0278 -0.0889,-0.0451 -0.0332,-0.0173 -0.0826,-0.0314 -0.10987,-0.0314 -0.0273,0 -0.0496,0.005 -0.0496,0.0102 0,0.006 0.0124,0.0398 0.0275,0.076 0.0151,0.0362 0.0413,0.15845 0.0582,0.27164 0.0169,0.1132 0.0429,0.27437 0.0579,0.35817 0.015,0.0838 0.0431,0.17407 0.0624,0.20061 0.0193,0.0265 0.0729,0.0676 0.1192,0.0912 0.0796,0.0407 0.10644,0.043 0.49563,0.0429 z m 4.92842,-0.55395 c 0.0211,0 0.0467,-0.0154 0.0567,-0.0342 0.0122,-0.0228 0.009,-0.0779 -0.009,-0.1657 -0.0152,-0.0723 -0.0374,-0.14337 -0.0494,-0.15785 -0.0131,-0.0158 -0.0492,-0.024 -0.0904,-0.0206 -0.0615,0.005 -0.0691,0.0119 -0.0744,0.0665 -0.003,0.0334 0.003,0.0945 0.0143,0.13571 0.0111,0.0412 0.0413,0.0978 0.0671,0.12557 0.0258,0.0278 0.0642,0.0506 0.0853,0.0506 z m -4.0109,-0.34392 c 0.0107,0 0.0194,-0.009 0.0194,-0.0204 0,-0.0112 -0.008,-0.0358 -0.0184,-0.0547 -0.0101,-0.0189 -0.0448,-0.0453 -0.077,-0.0586 -0.0323,-0.0134 -0.0648,-0.0182 -0.0723,-0.0107 -0.007,0.008 0.0184,0.0431 0.0577,0.079 0.0392,0.0359 0.08,0.0653 0.0907,0.0653 z m 11.51791,-0.52017 1.19099,0.004 0.1222,-0.11736 0.12222,-0.11736 0.22958,-0.009 0.2296,-0.009 v -0.0547 -0.0547 h -1.00366 c -0.8745,0 -1.00506,0.004 -1.01464,0.0287 -0.01,0.0249 -0.12687,0.0287 -0.89521,0.0287 h -0.88419 l -0.008,0.0525 c -0.004,0.0289 -0.004,0.0932 -2.7e-4,0.14288 l 0.007,0.0903 0.35634,0.006 c 0.19598,0.003 0.89228,0.008 1.54733,0.01 z m 2.16078,-0.77901 h 0.17324 v -0.0535 c 0,-0.0294 -0.0103,-0.0638 -0.0229,-0.0764 -0.0126,-0.0126 -0.0715,-0.0229 -0.13078,-0.0229 -0.0788,0 -0.11576,0.009 -0.13721,0.0334 -0.0162,0.0184 -0.0353,0.0528 -0.0425,0.0764 -0.0129,0.0424 -0.0107,0.043 0.16015,0.043 z M 169.34961,789.061 c 0.0325,-0.006 0.0849,-0.0165 0.11639,-0.0225 0.0315,-0.006 0.0573,-0.0194 0.0573,-0.0296 0,-0.0105 -0.0476,-0.0161 -0.10967,-0.0128 -0.0889,0.005 -0.11094,0.0124 -0.1164,0.0411 -0.006,0.0301 0.002,0.0336 0.0524,0.0239 z m 1.06117,-0.0306 c 0.0146,0 0.0401,-0.005 0.0567,-0.0116 0.0166,-0.006 0.0302,-0.0193 0.0302,-0.0287 0,-0.009 -0.0206,-0.0171 -0.0457,-0.0171 -0.0251,0 -0.0507,0.0129 -0.0567,0.0287 -0.007,0.017 -2.2e-4,0.0287 0.0155,0.0287 z m 13.83623,-0.4237 c 0.0173,-0.003 0.0407,-0.021 0.0521,-0.0391 0.0149,-0.0237 0.0149,-0.0388 -2.2e-4,-0.0538 -0.0151,-0.0151 -0.0295,-0.0122 -0.0521,0.0104 -0.0172,0.0172 -0.0312,0.0442 -0.0312,0.0599 0,0.0164 0.0135,0.026 0.0314,0.0225 z"
       id="path5866" />
  </g>
</svg>
