<?xml version="1.0" encoding="UTF-8" standalone="no"?>
<!-- Created with Inkscape (http://www.inkscape.org/) -->

<svg
   width="107.32056"
   height="32.999001"
   viewBox="0 0 28.395234 8.7309863"
   version="1.1"
   id="svg5"
   xmlns="http://www.w3.org/2000/svg"
   xmlns:svg="http://www.w3.org/2000/svg">
  <defs
     id="defs2" />
  <g
     id="layer1"
     transform="translate(-74.459707,-435.37551)">
    <path
       style="fill:#ffffff;stroke-width:0.0201243;fill-opacity:1"
       d="m 84.900889,443.01304 c -0.05162,-0.0202 -0.11994,-0.0553 -0.151813,-0.078 -0.03187,-0.0227 -0.08908,-0.0442 -0.127125,-0.0479 -0.06875,-0.007 -0.06945,-0.008 -0.114182,-0.17767 -0.03419,-0.12994 -0.04836,-0.25737 -0.05895,-0.53011 -0.0091,-0.2332 -0.0069,-0.3637 0.0062,-0.3723 0.0134,-0.009 0.0111,-0.15502 -0.0069,-0.43586 -0.03774,-0.58972 -0.01337,-0.89544 0.08311,-1.04269 0.0325,-0.0496 0.09029,-0.0799 0.19683,-0.10314 0.05269,-0.0115 0.05534,-0.0177 0.05534,-0.12988 0,-0.11283 0.0036,-0.12111 0.08553,-0.19643 0.07172,-0.0659 0.08451,-0.0891 0.07922,-0.14344 l -0.0063,-0.0648 h -0.583651 c -0.363205,0 -0.598329,0.008 -0.622511,0.0208 -0.02137,0.0114 -0.05604,0.0545 -0.07703,0.0956 -0.06463,0.12664 -0.104475,0.14907 -0.312017,0.17564 -0.22551,0.0289 -0.412886,0.10868 -0.529926,0.22572 -0.04344,0.0435 -0.144188,0.18917 -0.223875,0.32384 -0.11708,0.19785 -0.159269,0.25214 -0.219831,0.28287 -0.0631,0.032 -0.135405,0.0396 -0.457306,0.048 -0.277774,0.007 -0.411313,0.0191 -0.488208,0.0435 -0.05822,0.0184 -0.11708,0.032 -0.130808,0.0303 -0.01373,-0.002 -0.0489,-0.002 -0.07816,-8.3e-4 -0.04469,0.002 -0.06803,0.0285 -0.145901,0.16601 -0.05099,0.09 -0.0927,0.18676 -0.0927,0.21504 0,0.0283 0.01926,0.0719 0.04279,0.097 0.06318,0.0673 0.03707,0.10797 -0.06923,0.10797 -0.05855,0 -0.09855,0.0118 -0.119341,0.0352 -0.05318,0.0599 -0.310703,0.4977 -0.339348,0.57692 -0.02389,0.0661 -0.02299,0.0822 0.0076,0.13554 0.01911,0.0333 0.03475,0.072 0.03475,0.086 0,0.014 -0.01815,0.0419 -0.04034,0.062 -0.03662,0.0331 -0.05288,0.0343 -0.176088,0.0122 -0.168465,-0.0301 -0.900689,-0.21079 -0.97593,-0.24081 -0.03044,-0.0121 -0.0551,-0.0336 -0.0548,-0.0477 3.02e-4,-0.0141 0.248777,-0.378 0.552172,-0.80864 0.599064,-0.85033 0.609716,-0.87025 0.588801,-1.1009 -0.01247,-0.13747 -0.05618,-0.22172 -0.157536,-0.30364 -0.05426,-0.0439 -0.101844,-0.0616 -0.188842,-0.0706 -0.09006,-0.009 -0.118493,-0.0204 -0.126017,-0.0492 -0.0078,-0.0297 -0.02934,-0.0372 -0.106803,-0.0372 -0.0534,0 -0.102683,0.009 -0.109524,0.0201 -0.01969,0.0319 -0.284163,0.0239 -0.367914,-0.0111 -0.04115,-0.0172 -0.09747,-0.053 -0.125154,-0.0795 -0.02768,-0.0265 -0.117539,-0.18358 -0.199678,-0.34903 -0.145299,-0.29268 -0.151295,-0.30115 -0.221344,-0.31274 -0.0396,-0.007 -0.168381,-0.012 -0.286181,-0.0121 -0.243785,-2.3e-4 -0.238614,0.003 -0.238614,-0.17293 0,-0.18612 -0.03841,-0.1196 -0.04452,0.0771 l -0.0058,0.18615 -0.06214,0.0183 c -0.04404,0.013 -0.07762,0.0459 -0.115294,0.1129 -0.02924,0.052 -0.06826,0.10715 -0.08671,0.12254 -0.01845,0.0154 -0.07524,0.0387 -0.126197,0.0518 -0.215611,0.0555 -0.399558,0.10493 -0.471802,0.12676 -0.113807,0.0344 -0.141489,0.0166 -0.128206,-0.0825 0.01028,-0.0767 0.0081,-0.0812 -0.03262,-0.0698 -0.118099,0.0332 -0.210653,0.0354 -0.257091,0.006 -0.04443,-0.0279 -0.07609,-0.0227 -0.410383,0.0666 -0.19923,0.0532 -0.391503,0.11237 -0.427272,0.13142 -0.03577,0.0191 -0.07892,0.0558 -0.09589,0.0817 -0.01697,0.0259 -0.0676,0.18502 -0.112513,0.3536 -0.08233,0.30902 -0.122967,0.40797 -0.175902,0.42828 -0.01587,0.006 -0.229682,0.0162 -0.475136,0.0225 -0.520135,0.0133 -0.503142,0.0194 -0.50626,-0.18177 -10e-4,-0.0678 -0.01223,-0.1425 -0.02484,-0.16606 -0.01261,-0.0236 -0.0233,-0.0777 -0.02375,-0.12023 -0.0017,-0.16212 -0.01246,-0.28044 -0.02765,-0.30502 -0.0087,-0.014 -0.01977,-0.0772 -0.02466,-0.14043 -0.0049,-0.0632 -0.01373,-0.16019 -0.01965,-0.21553 -0.0059,-0.0554 -0.01351,-0.14138 -0.01686,-0.19119 -0.0034,-0.0498 -0.01273,-0.10867 -0.02085,-0.1308 -0.0285,-0.0778 -0.02973,-0.0913 -0.01246,-0.13673 0.01204,-0.0317 0.0084,-0.058 -0.01189,-0.0854 -0.02032,-0.0274 -0.02554,-0.0652 -0.01702,-0.12328 0.0076,-0.0518 0.0039,-0.0889 -0.0097,-0.0973 -0.0121,-0.007 -0.02196,-0.0558 -0.02191,-0.10744 1.71e-4,-0.16411 -0.01433,-0.3135 -0.03578,-0.36913 -0.01143,-0.0297 -0.01573,-0.0851 -0.0095,-0.12322 0.0067,-0.041 0.0021,-0.0749 -0.0111,-0.0831 -0.03209,-0.0198 -0.02855,-0.24284 0.0043,-0.2701 0.01782,-0.0148 0.502265,-0.0345 1.464039,-0.0595 1.253497,-0.0326 1.440484,-0.0336 1.46143,-0.008 0.02057,0.0249 0.128284,0.027 0.749629,0.0142 l 0.725609,-0.0149 2.51e-4,-0.0528 c 1.83e-4,-0.0386 0.02043,-0.066 0.07547,-0.10204 0.04137,-0.0271 0.205338,-0.1335 0.364375,-0.23646 l 0.289158,-0.18721 h 0.138482 c 0.125066,0 0.138483,0.004 0.138483,0.0402 0,0.0313 0.01342,0.0403 0.06037,0.0403 0.04696,0 0.06037,-0.009 0.06037,-0.0403 0,-0.0268 0.01342,-0.0402 0.04025,-0.0402 0.02596,0 0.04025,-0.0134 0.04025,-0.0378 0,-0.0208 0.01358,-0.0491 0.03019,-0.0628 0.0233,-0.0193 0.03019,-0.0729 0.03019,-0.23452 0,-0.1735 0.0055,-0.2116 0.03222,-0.22184 0.04096,-0.0157 0.0677,0.0262 0.0681,0.10676 1.6e-4,0.0346 0.01467,0.0749 0.03222,0.0894 0.01755,0.0146 0.04549,0.0604 0.0621,0.10193 0.02486,0.0622 0.04143,0.0765 0.09387,0.0816 0.05938,0.006 0.06409,0.012 0.06987,0.0917 0.0034,0.047 0.01367,0.0855 0.02281,0.0855 0.0091,0 0.02136,0.0181 0.02715,0.0402 0.007,0.0266 0.02745,0.0403 0.06037,0.0403 0.03292,0 0.05342,-0.0137 0.06037,-0.0403 0.01411,-0.0539 0.09498,-0.0539 0.109083,0 0.01442,0.0552 0.106321,0.0552 0.120746,0 0.01465,-0.056 0.106452,-0.056 0.106452,0 0,0.0299 0.01342,0.0403 0.0522,0.0403 0.03527,0 0.05561,-0.0131 0.06272,-0.0403 0.0068,-0.026 0.02745,-0.0402 0.05849,-0.0402 0.03455,0 0.04796,0.0112 0.04796,0.0402 0,0.0313 0.01342,0.0403 0.06037,0.0403 0.04696,0 0.06037,-0.009 0.06037,-0.0403 0,-0.0295 0.01342,-0.0402 0.05031,-0.0402 0.03689,0 0.05031,0.0107 0.05031,0.0402 0,0.0313 0.01342,0.0403 0.06037,0.0403 0.04696,0 0.06037,-0.009 0.06037,-0.0403 0,-0.0295 0.01342,-0.0402 0.05031,-0.0402 0.03689,0 0.05031,0.0107 0.05031,0.0402 0,0.0313 0.01342,0.0403 0.06037,0.0403 0.04696,0 0.06037,-0.009 0.06037,-0.0403 0,-0.0295 0.01342,-0.0402 0.05031,-0.0402 0.03689,0 0.05031,0.0107 0.05031,0.0402 0,0.0313 0.01342,0.0403 0.06037,0.0403 0.04696,0 0.06037,-0.009 0.06037,-0.0403 0,-0.0295 0.01342,-0.0402 0.05031,-0.0402 0.03689,0 0.05031,0.0107 0.05031,0.0402 0,0.0313 0.01342,0.0403 0.06037,0.0403 0.04696,0 0.06037,-0.009 0.06037,-0.0403 0,-0.0295 0.01342,-0.0402 0.05031,-0.0402 0.0369,0 0.05031,0.0107 0.05031,0.0402 0,0.0313 0.01342,0.0403 0.06037,0.0403 0.03915,0 0.06037,-0.0102 0.06037,-0.029 0,-0.016 0.0082,-0.0341 0.01831,-0.0403 0.0281,-0.0174 0.08231,0.01 0.08231,0.0413 0,0.0177 0.02218,0.028 0.06037,0.028 0.04025,0 0.06037,-0.0101 0.06037,-0.0302 0,-0.0188 0.01901,-0.0302 0.05031,-0.0302 0.0313,0 0.05031,0.0114 0.05031,0.0302 0,0.0409 0.11789,0.0409 0.133592,0 0.01499,-0.0391 0.08006,-0.0391 0.09505,0 0.0068,0.0176 0.03693,0.0302 0.07259,0.0302 0.04081,0 0.061,-0.01 0.061,-0.0302 0,-0.0393 0.0727,-0.0393 0.08778,0 0.0157,0.0409 0.133592,0.0409 0.133592,0 0,-0.0168 0.01789,-0.0302 0.04025,-0.0302 0.02236,0 0.04025,0.0134 0.04025,0.0302 0,0.0211 0.02124,0.0302 0.07044,0.0302 0.04919,0 0.07044,-0.009 0.07044,-0.0302 0,-0.0188 0.01901,-0.0302 0.05031,-0.0302 0.03131,0 0.05031,0.0114 0.05031,0.0302 0,0.0201 0.02012,0.0302 0.06037,0.0302 0.04025,0 0.06037,-0.0101 0.06037,-0.0302 0,-0.0188 0.01901,-0.0302 0.05031,-0.0302 0.0369,0 0.05031,0.0107 0.05031,0.0403 0,0.0313 0.01342,0.0403 0.06037,0.0403 0.04696,0 0.06037,-0.009 0.06037,-0.0403 0,-0.0295 0.01342,-0.0403 0.05031,-0.0403 0.03131,0 0.05031,0.0114 0.05031,0.0302 0,0.0201 0.02012,0.0302 0.06037,0.0302 0.04025,0 0.06037,-0.0101 0.06037,-0.0302 0,-0.0188 0.01901,-0.0302 0.05031,-0.0302 0.0313,0 0.05031,0.0114 0.05031,0.0302 0,0.0201 0.02012,0.0302 0.06037,0.0302 0.04025,0 0.06037,-0.0101 0.06037,-0.0302 0,-0.0188 0.01901,-0.0302 0.05031,-0.0302 0.0313,0 0.05031,0.0114 0.05031,0.0302 0,0.0201 0.02013,0.0302 0.06037,0.0302 0.04025,0 0.06037,-0.0101 0.06037,-0.0302 0,-0.0188 0.01901,-0.0302 0.05031,-0.0302 0.0313,0 0.05031,0.0114 0.05031,0.0302 0,0.0201 0.02012,0.0302 0.06037,0.0302 0.04025,0 0.06037,-0.0101 0.06037,-0.0302 0,-0.0188 0.01901,-0.0302 0.05031,-0.0302 0.03131,0 0.05031,0.0114 0.05031,0.0302 0,0.0201 0.02012,0.0302 0.06037,0.0302 0.04025,0 0.06037,-0.0101 0.06037,-0.0302 0,-0.0188 0.01901,-0.0302 0.05031,-0.0302 0.0313,0 0.05031,0.0114 0.05031,0.0302 0,0.0201 0.02012,0.0302 0.06037,0.0302 0.04025,0 0.06037,-0.0101 0.06037,-0.0302 0,-0.0188 0.01901,-0.0302 0.05031,-0.0302 0.0313,0 0.05031,0.0114 0.05031,0.0302 0,0.0202 0.02019,0.0302 0.061,0.0302 0.03566,0 0.06582,-0.0125 0.07259,-0.0302 0.0064,-0.0166 0.02873,-0.0302 0.04968,-0.0302 0.02095,0 0.0381,0.0136 0.0381,0.0302 0,0.0409 0.11789,0.0409 0.133592,0 0.01507,-0.0393 0.08777,-0.0393 0.08777,0 0,0.0211 0.02124,0.0302 0.07044,0.0302 0.04919,0 0.07043,-0.009 0.07043,-0.0302 0,-0.0188 0.01901,-0.0302 0.05031,-0.0302 0.0313,0 0.05031,0.0114 0.05031,0.0302 0,0.0201 0.02013,0.0302 0.06037,0.0302 0.04025,0 0.06037,-0.0101 0.06037,-0.0302 0,-0.0188 0.01901,-0.0302 0.05031,-0.0302 0.0313,0 0.05031,0.0114 0.05031,0.0302 0,0.0201 0.02012,0.0302 0.06037,0.0302 0.04025,0 0.06037,-0.0101 0.06037,-0.0302 0,-0.0188 0.01901,-0.0302 0.05031,-0.0302 0.0313,0 0.05031,0.0114 0.05031,0.0302 0,0.0201 0.02012,0.0302 0.06037,0.0302 0.04025,0 0.06037,-0.0101 0.06037,-0.0302 0,-0.0188 0.01901,-0.0302 0.05031,-0.0302 0.03131,0 0.05031,0.0114 0.05031,0.0302 0,0.0201 0.02012,0.0302 0.06037,0.0302 0.04025,0 0.06037,-0.0101 0.06037,-0.0302 0,-0.0188 0.01901,-0.0302 0.05031,-0.0302 0.03131,0 0.05031,0.0114 0.05031,0.0302 0,0.0201 0.02012,0.0302 0.06037,0.0302 0.04025,0 0.06037,-0.0101 0.06037,-0.0302 0,-0.0188 0.01901,-0.0302 0.05031,-0.0302 0.0313,0 0.05031,0.0114 0.05031,0.0302 0,0.0201 0.02012,0.0302 0.06037,0.0302 0.04025,0 0.06037,-0.0101 0.06037,-0.0302 0,-0.0241 0.03019,-0.0302 0.150932,-0.0302 h 0.150932 v 0.0906 c 0,0.0671 0.0078,0.0906 0.03019,0.0906 0.01673,0 0.03019,-0.0179 0.03019,-0.0401 0,-0.022 0.01811,-0.0514 0.04025,-0.0652 0.02214,-0.0138 0.04025,-0.0365 0.04025,-0.0505 0,-0.0183 0.04497,-0.0253 0.160994,-0.0253 0.129689,0 0.160994,0.006 0.160994,0.0302 0,0.0201 0.02012,0.0302 0.06037,0.0302 0.04025,0 0.06037,-0.0101 0.06037,-0.0302 0,-0.0188 0.01901,-0.0302 0.05031,-0.0302 0.03131,0 0.05031,0.0114 0.05031,0.0302 0,0.0201 0.02012,0.0302 0.06037,0.0302 0.04025,0 0.06037,-0.0101 0.06037,-0.0302 0,-0.0201 0.02012,-0.0302 0.06037,-0.0302 0.04025,0 0.06037,0.0101 0.06037,0.0302 0,0.0188 0.01901,0.0302 0.05031,0.0302 0.03131,0 0.05031,-0.0114 0.05031,-0.0302 0,-0.0201 0.02012,-0.0302 0.06037,-0.0302 0.04025,0 0.06037,0.0101 0.06037,0.0302 0,0.0188 0.01901,0.0302 0.05031,0.0302 0.03131,0 0.05031,-0.0114 0.05031,-0.0302 0,-0.0201 0.02012,-0.0302 0.06037,-0.0302 0.04025,0 0.06037,0.0101 0.06037,0.0302 0,0.0399 0.09258,0.0399 0.107899,0 0.0064,-0.0166 0.03451,-0.0302 0.06253,-0.0302 0.04743,0 0.05094,-0.007 0.05094,-0.0966 0,-0.0531 0.01087,-0.10746 0.02415,-0.12074 0.01581,-0.0158 0.09946,-0.0242 0.242306,-0.0242 0.182909,0 0.226967,0.006 0.272684,0.0387 0.05173,0.0367 0.106198,0.039 1.06074,0.0453 l 1.006213,0.007 0.07395,-0.0566 c 0.05969,-0.0457 0.09074,-0.0554 0.160994,-0.0503 l 0.08705,0.006 0.0059,0.15596 c 0.0045,0.12053 0.01254,0.15596 0.03522,0.15596 0.01614,0 0.02934,-0.0136 0.02934,-0.0302 0,-0.0201 0.02012,-0.0302 0.06037,-0.0302 0.04025,0 0.06037,0.0101 0.06037,0.0302 0,0.0188 0.01901,0.0302 0.05031,0.0302 0.03131,0 0.05031,-0.0114 0.05031,-0.0302 0,-0.0201 0.02013,-0.0302 0.06037,-0.0302 0.04025,0 0.06037,0.0101 0.06037,0.0302 0,0.0166 0.01358,0.0302 0.03019,0.0302 0.02164,0 0.03019,-0.0221 0.03019,-0.078 0,-0.0448 0.01285,-0.0887 0.03019,-0.10309 0.0166,-0.0138 0.03019,-0.0523 0.03019,-0.0857 0,-0.0847 0.04341,-0.32308 0.06287,-0.34524 0.02057,-0.0234 0.05787,0.0731 0.05787,0.14978 0,0.0369 0.01417,0.0659 0.03861,0.079 0.02124,0.0114 0.0446,0.0479 0.05191,0.0812 0.01151,0.0524 0.02223,0.0605 0.07979,0.0605 0.05194,0 0.06914,0.01 0.07862,0.0453 0.0067,0.0249 0.01226,0.0657 0.01241,0.0906 2.85e-4,0.0428 0.0084,0.0453 0.146175,0.0454 l 0.145901,1.7e-4 0.255983,0.23318 c 0.203297,0.18518 0.27838,0.26902 0.364806,0.40736 0.05985,0.0958 0.130307,0.21261 0.156565,0.25956 l 0.04774,0.0854 0.981057,1.7e-4 0.981058,1.7e-4 v -0.0704 -0.0704 h 0.267652 c 0.282152,0 0.315951,0.01 0.315951,0.0923 0,0.0437 0.0034,0.0441 0.488013,0.0568 0.268408,0.007 0.977033,0.0214 1.574723,0.0321 0.597691,0.0106 1.283677,0.0249 1.524417,0.0318 0.37206,0.0107 0.4377,0.008 0.4377,-0.0162 0,-0.0158 0.0217,-0.0492 0.0482,-0.0741 l 0.0482,-0.0453 0.88532,0.0217 c 0.48693,0.0119 0.91577,0.0275 0.95299,0.0345 0.0372,0.007 0.079,0.0217 0.0928,0.0326 0.0157,0.0123 0.0252,0.071 0.0252,0.15601 0,0.14173 -0.0119,0.16068 -0.10083,0.16068 -0.0457,0 -0.10908,0.0599 -0.0866,0.0819 0.009,0.009 0.0519,0.0189 0.0953,0.0224 0.0434,0.004 0.0818,0.0154 0.0852,0.0265 0.0133,0.0429 -0.0332,0.0769 -0.12686,0.0925 -0.0537,0.009 -0.48575,0.0265 -0.96008,0.0389 l -0.86244,0.0226 -0.0482,-0.0453 c -0.0265,-0.0249 -0.0482,-0.0573 -0.0482,-0.072 0,-0.0327 0.12952,-0.033 -1.801123,0.004 -0.852262,0.0161 -1.696726,0.0295 -1.876587,0.0297 -0.313461,4e-4 -0.327019,0.002 -0.327019,0.0407 0,0.0221 0.01021,0.0403 0.02268,0.0403 0.01509,0 0.01945,0.0337 0.01302,0.10062 -0.0073,0.0759 -0.003,0.10063 0.01757,0.10063 0.01563,0 0.02723,0.0214 0.02723,0.0503 0,0.0469 0.0067,0.0503 0.100622,0.0503 h 0.100621 v 0.15093 c 0,0.13751 -0.0036,0.15093 -0.04025,0.15093 -0.031,0 -0.04025,0.0134 -0.04025,0.0584 0,0.0456 -0.01571,0.0677 -0.07159,0.10062 -0.06464,0.0381 -0.102199,0.0422 -0.387392,0.0417 l -0.315806,-5.7e-4 -0.0587,-0.0598 -0.0587,-0.0598 H 95.74259 c -0.342309,0 -0.365609,-0.002 -0.389239,-0.0403 -0.02046,-0.0328 -0.04664,-0.0402 -0.140681,-0.0398 -0.08084,2.8e-4 -0.130023,0.0116 -0.163749,0.0375 -0.04359,0.0335 -0.0468,0.0465 -0.03356,0.13539 0.0081,0.0541 0.02085,0.1603 0.02842,0.23604 0.0097,0.0973 0.02428,0.14539 0.04957,0.16388 0.02546,0.0186 0.0321,0.0409 0.023,0.0772 -0.007,0.028 -0.02992,0.0665 -0.05086,0.0854 -0.03101,0.0281 -0.06148,0.0322 -0.164216,0.0221 -0.06938,-0.007 -0.151048,-0.0182 -0.181486,-0.0252 -0.04008,-0.009 -0.05534,-0.005 -0.05534,0.0152 0,0.0154 -0.01821,0.0437 -0.04048,0.0627 -0.0439,0.0376 -0.133168,0.0468 -0.143995,0.0149 -0.0043,-0.0128 -0.752795,-0.0217 -2.105543,-0.0252 -2.084553,-0.005 -2.098899,-0.005 -2.108055,0.0349 -0.0051,0.0221 -0.01147,0.1308 -0.01421,0.24149 l -0.005,0.20124 -0.07805,0.006 c -0.04293,0.004 -0.103426,-0.004 -0.134435,-0.017 -0.03101,-0.0129 -0.111347,-0.0806 -0.178529,-0.15056 -0.116969,-0.12181 -0.12215,-0.13158 -0.12215,-0.2302 0,-0.0648 -0.0093,-0.10591 -0.02515,-0.11086 -0.01384,-0.004 -0.06109,-0.0139 -0.105,-0.0212 -0.06079,-0.0102 -0.106412,-0.04 -0.191181,-0.12483 -0.06123,-0.0613 -0.140476,-0.12392 -0.176093,-0.13914 -0.05236,-0.0224 -0.280591,-0.0277 -1.192362,-0.0277 h -1.127604 v 0.0525 c 0,0.0371 0.03024,0.0808 0.103531,0.14966 l 0.103532,0.0972 -0.01071,0.1181 -0.01071,0.11809 0.09638,0.0342 c 0.101908,0.0362 0.221077,0.15035 0.221077,0.21177 0,0.0195 0.0079,0.0441 0.01765,0.0546 0.0363,0.0393 0.08297,0.22684 0.104925,0.4216 0.02509,0.22259 0.01426,0.50287 -0.03352,0.8672 -0.02164,0.165 -0.02469,0.24097 -0.0099,0.24591 0.01414,0.005 0.02144,0.13386 0.02144,0.37934 v 0.3722 l -0.08235,0.0768 c -0.05546,0.0517 -0.122819,0.0887 -0.206273,0.11342 -0.107314,0.0317 -0.202137,0.0366 -0.707525,0.0367 -0.320982,5e-5 -0.728499,-0.0113 -0.905592,-0.0251 -0.280381,-0.022 -0.33499,-0.0213 -0.422609,0.005 -0.128311,0.0391 -0.179263,0.0378 -0.295105,-0.007 z m -2.559252,-2.27442 c 0.08651,-0.0528 0.208041,-0.27221 0.207942,-0.37552 -1.6e-4,-0.16197 -0.135715,-0.28965 -0.30767,-0.28979 -0.05304,-4e-5 -0.107377,0.009 -0.120745,0.019 -0.145624,0.11452 -0.192478,0.16953 -0.212655,0.24966 -0.02355,0.0935 -0.0079,0.18279 0.04656,0.26594 0.01864,0.0284 0.02295,0.0516 0.01098,0.0589 -0.02661,0.0165 -0.137248,-0.16148 -0.153161,-0.2463 -0.007,-0.0375 -0.0067,-0.11059 7.91e-4,-0.16247 0.02706,-0.18809 0.03456,-0.17416 -0.09739,-0.18096 -0.06542,-0.003 -0.143599,0.004 -0.173723,0.0165 -0.03012,0.0125 -0.08074,0.0498 -0.112478,0.0829 -0.05301,0.0553 -0.05825,0.0744 -0.06437,0.23499 -0.0037,0.0961 0.0029,0.1997 0.01459,0.23013 0.01169,0.0304 0.05091,0.0734 0.08716,0.0955 0.0596,0.0363 0.10153,0.0402 0.438205,0.0402 0.332304,0 0.379137,-0.004 0.435959,-0.0388 z m 1.151272,-0.95847 c 0.02305,-0.0293 0.03538,-0.0662 0.02852,-0.0855 -0.03429,-0.0965 -0.10729,-0.11901 -0.180736,-0.0558 -0.04205,0.0362 -0.0498,0.0561 -0.03883,0.0998 0.01249,0.0498 0.06607,0.0886 0.126761,0.0919 0.01303,7e-4 0.04196,-0.0219 0.06428,-0.0503 z m 6.241105,-0.14092 c 0,-0.11003 -9.7e-4,-0.11191 -0.05471,-0.10565 -0.03405,0.004 -0.06589,0.0264 -0.08433,0.0594 -0.02653,0.0475 -0.02603,0.0585 0.0049,0.10565 0.02183,0.0333 0.05278,0.0526 0.08433,0.0526 0.04708,0 0.04985,-0.006 0.04985,-0.11202 z m -14.235891,0.0637 c 0.01022,-0.0266 -0.103337,-1.04012 -0.12255,-1.09373 -0.005,-0.0138 -0.02741,-0.0252 -0.0499,-0.0252 -0.02905,0 -0.04081,0.0131 -0.04064,0.0453 1.14e-4,0.0249 0.02671,0.27004 0.05906,0.54475 0.03235,0.27471 0.06958,0.51242 0.08272,0.52826 0.03029,0.0365 0.05743,0.0367 0.0713,6e-4 z m 19.357147,-0.005 c 0.01798,-0.018 0.02995,-0.0519 0.02659,-0.0755 -0.0053,-0.0371 -0.01945,-0.0428 -0.106723,-0.0428 -0.08997,0 -0.101324,0.005 -0.107245,0.0467 -0.0036,0.0257 -0.0017,0.0597 0.0044,0.0755 0.01519,0.0396 0.142165,0.0368 0.182975,-0.004 z m -4.537653,-0.008 c 0,-0.0133 0.707703,-0.0201 2.08286,-0.0201 1.274824,0 2.082861,-0.007 2.082861,-0.0188 0,-0.0103 0.01811,-0.0245 0.04025,-0.0316 0.03227,-0.0102 0.04025,-0.0304 0.04025,-0.10197 0,-0.0491 -0.0068,-0.0889 -0.01509,-0.0886 -0.0083,3.5e-4 -0.03267,0.0139 -0.05416,0.0302 -0.02148,0.0163 -0.06064,0.0296 -0.08701,0.0296 -0.02637,0 -0.11539,0.0226 -0.19782,0.0503 l -0.149873,0.0503 H 92.1485 c -1.277896,0 -1.91138,0.007 -1.91138,0.0204 0,0.0285 0.04671,0.10034 0.06521,0.10034 0.0084,0 0.01528,-0.009 0.01528,-0.0201 z m 4.558144,-0.35218 c 0,-0.0586 -0.003,-0.0605 -0.105652,-0.0665 -0.104449,-0.006 -0.105653,-0.005 -0.105653,0.052 0,0.0319 0.0065,0.0645 0.01435,0.0724 0.0079,0.008 0.05543,0.0117 0.105652,0.008 0.08671,-0.006 0.09131,-0.009 0.09131,-0.0663 z m -19.091719,-0.11398 c 0.0047,-0.0408 -0.0046,-0.057 -0.03871,-0.0679 -0.03161,-0.01 -0.05259,-0.004 -0.07082,0.0212 -0.03603,0.0493 5.93e-4,0.11494 0.05942,0.10656 0.03057,-0.004 0.0458,-0.0225 0.05012,-0.0599 z m 0.329846,-0.006 c 0.13006,-0.0249 0.165111,-0.0254 0.218365,-0.003 0.07848,0.033 0.232928,0.009 0.286541,-0.0447 0.02115,-0.0211 0.0438,-0.0867 0.05377,-0.15568 0.01962,-0.13566 0.04598,-0.21207 0.09929,-0.2878 0.06294,-0.0894 0.06901,-0.13678 0.02337,-0.18241 -0.04008,-0.0401 -0.05529,-0.0409 -0.559477,-0.0284 -0.378839,0.009 -0.53308,0.0202 -0.573283,0.0405 -0.03025,0.0152 -0.0696,0.056 -0.08744,0.0905 -0.02822,0.0546 -0.02949,0.0878 -0.0097,0.25523 0.01249,0.10587 0.02711,0.1969 0.03249,0.20228 0.0054,0.005 0.0481,0.008 0.09493,0.006 0.04683,-0.002 0.09441,0.003 0.10573,0.0113 0.01132,0.008 0.03644,0.0401 0.05581,0.0705 0.01937,0.0304 0.05086,0.0553 0.06997,0.0553 0.01911,0 0.104472,-0.0133 0.189682,-0.0297 z m 19.239464,-0.33258 c 0.02357,-0.0377 0.04711,-0.0403 0.377498,-0.0406 0.333353,-2.8e-4 0.448365,-0.0169 0.388083,-0.0559 -0.02441,-0.0158 -0.03501,-0.0631 -0.02884,-0.12853 0.0018,-0.0186 0.02356,-0.0367 0.04847,-0.0403 0.0249,-0.004 0.04528,-0.02 0.04528,-0.0366 0,-0.0245 -0.03982,-0.0314 -0.211305,-0.0368 -0.116217,-0.004 -0.474419,-3.4e-4 -0.796003,0.007 l -0.584698,0.0138 -0.02575,0.0582 c -0.02105,0.0476 -0.02087,0.0692 9.64e-4,0.11854 l 0.02672,0.0604 h 0.191859 c 0.156486,0 0.198061,0.006 0.225504,0.0352 0.07306,0.0765 0.08995,0.0836 0.201524,0.0845 0.09441,8.2e-4 0.120143,-0.006 0.140681,-0.0392 z m -5.57909,-0.14049 c 0,-0.0109 -0.02038,-0.0247 -0.04528,-0.0308 -0.0249,-0.006 -0.289038,-0.009 -0.586966,-0.005 -0.411373,0.004 -0.543702,0.0117 -0.550063,0.0308 -0.0066,0.0198 0.119641,0.0251 0.586967,0.0251 0.37577,0 0.595342,-0.007 0.595342,-0.0197 z m 12.406608,-0.46324 V 438.091 h -0.24149 -0.2415 l -0.006,0.16937 c -0.003,0.0932 -10e-4,0.18174 0.005,0.19686 0.008,0.0215 0.0618,0.0263 0.24739,0.0218 l 0.23685,-0.006 z m 0.30762,-0.005 0.006,-0.19621 h -0.069 c -0.0444,0 -0.0734,0.0114 -0.0812,0.0318 -0.0171,0.0446 -0.0153,0.34072 0.002,0.35819 0.008,0.008 0.0419,0.0117 0.0755,0.008 l 0.0611,-0.006 z m -24.481887,0.0253 c 0.170961,-1.2e-4 0.276709,-0.008 0.276709,-0.0203 0,-0.0111 -0.03622,-0.0201 -0.0805,-0.0201 -0.07245,0 -0.0805,-0.005 -0.0805,-0.0503 v -0.0503 l -0.296833,2.9e-4 c -0.163258,1.7e-4 -0.317208,0.006 -0.342112,0.0124 -0.03287,0.009 -0.04528,0.0271 -0.04528,0.0668 0,0.0301 0.0068,0.0617 0.01509,0.0703 0.0083,0.009 0.07396,0.0102 0.145901,0.003 0.07194,-0.007 0.255327,-0.0122 0.407517,-0.0122 z m 12.03606,-0.66536 c 0.08521,-0.061 0.11396,-0.094 0.11396,-0.1308 v -0.0492 h -0.231429 -0.231429 v 0.13081 0.13081 h 0.117469 c 0.105162,0 0.12941,-0.009 0.231429,-0.0816 z m 0.998061,0.0622 c 0.0452,-0.0242 0.07302,-0.1742 0.03975,-0.21429 -0.01752,-0.0211 -0.08467,-0.0279 -0.274584,-0.0279 h -0.251399 l -0.11785,0.0855 c -0.201589,0.1463 -0.159657,0.17465 0.259631,0.17548 0.16952,3.4e-4 0.324524,-0.008 0.344454,-0.0188 z m 1.921795,-0.0122 c 0.01739,-0.0174 0.03162,-0.0342 0.03162,-0.0373 0,-0.003 -0.05357,-0.0478 -0.119046,-0.0992 l -0.119046,-0.0935 h -0.704402 c -0.387422,0 -0.718728,0.005 -0.736235,0.0122 -0.02277,0.009 -0.03183,0.0391 -0.03183,0.10666 0,0.0519 0.01087,0.10531 0.02415,0.11859 0.01797,0.018 0.22865,0.0242 0.823657,0.0242 0.699993,0 0.803445,-0.004 0.831132,-0.0316 z m 0.75742,0.0108 c 0.02141,-0.0115 0.03893,-0.0291 0.03893,-0.0392 0,-0.0101 -0.05064,-0.0596 -0.112528,-0.10997 l -0.112529,-0.0917 h -0.175249 c -0.161645,0 -0.223546,0.0173 -0.223546,0.0624 0,0.008 0.05603,0.0558 0.124524,0.10665 0.121584,0.0904 0.128028,0.0925 0.273,0.0925 0.08166,0 0.165993,-0.009 0.187402,-0.0208 z m -1.3094,-0.45209 c 0.041,-0.0494 -0.01043,-0.0906 -0.113147,-0.0906 -0.08447,0 -0.08809,0.002 -0.08809,0.0604 0,0.0579 0.0036,0.0604 0.08809,0.0604 0.05376,0 0.09786,-0.0118 0.113147,-0.0302 z m -11.450701,-0.0403 c 0,-0.0364 -0.01081,-0.0503 -0.03906,-0.0503 -0.02148,0 -0.04493,0.009 -0.05209,0.0211 -0.02156,0.0349 0.0067,0.0795 0.05027,0.0795 0.03019,0 0.04088,-0.0132 0.04088,-0.0503 z m 0.269589,0.0183 c 0.01636,-0.0426 -0.0019,-0.0686 -0.04822,-0.0686 -0.04524,0 -0.06819,0.0311 -0.05272,0.0714 0.01505,0.0392 0.08558,0.0373 0.100948,-0.003 z m 1.497714,-0.0133 c -0.0041,-0.0291 -0.02261,-0.0476 -0.05171,-0.0517 -0.03335,-0.005 -0.04528,0.004 -0.04528,0.0319 0,0.0484 0.01675,0.0651 0.06513,0.0651 0.0282,0 0.0366,-0.0119 0.03186,-0.0453 z m 0.265247,-0.005 c 0,-0.0403 -0.01006,-0.0503 -0.05031,-0.0503 -0.03537,0 -0.05031,0.011 -0.05031,0.0369 0,0.0467 0.01707,0.0637 0.06373,0.0637 0.02594,0 0.0369,-0.0149 0.0369,-0.0503 z"
       id="path3866" />
  </g>
</svg>
