<?xml version="1.0" encoding="UTF-8" standalone="no"?>
<svg
   version="1.1"
   x="0px"
   y="0px"
   width="78.054474"
   height="31.999914"
   viewBox="0 0 78.054474 31.999914"
   enable-background="new 0 0 68.375 32"
   xml:space="preserve"
   id="svg230"
   xmlns="http://www.w3.org/2000/svg"
   xmlns:svg="http://www.w3.org/2000/svg"
   xmlns:rdf="http://www.w3.org/1999/02/22-rdf-syntax-ns#"
   xmlns:cc="http://creativecommons.org/ns#"
   xmlns:dc="http://purl.org/dc/elements/1.1/"><metadata
   id="metadata236"><rdf:RDF><cc:Work
       rdf:about=""><dc:format>image/svg+xml</dc:format><dc:type
         rdf:resource="http://purl.org/dc/dcmitype/StillImage" /></cc:Work></rdf:RDF></metadata><defs
   id="defs234" />

<g
   id="guides"
   transform="translate(4.890209,0.1425634)">
</g>
<path
   style="fill:#ffffff;fill-opacity:1;stroke-width:0.130091"
   d="m 51.59006,31.798187 c -0.261623,-0.261623 -0.258734,-0.324233 0.07197,-1.559833 0.544261,-2.033463 0.628853,-2.679841 0.407555,-3.114187 -0.109366,-0.214652 -0.278726,-0.43709 -0.376358,-0.494308 -0.09764,-0.05721 -0.177514,-0.214621 -0.177514,-0.349783 0,-0.335703 -0.833548,-0.452051 -2.040426,-0.284804 -1.084326,0.150265 -1.839096,0.590545 -3.163253,1.845223 -2.188083,2.073277 -4.883558,3.438345 -7.446771,3.77127 -0.519288,0.06744 -2.558877,0.124442 -4.532418,0.126651 l -3.588257,0.004 -0.314502,-0.484197 C 30.099742,30.749636 29.821064,30.64001 26.08274,29.548066 25.581886,29.40177 24.176894,28.98452 22.960534,28.620845 20.413617,27.859352 19.549072,27.793894 19.317958,28.345056 l -0.130092,0.310246 -2.720384,-0.08259 c -1.496212,-0.04542 -5.780423,-0.08258 -9.5204702,-0.08258 -7.88038183,0 -7.07951903,0.19534 -6.76051693,-1.648966 0.4437684,-2.565641 0.5607955,-11.990193 0.1857478,-14.958854 -0.096864,-0.766724 -0.093747,-1.137316 0.011212,-1.333443 l 0.1453632,-0.271613 11.02071813,0.0042 c 9.484236,0.0036 11.055923,0.03077 11.273242,0.195137 0.217249,0.16432 1.736542,0.191001 10.875687,0.191001 h 10.623161 l 0.363819,-0.8781203 c 0.617792,-1.4911425 0.738561,-1.7798887 0.856982,-2.0489716 0.06298,-0.1431017 0.399098,-0.9334104 0.746933,-1.7562423 0.562253,-1.3300501 0.670776,-1.500625 0.978013,-1.5372213 l 0.345585,-0.04116 v -1.227233 c 0,-0.6749774 -0.05445,-1.2272318 -0.121011,-1.2272318 -0.07462,0 -0.07462,-0.1617566 0,-0.4219405 0.06655,-0.232067 0.121011,-0.6125861 0.121011,-0.8455979 0,-0.5378611 0.224646,-0.54573 0.723218,-0.025333 0.370841,0.3870751 0.380635,0.4311663 0.346765,1.5611033 l -0.03486,1.1627813 h 0.400031 c 0.606202,0 1.296762,0.6061747 1.296768,1.1383047 2e-6,0.2890906 0.06171,0.4227987 0.195141,0.4227987 0.108407,0 0.195138,-0.1156376 0.195138,-0.2601841 0,-0.1908022 0.08672,-0.2601841 0.325231,-0.2601841 0.238501,0 0.325229,0.069385 0.325229,0.2601841 0,0.2168203 0.08672,0.2601841 0.520368,0.2601841 0.433639,0 0.520368,-0.043367 0.520368,-0.2601841 0,-0.1734564 0.08672,-0.2601841 0.260184,-0.2601841 0.173456,0 0.260184,0.086723 0.260184,0.2601841 0,0.3778572 0.849526,0.3778572 0.948338,0 0.09269,-0.3544582 0.612766,-0.3544582 0.612766,0 0,0.2168203 0.08672,0.2601841 0.520368,0.2601841 0.433639,0 0.520368,-0.043367 0.520368,-0.2601841 0,-0.3544582 0.520072,-0.3544582 0.612765,0 0.08535,0.3263539 0.948338,0.385547 0.948338,0.065051 0,-0.1084067 0.115638,-0.1951378 0.260184,-0.1951378 0.144547,0 0.260185,0.086723 0.260185,0.1951378 0,0.1362867 0.137319,0.1951377 0.455321,0.1951377 0.318002,0 0.455322,-0.058856 0.455322,-0.1951377 0,-0.1300915 0.130092,-0.1951378 0.390276,-0.1951378 0.260184,0 0.390275,0.065051 0.390275,0.1951378 0,0.1362867 0.137321,0.1951377 0.455322,0.1951377 0.318003,0 0.455322,-0.058856 0.455322,-0.1951377 0,-0.1214192 0.122865,-0.1951378 0.325231,-0.1951378 0.202366,0 0.32523,0.07372 0.32523,0.1951378 0,0.1362867 0.137319,0.1951377 0.455322,0.1951377 0.318002,0 0.455322,-0.058856 0.455322,-0.1951377 0,-0.1214192 0.122864,-0.1951378 0.325229,-0.1951378 0.202366,0 0.32523,0.07372 0.32523,0.1951378 0,0.1362867 0.13732,0.1951377 0.455322,0.1951377 0.318002,0 0.455322,-0.058856 0.455322,-0.1951377 0,-0.1214192 0.122864,-0.1951378 0.32523,-0.1951378 0.202366,0 0.32523,0.07372 0.32523,0.1951378 0,0.1362867 0.13732,0.1951377 0.455321,0.1951377 0.318002,0 0.455322,-0.058856 0.455322,-0.1951377 0,-0.1073318 0.08781,-0.1951378 0.195138,-0.1951378 0.205278,0 0.232821,-0.192714 0.197551,-1.3822052 -0.01086,-0.3666836 0.04341,-1.0399099 0.120636,-1.4960573 0.07722,-0.4561475 0.171592,-1.0196186 0.20971,-1.252158 C 65.693099,0.0880343 65.770002,0 66.00758,0 c 0.282344,0 0.304983,0.06334 0.383601,1.0732588 0.04596,0.5902923 0.0839,1.3806012 0.08433,1.7562414 l 7.8e-4,0.6829828 h 0.454219 c 0.31333,0 0.504621,0.080701 0.616707,0.2601841 0.08937,0.1431017 0.237682,0.2601841 0.329586,0.2601841 0.0919,0 0.20222,0.1756237 0.245151,0.3902756 0.04797,0.2398273 0.159549,0.3912326 0.289455,0.3927583 0.208211,0.00243 0.373135,0.327089 1.59985,3.1492407 1.024089,2.3559942 1.046158,2.4511792 1.114785,4.8082072 l 0.0632,2.170835 -0.567714,0.05052 c -0.427098,0.038 -0.350214,0.05615 0.310406,0.07325 0.513838,0.0133 0.878122,-0.03124 0.878122,-0.107366 0,-0.07155 0.175623,-0.130093 0.390275,-0.130093 0.214652,0 0.390276,0.05854 0.390276,0.130093 0,0.07155 0.08781,0.130091 0.195137,0.130091 0.107332,0 0.195139,-0.05854 0.195139,-0.130091 0,-0.158124 0.481096,-0.175102 0.54205,-0.01913 0.02384,0.06103 0.350706,0.150859 0.726347,0.199619 0.583939,0.0758 0.682982,0.0575 0.682982,-0.126137 0,-0.165595 0.06704,-0.191929 0.292708,-0.114972 0.339701,0.115852 0.974313,0.112337 1.750472,-0.0097 0.523489,-0.0823 0.550494,-0.07 0.625246,0.28485 0.04297,0.203978 0.162649,0.734146 0.265954,1.178156 0.103309,0.444007 0.187828,0.992335 0.187828,1.218505 v 0.411218 l -0.87812,-0.08619 c -1.147236,-0.112602 -1.392895,-0.112729 -2.22873,-0.0012 -0.578172,0.07716 -0.720949,0.05628 -0.819539,-0.119889 -0.149536,-0.267201 -0.626831,-0.281061 -0.626831,-0.01819 0,0.218735 -0.331103,0.266037 -0.455321,0.06504 -0.107725,-0.174309 -0.585414,-0.166775 -0.585414,0.0092 0,0.09181 -0.399373,0.125085 -1.171127,0.09756 -1.407953,-0.0502 -1.453948,0.03322 -0.65016,1.179092 0.479126,0.683042 0.520367,0.80963 0.520367,1.597263 0,0.470486 -0.09248,1.375335 -0.205512,2.010775 -0.11303,0.635439 -0.274019,1.594406 -0.357752,2.131035 l -0.152242,0.97569 -0.813074,0.03873 -0.813076,0.03873 v -0.986065 c 0,-1.212568 -0.214752,-1.759712 -0.863789,-2.200745 -0.445009,-0.302395 -0.62161,-0.338082 -1.673004,-0.338082 -1.043037,0 -1.230019,0.03707 -1.659586,0.328961 -0.586492,0.398532 -0.876953,0.922388 -0.87796,1.583435 -0.0018,1.208143 -0.596566,3.276573 -1.15707,4.024256 -0.114475,0.152707 -0.295955,0.409995 -0.403281,0.571751 -0.367702,0.55418 -1.705749,1.750117 -2.381508,2.128579 -1.587138,0.888879 -2.087329,0.984065 -5.187057,0.987081 -2.392864,0.0023 -2.851186,-0.02824 -3.024639,-0.201687 z m -15.733785,-5.59997 c 0.277052,-0.115744 0.932432,-0.408451 1.4564,-0.65046 0.523967,-0.242008 0.974257,-0.440015 1.000645,-0.440015 0.02639,0 0.545179,-0.237375 1.152864,-0.5275 1.674946,-0.799661 2.160008,-1.433873 2.161821,-2.826547 0.0013,-1.005977 -0.718742,-2.229354 -1.470619,-2.4986 -0.554649,-0.198619 -6.650692,-0.178933 -7.035781,0.02272 -0.59607,0.312137 -1.236979,0.913862 -1.719326,1.614207 -0.49272,0.715407 -0.506093,0.764637 -0.504574,1.857365 0.0013,0.923924 0.05527,1.223698 0.305206,1.694689 0.411935,0.776276 1.026807,1.383502 1.71882,1.697444 0.730361,0.331339 2.208769,0.359902 2.934544,0.05669 z m 22.059753,-0.780492 c 1.330154,-0.680628 1.614812,-2.877173 0.50645,-3.90799 -0.256961,-0.238984 -0.864383,-0.815109 -1.349825,-1.280278 -0.84608,-0.810744 -0.909583,-0.845761 -1.533764,-0.845761 -1.062368,0 -2.025575,0.575995 -2.49223,1.490348 -0.225094,0.441043 -0.253619,0.687603 -0.199423,1.723719 0.06285,1.201764 0.06139,1.20906 -0.243861,1.20906 -0.168906,0 -0.307101,0.05854 -0.307101,0.130091 0,0.07587 0.433058,0.130092 1.03899,0.130092 h 1.03899 l 0.178928,0.4228 c 0.246743,0.583037 0.627144,0.888766 1.353064,1.087461 0.673809,0.184434 1.459431,0.122069 2.009782,-0.159542 z m 18.967629,-8.813878 c 0,-0.259314 -0.07965,-0.318783 -0.502966,-0.375563 -0.729385,-0.09783 -1.18823,0.01798 -1.18823,0.299911 0,0.246896 0.263692,0.326716 1.203351,0.364261 0.431894,0.01726 0.487845,-0.01585 0.487845,-0.288609 z m -0.555601,-1.201509 c -0.04323,-0.04323 -0.155434,-0.04785 -0.249343,-0.01029 -0.103783,0.04153 -0.07296,0.07236 0.0786,0.0786 0.137138,0.0057 0.213974,-0.02509 0.170746,-0.06832 z M 64.655011,13.984879 v -0.325231 h -7.805518 c -7.708434,0 -7.805518,0.0032 -7.805518,0.259153 0,0.255503 0.108534,0.25964 7.707948,0.293758 4.239372,0.01904 7.751856,0.04877 7.805519,0.06608 0.05367,0.01731 0.09757,-0.11488 0.09757,-0.293758 z m 1.35859,-2.045373 c 0.258516,-0.369085 0.256345,-0.678602 -0.0076,-1.081413 -0.333519,-0.509013 -0.440362,-0.38165 -0.440362,0.524945 0,0.89106 0.114209,1.03294 0.447947,0.556468 z m -1.320896,-1.141882 c -0.04864,-0.186011 -0.177447,-0.260183 -0.451822,-0.260183 -0.211081,0 -0.570417,-0.142353 -0.798526,-0.31634 C 63.005723,9.8880642 61.163243,9.5354541 57.304815,9.0465098 56.374657,8.928639 54.803983,8.7182765 53.814427,8.5790377 52.824872,8.4397988 51.795024,8.3258765 51.525874,8.3258765 c -0.489023,0 -0.489716,7.802e-4 -0.997786,1.1277612 -0.279634,0.6202693 -0.527937,1.1764113 -0.551787,1.2358743 -0.02386,0.05946 3.002212,0.108117 6.724581,0.108117 4.371636,0 6.796413,0.04606 6.848347,0.130093 0.04422,0.07155 0.334903,0.130092 0.645959,0.130092 0.501508,0 0.557851,-0.02946 0.497517,-0.260185 z m -12.551566,-4.1954655 -0.04,-0.5528913 -2.569316,-0.035276 -2.569316,-0.035276 v 0.5881631 0.5881642 h 2.609319 2.609321 z"
   id="path408" /></svg>
