<?xml version="1.0" encoding="UTF-8" standalone="no"?>
<!-- Created with Inkscape (http://www.inkscape.org/) -->

<svg
   width="97.630203"
   height="32.002716"
   viewBox="0 0 25.831323 8.4673859"
   version="1.1"
   id="svg5"
   xmlns="http://www.w3.org/2000/svg"
   xmlns:svg="http://www.w3.org/2000/svg">
  <defs
     id="defs2" />
  <g
     id="layer1"
     transform="translate(-182.90513,-850.7876)">
    <path
       style="fill:#ffffff;stroke-width:0.0183156;fill-opacity:1"
       d="m 197.77105,859.23178 c -0.029,0.0198 -0.078,0.026 -0.17519,0.0221 l -0.13496,-0.005 -0.20387,-0.17999 c -0.11213,-0.099 -0.3081,-0.28613 -0.43549,-0.41584 -0.12739,-0.12971 -0.28832,-0.30177 -0.35761,-0.38236 -0.0693,-0.0806 -0.17158,-0.20422 -0.22732,-0.27474 -0.0557,-0.0705 -0.15983,-0.21063 -0.23133,-0.31136 -0.0715,-0.10074 -0.18733,-0.27382 -0.2574,-0.38463 -0.0701,-0.11081 -0.18719,-0.31102 -0.26027,-0.44492 -0.0731,-0.13389 -0.18173,-0.35144 -0.24146,-0.48344 -0.0597,-0.132 -0.14873,-0.34389 -0.19779,-0.47086 -0.0491,-0.12698 -0.12734,-0.35374 -0.17395,-0.50391 -0.0466,-0.15017 -0.11325,-0.39439 -0.1481,-0.5427 -0.0348,-0.14831 -0.0633,-0.28781 -0.0633,-0.31 0,-0.0233 -0.009,-0.0372 -0.022,-0.033 -0.0121,0.004 -0.0738,0.10157 -0.13708,0.21674 -0.0633,0.11517 -0.1152,0.21764 -0.11537,0.22771 -1.6e-4,0.0101 -0.0792,0.0623 -0.17564,0.11606 -0.12304,0.0686 -0.17232,0.10558 -0.16524,0.12402 0.007,0.0177 -0.0329,0.0539 -0.12228,0.1114 -0.0728,0.0468 -0.1557,0.094 -0.18421,0.10492 -0.0438,0.0167 -0.0558,0.0144 -0.0772,-0.0149 -0.0139,-0.019 -0.0278,-0.042 -0.0308,-0.0509 -0.003,-0.009 -0.0291,-0.008 -0.0602,0.002 -0.0301,0.0101 -0.28012,0.0433 -0.55556,0.0738 -0.27544,0.0306 -0.54742,0.0555 -0.60441,0.0555 -0.0868,-10e-6 -0.12952,-0.0134 -0.26361,-0.0824 -0.12087,-0.0622 -0.18044,-0.0824 -0.2436,-0.0824 -0.046,0 -0.10726,0.0122 -0.13619,0.0272 -0.0289,0.015 -0.0682,0.05 -0.0872,0.0778 -0.019,0.0279 -0.22575,0.46756 -0.45934,0.97711 -0.23358,0.50955 -0.4247,0.93981 -0.4247,0.95613 0,0.0163 0.009,0.0501 0.0206,0.075 0.0172,0.0377 0.0139,0.0563 -0.0198,0.11076 -0.0223,0.036 -0.0527,0.0654 -0.0676,0.0654 -0.0149,0 -0.0452,-0.01 -0.0672,-0.0211 -0.022,-0.0116 -0.16364,-0.0995 -0.31474,-0.19528 -0.15111,-0.0958 -0.44649,-0.28533 -0.6564,-0.42118 -0.32826,-0.21244 -0.3806,-0.25257 -0.37407,-0.28676 0.004,-0.0219 0.25918,-0.43892 0.56665,-0.9268 0.30748,-0.48788 0.5739,-0.91583 0.59204,-0.95101 0.0181,-0.0352 0.0369,-0.11855 0.0417,-0.18528 0.006,-0.085 -6.1e-4,-0.14929 -0.0224,-0.21481 -0.0179,-0.0538 -0.0653,-0.13151 -0.11164,-0.18312 -0.0473,-0.0526 -0.11675,-0.1051 -0.16813,-0.12707 -0.0481,-0.0206 -0.1576,-0.052 -0.24322,-0.0697 -0.0856,-0.0178 -0.16529,-0.0395 -0.17703,-0.0484 -0.0143,-0.0108 -0.0163,-0.0339 -0.006,-0.0701 l 0.0155,-0.054 h -0.0903 c -0.0762,0 -0.0903,0.005 -0.0903,0.0345 0,0.0203 -0.017,0.039 -0.0412,0.0455 -0.0227,0.006 -0.0553,0.0112 -0.0725,0.0113 -0.0264,2.1e-4 -0.0321,-0.022 -0.0366,-0.14169 l -0.005,-0.14195 -0.44174,-0.005 -0.44174,-0.005 -0.002,0.10341 c -0.001,0.0569 -0.0194,0.20331 -0.0401,0.32542 -0.0286,0.1685 -0.0521,0.2482 -0.0972,0.33067 -0.0327,0.0598 -0.0878,0.13151 -0.12256,0.15944 -0.0347,0.0279 -0.88496,0.5168 -1.8894,1.08639 l -1.82625,1.0356 -0.44488,0.009 c -0.24469,0.005 -0.50497,0.014 -0.5784,0.02 -0.1039,0.009 -0.14315,0.005 -0.17694,-0.0175 -0.0239,-0.0157 -0.0518,-0.0555 -0.062,-0.0886 -0.0102,-0.0331 -0.0238,-0.11787 -0.0302,-0.18838 -0.006,-0.0705 -0.0156,-0.14197 -0.0205,-0.15879 -0.006,-0.0197 0.005,-0.0349 0.0296,-0.0428 0.0314,-0.01 0.0374,-0.0246 0.0328,-0.0793 -0.004,-0.0483 -0.0168,-0.0721 -0.0457,-0.0847 -0.0221,-0.01 -0.0446,-0.0344 -0.0501,-0.0549 -0.006,-0.0205 -0.0101,-0.0591 -0.0103,-0.0856 -1.5e-4,-0.0339 0.0113,-0.0513 0.0386,-0.0584 0.0342,-0.009 0.0373,-0.0186 0.0258,-0.0799 -0.007,-0.0384 -0.0219,-0.0752 -0.0326,-0.0819 -0.0108,-0.007 -0.0306,-0.008 -0.0441,-0.003 -0.0175,0.007 -0.0246,-0.008 -0.0248,-0.0521 -1.5e-4,-0.0338 -0.005,-0.0789 -0.0106,-0.10017 -0.008,-0.029 -5.2e-4,-0.0413 0.0289,-0.049 0.033,-0.009 0.0384,-0.0215 0.0335,-0.0804 -0.005,-0.0554 -0.014,-0.0713 -0.0449,-0.0757 -0.0271,-0.004 -0.0426,-0.0229 -0.0504,-0.0618 -0.006,-0.0309 -0.0112,-0.0758 -0.0112,-0.0997 0,-0.0257 0.0108,-0.0435 0.0264,-0.0435 0.0145,0 0.0318,-0.009 0.0384,-0.0195 0.007,-0.0107 0.007,-0.0478 2.6e-4,-0.0824 -0.009,-0.0505 -0.0203,-0.0629 -0.0549,-0.0629 -0.0382,0 -0.0439,-0.01 -0.0504,-0.087 -0.004,-0.0479 -5.7e-4,-0.0898 0.008,-0.0932 0.008,-0.003 0.0262,-0.0175 0.0399,-0.0312 0.0168,-0.0168 0.021,-0.0447 0.0127,-0.0854 -0.009,-0.0422 -0.0238,-0.062 -0.0506,-0.0659 -0.0284,-0.004 -0.0412,-0.0231 -0.0495,-0.0733 -0.006,-0.0372 -0.0113,-0.0774 -0.0114,-0.0894 -1.1e-4,-0.0119 0.0167,-0.027 0.0374,-0.0336 0.0305,-0.01 0.0366,-0.0247 0.032,-0.0791 -0.004,-0.0536 -0.0139,-0.0683 -0.0468,-0.073 -0.0249,-0.004 -0.0444,-0.0216 -0.0494,-0.0458 -0.005,-0.022 -0.0113,-0.0667 -0.0152,-0.0995 -0.006,-0.0473 -3.6e-4,-0.0595 0.0254,-0.0595 0.0178,0 0.0378,-0.009 0.0444,-0.0195 0.007,-0.0107 0.007,-0.0478 2.6e-4,-0.0824 -0.01,-0.0514 -0.02,-0.0629 -0.0568,-0.0629 -0.0351,0 -0.045,-0.01 -0.045,-0.0435 0,-0.0239 -0.005,-0.0693 -0.0114,-0.10073 -0.01,-0.049 -0.006,-0.0572 0.0255,-0.0572 0.0203,0 0.0409,-0.0103 0.0457,-0.0229 0.005,-0.0126 0.005,-0.0497 -1.1e-4,-0.0824 -0.007,-0.047 -0.0175,-0.0595 -0.0501,-0.0595 -0.0335,0 -0.0434,-0.013 -0.0527,-0.0687 -0.006,-0.0378 -0.0115,-0.0831 -0.0116,-0.10073 -1e-4,-0.0202 0.0137,-0.0321 0.0375,-0.0321 0.033,0 0.037,-0.01 0.032,-0.0778 -0.004,-0.0604 -0.013,-0.0779 -0.0383,-0.0779 -0.018,0 -0.0405,-0.0124 -0.0501,-0.0275 -0.01,-0.0151 -0.0175,-0.12373 -0.0177,-0.24137 -2.1e-4,-0.1695 0.006,-0.21983 0.0282,-0.24243 0.0256,-0.0256 0.3131,-0.0281 2.81603,-0.0242 l 2.78749,0.004 0.0181,0.0412 c 0.018,0.0411 0.0196,0.0412 0.44874,0.0409 0.23686,-1.6e-4 0.44028,-0.006 0.45205,-0.0139 0.0118,-0.007 0.0241,-0.0424 0.0275,-0.0776 0.005,-0.0553 0.0133,-0.0648 0.0594,-0.07 0.0293,-0.003 0.0705,0.002 0.0916,0.0123 0.021,0.0101 0.0756,0.0227 0.12127,0.0281 0.0729,0.009 0.0852,0.005 0.10074,-0.0306 0.0101,-0.0231 0.0373,-0.0426 0.0636,-0.0457 0.0271,-0.003 0.0576,-0.0257 0.0744,-0.0549 0.0157,-0.0273 0.14339,-0.18369 0.28378,-0.34761 0.14039,-0.16392 0.27173,-0.32914 0.29188,-0.36715 0.0202,-0.038 0.0604,-0.0999 0.0896,-0.13746 0.0291,-0.0376 0.057,-0.0642 0.0621,-0.0592 0.005,0.005 0.0334,-0.0112 0.063,-0.0361 0.0296,-0.0249 0.0697,-0.0453 0.089,-0.0453 0.0246,0 0.0352,-0.0128 0.0352,-0.0422 0,-0.0237 0.0265,-0.0679 0.0604,-0.10073 0.0579,-0.0562 0.0665,-0.0585 0.21063,-0.0585 h 0.15023 v -0.13764 c 0,-0.13563 8.7e-4,-0.13817 0.0595,-0.17393 0.0327,-0.02 0.0734,-0.0363 0.0903,-0.0364 0.0169,-4e-5 0.0437,0.0129 0.0595,0.0287 0.0159,0.0159 0.0288,0.0594 0.0288,0.0973 0,0.0512 0.013,0.081 0.0514,0.11774 0.0282,0.0271 0.0633,0.0495 0.0778,0.0498 0.0146,3.1e-4 0.0409,0.0115 0.0585,0.0249 0.0176,0.0134 0.0321,0.0461 0.0321,0.0727 0,0.0458 0.005,0.0483 0.0916,0.0483 0.0855,0 0.0916,-0.003 0.0916,-0.0458 0,-0.0412 0.007,-0.0458 0.0733,-0.0458 0.0659,0 0.0733,0.005 0.0733,0.0458 0,0.0427 0.006,0.0458 0.0916,0.0458 0.0855,0 0.0916,-0.003 0.0916,-0.0458 0,-0.0412 0.007,-0.0458 0.0733,-0.0458 0.0659,0 0.0733,0.005 0.0733,0.0458 0,0.0419 0.007,0.0458 0.0804,0.0458 0.071,0 0.0818,-0.005 0.0922,-0.0468 0.0103,-0.0412 0.02,-0.0462 0.0798,-0.0412 0.0545,0.005 0.0692,0.0138 0.0739,0.0468 0.005,0.0357 0.0168,0.0412 0.087,0.0412 0.0743,0 0.0811,-0.004 0.0811,-0.0458 0,-0.0412 0.007,-0.0458 0.0733,-0.0458 0.0659,0 0.0733,0.005 0.0733,0.0458 0,0.0427 0.006,0.0458 0.0916,0.0458 0.0855,0 0.0916,-0.003 0.0916,-0.0458 0,-0.0412 0.007,-0.0458 0.0733,-0.0458 0.0659,0 0.0733,0.005 0.0733,0.0458 0,0.0427 0.006,0.0458 0.0916,0.0458 0.0855,0 0.0916,-0.003 0.0916,-0.0458 0,-0.0412 0.007,-0.0458 0.0733,-0.0458 0.0659,0 0.0733,0.005 0.0733,0.0458 0,0.0427 0.006,0.0458 0.0916,0.0458 0.0855,0 0.0916,-0.003 0.0916,-0.0458 0,-0.0412 0.007,-0.0458 0.0733,-0.0458 0.0659,0 0.0733,0.005 0.0733,0.0458 0,0.0421 0.007,0.0458 0.0824,0.0458 0.0757,0 0.0824,-0.004 0.0824,-0.0458 0,-0.0421 0.007,-0.0458 0.0824,-0.0458 0.0757,0 0.0824,0.004 0.0824,0.0458 0,0.0421 0.007,0.0458 0.0824,0.0458 0.0757,0 0.0824,-0.004 0.0824,-0.0458 0,-0.0421 0.007,-0.0458 0.0824,-0.0458 0.0757,0 0.0824,0.004 0.0824,0.0458 0,0.0421 0.007,0.0458 0.0824,0.0458 0.0757,0 0.0824,-0.004 0.0824,-0.0458 0,-0.0411 0.007,-0.0458 0.072,-0.0458 0.0607,0 0.0729,0.006 0.0778,0.0412 0.005,0.0352 0.0186,0.042 0.0929,0.0468 0.0825,0.005 0.087,0.003 0.087,-0.0412 0,-0.0424 0.007,-0.0468 0.0733,-0.0468 0.0659,0 0.0733,0.005 0.0733,0.0458 0,0.0419 0.007,0.0458 0.0804,0.0458 0.0705,0 0.0819,-0.006 0.0919,-0.0458 0.01,-0.0392 0.0219,-0.0458 0.0844,-0.0458 0.0656,0 0.0729,0.005 0.0729,0.0458 0,0.042 0.007,0.0458 0.0812,0.0458 0.0702,0 0.0819,-0.006 0.087,-0.0412 0.005,-0.0343 0.019,-0.0422 0.0837,-0.0468 0.0728,-0.005 0.0778,-0.003 0.0778,0.0412 0,0.0432 0.006,0.0468 0.0812,0.0468 0.0702,0 0.0819,-0.006 0.087,-0.0412 0.005,-0.0343 0.019,-0.0422 0.0837,-0.0468 0.0728,-0.005 0.0778,-0.003 0.0778,0.0412 0,0.0433 0.006,0.0468 0.0824,0.0468 0.0757,0 0.0824,-0.004 0.0824,-0.0458 0,-0.0421 0.007,-0.0458 0.0824,-0.0458 0.0757,0 0.0824,0.004 0.0824,0.0458 0,0.0412 0.007,0.0458 0.0729,0.0458 0.0625,0 0.0746,-0.007 0.0844,-0.0458 0.01,-0.039 0.022,-0.0458 0.0828,-0.0458 0.0392,0 0.0713,-0.008 0.0713,-0.0183 0,-0.0101 0.0412,-0.0183 0.0916,-0.0183 0.0504,0 0.0916,0.008 0.0916,0.0183 0,0.0101 0.033,0.0183 0.0733,0.0183 0.0403,0 0.0733,-0.008 0.0733,-0.0183 0,-0.0101 0.0366,-0.0183 0.0813,-0.0183 0.0447,0 0.0864,0.008 0.0927,0.0183 0.006,0.0101 0.0392,0.0183 0.0733,0.0183 0.0341,0 0.067,-0.008 0.0733,-0.0183 0.006,-0.0101 0.0479,-0.0183 0.0927,-0.0183 0.0447,0 0.0813,0.008 0.0813,0.0183 0,0.0101 0.033,0.0183 0.0733,0.0183 0.0403,0 0.0733,-0.008 0.0733,-0.0183 0,-0.0101 0.0412,-0.0183 0.0916,-0.0183 0.0504,0 0.0916,0.008 0.0916,0.0183 0,0.0101 0.033,0.0183 0.0733,0.0183 0.0403,0 0.0733,-0.008 0.0733,-0.0183 0,-0.0101 0.0412,-0.0183 0.0916,-0.0183 0.0504,0 0.0916,0.008 0.0916,0.0183 0,0.0101 0.033,0.0183 0.0733,0.0183 0.0403,0 0.0733,-0.008 0.0733,-0.0183 0,-0.0101 0.0412,-0.0183 0.0916,-0.0183 0.0504,0 0.0916,0.008 0.0916,0.0183 0,0.0101 0.0284,0.0183 0.063,0.0183 0.0347,0 0.0681,-0.008 0.0743,-0.0183 0.006,-0.0101 0.0521,-0.0183 0.10182,-0.0183 0.0498,0 0.0905,0.008 0.0905,0.0183 0,0.0101 0.0284,0.0183 0.063,0.0183 0.0347,0 0.0681,-0.008 0.0743,-0.0183 0.006,-0.0101 0.0479,-0.0183 0.0927,-0.0183 0.0447,0 0.0813,0.008 0.0813,0.0183 0,0.0101 0.033,0.0183 0.0733,0.0183 0.0403,0 0.0733,-0.008 0.0733,-0.0183 0,-0.0101 0.0412,-0.0183 0.0916,-0.0183 0.0504,0 0.0916,0.008 0.0916,0.0183 0,0.0101 0.033,0.0183 0.0733,0.0183 0.0403,0 0.0733,-0.008 0.0733,-0.0183 0,-0.0101 0.0412,-0.0183 0.0916,-0.0183 0.0504,0 0.0916,0.008 0.0916,0.0183 0,0.0101 0.0284,0.0183 0.063,0.0183 0.0347,0 0.0681,-0.008 0.0743,-0.0183 0.006,-0.0101 0.0521,-0.0183 0.10182,-0.0183 0.0498,0 0.0905,0.008 0.0905,0.0183 0,0.0101 0.0284,0.0183 0.063,0.0183 0.0347,0 0.0681,-0.008 0.0743,-0.0183 0.006,-0.0101 0.0474,-0.0183 0.0916,-0.0183 0.0441,0 0.0854,0.008 0.0916,0.0183 0.006,0.0101 0.0392,0.0183 0.0733,0.0183 0.0341,0 0.067,-0.008 0.0733,-0.0183 0.006,-0.0101 0.0479,-0.0183 0.0926,-0.0183 0.0447,0 0.0813,0.008 0.0813,0.0183 0,0.0101 0.033,0.0183 0.0733,0.0183 0.0403,0 0.0733,-0.008 0.0733,-0.0183 0,-0.0101 0.0412,-0.0183 0.0916,-0.0183 0.0504,0 0.0916,0.008 0.0916,0.0183 0,0.0101 0.0284,0.0183 0.063,0.0183 0.0347,0 0.0681,-0.008 0.0743,-0.0183 0.006,-0.0101 0.0521,-0.0183 0.10182,-0.0183 0.0498,0 0.0905,0.008 0.0905,0.0183 0,0.0101 0.0284,0.0183 0.063,0.0183 0.0347,0 0.0681,-0.008 0.0743,-0.0183 0.006,-0.0101 0.0521,-0.0183 0.10182,-0.0183 0.0498,0 0.0905,0.008 0.0905,0.0183 0,0.0101 0.0284,0.0183 0.063,0.0183 0.0347,0 0.0681,-0.008 0.0743,-0.0183 0.006,-0.0101 0.0474,-0.0183 0.0916,-0.0183 0.0441,0 0.0858,0.009 0.0927,0.0201 0.008,0.0124 0.038,0.0155 0.0789,0.008 0.0366,-0.007 0.10568,-0.0164 0.15352,-0.0218 0.057,-0.007 0.087,-0.003 0.087,0.0101 0,0.0139 0.1132,0.0201 0.36768,0.0201 h 0.36767 l 0.10853,0.10352 c 0.0851,0.0811 0.10854,0.11533 0.10854,0.15809 0,0.0533 0.002,0.0543 0.0751,0.0445 0.0415,-0.006 0.0948,-0.0286 0.11929,-0.0516 0.0251,-0.0236 0.0595,-0.0934 0.0795,-0.16176 0.0194,-0.0661 0.0534,-0.19817 0.0754,-0.29346 0.0308,-0.13284 0.0521,-0.18518 0.0913,-0.22437 0.0485,-0.0485 0.0598,-0.0511 0.21819,-0.0511 0.14888,0 0.17156,0.004 0.20819,0.0412 0.0327,0.0328 0.0535,0.10508 0.10172,0.35258 0.0333,0.17125 0.0648,0.32991 0.0699,0.35257 0.005,0.0227 0.0198,0.0412 0.0327,0.0412 0.0129,0 0.0738,0.0539 0.13538,0.11972 l 0.11199,0.11972 v 0.15135 c 0,0.0933 -0.008,0.15978 -0.022,0.17333 -0.0137,0.0137 -0.0818,0.022 -0.18123,0.022 h -0.15925 l -0.007,0.0733 c -0.004,0.0461 6.4e-4,0.0733 0.0136,0.0733 0.0113,0 0.0342,0.0151 0.0508,0.0335 0.0167,0.0184 0.0303,0.0473 0.0303,0.0641 0,0.0281 0.0614,0.0306 0.75094,0.0306 0.73873,0 0.75094,-6e-4 0.75094,-0.0366 0,-0.0353 0.0122,-0.0366 0.33819,-0.0366 0.30335,0 0.33997,-0.003 0.35536,-0.0321 0.0159,-0.0297 0.0791,-0.0324 0.86605,-0.0367 l 0.8489,-0.005 0.0456,0.0586 c 0.0353,0.0453 0.048,0.0885 0.0564,0.19063 0.006,0.0726 0.006,0.19817 0,0.27901 -0.009,0.12135 -0.0185,0.15519 -0.055,0.19404 l -0.0442,0.0471 h -0.84783 c -0.8291,0 -0.84828,-8.1e-4 -0.86745,-0.0366 -0.0177,-0.033 -0.0383,-0.0366 -0.20964,-0.0366 -0.13846,0 -0.22155,-0.01 -0.30614,-0.0364 -0.10811,-0.0339 -0.16933,-0.0364 -0.88903,-0.0366 -0.64166,-2.1e-4 -0.77541,0.004 -0.78757,0.0253 -0.008,0.014 -0.0476,0.0346 -0.0879,0.0457 -0.0438,0.012 -0.2485,0.0202 -0.50826,0.0203 l -0.435,10e-5 v -0.0458 c 0,-0.0385 -0.009,-0.0458 -0.0539,-0.0458 -0.0296,0 -0.0596,0.009 -0.0665,0.0204 -0.008,0.0125 -0.0453,0.0169 -0.0972,0.0114 -0.0465,-0.005 -0.0978,-0.0146 -0.11403,-0.0214 -0.0258,-0.0108 -0.031,0.0176 -0.0426,0.23131 -0.007,0.13399 -0.0209,0.28441 -0.0303,0.33425 -0.009,0.0498 -0.035,0.1096 -0.0567,0.13279 -0.0385,0.041 -0.0487,0.0422 -0.37314,0.0422 -0.33073,0 -0.33379,-3.6e-4 -0.362,-0.0434 -0.0267,-0.0407 -0.0369,-0.0429 -0.16237,-0.0346 -0.10062,0.007 -0.14074,0.0173 -0.16138,0.0427 -0.0264,0.0324 -0.1053,0.034 -1.9185,0.0378 l -1.89102,0.004 -0.0425,-0.0399 c -0.0233,-0.0219 -0.0481,-0.0399 -0.055,-0.0399 -0.007,0 -0.0127,0.0268 -0.0128,0.0595 -1.5e-4,0.0327 -0.007,0.0709 -0.0162,0.0847 -0.0106,0.0167 -0.25785,0.0674 -0.73242,0.15007 -0.39406,0.0687 -0.72373,0.12937 -0.73261,0.13486 -0.009,0.006 -0.006,0.0648 0.008,0.13487 0.0131,0.0687 0.0454,0.21096 0.0718,0.31616 0.0264,0.10519 0.0886,0.31163 0.13815,0.45876 0.0496,0.14712 0.12275,0.34158 0.1626,0.43213 0.0399,0.0906 0.11125,0.24217 0.15867,0.33692 0.0474,0.0947 0.11946,0.22997 0.16008,0.30049 0.0406,0.0705 0.13178,0.21475 0.20259,0.32052 0.0708,0.10577 0.17014,0.24589 0.22075,0.31136 0.0506,0.0655 0.16009,0.19808 0.24329,0.29467 0.0832,0.0966 0.23619,0.2573 0.33999,0.35715 0.10379,0.0998 0.25178,0.23361 0.32886,0.29725 0.0771,0.0636 0.14481,0.12785 0.15051,0.14269 0.006,0.0165 -0.0501,0.10336 -0.14481,0.22313 -0.0853,0.10788 -0.34527,0.43517 -0.57764,0.72731 -0.23237,0.29213 -0.44059,0.54351 -0.46271,0.55862 z m -13.3044,-2.76682 c 0.0181,6.4e-4 0.0593,-0.0125 0.0916,-0.0291 0.0322,-0.0167 0.19189,-0.11937 0.35479,-0.22824 0.16551,-0.11062 0.3013,-0.21411 0.3078,-0.23459 0.006,-0.0202 0.002,-0.0538 -0.009,-0.0748 -0.0112,-0.021 -0.0411,-0.0461 -0.0663,-0.0556 -0.0252,-0.01 -0.22967,-0.0174 -0.45431,-0.0174 -0.38426,0 -0.41127,0.002 -0.45626,0.0376 -0.0263,0.0207 -0.0568,0.0711 -0.0678,0.11199 -0.0187,0.0695 -0.015,0.0849 0.0558,0.23255 0.0417,0.087 0.0897,0.17355 0.10659,0.19237 0.0169,0.0188 0.0472,0.041 0.0674,0.0492 0.0202,0.008 0.0515,0.0155 0.0696,0.0162 z m 0.94693,-0.83015 0.28389,-0.002 0.16945,-0.0903 c 0.0932,-0.0497 0.18256,-0.11027 0.19858,-0.13473 0.0197,-0.0301 0.0262,-0.069 0.0201,-0.12037 -0.005,-0.0418 -0.0194,-0.10937 -0.032,-0.15027 -0.013,-0.0422 -0.0173,-0.097 -0.01,-0.12654 0.007,-0.0287 0.0406,-0.0797 0.0743,-0.11337 0.0528,-0.0528 0.0736,-0.0612 0.15129,-0.0612 0.0766,0 0.10487,0.011 0.18887,0.0737 0.0543,0.0405 0.1307,0.0833 0.16974,0.095 0.0534,0.016 0.0903,0.0161 0.14888,4.1e-4 0.0429,-0.0115 0.15135,-0.0632 0.2411,-0.11486 0.0897,-0.0517 0.17844,-0.10771 0.1971,-0.12444 0.0187,-0.0167 0.0458,-0.0534 0.0603,-0.0815 0.0149,-0.0287 0.0306,-0.12879 0.0361,-0.22899 0.008,-0.14929 0.004,-0.18825 -0.0237,-0.24203 -0.0184,-0.0353 -0.0623,-0.0787 -0.0975,-0.0966 -0.0591,-0.0299 -0.13026,-0.0321 -0.90662,-0.0275 -0.82621,0.005 -0.84422,0.006 -0.93055,0.0457 -0.0484,0.0224 -0.21526,0.1201 -0.37075,0.21722 -0.1555,0.0971 -0.31139,0.20609 -0.34644,0.24217 -0.035,0.0361 -0.0763,0.10259 -0.0917,0.14779 -0.0154,0.0452 -0.0279,0.13222 -0.0278,0.19339 1.1e-4,0.0612 0.009,0.20933 0.0193,0.32926 0.0105,0.11993 0.0307,0.2405 0.0449,0.26794 0.0142,0.0274 0.0405,0.0566 0.0585,0.0647 0.018,0.008 0.13575,0.0204 0.26167,0.0272 0.12592,0.007 0.3567,0.0114 0.51284,0.0103 z m 7.06983,-0.24351 c 0.0353,-0.003 0.25367,-0.0268 0.48536,-0.052 0.23169,-0.0253 0.44897,-0.0505 0.48283,-0.056 0.0339,-0.006 0.0813,-0.0298 0.10532,-0.0538 0.0431,-0.0431 0.0437,-0.0487 0.0437,-0.40232 0,-0.26516 -0.007,-0.37449 -0.0255,-0.41967 -0.014,-0.0336 -0.0566,-0.0849 -0.0947,-0.11389 -0.0685,-0.0523 -0.0718,-0.0528 -0.36122,-0.059 l -0.29207,-0.006 -0.0696,0.068 c -0.0383,0.0374 -0.093,0.11851 -0.12152,0.18022 -0.0469,0.10162 -0.0517,0.13036 -0.0504,0.30452 9.7e-4,0.13049 0.011,0.21734 0.0312,0.27016 0.0164,0.0428 0.0232,0.0778 0.0151,0.0778 -0.008,0 -0.0358,-0.0515 -0.0616,-0.11447 -0.0258,-0.063 -0.0566,-0.14332 -0.0685,-0.17858 -0.0119,-0.0353 -0.026,-0.15889 -0.0313,-0.27474 -0.008,-0.17867 -0.0154,-0.21688 -0.0473,-0.25184 -0.0207,-0.0227 -0.0514,-0.0412 -0.0683,-0.0412 -0.0169,0 -0.0648,0.0247 -0.10641,0.0549 -0.0416,0.0302 -0.0951,0.0858 -0.11876,0.12363 -0.0237,0.0378 -0.0845,0.15944 -0.1352,0.27026 -0.0507,0.11082 -0.0979,0.22786 -0.10503,0.26009 -0.009,0.0409 -0.002,0.0824 0.0221,0.13736 0.0302,0.0679 0.0566,0.0909 0.19169,0.16638 0.0862,0.0482 0.19257,0.0941 0.23641,0.1021 0.0438,0.008 0.10857,0.0117 0.14383,0.008 z m -6.21181,-0.15233 c 0.0324,0 0.0781,-0.0195 0.1113,-0.0474 0.0446,-0.0375 0.0563,-0.0618 0.0563,-0.11659 0,-0.0412 -0.0147,-0.0878 -0.0363,-0.11536 -0.02,-0.0254 -0.0583,-0.0517 -0.0852,-0.0585 -0.0269,-0.007 -0.0727,-0.002 -0.10188,0.01 -0.0291,0.0121 -0.065,0.0451 -0.0796,0.0734 -0.0146,0.0283 -0.0266,0.0731 -0.0266,0.0996 0,0.0287 0.0215,0.0697 0.0535,0.10164 0.0354,0.0354 0.0722,0.0535 0.10849,0.0535 z m 7.43611,-0.20147 c 0.0111,0 0.10082,-0.0433 0.19929,-0.0962 l 0.17902,-0.0961 -0.15438,-0.005 c -0.13043,-0.005 -0.15964,-10e-5 -0.18832,0.0286 -0.0187,0.0187 -0.0389,0.0644 -0.0449,0.10153 -0.007,0.0438 -0.004,0.0676 0.009,0.0676 z m -6.05047,-0.53115 c 0.0212,0 0.0483,-0.01 0.0604,-0.022 0.0121,-0.0121 0.022,-0.0688 0.022,-0.12597 0,-0.0686 -0.009,-0.11151 -0.0266,-0.12606 -0.0146,-0.0121 -0.0412,-0.0193 -0.0591,-0.0158 -0.0179,0.003 -0.0429,0.0268 -0.0555,0.0519 -0.0127,0.0251 -0.0232,0.079 -0.0234,0.1198 -1.4e-4,0.0408 0.01,0.0841 0.0217,0.0962 0.0121,0.0121 0.0393,0.022 0.0604,0.022 z m 0.44049,-0.34945 c 0.0206,8e-4 0.0474,-0.008 0.0595,-0.0205 0.0121,-0.0121 0.022,-0.0405 0.022,-0.0631 0,-0.0226 -0.0174,-0.0533 -0.0387,-0.0682 -0.0213,-0.0149 -0.0522,-0.0222 -0.0687,-0.0161 -0.0165,0.006 -0.036,0.0199 -0.0434,0.0307 -0.007,0.0108 -0.0136,0.0416 -0.0137,0.0685 -1.5e-4,0.0269 0.01,0.053 0.0226,0.0581 0.0126,0.005 0.0398,0.01 0.0604,0.0107 z m 20.2585,-1.22598 c 0.0315,1.6e-4 0.0652,-0.01 0.0749,-0.0226 0.01,-0.0126 0.0169,-0.11768 0.016,-0.23352 l -0.002,-0.21063 -0.0962,-0.006 c -0.0692,-0.004 -0.0965,10e-4 -0.0973,0.0183 -6.1e-4,0.0131 -0.001,0.11351 -0.002,0.2231 -5.5e-4,0.148 0.006,0.20328 0.024,0.21493 0.0136,0.009 0.0505,0.0158 0.082,0.0159 z m -4.84604,-0.5009 0.18384,0.002 -0.005,-0.13986 -0.005,-0.13986 -0.17858,-0.005 -0.17857,-0.005 v 0.14261 0.14261 l 0.18384,0.003 z m 1.28287,-0.34133 c 0.0307,0 0.0717,-0.009 0.0912,-0.019 0.0289,-0.0155 0.0354,-0.0389 0.0354,-0.12758 0,-0.0957 -0.007,-0.11642 -0.0577,-0.17427 -0.0382,-0.0435 -0.0706,-0.0638 -0.0962,-0.0602 -0.0349,0.005 -0.039,0.0191 -0.0439,0.15196 -0.003,0.0806 -7.7e-4,0.16503 0.005,0.18773 0.008,0.0315 0.0235,0.0413 0.0662,0.0413 z m -0.58823,-0.86084 c 0.0509,0 0.0555,-0.005 0.0555,-0.0621 0,-0.0384 0.0105,-0.0662 0.0275,-0.0727 0.0161,-0.006 0.0275,-0.0336 0.0275,-0.0661 0,-0.0371 0.009,-0.0555 0.0275,-0.0555 0.0182,0 0.0275,0.0182 0.0275,0.0543 0,0.0355 0.0126,0.0611 0.0366,0.0739 0.024,0.0128 0.0366,0.0383 0.0366,0.0739 0,0.0299 0.007,0.0543 0.0161,0.0543 0.009,0 0.0246,-0.0103 0.0351,-0.0229 0.0133,-0.016 0.01,-0.0614 -0.0116,-0.15111 -0.0168,-0.0705 -0.0372,-0.13851 -0.0453,-0.1511 -0.009,-0.014 -0.0563,-0.0229 -0.12223,-0.0229 h -0.10751 l -0.0276,0.0962 c -0.0152,0.0529 -0.0331,0.11881 -0.0399,0.14649 -0.007,0.0277 -0.008,0.0627 -0.002,0.0778 0.006,0.0161 0.0336,0.0275 0.0661,0.0275 z"
       id="path6117" />
  </g>
</svg>
