<?xml version="1.0" encoding="UTF-8" standalone="no"?>
<!-- Created with Inkscape (http://www.inkscape.org/) -->

<svg
   width="25.741331mm"
   height="8.4656296mm"
   viewBox="0 0 25.741331 8.4656297"
   version="1.1"
   id="svg5"
   xmlns="http://www.w3.org/2000/svg"
   xmlns:svg="http://www.w3.org/2000/svg">
  <defs
     id="defs2" />
  <g
     id="layer1"
     transform="translate(-26.821139,-108.82288)">
    <path
       style="fill:#ffffff;stroke-width:0.0186656;fill-opacity:1"
       d="m 40.761072,117.25494 c -0.03007,-0.0331 -0.03267,-0.10111 -0.03267,-0.85611 0,-0.4511 -0.0066,-0.82426 -0.01469,-0.82926 -0.0081,-0.005 -0.118535,-0.0152 -0.24546,-0.0226 -0.27416,-0.016 -0.299819,-0.0308 -0.299819,-0.17214 0,-0.0493 -0.0091,-0.0987 -0.02029,-0.10989 -0.01461,-0.0146 -0.01461,-0.0238 0,-0.0328 0.02715,-0.0168 0.02583,-0.0907 -0.0021,-0.1186 -0.01742,-0.0174 -0.01742,-0.0274 0,-0.0448 0.01232,-0.0123 0.0224,-0.04 0.0224,-0.0616 0,-0.0216 -0.01008,-0.0493 -0.0224,-0.0616 -0.01742,-0.0174 -0.01742,-0.0274 0,-0.0448 0.01232,-0.0123 0.0224,-0.04 0.0224,-0.0616 0,-0.0216 -0.01008,-0.0493 -0.0224,-0.0616 -0.01742,-0.0174 -0.01742,-0.0274 0,-0.0448 0.01232,-0.0123 0.0224,-0.04 0.0224,-0.0616 0,-0.0216 -0.01008,-0.0493 -0.0224,-0.0616 -0.01742,-0.0174 -0.01742,-0.0274 0,-0.0448 0.0276,-0.0276 0.02938,-0.10175 0.0028,-0.11816 -0.01336,-0.008 -0.01259,-0.0205 0.0024,-0.0386 0.01309,-0.0158 0.01796,-0.0567 0.01201,-0.10099 -0.0055,-0.041 -0.0018,-0.0795 0.0082,-0.0857 0.01,-0.006 0.01642,-0.0377 0.0143,-0.07 -0.0021,-0.0323 0.0015,-0.0735 0.0081,-0.0914 0.02866,-0.0785 0.03004,-0.0948 0.01014,-0.1188 -0.01611,-0.0194 -0.01425,-0.028 0.0079,-0.0365 0.01593,-0.006 0.03465,-0.037 0.0416,-0.0686 0.007,-0.0316 0.06558,-0.21783 0.13028,-0.41375 0.131294,-0.39755 0.169062,-0.60083 0.140049,-0.75382 -0.03384,-0.17843 -0.09957,-0.26371 -0.319227,-0.41415 -0.09154,-0.0627 -0.174914,-0.12984 -0.185274,-0.1492 -0.01036,-0.0193 -0.01884,-0.0609 -0.01884,-0.0924 0,-0.0554 -0.0027,-0.0572 -0.084,-0.0572 -0.124241,0 -0.158657,-0.0425 -0.158657,-0.19599 v -0.12132 h -0.084 c -0.06438,0 -0.08399,-0.007 -0.08399,-0.0297 0,-0.0164 0.0168,-0.0511 0.03733,-0.0772 0.02573,-0.0327 0.03733,-0.0757 0.03733,-0.13837 v -0.0909 l -1.721897,0.005 -1.721897,0.005 -0.0055,0.12729 -0.0055,0.12729 -0.405093,-0.006 c -0.381722,-0.006 -0.408977,-0.008 -0.4724,-0.0478 -0.03702,-0.023 -0.102945,-0.097 -0.146503,-0.16431 -0.0574,-0.0888 -0.08487,-0.15558 -0.09981,-0.2428 -0.0161,-0.094 -0.02772,-0.12033 -0.05309,-0.12033 -0.01786,0 -0.866607,0.14729 -1.886096,0.3273 -1.019488,0.18002 -1.89317,0.33107 -1.941516,0.33569 -0.06746,0.006 -0.0918,0.001 -0.104686,-0.0216 -0.01539,-0.0275 -0.151322,-0.026 -1.62715,0.0183 -0.885699,0.0266 -1.613916,0.0519 -1.61826,0.0562 -0.0043,0.004 -0.05355,0.4855 -0.109348,1.06923 -0.147503,1.54311 -0.193502,1.98258 -0.219028,2.09257 l -0.02273,0.098 -0.23332,-0.14771 c -0.137696,-0.0872 -0.245976,-0.1694 -0.264202,-0.20063 -0.01698,-0.0291 -0.03631,-0.0907 -0.04295,-0.1369 -0.0066,-0.0462 -0.04438,-0.75683 -0.08388,-1.57919 -0.04916,-1.02377 -0.06654,-1.524 -0.05513,-1.58657 0.02451,-0.1343 0.109849,-0.29231 0.166372,-0.30804 0.02556,-0.007 0.233355,-0.0138 0.461775,-0.0148 l 0.415308,-0.002 v 0.10149 0.10149 l 0.06066,-0.008 c 0.03336,-0.005 0.337846,-0.0334 0.676625,-0.0642 0.33878,-0.0308 0.651901,-0.0607 0.695826,-0.0665 0.0688,-0.009 0.09034,-0.0239 0.15555,-0.10729 0.04163,-0.0532 0.09026,-0.11398 0.108081,-0.13502 0.03141,-0.0371 0.06084,-0.0389 0.973715,-0.0588 0.517728,-0.0113 0.974921,-0.0166 1.015985,-0.0117 0.04854,0.006 0.762947,-0.11272 2.042053,-0.33866 1.763415,-0.31148 1.980642,-0.3462 2.095208,-0.33491 l 0.127817,0.0126 v -0.19466 c 0,-0.12652 0.0078,-0.20251 0.0224,-0.21707 0.01232,-0.0123 0.04592,-0.0224 0.07466,-0.0224 h 0.05226 l 1.12e-4,-0.14466 c 1.32e-4,-0.17508 0.02301,-0.26489 0.08683,-0.34073 0.08315,-0.0988 0.129481,-0.1119 0.396502,-0.1119 h 0.242648 l 0.0056,-0.10715 c 0.0044,-0.0845 0.0125,-0.10846 0.03826,-0.11336 0.02821,-0.005 0.03267,0.009 0.03267,0.10714 v 0.11337 l 0.275317,1e-5 0.275317,2e-5 0.167849,0.19627 c 0.09232,0.10794 0.173622,0.21083 0.180677,0.22863 0.0071,0.0178 0.01342,0.0891 0.01414,0.15836 l 0.0013,0.126 h 0.08425 c 0.04634,0 0.100933,0.0104 0.121326,0.0232 0.02951,0.0184 0.04464,0.0184 0.07416,0 0.04664,-0.0291 0.13822,-0.0297 0.216672,-0.001 0.05037,0.0182 0.06832,0.0167 0.107995,-0.009 0.03805,-0.0249 0.09438,-0.0312 0.281016,-0.0312 0.16794,0 0.415567,-0.0236 0.882604,-0.0839 l 0.649171,-0.0839 1.319601,-6e-5 c 1.12784,-6e-5 1.476387,0.007 2.398523,0.0481 0.978491,0.0437 1.443606,0.0507 1.472043,0.0223 0.01536,-0.0154 -0.03724,-0.13177 -0.07292,-0.16136 -0.02423,-0.0201 -0.03089,-0.0592 -0.03089,-0.18156 0,-0.14693 0.0028,-0.15776 0.04805,-0.18742 0.03633,-0.0238 0.08884,-0.0313 0.215345,-0.0307 0.2254,0.001 0.240579,0.0148 0.240579,0.21837 0,0.12385 -0.0059,0.15498 -0.03266,0.17171 -0.0367,0.023 -0.08958,0.1525 -0.07018,0.17193 0.0069,0.007 0.125284,0.0155 0.263032,0.0191 0.187338,0.005 0.250452,0.0125 0.250452,0.0303 0,0.0274 0.08163,0.0472 0.194602,0.0472 0.04287,0 0.153109,0.0166 0.244985,0.0369 0.144344,0.0319 0.238695,0.037 0.694345,0.0373 l 0.527302,4e-4 v -0.35359 c 0,-0.34422 0.0011,-0.35435 0.04148,-0.38264 0.03386,-0.0237 0.103936,-0.0291 0.381147,-0.0291 h 0.339663 l 0.09261,0.098 c 0.18149,0.19204 0.245453,0.27727 0.266497,0.35508 0.01174,0.0434 0.01747,0.13979 0.01274,0.21422 -0.0065,0.1019 -0.0027,0.13532 0.01526,0.13532 0.05428,0 0.08252,0.0583 0.08252,0.17026 v 0.11159 l 0.106239,-0.006 0.106239,-0.006 0.02239,-0.0933 c 0.01232,-0.0513 0.02767,-0.11642 0.03411,-0.14465 0.0089,-0.0391 0.02279,-0.0513 0.05802,-0.0513 0.05774,0 0.05809,0.0292 0.0028,0.23332 l -0.04047,0.14933 -0.144657,0.005 c -0.07956,0.003 -0.144442,0.0114 -0.144177,0.0187 2.65e-4,0.007 0.03241,0.0279 0.07144,0.0459 0.07809,0.0359 0.180694,0.0432 0.198725,0.014 0.007,-0.0113 0.14499,-0.0187 0.351494,-0.0187 h 0.339958 l 0.06906,0.0569 c 0.05721,0.0472 0.07117,0.0728 0.08132,0.14932 l 0.01226,0.0924 h 1.189295 c 1.128469,0 1.190879,0.002 1.22019,0.0341 0.02514,0.0278 0.03089,0.0759 0.03089,0.25843 0,0.19358 -0.0047,0.22852 -0.03413,0.25518 -0.03101,0.0281 -0.142747,0.0309 -1.22019,0.0309 h -1.186053 l -0.01221,0.0921 c -0.0096,0.0725 -0.02491,0.10275 -0.07187,0.14226 l -0.05965,0.0502 -0.434506,-0.008 -0.434506,-0.008 v 0.0436 c 0,0.024 -0.01302,0.0486 -0.02892,0.0547 -0.01591,0.006 -0.04796,0.0391 -0.07123,0.0733 -0.02327,0.0342 -0.06634,0.0812 -0.09571,0.10427 -0.04708,0.037 -0.08379,0.0436 -0.309756,0.0554 -0.264299,0.0138 -0.328954,0.0312 -0.397929,0.10746 -0.01962,0.0217 -0.05839,0.0392 -0.08662,0.0392 -0.02821,0 -0.05592,0.0125 -0.06185,0.028 -0.0059,0.0154 -0.02781,0.028 -0.04866,0.028 -0.02126,0 -0.03792,-0.0123 -0.03792,-0.028 0,-0.0154 -0.0117,-0.028 -0.026,-0.028 -0.0143,0 -0.03084,0.0126 -0.03675,0.028 -0.0059,0.0154 -0.02781,0.028 -0.04866,0.028 -0.02126,0 -0.03792,-0.0123 -0.03792,-0.028 0,-0.0154 -0.01286,-0.028 -0.02859,-0.028 -0.01572,0 -0.03342,0.0126 -0.03933,0.028 -0.01449,0.0378 -0.06222,0.0354 -0.09335,-0.005 -0.02418,-0.0311 -0.0266,-0.0311 -0.05078,0 -0.03229,0.0415 -0.06626,0.0415 -0.09855,0 -0.02418,-0.0311 -0.0266,-0.0311 -0.05078,0 -0.03113,0.0401 -0.07886,0.0424 -0.09335,0.005 -0.0059,-0.0154 -0.02361,-0.028 -0.03933,-0.028 -0.01572,0 -0.02858,0.0126 -0.02858,0.028 0,0.0364 -0.06744,0.0364 -0.08141,0 -0.01396,-0.0364 -0.06791,-0.0364 -0.06791,0 0,0.0154 -0.0159,0.028 -0.03533,0.028 -0.01943,0 -0.04017,-0.0126 -0.04608,-0.028 -0.0059,-0.0154 -0.02361,-0.028 -0.03933,-0.028 -0.01572,0 -0.02858,0.0126 -0.02858,0.028 0,0.0364 -0.06743,0.0364 -0.08141,0 -0.01396,-0.0364 -0.06791,-0.0364 -0.06791,0 0,0.0154 -0.0159,0.028 -0.03533,0.028 -0.01944,0 -0.04017,-0.0126 -0.04608,-0.028 -0.0059,-0.0154 -0.02361,-0.028 -0.03933,-0.028 -0.01572,0 -0.02858,0.0126 -0.02858,0.028 0,0.0364 -0.06744,0.0364 -0.08141,0 -0.01387,-0.0361 -0.06079,-0.0361 -0.07466,0 -0.0059,0.0154 -0.02271,0.028 -0.03733,0.028 -0.01462,0 -0.03142,-0.0126 -0.03733,-0.028 -0.0059,-0.0154 -0.02271,-0.028 -0.03733,-0.028 -0.01462,0 -0.03142,0.0126 -0.03733,0.028 -0.01389,0.0362 -0.06594,0.0362 -0.07983,0 -0.01385,-0.0361 -0.05564,-0.0361 -0.0695,0 -0.0059,0.0154 -0.02387,0.028 -0.03991,0.028 -0.01604,0 -0.03401,-0.0126 -0.03991,-0.028 -0.0059,-0.0154 -0.02271,-0.028 -0.03733,-0.028 -0.01462,0 -0.03142,0.0126 -0.03733,0.028 -0.0059,0.0154 -0.02271,0.028 -0.03733,0.028 -0.01462,0 -0.03142,-0.0126 -0.03733,-0.028 -0.0059,-0.0154 -0.02271,-0.028 -0.03733,-0.028 -0.01462,0 -0.03142,0.0126 -0.03733,0.028 -0.01387,0.0362 -0.06079,0.0362 -0.07466,0 -0.01387,-0.0361 -0.06079,-0.0361 -0.07466,0 -0.0059,0.0154 -0.02271,0.028 -0.03733,0.028 -0.01462,0 -0.03142,-0.0126 -0.03733,-0.028 -0.0059,-0.0154 -0.02271,-0.028 -0.03733,-0.028 -0.01462,0 -0.03142,0.0126 -0.03733,0.028 -0.0059,0.0154 -0.02271,0.028 -0.03733,0.028 -0.01462,0 -0.03142,-0.0126 -0.03733,-0.028 -0.0059,-0.0154 -0.02664,-0.028 -0.04608,-0.028 -0.01943,0 -0.03533,0.0126 -0.03533,0.028 0,0.0364 -0.05395,0.0364 -0.06791,0 -0.01398,-0.0364 -0.08141,-0.0364 -0.08141,0 0,0.0156 -0.01659,0.028 -0.03733,0.028 -0.02074,0 -0.03733,-0.0125 -0.03733,-0.028 0,-0.0156 -0.01659,-0.028 -0.03733,-0.028 -0.02074,0 -0.03733,0.0124 -0.03733,0.028 0,0.0156 -0.01659,0.028 -0.03733,0.028 -0.02074,0 -0.03733,-0.0125 -0.03733,-0.028 0,-0.0156 -0.01659,-0.028 -0.03733,-0.028 -0.02074,0 -0.03733,0.0124 -0.03733,0.028 0,0.0156 -0.01659,0.028 -0.03733,0.028 -0.02074,0 -0.03733,-0.0125 -0.03733,-0.028 0,-0.0156 -0.01659,-0.028 -0.03733,-0.028 -0.02074,0 -0.03733,0.0124 -0.03733,0.028 0,0.0156 -0.01659,0.028 -0.03733,0.028 -0.02074,0 -0.03733,-0.0125 -0.03733,-0.028 0,-0.0154 -0.0159,-0.028 -0.03533,-0.028 -0.01943,0 -0.04017,0.0126 -0.04608,0.028 -0.0059,0.0154 -0.02361,0.028 -0.03933,0.028 -0.01572,0 -0.02858,-0.0126 -0.02858,-0.028 0,-0.0154 -0.0159,-0.028 -0.03534,-0.028 -0.01943,0 -0.04017,0.0126 -0.04608,0.028 -0.0059,0.0154 -0.02271,0.028 -0.03733,0.028 -0.01462,0 -0.03142,-0.0126 -0.03733,-0.028 -0.0071,-0.0185 -0.03632,-0.028 -0.08599,-0.028 -0.06762,0 -0.07525,0.005 -0.07525,0.0462 0,0.0636 -0.162436,1.06696 -0.186398,1.15134 -0.02354,0.0829 -0.123485,0.17472 -0.219067,0.20127 -0.04351,0.0121 -0.331353,0.0193 -0.751799,0.0189 -0.705617,-7.4e-4 -0.774906,-0.007 -0.856654,-0.0813 -0.0181,-0.0164 -0.03854,-0.0298 -0.04543,-0.0298 -0.01985,0 -0.0149,2.24988 0.0051,2.30239 0.01359,0.0358 0.01112,0.0488 -0.01086,0.0572 -0.01565,0.006 -0.05289,0.0109 -0.08274,0.0109 h -0.05428 l -0.0049,0.85395 -0.0049,0.85395 -0.67196,0.003 c -0.641705,0.003 -0.67343,0.002 -0.704624,-0.0327 z m 3.171807,-4.09763 c 0.02897,-0.0216 0.06794,-0.0654 0.0866,-0.0972 0.02193,-0.0374 0.06555,-0.24709 0.123292,-0.59247 l 0.08936,-0.53453 -0.05563,0.0111 c -0.0306,0.006 -0.285211,0.0111 -0.565812,0.0111 h -0.510182 l -0.05137,0.0876 c -0.06703,0.11439 -0.100137,0.27528 -0.07944,0.38609 0.03081,0.16492 0.108748,0.27121 0.273888,0.37353 0.07734,0.0479 0.103453,0.10623 0.05968,0.13328 -0.03598,0.0222 -0.220481,-0.0853 -0.298945,-0.17431 -0.0425,-0.0482 -0.09949,-0.12961 -0.126656,-0.18094 -0.04587,-0.0867 -0.04947,-0.11066 -0.05054,-0.33675 -6.35e-4,-0.13389 -0.0074,-0.25358 -0.0151,-0.26599 -0.0087,-0.0141 -0.06235,-0.0226 -0.1435,-0.0226 -0.117114,0 -0.129557,0.004 -0.129557,0.0373 0,0.0311 -0.01244,0.0373 -0.07512,0.0373 -0.06477,0 -0.07782,0.007 -0.09469,0.0513 -0.01233,0.0324 -0.01734,0.21728 -0.01354,0.50018 0.0053,0.3948 0.01009,0.45503 0.03971,0.50019 0.01852,0.0282 0.06052,0.0679 0.09333,0.0882 0.05691,0.0352 0.09017,0.0366 0.725606,0.0318 0.643737,-0.005 0.667714,-0.006 0.718624,-0.0444 z m -3.62578,-1.60462 c 0.05638,-0.0564 0.02394,-0.13866 -0.05466,-0.13866 -0.05003,0 -0.084,0.034 -0.084,0.084 0,0.0786 0.08228,0.11104 0.138658,0.0547 z"
       id="path2680" />
  </g>
</svg>
