<?xml version="1.0" encoding="UTF-8" standalone="no"?>
<svg
   version="1.1"
   x="0px"
   y="0px"
   width="72.023399"
   height="32"
   viewBox="0 0 72.0234 32.000001"
   enable-background="new 0 0 49.125 32"
   xml:space="preserve"
   id="svg152"
   xmlns="http://www.w3.org/2000/svg"
   xmlns:svg="http://www.w3.org/2000/svg"
   xmlns:rdf="http://www.w3.org/1999/02/22-rdf-syntax-ns#"
   xmlns:cc="http://creativecommons.org/ns#"
   xmlns:dc="http://purl.org/dc/elements/1.1/"><metadata
   id="metadata158"><rdf:RDF><cc:Work
       rdf:about=""><dc:format>image/svg+xml</dc:format><dc:type
         rdf:resource="http://purl.org/dc/dcmitype/StillImage" /></cc:Work></rdf:RDF></metadata><defs
   id="defs156" />

<g
   id="guides"
   transform="translate(11.506859,-0.20852187)">
</g>
<path
   style="fill:#ffffff;fill-opacity:1;stroke-width:0.114023"
   d="m 46.750335,31.945849 c 0,-0.200988 0.59826,-3.706736 1.260931,-7.388952 0.372441,-2.069517 0.677233,-3.795974 0.677313,-3.836571 1.88e-4,-0.09422 -1.31525,-0.325268 -1.851827,-0.325268 -0.224406,0 -0.733306,0.153892 -1.13089,0.34198 -0.397586,0.188088 -0.84096,0.342021 -0.985277,0.342068 -0.144313,4.9e-5 -1.322939,-0.181267 -2.619158,-0.402924 l -2.356766,-0.403016 -0.452032,0.3177 c -0.400704,0.281627 -0.559982,0.557209 -1.402684,2.426924 -0.522859,1.160072 -1.244334,2.724946 -1.603281,3.477497 -0.563,1.180357 -0.656007,1.470063 -0.677219,2.109424 -0.01351,0.407632 -0.02657,0.785194 -0.02899,0.839027 -0.0076,0.170855 -0.584416,-0.03534 -2.341853,-0.837221 -3.032016,-1.383442 -3.261836,-1.4972 -3.317435,-1.642084 -0.08716,-0.227118 2.944025,-6.200809 3.582643,-7.060494 0.736746,-0.991782 0.864191,-1.385908 0.785327,-2.428664 -0.05383,-0.71172 -0.03569,-0.836997 0.127498,-0.880185 0.159526,-0.04224 0.155882,-0.05249 -0.02256,-0.06358 -0.11705,-0.0073 -0.512923,-0.291084 -0.879733,-0.630684 -0.652555,-0.604151 -1.625065,-1.094433 -2.271138,-1.144975 -0.696972,-0.05452 -3.648734,-0.903264 -3.648734,-1.049144 0,-0.119024 -0.287395,-0.15302 -1.293361,-0.15302 -0.71135,0 -1.92101,-0.03375 -2.688135,-0.07501 -1.345686,-0.07235 -1.392317,-0.08339 -1.324986,-0.313563 0.03838,-0.131208 0.100473,-0.505258 0.137961,-0.831218 0.0669,-0.581711 0.07578,-0.593461 0.480416,-0.636465 0.287548,-0.03056 0.213927,-0.04961 -0.24338,-0.06299 -0.49825,-0.01454 -0.655633,-0.06022 -0.655633,-0.190201 0,-0.150666 -1.133895,-0.171036 -9.520916,-0.171036 H 2.9655248 v 0.378095 c 0,0.207952 -0.2322613,1.170021 -0.5161363,2.13793 -0.5168767,1.762366 -0.8113599,3.613474 -0.6744912,4.239835 0.067852,0.310489 0.062734,0.313564 -0.5213327,0.313564 -0.49395499,0 -0.59954399,-0.03707 -0.64948399,-0.228046 -0.0328,-0.125421 -0.149157,-0.228045 -0.258571,-0.228045 -0.150835,0 -0.18573,-0.06908 -0.144318,-0.285714 0.03003,-0.157143 -0.0054,-0.3579 -0.07851,-0.446129 -0.102596,-0.123625 -0.09223,-0.258322 0.04519,-0.587217 0.160026,-0.382994 0.160446,-0.446562 0.0041,-0.619332 -0.156365,-0.172781 -0.155849,-0.236539 0.0051,-0.621571 0.163046,-0.390225 0.163023,-0.446986 -2.46e-4,-0.627398 -0.158913,-0.175597 -0.160716,-0.242886 -0.01572,-0.586418 0.145347,-0.344361 0.143311,-0.410811 -0.01808,-0.590093 -0.166668,-0.185146 -0.165501,-0.236368 0.01396,-0.612745 0.179767,-0.376976 0.18086,-0.427279 0.01326,-0.61243 -0.16655,-0.184036 -0.166838,-0.239331 -0.0032,-0.630761 0.163005,-0.390124 0.163005,-0.447008 0,-0.627125 -0.163004,-0.180118 -0.163004,-0.237003 0,-0.627127 0.163414,-0.391104 0.163197,-0.4467956 -0.0024,-0.629843 -0.140667,-0.1554316 -0.153906,-0.2527789 -0.05862,-0.4308384 0.151924,-0.2838705 0.160576,-0.7785291 0.01519,-0.8683817 -0.06484,-0.040056 -0.04031,-0.2583309 0.06142,-0.5466418 0.151126,-0.4283346 0.15047,-0.4937414 -0.0061,-0.6082299 -0.275286,-0.2012958 -0.217571,-0.502223 0.09632,-0.502223 0.178713,0 0.292839,-0.080613 0.33333,-0.2354495 0.05096,-0.1948639 0.136564,-0.2292608 0.49660699,-0.199541 l 0.435036,0.035914 0.3834811,1.3112646 c 0.2109147,0.7211943 0.4012777,1.3300105 0.4230277,1.3529248 0.021757,0.022914 0.29873,0.041673 0.6155087,0.041673 h 0.5759623 v 0.3859253 c 0,0.3730376 0.1400178,0.5065876 0.2850566,0.2719014 0.04584,-0.074175 2.7146649,-0.1140225 7.634068,-0.1140225 6.618012,0 7.571802,0.021371 7.629229,0.1710338 0.08318,0.2167749 0.518414,0.2148219 0.807225,-0.00371 0.153373,-0.1160112 0.512238,-0.1674066 1.168736,-0.1674066 0.85021,0 0.947401,-0.021935 0.947401,-0.2137147 0,-0.1175398 0.170403,-0.3997497 0.378671,-0.6271269 0.315454,-0.3443931 0.455519,-0.4134121 0.838967,-0.4134121 h 0.460295 L 23.941436,7.424881 c 0.140795,-0.5487343 0.274747,-1.0618382 0.297687,-1.1402288 0.02318,-0.079246 0.220494,-0.1425288 0.444364,-0.1425288 0.384165,0 0.402659,-0.01833 0.402659,-0.3990808 V 5.344035 h 1.492972 c 1.397079,0 1.496803,0.014648 1.552609,0.2280466 0.04225,0.1615303 0.155529,0.2280454 0.388405,0.2280454 0.274672,0 0.32877,-0.046899 0.32877,-0.2850566 0,-0.1731195 0.06499,-0.2850581 0.165484,-0.2850581 0.136209,0 0.155771,-0.1765291 0.110594,-0.9977012 -0.03019,-0.5487356 -0.108903,-1.4447027 -0.174909,-1.9910382 -0.06601,-0.5463371 -0.07909,-1.0594391 -0.02907,-1.1402296 0.05001,-0.080797 0.1184,-0.35213297 0.151954,-0.60298307 0.0578,-0.4321394 0.08352,-0.4579534 0.489512,-0.4915352 0.281293,-0.023266 0.442447,0.015905 0.469089,0.1140166 0.02232,0.082207 0.102476,0.3803623 0.178132,0.6625691 0.0759,0.28316717 0.130155,1.10543357 0.121072,1.83488597 l -0.01649,1.3217825 0.476726,0.1034989 c 0.447124,0.097082 0.502523,0.1546674 0.892148,0.9274169 0.386475,0.7665029 0.441242,0.8241037 0.785996,0.8266658 0.295476,0.00226 0.370574,-0.043459 0.370574,-0.2252915 0,-0.3106746 0.455832,-0.3106746 0.537077,0 0.08514,0.3255605 0.717175,0.3255605 0.717175,0 0,-0.3106746 0.455833,-0.3106746 0.537077,0 0.08661,0.3311837 0.831199,0.3311837 0.831199,0 0,-0.1326434 0.07601,-0.2280453 0.181709,-0.2280453 0.09994,0 0.208544,0.1026232 0.241344,0.2280453 0.04428,0.1693363 0.155531,0.2280454 0.432118,0.2280454 0.276589,0 0.387836,-0.058715 0.432119,-0.2280454 0.0328,-0.1254248 0.146212,-0.2280453 0.252019,-0.2280453 0.105815,0 0.219219,0.1026232 0.25202,0.2280453 0.08314,0.3179166 0.667076,0.3179166 0.750214,0 0.0772,-0.2952288 0.426833,-0.2952288 0.504038,0 0.04481,0.1713612 0.15553,0.2280454 0.445417,0.2280454 0.309766,0 0.385783,-0.044938 0.385783,-0.2280454 0,-0.1520307 0.07602,-0.2280453 0.228045,-0.2280453 0.15203,0 0.228045,0.076016 0.228045,0.2280453 0,0.1846086 0.07602,0.2280454 0.39908,0.2280454 0.323065,0 0.399082,-0.043444 0.399082,-0.2280454 0,-0.1520307 0.07601,-0.2280453 0.228045,-0.2280453 0.15203,0 0.228045,0.076016 0.228045,0.2280453 0,0.3311837 0.744594,0.3311837 0.831199,0 0.0772,-0.2952288 0.426835,-0.2952288 0.504038,0 0.08661,0.3311837 0.8312,0.3311837 0.8312,0 0,-0.3106746 0.455832,-0.3106746 0.537077,0 0.08514,0.3255605 0.717175,0.3255605 0.717175,0 0,-0.3106746 0.455833,-0.3106746 0.537077,0 0.08661,0.3311837 0.831199,0.3311837 0.831199,0 0,-0.2990078 0.344861,-0.2990078 0.423053,0 0.08661,0.3311837 0.831199,0.3311837 0.831199,0 0,-0.1326434 0.07601,-0.2280453 0.181709,-0.2280453 0.09994,0 0.208544,0.1026232 0.241344,0.2280453 0.08495,0.3248767 0.77928,0.3248767 0.864238,0 0.0772,-0.2952288 0.426833,-0.2952288 0.504038,0 0.08661,0.3311837 0.831198,0.3311837 0.831198,0 0,-0.1520307 0.07602,-0.2280453 0.228047,-0.2280453 0.15203,0 0.228045,0.076016 0.228045,0.2280453 0,0.1846086 0.07601,0.2280454 0.39908,0.2280454 0.323066,0 0.399082,-0.043444 0.399082,-0.2280454 0,-0.1520307 0.07601,-0.2280453 0.228045,-0.2280453 0.15203,0 0.228045,0.076016 0.228045,0.2280453 0,0.1831112 0.07601,0.2280454 0.385783,0.2280454 0.289887,0 0.400605,-0.056685 0.445417,-0.2280454 0.0328,-0.1254248 0.146212,-0.2280453 0.252019,-0.2280453 0.105815,0 0.219219,0.1026232 0.252019,0.2280453 0.0448,0.1713612 0.155531,0.2280454 0.445418,0.2280454 0.309764,0 0.385781,-0.044938 0.385781,-0.2280454 0,-0.2990078 0.344861,-0.2990078 0.423054,0 0.08661,0.3311837 0.831198,0.3311837 0.831198,0 0,-0.1554289 0.07601,-0.2280453 0.23872,-0.2280453 0.142829,0 0.262677,0.091611 0.298357,0.2280453 0.08314,0.3179166 0.667076,0.3179166 0.750214,0 0.0328,-0.1254248 0.146213,-0.2280453 0.252019,-0.2280453 0.105816,0 0.219219,0.1026232 0.252019,0.2280453 0.08661,0.3311837 0.8312,0.3311837 0.8312,0 0,-0.2990078 0.34486,-0.2990078 0.423052,0 0.08495,0.3248767 0.77928,0.3248767 0.864237,0 0.0772,-0.2952288 0.426834,-0.2952288 0.50404,0 0.0448,0.1713612 0.155529,0.2280454 0.445416,0.2280454 0.309766,0 0.385781,-0.044938 0.385781,-0.2280454 0,-0.2990078 0.344861,-0.2990078 0.423055,0 0.08661,0.3311837 0.831199,0.3311837 0.831199,0 0,-0.1520307 0.07601,-0.2280453 0.228045,-0.2280453 0.15203,0 0.228045,0.076016 0.228045,0.2280453 0,0.1831112 0.07601,0.2280454 0.385783,0.2280454 0.289887,0 0.400605,-0.056685 0.445417,-0.2280454 0.0772,-0.2952288 0.426834,-0.2952288 0.504038,0 0.08237,0.3149358 0.717177,0.3272456 0.717177,0.013965 0,-0.1177817 0.112404,-0.2887721 0.249786,-0.37999 0.226388,-0.1503161 0.236383,-0.19821 0.106706,-0.5112774 -0.16977,-0.4098591 -0.205814,-3.78381987 -0.04605,-4.31068407 0.08663,-0.2856433 0.170621,-0.3477632 0.509259,-0.3765933 0.30538,-0.026001 0.425589,0.016243 0.486741,0.1710355 0.04466,0.1130578 0.110001,1.00899427 0.145203,1.99097197 l 0.06399,1.7854142 0.505552,0.075804 c 0.473813,0.071052 0.522809,0.1128753 0.780381,0.6660789 0.151153,0.3246467 0.275328,0.6447673 0.275941,0.7113797 5.7e-4,0.06661 0.104109,0.3342816 0.229987,0.5948217 0.563735,1.1668006 1.139403,2.5947163 1.139403,2.8262401 0,0.139252 0.08116,0.284341 0.180359,0.3224064 0.0992,0.038067 0.93677,0.069203 1.861273,0.069203 H 72.0234 l -0.0064,1.0832187 -0.0064,1.083217 h -1.854872 -1.854869 v 1.197242 c 0,1.121225 -0.01454,1.197241 -0.228046,1.197241 -0.126697,0 -0.228045,-0.07601 -0.228045,-0.171035 0,-0.119736 -0.120761,-0.171034 -0.402659,-0.171034 -0.252736,0 -0.427097,0.06368 -0.468292,0.171034 -0.03609,0.09406 -0.131609,0.171035 -0.212268,0.171035 -0.08066,0 -0.176171,-0.07697 -0.212267,-0.171035 -0.0412,-0.107344 -0.215558,-0.171034 -0.468293,-0.171034 -0.281904,0 -0.402658,0.0513 -0.402658,0.171034 0,0.09503 -0.101349,0.171035 -0.228045,0.171035 -0.126697,0 -0.228047,-0.07601 -0.228047,-0.171035 0,-0.119455 -0.120359,-0.171034 -0.39908,-0.171034 -0.278722,0 -0.39908,0.05159 -0.39908,0.171034 0,0.223211 -0.443226,0.223211 -0.528881,0 -0.08839,-0.230347 -0.725372,-0.230347 -0.725372,0 0,0.223211 -0.443226,0.223211 -0.52888,0 -0.09023,-0.235117 -0.839396,-0.235117 -0.839396,0 0,0.09503 -0.101348,0.171035 -0.228045,0.171035 -0.126696,0 -0.228045,-0.07601 -0.228045,-0.171035 0,-0.119455 -0.120359,-0.171034 -0.399082,-0.171034 -0.278722,0 -0.39908,0.05159 -0.39908,0.171034 0,0.09503 -0.101348,0.171035 -0.228045,0.171035 -0.126697,0 -0.228047,-0.07601 -0.228047,-0.171035 0,-0.247485 -0.749951,-0.233082 -0.845626,0.01624 -0.06077,0.158356 -0.190303,0.176234 -0.838864,0.115759 -0.518388,-0.04832 -0.811761,-0.132604 -0.905087,-0.260001 -0.124663,-0.170176 -0.177694,-0.15372 -0.545576,0.169286 -0.224121,0.196779 -0.457018,0.357782 -0.517549,0.357782 -0.06054,0 -0.11006,0.120612 -0.11006,0.268043 0,0.147429 -0.05102,0.416803 -0.113399,0.59862 -0.06236,0.181819 -0.159667,0.638441 -0.216225,1.014716 -0.14357,0.955148 -0.561545,3.318105 -0.695841,3.933792 -0.232541,1.066076 -0.260628,1.477587 -0.112999,1.65547 0.241853,0.291414 0.03716,0.330331 -0.919958,0.174898 -0.503544,-0.08177 -0.932894,-0.129398 -0.954112,-0.105845 -0.05323,0.0591 -1.662415,9.021096 -1.662415,9.258436 0,0.115269 0.09062,0.19129 0.228047,0.19129 0.150267,0 0.228046,0.07601 0.228046,0.22288 0,0.263975 -0.04587,0.273421 -2.508506,0.516609 -0.972045,0.09598 -2.011079,0.204584 -2.308964,0.241321 -0.297886,0.03673 -0.541609,0.02136 -0.541609,-0.03415 z M 46.066199,20.259618 c 1.322858,-0.791152 1.406395,-0.920977 1.346169,-2.092087 -0.03366,-0.654433 -0.04715,-0.680911 -0.376975,-0.740003 -0.289014,-0.05178 -0.337214,-0.107848 -0.310762,-0.361571 0.03458,-0.331636 0.04,-0.329434 -1.34257,-0.544622 -0.981385,-0.152748 -3.571621,-0.155023 -3.477701,-0.0031 0.03876,0.06272 0.278669,0.114023 0.533133,0.114023 0.429057,0 0.456464,0.01863 0.377348,0.256551 -0.04691,0.141108 -0.109184,0.731358 -0.138346,1.311673 -0.04622,0.919641 -0.02283,1.106314 0.182189,1.453794 0.316173,0.535877 0.122497,0.509227 -0.254684,-0.03504 -0.271373,-0.391593 -0.300564,-0.5353 -0.300564,-1.47967 0,-0.959511 -0.02121,-1.059668 -0.256553,-1.211895 -0.790228,-0.511132 -1.265267,-0.204873 -1.519292,0.979491 -0.315719,1.472012 -0.163161,2.036744 0.611234,2.262623 0.813746,0.237358 3.504974,0.652541 3.844149,0.593045 0.188138,-0.03299 0.675587,-0.259465 1.083219,-0.503251 z m 17.652624,-7.931683 -0.03608,-0.313561 -1.159816,-0.0324 c -1.079286,-0.03014 -1.164906,-0.01635 -1.233107,0.198521 -0.04031,0.127008 -0.0413,0.282686 -0.0022,0.345958 0.04053,0.06557 0.586373,0.115047 1.269186,0.115047 h 1.198085 z m 3.561154,0.103975 c 0.46209,-0.374179 0.194202,-0.474558 -1.266493,-0.474558 -1.103991,0 -1.361546,0.03081 -1.361546,0.162891 0,0.39358 0.334028,0.521247 1.363788,0.521247 0.806012,0 1.056766,-0.04157 1.264251,-0.20958 z M 71.46535,9.8194229 c 0.03412,-0.1035597 -0.142725,-0.1425318 -0.646671,-0.1425318 -0.646044,0 -0.810753,0.072928 -0.612501,0.2711741 0.135527,0.1355418 1.208228,0.025927 1.259172,-0.1286423 z M 63.741016,8.5343076 c 0.06782,-0.1267263 0.09225,-0.2806515 0.0543,-0.342069 -0.03825,-0.061857 -0.625401,-0.1116628 -1.316538,-0.1116628 -1.230912,0 -1.247523,0.00356 -1.247523,0.2660525 0,0.1463311 0.03421,0.3002608 0.07601,0.3420691 0.04181,0.041807 0.57876,0.076015 1.193229,0.076015 1.004326,0 1.129674,-0.023285 1.24052,-0.2304033 z m 3.593549,0.1113809 c 0.04046,-0.065448 0.01158,-0.1937344 -0.06425,-0.2850563 C 67.166744,8.23585 66.853716,8.1945923 66.010262,8.1945923 c -0.979236,0 -1.136788,0.027159 -1.23628,0.2130543 -0.0627,0.1171688 -0.08163,0.2454549 -0.04201,0.2850578 0.124366,0.1243666 2.523464,0.081031 2.602598,-0.047016 z"
   id="path360" /></svg>
