<?xml version="1.0" encoding="UTF-8" standalone="no"?>
<svg
   version="1.1"
   x="0px"
   y="0px"
   width="53.28532"
   height="32"
   viewBox="0 0 53.285321 32"
   enable-background="new 0 0 67.5 32"
   xml:space="preserve"
   id="svg122"
   xmlns="http://www.w3.org/2000/svg"
   xmlns:svg="http://www.w3.org/2000/svg"
   xmlns:rdf="http://www.w3.org/1999/02/22-rdf-syntax-ns#"
   xmlns:cc="http://creativecommons.org/ns#"
   xmlns:dc="http://purl.org/dc/elements/1.1/"><metadata
   id="metadata128"><rdf:RDF><cc:Work
       rdf:about=""><dc:format>image/svg+xml</dc:format><dc:type
         rdf:resource="http://purl.org/dc/dcmitype/StillImage" /></cc:Work></rdf:RDF></metadata><defs
   id="defs126" />

<g
   id="guides"
   transform="translate(-6.4429908,-0.03952188)">
</g>
<path
   style="fill:#ffffff;fill-opacity:1;stroke-width:0.0841907"
   d="m 31.227407,31.515528 c -0.67142,-0.256168 -1.250363,-0.494148 -1.286539,-0.528845 -0.118515,-0.11367 0.227766,-1.176709 1.26392,-3.880081 0.115359,-0.300983 0.49183,-1.3239 0.836599,-2.27315 0.34477,-0.94925 0.904807,-2.464684 1.244527,-3.367629 l 0.617669,-1.64172 -1.232849,-0.04209 c -0.97663,-0.03335 -1.291295,-0.07399 -1.514067,-0.19552 -0.230862,-0.125952 -0.272216,-0.189295 -0.230944,-0.353736 0.02858,-0.113849 -0.01026,-0.327239 -0.08996,-0.494377 l -0.140231,-0.294065 0.767716,-2.004206 c 0.422242,-1.102315 0.848276,-2.231522 0.946742,-2.509352 0.09847,-0.277829 0.353895,-0.95287 0.567621,-1.500093 0.30012,-0.768423 0.368309,-1.027194 0.299502,-1.136574 -0.07625,-0.121228 -0.306117,-0.147985 -1.595588,-0.185735 l -1.506503,-0.04411 -0.9986,-0.355801 c -0.549228,-0.195689 -1.065962,-0.355799 -1.148294,-0.355799 -0.358977,0 -0.51017,0.310754 -1.65895,3.409724 -1.059793,2.858912 -1.153916,3.158917 -1.144656,3.648461 0.0095,0.506791 0.001,0.531102 -0.171714,0.487233 -0.28036,-0.07121 -4.066872,-1.648268 -3.962316,-1.650286 0.05218,-10e-4 0.157572,-0.413198 0.242621,-0.948927 0.299189,-1.884603 0.839142,-3.355139 1.942588,-5.290543 C 24.238849,8.3189842 24.229327,8.0221005 23.184736,7.1724107 22.747447,6.8167149 22.734229,6.8124094 22.038673,6.7991347 21.462196,6.7881301 21.270927,6.818937 20.980542,6.9695523 20.62694,7.1529562 20.612938,7.1534043 15.171382,7.1552484 10.077322,7.1569694 9.6943649,7.167229 9.3791931,7.3104133 8.7376869,7.6018435 8.588893,7.8723686 7.8235352,10.138771 L 7.1169414,12.231155 6.121421,13.712384 c -0.6397457,0.951875 -1.0838736,1.529305 -1.2427498,1.615754 -0.1703405,0.0927 -0.5946903,0.152867 -1.3644582,0.193504 -0.7184148,0.03792 -1.1405375,0.09509 -1.1825269,0.160144 -0.03592,0.05564 -0.1473435,0.352802 -0.2476192,0.660364 -0.1547341,0.474591 -0.2254579,0.579772 -0.467418,0.695154 -0.3101389,0.147895 -0.69790157,0.103718 -0.69790157,-0.07952 0,-0.08012 -0.0809354,-0.09873 -0.28518943,-0.06559 -0.22243711,0.0361 -0.32664796,0.0049 -0.47359589,-0.142118 C -0.0075278,16.582589 -0.0229475,16.504433 0.02106013,16.046028 0.04828663,15.762422 0.22816371,13.200404 0.42078668,10.352653 0.67997117,6.5208461 0.80212601,5.1249626 0.89071074,4.9827466 1.0930205,4.6579539 1.8851679,4.7276844 3.3280489,5.1972981 L 4.5165853,5.5841305 4.9432788,5.4005712 C 5.3695289,5.2172036 5.3768495,5.2170107 11.963339,5.2151633 c 7.515224,-0.00215 6.921718,0.055776 7.783251,-0.7590294 l 0.441753,-0.4177913 h 1.225804 1.225806 V 3.7960792 c 0,-0.1332447 0.05395,-0.2870412 0.119898,-0.3417707 0.103739,-0.086091 0.103739,-0.1381847 0,-0.3864628 -0.06595,-0.1578255 -0.119898,-0.458659 -0.119898,-0.668518 0,-0.20986 -0.0331,-0.3815628 -0.07359,-0.3815628 -0.04048,0 -0.248752,0.097902 -0.462844,0.2175608 -0.214093,0.1196582 -0.434626,0.2024384 -0.490075,0.1839558 -0.05546,-0.018485 0.117927,-0.1587578 0.385279,-0.3117206 0.427274,-0.2444618 0.479908,-0.30277 0.434961,-0.481857 -0.02823,-0.1124518 0.0052,-0.324892 0.07437,-0.4741275 0.06903,-0.1487124 0.136419,-0.4598154 0.14975,-0.69133994 0.02331,-0.40467773 0.03449,-0.42195 0.289658,-0.446724 0.250797,-0.0243505 0.268617,-0.006858 0.323423,0.31753936 0.04499,0.26630738 0.114411,0.37248006 0.309499,0.4733634 0.141984,0.0734235 0.305617,0.25958708 0.37579,0.42753248 0.112825,0.2700276 0.11027,0.3258371 -0.02768,0.6047909 -0.09467,0.1914299 -0.142177,0.4429609 -0.125992,0.6670418 0.03039,0.4207659 0.184495,0.3974325 0.184495,-0.027936 0,-0.1593344 0.03748,-0.2896987 0.0833,-0.2896987 0.156556,0 1.170748,0.435183 1.257336,0.5395135 0.04752,0.057254 0.138821,0.309736 0.202891,0.5610605 0.08852,0.3472272 0.157722,0.4631446 0.288187,0.4827329 0.09442,0.014177 0.190952,0.099421 0.21449,0.1894295 0.06001,0.2294635 0.479028,0.2257879 0.539309,-0.00471 0.05942,-0.2272099 0.410326,-0.2272099 0.469743,0 0.02975,0.1137818 0.114837,0.1683816 0.26239,0.1683816 0.162232,-1e-6 0.218359,-0.043281 0.218359,-0.1683816 0,-0.2343379 0.384068,-0.2343379 0.445349,0 0.06112,0.2337369 0.479422,0.2337369 0.540546,0 0.06129,-0.2343379 0.445349,-0.2343379 0.445349,0 0,0.1309634 0.05613,0.1683806 0.252572,0.1683806 0.196445,0 0.252571,-0.03742 0.252571,-0.1683806 0,-0.1212828 0.05613,-0.1683816 0.200657,-0.1683816 0.129854,0 0.216195,0.059419 0.244692,0.1683816 0.06112,0.2337369 0.479421,0.2337369 0.540545,0 0.05942,-0.2272099 0.410326,-0.2272099 0.469743,0 0.06112,0.2337369 0.479422,0.2337369 0.540545,0 0.06129,-0.2343379 0.445348,-0.2343379 0.445348,0 0,0.1309634 0.05613,0.1683806 0.252572,0.1683806 0.196446,0 0.252573,-0.03742 0.252573,-0.1683806 0,-0.1234805 0.05613,-0.1683816 0.210478,-0.1683816 0.154348,0 0.210476,0.044899 0.210476,0.1683816 0,0.1309634 0.05613,0.1683806 0.252572,0.1683806 0.196446,0 0.252572,-0.03742 0.252572,-0.1683806 0,-0.2343379 0.384068,-0.2343379 0.445349,0 0.06112,0.2337369 0.479422,0.2337369 0.540546,0 0.05942,-0.2272099 0.410325,-0.2272099 0.469742,0 0.02976,0.1137818 0.114837,0.1683806 0.262392,0.1683806 0.162231,0 0.218358,-0.043281 0.218358,-0.1683806 0,-0.1212828 0.05613,-0.1683816 0.200657,-0.1683816 0.129854,0 0.216196,0.059419 0.244692,0.1683816 0.03025,0.1156839 0.114837,0.1683806 0.270272,0.1683806 0.155436,0 0.240022,-0.052701 0.270273,-0.1683806 0.02849,-0.1089661 0.114839,-0.1683816 0.244691,-0.1683816 0.14453,0 0.200657,0.047096 0.200657,0.1683816 0,0.2423031 0.501578,0.2423031 0.564941,0 0.05703,-0.218078 0.328524,-0.218078 0.385553,0 0.06112,0.2337369 0.479421,0.2337369 0.540545,0 0.05942,-0.2272099 0.410326,-0.2272099 0.469743,0 0.03025,0.1156839 0.114836,0.1683806 0.270273,0.1683806 0.155436,0 0.240021,-0.052701 0.270273,-0.1683806 0.02849,-0.1089661 0.114838,-0.1683816 0.24469,-0.1683816 0.14453,0 0.200657,0.047096 0.200657,0.1683816 0,0.1309634 0.05613,0.1683806 0.252573,0.1683806 0.196445,0 0.252572,-0.03742 0.252572,-0.1683806 0,-0.1234805 0.05613,-0.1683816 0.210478,-0.1683816 0.154349,0 0.210476,0.044899 0.210476,0.1683816 0,0.1309634 0.05613,0.1683806 0.252572,0.1683806 0.196445,0 0.252572,-0.03742 0.252572,-0.1683806 0,-0.1212828 0.05613,-0.1683816 0.200657,-0.1683816 0.129854,0 0.216196,0.059419 0.244692,0.1683816 0.03206,0.1226062 0.114837,0.1683806 0.304486,0.1683806 0.204327,0 0.260454,-0.036283 0.260454,-0.1683806 0,-0.1212828 0.05613,-0.1683816 0.200657,-0.1683816 0.129854,0 0.216195,0.059419 0.244691,0.1683816 0.02975,0.1137818 0.114837,0.1683806 0.262392,0.1683806 0.162231,0 0.218358,-0.043281 0.218358,-0.1683806 0,-0.2343379 0.384068,-0.2343379 0.445349,0 0.06336,0.2423031 0.56494,0.2423031 0.56494,0 0,-0.1234805 0.05613,-0.1683816 0.210476,-0.1683816 0.15435,0 0.210477,0.044899 0.210477,0.1683816 0,0.132095 0.05613,0.1683806 0.260454,0.1683806 0.18965,0 0.272425,-0.045777 0.304487,-0.1683806 0.02423,-0.092605 0.110967,-0.1683816 0.192775,-0.1683816 0.0818,0 0.168558,0.075771 0.192777,0.1683816 0.06112,0.2337369 0.479422,0.2337369 0.540545,0 0.05943,-0.2272099 0.410326,-0.2272099 0.469744,0 0.07026,0.2687066 0.463199,0.2255029 0.572883,-0.062987 0.04838,-0.1272546 0.144855,-0.2942293 0.214382,-0.3710568 0.112487,-0.1242981 0.111842,-0.1826014 -0.0059,-0.5292874 -0.166666,-0.4909026 -0.190885,-2.73296382 -0.03124,-2.8926025 0.130985,-0.13098454 0.845629,-0.13098454 0.976613,0 0.07005,0.07005154 0.101027,0.5088862 0.101027,1.4312424 0,0.8306815 0.03162,1.3302135 0.08419,1.3302135 0.0463,0 0.08419,-0.1515429 0.08419,-0.3367632 0,-0.4108358 0.04813,-0.4163147 0.812528,-0.092477 0.548316,0.2322977 0.58352,0.2643249 0.717203,0.6524786 0.07733,0.2245043 0.143621,0.4725091 0.147334,0.5511229 0.0053,0.1115882 0.101942,0.1485147 0.440822,0.1683816 l 0.43407,0.02545 0.150707,0.6314309 c 0.08289,0.347286 0.173105,1.1239461 0.200479,1.7259097 0.02739,0.6019636 0.07052,1.3330979 0.09588,1.6247426 l 0.04611,0.5302624 0.918961,-0.058143 0.918961,-0.058155 v 0.8653799 0.8653792 l -0.896644,-0.060065 -0.896643,-0.060064 0.04759,0.6293661 c 0.06376,0.843024 -0.03014,0.983213 -0.658519,0.983213 -0.351228,0 -0.458276,-0.0295 -0.458276,-0.126287 0,-0.17008 -0.470323,-0.17008 -0.535589,0 -0.06324,0.164812 -0.390508,0.164812 -0.390508,0 0,-0.0882 -0.08887,-0.126286 -0.294667,-0.126286 -0.2058,0 -0.294668,0.03809 -0.294668,0.126286 0,0.07016 -0.07485,0.126287 -0.168383,0.126287 -0.09354,0 -0.168381,-0.05613 -0.168381,-0.126287 0,-0.0882 -0.08887,-0.126286 -0.294667,-0.126286 -0.205799,0 -0.294668,0.03809 -0.294668,0.126286 0,0.07858 -0.07951,0.126287 -0.210476,0.126287 -0.130963,0 -0.210477,-0.04771 -0.210477,-0.126287 0,-0.0882 -0.08887,-0.126286 -0.294667,-0.126286 -0.2058,0 -0.294668,0.03809 -0.294668,0.126286 0,0.07016 -0.07485,0.126287 -0.168382,0.126287 -0.09354,0 -0.168381,-0.05613 -0.168381,-0.126287 0,-0.0882 -0.08887,-0.126286 -0.294667,-0.126286 -0.2058,0 -0.294668,0.03809 -0.294668,0.126286 0,0.07858 -0.07951,0.126287 -0.210477,0.126287 -0.130963,0 -0.210476,-0.04771 -0.210476,-0.126287 0,-0.0882 -0.08887,-0.126286 -0.294667,-0.126286 -0.205801,0 -0.294669,0.03809 -0.294669,0.126286 0,0.07016 -0.07484,0.126287 -0.168382,0.126287 -0.09354,0 -0.168381,-0.05613 -0.168381,-0.126287 0,-0.0882 -0.08887,-0.126286 -0.294667,-0.126286 -0.205799,0 -0.294668,0.03809 -0.294668,0.126286 0,0.15685 -0.146574,0.15685 -0.420953,0 -0.333539,-0.190668 -0.420954,-0.155703 -0.420954,0.168382 v 0.294667 l -0.484097,5.06e-4 c -0.639179,5.89e-4 -1.07007,0.127959 -1.369197,0.404631 -0.165726,0.153287 -0.721275,1.24202 -1.721421,3.373536 -0.812201,1.730928 -1.476728,3.200193 -1.476728,3.264999 0,0.0648 0.05682,0.139631 0.126286,0.166285 0.06946,0.02665 0.126285,0.120178 0.126285,0.207835 0,0.135201 -0.06409,0.159373 -0.422558,0.159373 -0.396103,0 -0.419594,0.01187 -0.375229,0.18943 0.02875,0.11508 -0.08842,0.552916 -0.298549,1.115527 -1.46228,3.915337 -3.946706,10.84818 -3.909236,10.90881 0.02536,0.04103 0.0052,0.151156 -0.04494,0.24472 -0.167293,0.312592 -0.806252,0.223886 -2.189891,-0.304014 z M 32.74284,18.729623 c 0,-0.196444 -0.02806,-0.210476 -0.420953,-0.210476 -0.39289,0 -0.420955,0.01403 -0.420955,0.210476 0,0.196446 0.02806,0.210478 0.420955,0.210478 0.392891,0 0.420953,-0.01402 0.420953,-0.210478 z M 2.1816079,13.051719 c 0,-0.214904 -0.1449281,-0.297622 -0.2983558,-0.17029 -0.1925842,0.159831 -0.1467959,0.333702 0.08788,0.333702 0.1522159,0 0.2104762,-0.04523 0.2104773,-0.163412 z M 34.025442,9.7212155 C 34.470361,8.6036015 34.51829,8.0791994 34.207407,7.7302619 33.889712,7.3736757 33.597878,7.3217805 31.910326,7.3217805 h -1.595639 l -0.05919,0.2695252 c -0.112987,0.5144246 -0.05168,1.4616577 0.12464,1.9256869 0.09336,0.2457163 0.156182,0.4603326 0.139591,0.4769227 -0.05795,0.057949 -0.464838,-0.079655 -0.554313,-0.1874687 -0.04963,-0.059805 -0.147251,-0.3875832 -0.21694,-0.7284073 -0.174523,-0.8535507 -0.441432,-1.1799111 -1.034422,-1.2648365 -0.180092,-0.025793 -0.224383,0.044106 -0.486841,0.7683553 -0.292486,0.8071089 -0.312658,1.1510383 -0.07889,1.3450465 0.06014,0.049901 0.597568,0.2594434 1.194305,0.4656374 l 1.084975,0.374899 1.597827,-0.01782 1.597826,-0.01782 z m 14.187567,0.6103825 c -0.02506,-0.07545 -0.348794,-0.111887 -1.14359,-0.12873 -0.948922,-0.0201 -1.108635,-0.005 -1.108635,0.10524 0,0.109194 0.173546,0.12873 1.143591,0.12873 0.877389,0 1.135453,-0.02449 1.108634,-0.10524 z M 41.225126,7.1744467 c 0.02719,-0.08174 -0.323773,-0.1052391 -1.57163,-0.1052391 -1.382349,0 -1.606639,0.017885 -1.606639,0.1281439 0,0.1109732 0.210594,0.1250751 1.571629,0.1052392 1.165782,-0.016995 1.580671,-0.050086 1.60664,-0.128144 z M 31.690457,5.8905383 c 0,-0.1914322 -0.03626,-0.2128016 -0.400764,-0.2361726 -0.419866,-0.026917 -0.558812,0.086176 -0.45101,0.367107 0.03782,0.098553 0.149374,0.1245779 0.45101,0.1052392 0.364502,-0.023371 0.400764,-0.044738 0.400764,-0.2361736 z M 45.203069,4.8471616 c 0,-0.1108081 -0.05993,-0.2244656 -0.133174,-0.2525719 -0.07325,-0.028108 -0.766553,-0.051103 -1.540689,-0.051103 -1.454946,0 -1.609577,0.033969 -1.609577,0.3536009 0,0.1407501 0.116932,0.151543 1.641721,0.151543 h 1.641719 z"
   id="path344" /></svg>
