<?xml version="1.0" encoding="UTF-8" standalone="no"?>
<svg
   version="1.1"
   x="0px"
   y="0px"
   width="80.798042"
   height="32.000004"
   viewBox="0 0 80.798042 32.000004"
   enable-background="new 0 0 75.833 32"
   xml:space="preserve"
   id="svg62"
   xmlns="http://www.w3.org/2000/svg"
   xmlns:svg="http://www.w3.org/2000/svg"
   xmlns:rdf="http://www.w3.org/1999/02/22-rdf-syntax-ns#"
   xmlns:cc="http://creativecommons.org/ns#"
   xmlns:dc="http://purl.org/dc/elements/1.1/"><metadata
   id="metadata68"><rdf:RDF><cc:Work
       rdf:about=""><dc:format>image/svg+xml</dc:format><dc:type
         rdf:resource="http://purl.org/dc/dcmitype/StillImage" /></cc:Work></rdf:RDF></metadata><defs
   id="defs66" />

<g
   id="guides"
   transform="translate(2.5273341,-0.0645895)">
</g>
<path
   style="fill:#fffdff;fill-opacity:1;stroke-width:0.134262"
   d="m 27.327075,31.076059 c -0.150029,-2.3863 -0.391554,-5.518737 -0.446508,-5.790939 -0.0546,-0.270453 -0.140459,-0.302089 -0.819863,-0.302089 -0.517728,0 -0.836897,0.07061 -1.004406,0.222202 -0.233479,0.211296 -0.24553,0.198835 -0.24553,-0.253903 0,-0.521674 0.248787,-0.317427 -3.356544,-2.755614 -1.617972,-1.094188 -2.174703,-1.616797 -2.070872,-1.943943 0.06621,-0.208625 0.02514,-0.233561 -0.264859,-0.160778 -0.262457,0.06587 -0.468653,-0.0132 -0.876205,-0.335979 l -0.532976,-0.422124 -0.779215,0.418411 c -3.193609,1.714853 -3.081833,1.572329 -3.525912,4.4959 -0.24375,1.604726 -0.333451,1.925751 -0.618274,2.212707 l -0.333158,0.335655 -5.6918957,0.04578 -5.6918966,0.04579 -0.1602225,-0.299378 C 0.7916045,26.368895 0.7730488,25.652492 0.8397402,23.92387 0.9358952,21.431558 0.7450022,15.057759 0.5095646,12.89947 0.4330386,12.197953 0.2870813,10.929178 0.1852138,10.079973 L 0,8.5359638 0.5802801,7.7204412 C 0.8994342,7.2719036 1.3614481,6.7563058 1.6069777,6.574669 2.645762,5.8062013 1.6833477,5.8538158 16.990018,5.8136099 L 31.121073,5.776495 V 5.4564286 c 0,-0.2490418 0.200688,-0.4468144 0.904371,-0.8912294 0.497404,-0.3141399 0.98705,-0.653842 1.088102,-0.7548937 0.415427,-0.4154273 1.232951,-0.7119428 1.962901,-0.7119428 h 0.743788 l 0.0037,-0.7048745 c 0.0034,-0.6471314 0.04159,-0.7323701 0.466225,-1.0405281 0.254388,-0.1846098 0.464186,-0.39903953 0.466219,-0.4765109 0.0064,-0.24617449 0.864026,-0.46332203 1.829773,-0.46332203 h 0.934308 l 0.260506,0.67130943 0.260505,0.6713083 h 1.028879 c 1.158187,0 1.188949,0.030297 1.192627,1.1747904 0.0017,0.5440991 0.02055,0.5706133 0.404618,0.5706133 0.268523,0 0.402785,-0.067128 0.402785,-0.2013924 0,-0.1107659 0.09063,-0.2013935 0.201393,-0.2013935 0.110766,0 0.201392,0.090631 0.201392,0.2013935 0,0.1342612 0.134263,0.2013924 0.402786,0.2013924 0.268524,0 0.402785,-0.067128 0.402785,-0.2013924 0,-0.1107659 0.09063,-0.2013935 0.201393,-0.2013935 0.110767,0 0.201393,0.090631 0.201393,0.2013935 0,0.1342612 0.134261,0.2013924 0.402785,0.2013924 0.268523,0 0.402786,-0.067128 0.402786,-0.2013924 0,-0.1118849 0.119343,-0.2013935 0.268523,-0.2013935 0.14918,0 0.268524,0.089507 0.268524,0.2013935 0,0.1342612 0.134261,0.2013924 0.402785,0.2013924 0.268524,0 0.402785,-0.067128 0.402785,-0.2013924 0,-0.1107659 0.09063,-0.2013935 0.201393,-0.2013935 0.110766,0 0.201393,0.090631 0.201393,0.2013935 0,0.1342612 0.134262,0.2013924 0.402785,0.2013924 0.268524,0 0.402786,-0.067128 0.402786,-0.2013924 0,-0.1107659 0.09063,-0.2013935 0.201392,-0.2013935 0.110766,0 0.201393,0.090631 0.201393,0.2013935 0,0.1342612 0.134262,0.2013924 0.402786,0.2013924 0.268523,0 0.402784,-0.067128 0.402784,-0.2013924 0,-0.1118849 0.119345,-0.2013935 0.268524,-0.2013935 0.14918,0 0.268524,0.089507 0.268524,0.2013935 0,0.1342612 0.134262,0.2013924 0.402785,0.2013924 0.268524,0 0.402786,-0.067128 0.402786,-0.2013924 0,-0.1107659 0.09063,-0.2013935 0.201393,-0.2013935 0.110766,0 0.201392,0.090631 0.201392,0.2013935 0,0.1342612 0.134262,0.2013924 0.402786,0.2013924 0.268523,0 0.402785,-0.067128 0.402785,-0.2013924 0,-0.1107659 0.09063,-0.2013935 0.201393,-0.2013935 0.110766,0 0.201393,0.090631 0.201393,0.2013935 0,0.1342612 0.134261,0.2013924 0.402784,0.2013924 0.268524,0 0.402786,-0.067128 0.402786,-0.2013924 0,-0.1118849 0.119344,-0.2013935 0.268524,-0.2013935 0.14918,0 0.268523,0.089507 0.268523,0.2013935 0,0.1342612 0.134263,0.2013924 0.402786,0.2013924 0.268524,0 0.402785,-0.067128 0.402785,-0.2013924 0,-0.1107659 0.09063,-0.2013935 0.201392,-0.2013935 0.110766,0 0.201394,0.090631 0.201394,0.2013935 0,0.1342612 0.134261,0.2013924 0.402785,0.2013924 0.268523,0 0.402786,-0.067128 0.402786,-0.2013924 0,-0.1107659 0.09063,-0.2013935 0.201392,-0.2013935 0.110766,0 0.201392,0.090631 0.201392,0.2013935 0,0.1342612 0.134263,0.2013924 0.402786,0.2013924 0.268524,0 0.402786,-0.067128 0.402786,-0.2013924 0,-0.1118849 0.119344,-0.2013935 0.268524,-0.2013935 0.149178,0 0.268523,0.089507 0.268523,0.2013935 0,0.1342612 0.134261,0.2013924 0.402785,0.2013924 0.268524,0 0.402786,-0.067128 0.402786,-0.2013924 0,-0.1107659 0.09063,-0.2013935 0.201392,-0.2013935 0.110766,0 0.201393,0.090631 0.201393,0.2013935 0,0.1342612 0.134262,0.2013924 0.402786,0.2013924 0.268523,0 0.402784,-0.067128 0.402784,-0.2013924 0,-0.1107659 0.09063,-0.2013935 0.201394,-0.2013935 0.110766,0 0.201392,0.090631 0.201392,0.2013935 0,0.1342612 0.134261,0.2013924 0.402785,0.2013924 0.268525,0 0.402786,-0.067128 0.402786,-0.2013924 0,-0.1118849 0.119344,-0.2013935 0.268523,-0.2013935 0.14918,0 0.268524,0.089507 0.268524,0.2013935 0,0.1342612 0.134262,0.2013924 0.402786,0.2013924 0.268523,0 0.402785,-0.067128 0.402785,-0.2013924 0,-0.1107659 0.09063,-0.2013935 0.201393,-0.2013935 0.110766,0 0.201392,0.090631 0.201392,0.2013935 0,0.1342612 0.134262,0.2013924 0.402785,0.2013924 0.268524,0 0.402786,-0.067128 0.402786,-0.2013924 0,-0.1107659 0.09063,-0.2013935 0.201393,-0.2013935 0.110765,0 0.201392,0.090631 0.201392,0.2013935 0,0.1342612 0.134262,0.2013924 0.402786,0.2013924 0.268523,0 0.402786,-0.067128 0.402786,-0.2013924 0,-0.1118849 0.119343,-0.2013935 0.268523,-0.2013935 0.149179,0 0.268524,0.089507 0.268524,0.2013935 0,0.1342612 0.134261,0.2013924 0.402785,0.2013924 0.268523,0 0.402785,-0.067128 0.402785,-0.2013924 0,-0.1107659 0.09063,-0.2013935 0.201393,-0.2013935 0.110766,0 0.201392,0.090631 0.201392,0.2013935 0,0.1253105 0.126803,0.2013924 0.335655,0.2013924 0.208852,0 0.335655,-0.076082 0.335655,-0.2013924 0,-0.1118849 0.119343,-0.2013935 0.268523,-0.2013935 0.14918,0 0.268524,0.089507 0.268524,0.2013935 0,0.1342612 0.134262,0.2013924 0.402786,0.2013924 0.268523,0 0.402784,-0.067128 0.402784,-0.2013924 0,-0.1118849 0.119344,-0.2013935 0.268524,-0.2013935 0.14918,0 0.268524,0.089507 0.268524,0.2013935 0,0.1253105 0.126802,0.2013924 0.335654,0.2013924 0.208852,0 0.335655,-0.076082 0.335655,-0.2013924 0,-0.1118849 0.119344,-0.2013935 0.268524,-0.2013935 0.149179,0 0.268523,0.089507 0.268523,0.2013935 0,0.1107659 0.06042,0.2013924 0.134261,0.2013924 0.287779,0 0.194636,-2.4100941 -0.101515,-2.62664289 C 69.677179,0.76917328 69.642105,0.61390009 69.705401,0.36171517 L 69.796181,0 l 1.167381,0.038739 1.167383,0.038739 0.638536,1.1412254 c 0.505843,0.9040681 0.639111,1.2721078 0.641298,1.7710453 0.0015,0.3464006 -0.05766,0.6671596 -0.131503,0.7127978 -0.07385,0.045643 -0.134261,0.4952904 -0.134261,0.9992284 0,1.1233795 0.109789,1.0775024 -2.58454,1.0799956 -1.229511,0.00109 -1.980362,0.052742 -1.980362,0.1360956 0,0.073846 0.09063,0.1342612 0.201394,0.1342612 0.134261,0 0.201392,0.1342624 0.201392,0.4027859 v 0.4027859 h 1.55658 c 1.443666,0 1.561675,0.019478 1.6268,0.2685236 0.06357,0.2431022 0.183136,0.2685235 1.262918,0.2685235 0.655983,0 1.192698,-0.056342 1.192698,-0.1252145 0,-0.2273405 0.563168,-0.3089661 0.897432,-0.1300743 0.276363,0.147906 0.348274,0.1448261 0.453918,-0.019446 0.10675,-0.1659885 0.143586,-0.1671555 0.246241,-0.00774 0.07596,0.1179281 0.212831,0.1512008 0.36922,0.089758 0.136679,-0.053702 1.139695,-0.1078191 2.228923,-0.1202609 l 1.980415,-0.02263 -5.3e-5,1.245164 -5.4e-5,1.2451607 -3.088021,-0.021442 c -1.698412,-0.01179 -3.088021,-0.073672 -3.088021,-0.1375037 0,-0.063833 -0.539559,-0.1160647 -1.199019,-0.1160647 -1.10325,0 -1.202444,0.021867 -1.241922,0.2738409 -0.0236,0.1506129 -0.100326,0.2669683 -0.170517,0.2585661 -0.245378,-0.029371 -0.352153,0.5510162 -0.140342,0.7628282 0.137493,0.137492 0.200825,0.478935 0.200825,1.082701 0,0.657707 0.05525,0.922274 0.21735,1.040805 0.192112,0.140475 0.223504,0.758019 0.270337,5.318143 0.04119,4.011136 0.100512,5.396356 0.266536,6.224892 0.202342,1.009745 0.2009,1.074929 -0.02747,1.241921 -0.132564,0.09693 -0.380521,0.176242 -0.551017,0.176242 -0.241153,0 -0.309994,0.07454 -0.309994,0.335654 v 0.335655 h -1.409761 -1.409749 v -0.339066 c 0,-0.266976 -0.08305,-0.355622 -0.390892,-0.417189 -0.485281,-0.09705 -0.525759,-0.237803 -0.632008,-2.19756 -0.06791,-1.252634 -0.0267,-1.89737 0.218417,-3.416481 0.344421,-2.134613 0.323602,-4.52982 -0.04819,-5.544332 -0.297728,-0.812412 -0.038,-1.408524 0.788719,-1.810171 0.672715,-0.326831 0.767011,-0.507006 0.265348,-0.507006 -0.184609,0 -0.33558,0.04532 -0.33549,0.100697 9.2e-5,0.05538 -0.670093,0.0801 -1.489299,0.05492 l -1.489464,-0.04577 -1.385811,0.68364 c -1.206601,0.595233 -1.513174,0.820754 -2.370726,1.743947 -0.997635,1.074 -1.815746,2.213031 -3.336691,4.645574 -0.461709,0.73844 -0.949314,1.493663 -1.083563,1.678273 -0.134252,0.18461 -0.499954,0.758579 -0.812671,1.275486 -0.312717,0.516909 -0.649876,1.02166 -0.749242,1.121669 -0.09937,0.10001 -0.29581,0.402097 -0.436543,0.671308 -0.140734,0.269212 -0.501169,0.761355 -0.800968,1.093652 -0.299799,0.332298 -0.545172,0.648474 -0.545275,0.702613 -4.03e-4,0.183243 -1.271279,0.742023 -2.014113,0.885527 -0.430814,0.08323 -3.245588,0.159682 -6.756735,0.183525 -5.88541,0.03997 -6.022805,0.03494 -6.222432,-0.227653 -0.394309,-0.518685 0.0074,-4.465172 0.562882,-5.530198 0.108245,-0.207527 0.19718,-0.45417 0.197634,-0.548098 0.0016,-0.343751 0.827244,-1.980622 1.344482,-2.665699 0.937404,-1.241584 1.232116,-1.885125 1.251609,-2.733055 0.01496,-0.651093 -0.04369,-0.859737 -0.376855,-1.340495 -0.217018,-0.313159 -0.548166,-0.629822 -0.735882,-0.703694 -0.871216,-0.342852 -4.647306,0.21584 -7.448123,1.101988 -1.534594,0.485528 -1.680708,0.658956 -1.708178,2.027472 -0.0097,0.484933 -0.07015,0.633804 -0.297768,0.733776 -0.531224,0.23331 -0.633766,0.950732 -0.592422,4.144858 0.02108,1.629194 0.09012,3.067901 0.153401,3.197128 0.09471,0.193398 0.05256,0.234958 -0.23828,0.234958 -0.587694,0 -0.647145,0.409454 -0.466515,3.212981 l 0.160617,2.492867 0.540284,0.47946 c 0.96742,0.858511 0.901141,0.882247 -3.221043,1.153502 l -1.230212,0.08095 z M 53.10674,25.41624 c 0.545504,-0.291148 1.545382,-1.409376 1.931908,-2.160577 0.100097,-0.194528 0.218817,-0.383899 0.263828,-0.420821 0.04501,-0.03692 0.324415,-0.490055 0.620895,-1.006962 0.29648,-0.516909 0.858907,-1.483593 1.249838,-2.148189 1.879547,-3.195298 2.045951,-3.542912 1.969361,-4.113939 -0.06306,-0.470127 -0.367833,-1.031754 -0.936948,-1.726573 -0.264047,-0.322371 -1.249191,-0.921173 -1.872975,-1.138458 -1.094527,-0.381259 -5.340828,-0.201946 -5.340828,0.225534 0,0.07949 0.129062,0.102649 0.302089,0.05418 0.166149,-0.04654 0.57397,-0.122099 0.906267,-0.16792 l 0.604179,-0.08331 -0.532211,0.468379 c -0.522036,0.459427 -0.532301,0.486077 -0.537047,1.394183 -0.0026,0.509191 0.04703,1.091952 0.110415,1.295023 l 0.115252,0.369219 h -1.155781 c -0.937853,0 -1.155781,0.03797 -1.155781,0.201393 0,0.148476 -0.155094,0.201392 -0.59027,0.201392 -0.506665,0 -0.648794,0.06666 -1.003482,0.470624 -0.227268,0.258842 -0.662586,0.998961 -0.967375,1.644708 -0.304789,0.645745 -0.785056,1.657426 -1.067259,2.248177 -0.955714,2.00065 -1.20504,2.650243 -1.204536,3.138293 6.7e-4,0.668485 0.425455,1.318848 0.967781,1.481779 0.248724,0.07473 1.818986,0.120829 3.596617,0.105605 2.995451,-0.02566 3.18405,-0.04246 3.726063,-0.331738 z M 25.020899,22.667014 c -0.12381,-1.769389 -0.205015,-2.218192 -0.416009,-2.299159 -0.209843,-0.08052 -2.251733,0.261996 -2.714316,0.455318 -0.210727,0.08807 -0.301768,0.238785 -0.301027,0.498346 9.4e-4,0.313652 0.164336,0.482437 1.040529,1.074549 0.571707,0.386348 1.305335,0.884795 1.630283,1.107661 0.32495,0.222864 0.648557,0.405208 0.719128,0.405208 0.07859,0 0.09463,-0.481257 0.04141,-1.241922 z M 80.199281,8.4598994 C 80.354762,8.2083274 80.129401,8.1351204 79.075423,8.094824 78.04006,8.055234 77.596665,8.17697 77.76777,8.4538213 c 0.120711,0.1953143 2.311172,0.2007892 2.431511,0.00611 z M 79.925237,7.7975233 c 0.0527,-0.085265 -0.311884,-0.1342624 -0.99904,-0.1342624 -0.631837,0 -1.082019,0.055862 -1.082019,0.1342624 0,0.077478 0.422521,0.1342612 0.99904,0.1342612 0.549472,0 1.036381,-0.060421 1.082019,-0.1342612 z M 39.713827,1.6933351 c 0,-0.2602207 -0.420583,-0.4746405 -0.931005,-0.4746405 -0.349545,0 -0.411612,0.050616 -0.411612,0.3356547 0,0.3132773 0.04476,0.3356547 0.671309,0.3356547 0.500044,0 0.671308,-0.05018 0.671308,-0.1966689 z"
   id="path312" /></svg>
