<?xml version="1.0" encoding="UTF-8" standalone="no"?>
<!-- Created with Inkscape (http://www.inkscape.org/) -->

<svg
   width="104.95554"
   height="31.998116"
   viewBox="0 0 27.769484 8.4661692"
   version="1.1"
   id="svg5"
   xmlns="http://www.w3.org/2000/svg"
   xmlns:svg="http://www.w3.org/2000/svg">
  <defs
     id="defs2" />
  <g
     id="layer1"
     transform="translate(-104.45287,-677.22248)">
    <path
       style="fill:#ffffff;stroke-width:0.0200807;fill-opacity:1"
       d="m 115.72843,684.09868 c -0.0221,0.004 -0.065,0.003 -0.0954,-0.002 l -0.0552,-0.009 v -1.24367 -1.24367 h -0.0488 c -0.0428,0 -0.0518,0.0137 -0.0737,0.11145 -0.023,0.10269 -0.029,0.11097 -0.0767,0.10542 -0.0439,-0.005 -0.0588,-0.0258 -0.0981,-0.13655 -0.0255,-0.0718 -0.0549,-0.1391 -0.0653,-0.1496 -0.0104,-0.0105 -0.019,-0.1082 -0.019,-0.21714 v -0.19806 l -0.0644,0.006 c -0.0578,0.006 -0.0675,0.0163 -0.0945,0.10379 l -0.0302,0.0975 -0.1163,-0.008 c -0.064,-0.005 -0.1163,-0.002 -0.1163,0.007 0,0.008 0.009,0.0208 0.0204,0.0277 0.0112,0.007 0.0396,0.0502 0.063,0.0962 0.0297,0.0581 0.0422,0.11847 0.041,0.19798 -10e-4,0.0715 -0.0164,0.14315 -0.0411,0.19114 -0.0217,0.0422 -0.0652,0.10059 -0.0965,0.1297 -0.0314,0.0291 -0.0887,0.0696 -0.12734,0.0899 -0.059,0.0311 -0.1184,0.037 -0.37149,0.0374 -0.27764,4.6e-4 -0.30885,-0.003 -0.39883,-0.0476 -0.0573,-0.0282 -0.1195,-0.0797 -0.15061,-0.12474 -0.0291,-0.0422 -0.0587,-0.077 -0.0657,-0.0774 -0.007,-4e-4 -0.0287,0.0241 -0.0481,0.0545 -0.0195,0.0304 -0.30697,0.4379 -0.63891,0.90562 -0.41555,0.58553 -0.60384,0.86698 -0.6045,0.90363 -7.6e-4,0.0425 -0.0118,0.0545 -0.0549,0.0595 -0.0392,0.005 -0.2152,-0.0828 -0.64259,-0.31862 -0.32375,-0.17866 -0.62694,-0.34861 -0.67374,-0.37767 -0.0468,-0.0291 -0.0894,-0.0639 -0.0945,-0.0774 -0.005,-0.0135 0.003,-0.0372 0.0187,-0.0527 0.0156,-0.0156 0.0501,-0.0239 0.0775,-0.0187 0.0417,0.008 0.15102,-0.0808 0.69893,-0.56722 0.35726,-0.31716 0.67037,-0.60947 0.69581,-0.64957 0.0381,-0.0601 0.045,-0.0945 0.0394,-0.196 -0.005,-0.097 -0.0187,-0.13856 -0.0625,-0.19597 -0.0306,-0.0401 -0.0918,-0.0913 -0.13604,-0.11393 -0.0676,-0.0345 -0.0795,-0.0496 -0.0741,-0.0949 l 0.006,-0.0539 -0.45182,-0.0464 c -0.32872,-0.0338 -0.5202,-0.0436 -0.70282,-0.0361 -0.16311,0.007 -0.32733,0.028 -0.46895,0.0606 -0.11986,0.0277 -0.29607,0.074 -0.39157,0.10306 -0.0955,0.029 -0.34984,0.11867 -0.56521,0.19922 -0.21537,0.0806 -0.84791,0.32459 -1.40565,0.54228 -0.55774,0.2177 -1.45549,0.56203 -1.995,0.76518 -0.53951,0.20315 -0.98681,0.36581 -0.994,0.36146 -0.007,-0.004 -0.0624,-4e-5 -0.12281,0.01 -0.0847,0.0135 -0.1198,0.0109 -0.15388,-0.0114 -0.0243,-0.0159 -0.0492,-0.0541 -0.0554,-0.0848 -0.006,-0.0308 -0.0255,-0.21856 -0.0429,-0.41736 -0.0174,-0.1988 -0.0495,-0.50151 -0.0713,-0.6727 -0.0218,-0.17119 -0.0626,-0.44228 -0.0906,-0.60242 -0.028,-0.16014 -0.082,-0.44367 -0.11994,-0.63005 -0.038,-0.18638 -0.0691,-0.37216 -0.0691,-0.41283 0,-0.0407 0.0122,-0.0906 0.0271,-0.11099 0.0213,-0.0291 0.0547,-0.0373 0.15563,-0.0381 0.0707,-6e-4 0.34542,0.0186 0.61048,0.0427 0.26507,0.0241 0.6717,0.0548 0.90363,0.0683 0.23194,0.0135 0.74701,0.0246 1.1446,0.0248 0.3976,1.1e-4 0.91719,-0.011 1.15464,-0.0247 0.23746,-0.0137 0.59891,-0.0387 0.80323,-0.0555 0.20432,-0.0168 0.48896,-0.0482 0.63254,-0.0699 0.14358,-0.0217 0.35745,-0.0612 0.47528,-0.0879 0.11782,-0.0267 0.26541,-0.0735 0.32796,-0.10418 0.0626,-0.0306 0.18535,-0.12164 0.27288,-0.20223 0.0875,-0.0806 0.14551,-0.14654 0.12887,-0.14654 -0.0166,0 -0.0303,-0.0169 -0.0303,-0.0376 0,-0.0207 -0.006,-0.0659 -0.0125,-0.10041 -0.0124,-0.0621 -0.0117,-0.0627 0.0699,-0.0627 0.0714,0 0.0842,-0.007 0.0952,-0.0507 0.007,-0.0279 0.0318,-0.064 0.055,-0.0803 0.0233,-0.0163 0.0701,-0.0297 0.10413,-0.0297 0.034,0 0.0726,-0.0109 0.0859,-0.0241 0.0136,-0.0136 0.0241,-0.079 0.0241,-0.1506 0,-0.11313 0.004,-0.12651 0.0402,-0.12651 0.0355,0 0.0402,0.0135 0.0405,0.11546 1.6e-4,0.0635 0.008,0.12777 0.0176,0.14282 0.0133,0.0209 0.0463,0.024 0.14026,0.0131 0.11599,-0.0135 0.12293,-0.0119 0.12293,0.0279 0,0.0364 -0.012,0.0421 -0.0887,0.0421 -0.0488,0 -0.10302,0.005 -0.12049,0.0122 -0.0175,0.007 -0.0318,0.0215 -0.0318,0.033 0,0.0137 0.0499,0.0162 0.14558,0.007 0.0801,-0.007 0.19303,-0.019 0.25101,-0.0257 l 0.10543,-0.0123 v 0.10317 c 0,0.0954 0.004,0.10317 0.0481,0.10317 0.0264,0 0.0535,-0.0143 0.0602,-0.0318 0.007,-0.0175 0.0122,-0.0581 0.0122,-0.0904 0,-0.0582 7.5e-4,-0.0586 0.12048,-0.0586 0.0669,0 0.12049,0.009 0.12049,0.0201 0,0.011 0.0226,0.0201 0.0502,0.0201 0.0276,0 0.0502,-0.009 0.0502,-0.0201 0,-0.011 0.0407,-0.0201 0.0904,-0.0201 0.0497,0 0.0904,0.009 0.0904,0.0201 0,0.011 0.0226,0.0201 0.0502,0.0201 0.0276,0 0.0502,-0.009 0.0502,-0.0201 0,-0.0129 0.18407,-0.0201 0.51206,-0.0201 0.32798,0 0.51206,0.007 0.51206,0.0201 0,0.011 0.0226,0.0201 0.0502,0.0201 0.0276,0 0.0502,-0.009 0.0502,-0.0201 0,-0.011 0.0407,-0.0201 0.0904,-0.0201 0.0497,0 0.0904,0.009 0.0904,0.0201 0,0.011 0.0271,0.0201 0.0602,0.0201 0.0331,0 0.0602,-0.009 0.0602,-0.0201 0,-0.0128 0.18001,-0.0201 0.49987,-0.0201 0.4258,0 0.50158,0.004 0.51142,0.0301 0.006,0.0166 0.0302,0.0301 0.053,0.0301 0.0228,0 0.0466,-0.0136 0.053,-0.0301 0.008,-0.0197 0.0388,-0.0301 0.0904,-0.0301 0.0515,0 0.0828,0.0104 0.0904,0.0301 0.006,0.0166 0.0289,0.0301 0.0502,0.0301 0.0213,0 0.0438,-0.0136 0.0502,-0.0301 0.008,-0.0221 0.0432,-0.0301 0.1299,-0.0301 h 0.11833 v 0.0904 0.0904 h 0.90245 c 0.50477,0 0.90731,-0.008 0.91348,-0.0179 0.006,-0.01 0.16022,-0.0178 0.34255,-0.0178 0.18234,0 0.33152,0.006 0.3315,0.0128 -1e-5,0.007 0.10165,0.01 0.22591,0.006 0.18896,-0.006 0.23272,-0.013 0.26739,-0.0452 0.0405,-0.0376 0.11094,-0.0385 2.92512,-0.0385 1.58601,0 2.89795,0.005 2.91542,0.0122 0.0175,0.007 0.0318,0.0248 0.0318,0.0402 0,0.0154 0.0136,0.028 0.0301,0.028 0.0187,0 0.0301,-0.019 0.0301,-0.0502 0,-0.0438 0.009,-0.0502 0.0691,-0.0502 0.038,0 0.0747,0.009 0.0815,0.0201 0.007,0.011 0.0667,0.0201 0.13314,0.0201 0.0779,0 0.13092,-0.0102 0.14942,-0.0287 0.0174,-0.0174 0.0287,-0.0692 0.0287,-0.13153 0,-0.0566 0.0137,-0.12934 0.0305,-0.16174 0.0168,-0.0324 0.0581,-0.0732 0.0918,-0.0906 0.0338,-0.0175 0.0953,-0.0322 0.13674,-0.0328 0.0414,-5.7e-4 0.10388,0.0137 0.13875,0.0317 0.0349,0.018 0.0771,0.0593 0.0939,0.0917 0.017,0.033 0.0305,0.11065 0.0305,0.17638 0,0.0646 0.0108,0.1283 0.0241,0.14156 0.0132,0.0132 0.0404,0.0241 0.0602,0.0241 0.0228,0 0.0361,0.0149 0.0361,0.0402 0,0.0368 0.0134,0.0402 0.15988,0.0402 h 0.15987 l 0.019,0.0753 c 0.0104,0.0414 0.0339,0.14473 0.052,0.22958 0.0182,0.0849 0.0513,0.17747 0.0736,0.20583 0.0236,0.0301 0.0609,0.0516 0.0893,0.0516 0.0268,0 0.0487,0.009 0.0487,0.0201 0,0.0131 0.39744,0.0201 1.15216,0.0201 h 1.15215 l 0.009,-0.1123 c 0.005,-0.066 0.021,-0.11968 0.0376,-0.13021 0.0156,-0.01 0.0526,-0.0181 0.0823,-0.0182 0.0297,-1.8e-4 0.0605,0.0102 0.0685,0.023 0.008,0.0128 0.0201,0.0512 0.027,0.0853 l 0.0126,0.062 0.22014,0.0125 c 0.12107,0.007 0.79485,0.0137 1.49728,0.0151 0.86195,0.002 1.29752,0.01 1.33981,0.0244 0.0494,0.0172 0.0655,0.0368 0.0759,0.0923 0.007,0.0387 0.008,0.12915 0.003,0.2009 -0.006,0.0718 -0.0209,0.14092 -0.0337,0.1537 -0.0169,0.0169 -0.38666,0.026 -1.36263,0.0333 -0.73667,0.006 -1.35069,0.0173 -1.3645,0.0263 -0.0138,0.009 -0.0251,0.0338 -0.0251,0.0552 0,0.0368 -0.0163,0.039 -0.29117,0.039 h -0.29117 v -0.0904 -0.0904 h -1.15464 c -0.75637,0 -1.15464,0.007 -1.15464,0.0201 0,0.0124 -0.10709,0.0201 -0.28112,0.0201 -0.21,0 -0.28186,-0.006 -0.28399,-0.0251 -0.002,-0.0138 -0.009,0.0353 -0.0166,0.10917 -0.008,0.0738 -0.0254,0.1484 -0.0398,0.16567 -0.0225,0.0271 -0.10178,0.0314 -0.57644,0.0314 -0.47072,0 -0.55207,0.004 -0.56195,0.0301 -0.01,0.0261 -0.12579,0.0301 -0.87288,0.0301 h -0.86132 v 0.10041 0.1004 h -0.12049 c -0.0669,0 -0.12048,-0.009 -0.12048,-0.0201 0,-0.0111 -0.0271,-0.0201 -0.0602,-0.0201 -0.0331,0 -0.0602,0.009 -0.0602,0.0201 0,0.011 -0.0361,0.0201 -0.0803,0.0201 -0.0442,0 -0.0803,-0.009 -0.0803,-0.0201 0,-0.0111 -0.0271,-0.0201 -0.0602,-0.0201 -0.0331,0 -0.0603,0.009 -0.0603,0.0201 0,0.0128 -0.18072,0.0201 -0.50201,0.0201 -0.32129,0 -0.50202,-0.007 -0.50202,-0.0201 0,-0.0111 -0.0271,-0.0201 -0.0602,-0.0201 -0.0331,0 -0.0602,0.009 -0.0602,0.0201 0,0.011 -0.0407,0.0201 -0.0904,0.0201 -0.0497,0 -0.0904,-0.009 -0.0904,-0.0201 0,-0.0111 -0.0226,-0.0201 -0.0502,-0.0201 -0.0276,0 -0.0502,0.009 -0.0502,0.0201 0,0.0128 -0.18001,0.0201 -0.49987,0.0201 -0.42581,0 -0.50158,-0.004 -0.51143,-0.0301 -0.006,-0.0166 -0.0302,-0.0301 -0.053,-0.0301 -0.0228,0 -0.0466,0.0136 -0.053,0.0301 -0.008,0.0204 -0.0399,0.0301 -0.0998,0.0301 -0.065,0 -0.0882,-0.008 -0.0882,-0.0301 0,-0.0188 -0.019,-0.0301 -0.0508,-0.0301 -0.028,0 -0.056,0.0136 -0.0624,0.0301 -0.008,0.0216 -0.0421,0.0301 -0.11985,0.0301 h -0.1083 v -0.1004 -0.10041 l -0.13554,-5e-5 c -0.0746,-4e-5 -0.2791,-0.006 -0.45455,-0.0133 -0.28643,-0.0119 -0.31999,-0.017 -0.32865,-0.0501 -0.009,-0.0335 -0.0345,-0.0369 -0.27972,-0.0369 -0.14854,0 -0.28755,0.009 -0.30891,0.0208 -0.0268,0.0143 -0.0388,0.0421 -0.0388,0.0894 0,0.0377 -0.0115,0.0758 -0.0255,0.0846 -0.014,0.009 -0.0366,0.0413 -0.0502,0.0722 -0.0187,0.0426 -0.0247,0.38725 -0.0247,1.42957 0,0.90599 -0.007,1.37767 -0.0203,1.38597 -0.0112,0.007 -0.0496,0.0131 -0.0854,0.0137 -0.0357,6.4e-4 -0.0831,0.017 -0.10515,0.0364 -0.0283,0.0248 -0.25725,0.0771 -0.77311,0.17636 -0.51835,0.0998 -0.74032,0.135 -0.75815,0.12031 -0.0148,-0.0122 -0.0604,-0.0152 -0.11045,-0.007 -0.0469,0.007 -0.1033,0.0164 -0.12539,0.02 z m -1.46589,-2.0578 c 0.23143,2.8e-4 0.29533,-0.006 0.36145,-0.0367 0.0442,-0.0204 0.10022,-0.0587 0.12455,-0.0852 0.0243,-0.0265 0.0582,-0.0816 0.0753,-0.12249 0.0171,-0.0409 0.0311,-0.10905 0.0311,-0.15141 0,-0.0424 -0.0228,-0.12276 -0.0507,-0.17866 -0.0279,-0.0559 -0.0675,-0.11685 -0.088,-0.13544 -0.023,-0.0209 -0.094,-0.04 -0.1853,-0.0499 -0.13936,-0.0152 -0.15073,-0.0134 -0.19587,0.0311 -0.0263,0.026 -0.0559,0.0472 -0.0657,0.0472 -0.01,0 -0.0447,0.0424 -0.0776,0.0943 -0.0442,0.0697 -0.0598,0.1186 -0.0598,0.18736 0,0.0595 0.0181,0.12875 0.0501,0.19186 0.0276,0.0543 0.0498,0.10782 0.0494,0.11886 -4e-4,0.0111 -0.0366,-0.0196 -0.0805,-0.0682 -0.0533,-0.059 -0.09,-0.12554 -0.1105,-0.20081 -0.0169,-0.0619 -0.0394,-0.12825 -0.0499,-0.14743 -0.0106,-0.0192 -0.0192,-0.049 -0.0192,-0.0663 0,-0.0253 -0.0205,-0.0303 -0.1049,-0.0254 l -0.10489,0.006 -0.0242,0.14524 c -0.0133,0.0799 -0.0297,0.15417 -0.0365,0.16507 -0.007,0.0109 8e-4,0.0449 0.0168,0.0756 0.016,0.0307 0.0503,0.0757 0.0763,0.0999 0.026,0.0243 0.0788,0.0578 0.11737,0.0745 0.0515,0.0223 0.14505,0.0305 0.35127,0.0308 z m -0.35643,-0.68385 c 0.0404,10e-4 0.065,-0.007 0.0646,-0.0228 -3.7e-4,-0.0138 -0.0164,-0.0439 -0.0356,-0.0669 -0.0192,-0.023 -0.0694,-0.0474 -0.11155,-0.0543 -0.0636,-0.0103 -0.0746,-0.007 -0.0648,0.0184 0.006,0.0169 0.0118,0.0475 0.0118,0.0678 0,0.0204 0.0158,0.0412 0.0351,0.0462 0.0193,0.005 0.0645,0.0102 0.10041,0.0115 z m 12.10611,-1.39675 c 0.0444,-0.0291 0.0489,-0.0442 0.0436,-0.14502 -0.005,-0.10322 -0.0101,-0.11304 -0.0561,-0.11847 -0.0501,-0.006 -0.0502,-0.006 -0.0436,0.14502 l 0.007,0.15094 z m -2.46237,-0.0267 c 0.24169,0 0.32256,-0.007 0.3526,-0.0289 0.0312,-0.0232 0.0345,-0.0362 0.0167,-0.0653 -0.0201,-0.0328 -0.0561,-0.0363 -0.36931,-0.0363 -0.31319,0 -0.3492,0.004 -0.3693,0.0363 -0.0178,0.0291 -0.0145,0.0421 0.0167,0.0653 0.03,0.0223 0.1109,0.0289 0.35259,0.0289 z m -12.28937,-0.45841 c 0.0442,-0.004 0.0803,-0.0167 0.0803,-0.0278 0,-0.0111 -0.0143,-0.0146 -0.0318,-0.008 -0.0175,0.007 -0.0536,0.0122 -0.0803,0.0122 -0.0267,0 -0.0486,0.007 -0.0486,0.0156 0,0.009 0.0362,0.0121 0.0803,0.008 z m 14.20857,-0.38034 c 0.0308,-0.006 0.0592,-0.0296 0.0703,-0.0588 0.0102,-0.0269 0.0186,-0.0573 0.0186,-0.0677 0,-0.0103 -0.0151,-0.0188 -0.0336,-0.0188 -0.0185,0 -0.0501,0.015 -0.0703,0.0332 -0.0202,0.0183 -0.0367,0.0532 -0.0367,0.0775 0,0.0368 0.009,0.0426 0.0517,0.0344 z m 0.22608,-0.0195 c 0.004,-0.015 -0.008,-0.0494 -0.0256,-0.0765 -0.0177,-0.0271 -0.0462,-0.0492 -0.0632,-0.0492 -0.0227,0 -0.0293,0.0171 -0.0246,0.0645 0.005,0.0497 0.0178,0.0672 0.0565,0.0765 0.0335,0.008 0.0524,0.003 0.0569,-0.0153 z"
       id="path5515" />
  </g>
</svg>
