<?xml version="1.0" encoding="UTF-8" standalone="no"?>
<!-- Created with Inkscape (http://www.inkscape.org/) -->

<svg
   width="83.355164"
   height="32.009201"
   viewBox="0 0 22.054385 8.4691018"
   version="1.1"
   id="svg5"
   xmlns="http://www.w3.org/2000/svg"
   xmlns:svg="http://www.w3.org/2000/svg">
  <defs
     id="defs2" />
  <g
     id="layer1"
     transform="translate(-165.97046,-914.05379)">
    <path
       style="fill:#ffffff;stroke-width:0.0156866;fill-opacity:1"
       d="m 178.87614,922.51784 c -0.0546,0.0101 -0.0587,0.008 -0.068,-0.034 -0.005,-0.0246 -0.0383,-0.1224 -0.073,-0.2173 -0.0348,-0.0949 -0.0908,-0.25119 -0.12455,-0.3473 -0.0337,-0.0961 -0.0934,-0.27611 -0.1326,-0.40001 -0.0392,-0.12389 -0.10645,-0.34761 -0.14947,-0.49713 -0.043,-0.14954 -0.11983,-0.44248 -0.17068,-0.65099 -0.0509,-0.20852 -0.12055,-0.52383 -0.15489,-0.7007 -0.0343,-0.17686 -0.0804,-0.43805 -0.10237,-0.5804 -0.022,-0.14236 -0.0508,-0.34284 -0.0641,-0.44551 -0.0133,-0.10267 -0.038,-0.32066 -0.0548,-0.48442 -0.0168,-0.16376 -0.0338,-0.30093 -0.0377,-0.30483 -0.004,-0.004 -0.023,0.027 -0.0425,0.0687 -0.0263,0.0563 -0.0369,0.11214 -0.0411,0.21699 -0.003,0.0777 -0.009,0.15636 -0.0129,0.17491 -0.004,0.0199 -0.0265,0.0405 -0.0544,0.0502 -0.0276,0.01 -0.0472,0.0276 -0.0472,0.0432 0,0.0147 0.0223,0.0733 0.0494,0.13023 0.0383,0.0801 0.0511,0.1313 0.057,0.22661 0.007,0.11424 0.005,0.12271 -0.022,0.11746 -0.0246,-0.005 -0.0313,-0.0251 -0.0399,-0.12155 -0.008,-0.0844 -0.0235,-0.14144 -0.0588,-0.20987 -0.0267,-0.0517 -0.0485,-0.11415 -0.0485,-0.13882 0,-0.0294 -0.008,-0.0449 -0.0235,-0.0449 -0.0129,0 -0.0235,-0.0106 -0.0235,-0.0235 0,-0.0129 -0.007,-0.0235 -0.0148,-0.0235 -0.008,0 -0.0192,0.007 -0.0247,0.016 -0.005,0.009 -0.0515,0.0371 -0.10244,0.0627 l -0.0925,0.0467 h -0.56619 c -0.38823,0 -0.57653,-0.006 -0.59906,-0.0176 -0.0181,-0.01 -0.0985,-0.0663 -0.17877,-0.12583 -0.0802,-0.0595 -0.15272,-0.12041 -0.16104,-0.13528 -0.012,-0.0215 -0.0568,0.0583 -0.21828,0.38857 -0.11174,0.22859 -0.3452,0.70401 -0.51881,1.0565 -0.17606,0.35747 -0.31541,0.65923 -0.3151,0.68237 3.2e-4,0.0228 0.0106,0.0591 0.023,0.0807 0.0123,0.0216 0.0227,0.054 0.023,0.0721 3.1e-4,0.0181 -0.0123,0.0446 -0.0281,0.0588 -0.0158,0.0143 -0.0393,0.026 -0.0522,0.026 -0.0129,0 -0.0865,-0.0275 -0.16347,-0.061 -0.077,-0.0336 -0.40451,-0.18216 -0.72784,-0.3302 -0.32333,-0.14803 -0.60039,-0.28049 -0.61569,-0.29434 -0.0153,-0.0138 -0.0278,-0.0339 -0.0278,-0.0445 0,-0.0106 0.22601,-0.34614 0.50225,-0.74559 0.27623,-0.39946 0.51958,-0.76203 0.54078,-0.80572 0.0212,-0.0437 0.0502,-0.12533 0.0644,-0.18141 0.0182,-0.0717 0.0231,-0.13451 0.0165,-0.21177 -0.005,-0.0604 -0.0208,-0.14326 -0.0347,-0.18414 -0.014,-0.0409 -0.0456,-0.11155 -0.0702,-0.15704 -0.0246,-0.0455 -0.0663,-0.10334 -0.0927,-0.12859 -0.0264,-0.0253 -0.0479,-0.0552 -0.0479,-0.0665 0,-0.0136 -0.0214,-0.0206 -0.0627,-0.0206 -0.0397,0 -0.0627,-0.007 -0.0627,-0.0196 1e-5,-0.0154 -0.12737,-0.019 -0.59216,-0.0168 -0.3257,0.002 -0.72277,0.006 -0.88238,0.0107 -0.15961,0.004 -0.35373,0.0191 -0.43138,0.0328 -0.0777,0.0138 -0.20917,0.0424 -0.29228,0.0636 -0.0831,0.0212 -0.21369,0.0605 -0.2902,0.0872 -0.0765,0.0267 -0.22028,0.089 -0.31949,0.1384 -0.0992,0.0494 -1.08041,0.62663 -2.18043,1.28271 -1.10002,0.65608 -2.02336,1.20487 -2.05186,1.21954 -0.0285,0.0147 -0.0885,0.0309 -0.13334,0.036 -0.0448,0.005 -0.0872,0.0189 -0.0941,0.0305 -0.008,0.0133 -0.0419,0.0212 -0.0917,0.0212 -0.0659,0 -0.0805,-0.005 -0.0873,-0.0314 -0.007,-0.0287 -0.0214,-0.0314 -0.16112,-0.0314 -0.12876,0 -0.15917,-0.005 -0.19249,-0.0311 -0.0218,-0.0171 -0.0442,-0.0495 -0.0498,-0.0719 -0.006,-0.0224 0.004,-0.16901 0.0213,-0.32574 0.0173,-0.15673 0.039,-0.38026 0.0482,-0.49674 0.009,-0.11647 0.0229,-0.39883 0.0304,-0.62746 0.008,-0.24874 0.008,-0.58264 -0.001,-0.83138 -0.008,-0.22864 -0.0284,-0.57452 -0.0449,-0.76865 -0.0165,-0.19412 -0.0388,-0.44518 -0.0494,-0.55791 -0.0183,-0.19476 -0.0178,-0.20699 0.011,-0.2457 0.0167,-0.0224 0.0507,-0.0449 0.0755,-0.0499 0.0248,-0.005 0.10422,-0.009 0.17647,-0.009 0.10632,0 0.13138,-0.004 0.13138,-0.0235 0,-0.0179 0.0197,-0.0235 0.0831,-0.0235 0.0457,0 0.0898,0.006 0.098,0.0143 0.009,0.009 0.82295,-0.004 2.03846,-0.0302 1.11297,-0.0245 2.1824,-0.0521 2.37652,-0.0614 0.19412,-0.009 0.43412,-0.0277 0.53334,-0.0409 0.0992,-0.0132 0.30065,-0.048 0.44762,-0.0775 0.14698,-0.0295 0.38345,-0.0886 0.5255,-0.13152 0.14205,-0.0429 0.36921,-0.1209 0.5048,-0.17338 0.13558,-0.0525 0.25351,-0.0954 0.26205,-0.0954 0.009,0 0.0423,-0.0182 0.0751,-0.0405 0.0327,-0.0223 0.12898,-0.0798 0.21387,-0.12794 0.1192,-0.0675 0.17011,-0.0878 0.22353,-0.0889 0.038,-8.1e-4 0.0692,-0.007 0.0692,-0.0132 1e-5,-0.006 0.0177,-0.0118 0.0392,-0.0118 0.0244,0 0.0392,0.009 0.0392,0.0235 0,0.0192 0.0262,0.0235 0.14167,0.0235 0.11146,0 0.1436,-0.005 0.1507,-0.0235 0.007,-0.019 0.0434,-0.0235 0.18775,-0.0235 h 0.17872 v -0.21775 -0.21775 l 0.0679,-0.0171 c 0.0453,-0.0114 0.0733,-0.029 0.0842,-0.0529 0.0102,-0.0224 0.0451,-0.0461 0.0929,-0.0631 0.0421,-0.015 0.0917,-0.0232 0.11008,-0.0182 0.0283,0.008 0.0377,-0.002 0.0609,-0.0627 0.0151,-0.0395 0.0459,-0.0913 0.0685,-0.11523 0.0226,-0.0239 0.0524,-0.0608 0.0662,-0.082 l 0.0251,-0.0385 0.22589,0.0993 c 0.12423,0.0546 0.2325,0.10548 0.24058,0.113 0.009,0.008 0.001,0.0278 -0.0191,0.0496 -0.0186,0.0198 -0.0446,0.0666 -0.0578,0.10414 -0.0132,0.0375 -0.0241,0.0805 -0.0241,0.0954 0,0.0237 0.0289,0.0296 0.22353,0.0457 0.12295,0.0102 0.23942,0.0219 0.25883,0.026 0.034,0.007 0.0353,0.0138 0.0353,0.17973 v 0.17226 h 0.10934 0.10934 l 0.004,-0.20001 0.004,-0.2 0.0667,-0.005 0.0667,-0.005 v 0.0566 0.0566 l 0.0824,-0.005 c 0.0803,-0.005 0.0825,-0.006 0.0873,-0.0557 0.005,-0.0491 0.007,-0.051 0.0745,-0.051 0.0693,0 0.0696,2.6e-4 0.0696,0.0557 v 0.0557 l 0.0824,-0.005 c 0.0803,-0.005 0.0825,-0.006 0.0873,-0.0557 0.005,-0.0491 0.007,-0.051 0.0745,-0.051 0.0693,0 0.0696,2.6e-4 0.0696,0.0558 v 0.0558 l 0.0745,-0.005 c 0.0714,-0.005 0.0747,-0.007 0.0794,-0.0558 0.005,-0.05 0.006,-0.051 0.0824,-0.051 h 0.0774 v 0.0558 0.0558 l 0.0745,-0.005 c 0.0714,-0.005 0.0747,-0.007 0.0794,-0.0558 0.005,-0.0491 0.007,-0.051 0.0745,-0.051 0.0693,0 0.0696,2.6e-4 0.0696,0.0557 v 0.0557 l 0.0824,-0.005 c 0.0803,-0.005 0.0825,-0.006 0.0873,-0.0557 0.005,-0.0491 0.007,-0.051 0.0745,-0.051 0.0693,0 0.0696,2.6e-4 0.0696,0.0558 v 0.0558 l 0.0745,-0.005 c 0.0714,-0.005 0.0747,-0.007 0.0794,-0.0558 0.005,-0.05 0.006,-0.051 0.0824,-0.051 h 0.0774 v 0.0558 0.0558 l 0.0745,-0.005 c 0.0714,-0.005 0.0747,-0.007 0.0794,-0.0558 0.005,-0.05 0.006,-0.051 0.0823,-0.051 h 0.0774 v 0.0558 0.0558 l 0.0745,-0.005 c 0.0714,-0.005 0.0747,-0.007 0.0794,-0.0558 0.005,-0.049 0.008,-0.051 0.0738,-0.051 0.0663,0 0.0693,0.002 0.0792,0.0549 0.01,0.0528 0.0129,0.0549 0.0791,0.0549 0.0574,0 0.0688,-0.005 0.0688,-0.0301 0,-0.0165 0.004,-0.0412 0.01,-0.0549 0.007,-0.0174 0.0301,-0.0248 0.0784,-0.0248 0.0685,0 0.0689,3.1e-4 0.0689,0.0558 v 0.0558 l 0.0745,-0.005 c 0.0714,-0.005 0.0747,-0.007 0.0794,-0.0558 0.005,-0.05 0.006,-0.051 0.0823,-0.051 h 0.0774 v 0.0558 0.0558 l 0.0745,-0.005 c 0.0714,-0.005 0.0747,-0.007 0.0794,-0.0558 0.005,-0.05 0.006,-0.051 0.0823,-0.051 h 0.0774 v 0.0549 c 0,0.0544 6.1e-4,0.0549 0.0689,0.0549 0.0484,0 0.0717,-0.007 0.0784,-0.0248 0.005,-0.0136 0.01,-0.0387 0.01,-0.0558 0,-0.0271 0.009,-0.0304 0.0745,-0.0262 0.0717,0.005 0.0747,0.007 0.0795,0.0566 0.005,0.0505 0.007,0.0517 0.0706,0.0471 0.0614,-0.004 0.0659,-0.008 0.0705,-0.0557 l 0.005,-0.051 h 0.2343 0.23431 v 0.17255 0.17255 h 0.0698 c 0.0502,0 0.0741,-0.008 0.0852,-0.0275 0.0145,-0.0259 0.14208,-0.0277 2.27892,-0.0318 1.43649,-0.003 2.26913,-0.01 2.27879,-0.0196 0.008,-0.008 0.0593,-0.0152 0.11313,-0.0152 0.0539,0 0.10226,0.007 0.1076,0.0157 0.005,0.009 0.0402,0.0157 0.0776,0.0157 0.064,0 0.0685,-0.003 0.0782,-0.051 0.006,-0.028 0.0171,-0.10315 0.0254,-0.16692 0.0117,-0.0889 0.01,-0.14742 -0.008,-0.25098 -0.013,-0.0743 -0.0236,-0.20917 -0.0235,-0.29976 1.8e-4,-0.0906 0.004,-0.1808 0.01,-0.20048 0.009,-0.035 0.0137,-0.0357 0.19195,-0.0314 l 0.18236,0.004 0.0101,0.2902 c 0.006,0.15961 0.0117,0.36432 0.0136,0.45491 0.002,0.0906 0.002,0.17177 0,0.1804 -0.002,0.009 0.002,0.0316 0.008,0.051 0.0104,0.0324 0.0209,0.0353 0.12683,0.0353 0.10819,0 0.1172,0.003 0.14327,0.0425 0.0242,0.037 0.0278,0.082 0.0278,0.3513 0,0.2817 -0.003,0.31175 -0.0299,0.34186 -0.0244,0.027 -0.0482,0.033 -0.12942,0.033 h -0.0995 v 0.0471 0.0471 h 0.20079 c 0.11043,0 0.20749,-0.007 0.21569,-0.0145 0.008,-0.008 0.0725,-0.0292 0.14301,-0.0471 0.11639,-0.0295 0.17389,-0.0325 0.62895,-0.0325 0.45719,0 0.50299,0.002 0.52539,0.0274 0.0135,0.0151 0.026,0.038 0.0278,0.051 0.002,0.0129 0.002,0.0429 0.001,0.0667 l -0.002,0.0431 h -0.37648 c -0.32419,0 -0.37647,0.003 -0.37647,0.0235 0,0.0129 0.0141,0.0376 0.0314,0.0549 0.0295,0.0295 0.0523,0.0314 0.38432,0.0314 h 0.35295 v 0.122 c 0,0.0827 -0.008,0.13275 -0.0234,0.15539 -0.0224,0.0319 -0.0398,0.0339 -0.39609,0.044 -0.20498,0.006 -0.43975,0.0114 -0.52172,0.0123 -0.11903,10e-4 -0.17804,-0.007 -0.29327,-0.0405 -0.12083,-0.0353 -0.17452,-0.0422 -0.33071,-0.0422 h -0.18646 l -0.0144,0.0745 -0.0144,0.0745 -0.10972,0.008 c -0.10744,0.008 -0.10989,0.009 -0.11778,0.0549 l -0.008,0.0471 -0.19141,0.004 -0.19141,0.004 -0.009,0.0584 c -0.005,0.0321 -0.014,0.083 -0.0202,0.11325 -0.0104,0.0501 -0.0167,0.0553 -0.0723,0.0599 -0.0335,0.003 -0.0684,-0.003 -0.0777,-0.0118 -0.0108,-0.0108 -0.13489,-0.0168 -0.3511,-0.0168 -0.25335,0 -0.81221,0.0321 -2.30671,0.13255 -1.0848,0.0729 -2.01553,0.13996 -2.06829,0.14902 -0.0528,0.009 -0.16923,0.0167 -0.25883,0.0171 l -0.1629,6e-4 -0.15639,0.0818 c -0.13288,0.0695 -0.16119,0.0912 -0.18837,0.14451 -0.0288,0.0565 -0.0308,0.0791 -0.0204,0.22745 0.006,0.0906 0.0225,0.27412 0.036,0.40785 0.0134,0.13373 0.0422,0.3702 0.0641,0.5255 0.0218,0.1553 0.0641,0.41648 0.094,0.5804 0.0299,0.16393 0.0894,0.44993 0.13226,0.63556 0.0429,0.18564 0.11704,0.47427 0.16483,0.64141 0.0478,0.16713 0.11562,0.3929 0.15076,0.50171 0.0351,0.10881 0.11657,0.34147 0.18096,0.51704 0.0644,0.17557 0.11372,0.32257 0.10962,0.32666 -0.004,0.004 -0.44047,0.17577 -0.9697,0.38148 -0.52924,0.20571 -0.9884,0.37886 -1.02037,0.38477 z m -11.97532,-2.78469 c 0.0346,0 0.0634,-0.0129 0.0885,-0.0397 0.0243,-0.0259 0.0372,-0.0584 0.0372,-0.0937 0,-0.0347 -0.0128,-0.0677 -0.0358,-0.0921 -0.0197,-0.0209 -0.0542,-0.0416 -0.0769,-0.0459 -0.0226,-0.004 -0.0569,-0.002 -0.0762,0.005 -0.0193,0.007 -0.0433,0.0287 -0.0533,0.0474 -0.01,0.0187 -0.0182,0.0594 -0.0182,0.0904 0,0.0416 0.011,0.0658 0.0417,0.0922 0.025,0.0215 0.0622,0.0358 0.093,0.0358 z m 0.52502,-0.82409 c 0.0203,-0.005 0.23484,-0.12645 0.4768,-0.27037 0.38205,-0.22726 0.44283,-0.26864 0.462,-0.31452 0.0194,-0.0465 0.0191,-0.0574 -0.003,-0.0913 -0.0138,-0.0211 -0.0431,-0.0452 -0.0649,-0.0535 -0.0302,-0.0115 -0.0555,-0.008 -0.10507,0.015 -0.0359,0.0166 -0.24531,0.13873 -0.46531,0.27147 -0.30127,0.18176 -0.40537,0.25244 -0.42172,0.28634 -0.015,0.0311 -0.0173,0.0575 -0.008,0.0852 0.008,0.0221 0.0317,0.0492 0.0531,0.0603 0.0214,0.011 0.0556,0.0162 0.0758,0.0114 z m 9.1991,-0.54079 h 0.577 l 0.0779,-0.0395 0.0779,-0.0395 v -0.42327 -0.42327 h -0.48484 -0.48484 l -0.0328,0.0972 c -0.0277,0.0822 -0.0328,0.135 -0.0328,0.34265 0,0.20228 0.005,0.26108 0.0305,0.33413 0.0298,0.0866 0.0298,0.089 0.001,0.10441 -0.0162,0.009 -0.0334,0.0158 -0.0382,0.0158 -0.005,0 -0.0335,-0.0492 -0.0638,-0.10942 -0.049,-0.0974 -0.0565,-0.12893 -0.0679,-0.2864 -0.0118,-0.16307 -0.0173,-0.18513 -0.0706,-0.28034 -0.0372,-0.0665 -0.0578,-0.12377 -0.0578,-0.16066 v -0.0573 h -0.15717 -0.15716 l 0.004,0.34876 0.004,0.34875 0.14902,0.11385 0.14902,0.11385 h 0.577 z m -8.78731,-1.30184 h 0.56454 l 0.0385,-0.0385 c 0.0212,-0.0212 0.0385,-0.0533 0.0385,-0.0713 0,-0.018 -0.0173,-0.0501 -0.0385,-0.0713 l -0.0385,-0.0385 h -0.55046 -0.55045 l -0.0385,0.0385 c -0.0212,0.0212 -0.0385,0.0549 -0.0385,0.0749 0,0.02 0.011,0.0521 0.0244,0.0713 l 0.0244,0.0349 z m 16.85452,-1.80395 c 0.0332,0 0.0519,-0.006 0.0461,-0.0157 -0.005,-0.009 -0.0305,-0.0157 -0.0558,-0.0157 -0.0254,0 -0.0461,0.007 -0.0461,0.0157 0,0.009 0.0251,0.0157 0.0558,0.0157 z m 0.63389,0 c 0.0905,0 0.0946,-0.002 0.0946,-0.0392 0,-0.0374 -0.004,-0.0392 -0.0932,-0.0392 -0.0513,0 -0.0978,0.007 -0.10335,0.0164 -0.006,0.009 -0.006,0.0267 -10e-4,0.0392 0.006,0.0164 0.0351,0.0228 0.10335,0.0228 z m -10.02491,-0.66208 c 0.0208,-0.003 0.0448,-0.0159 0.0534,-0.0296 0.009,-0.0138 0.011,-0.0438 0.005,-0.0667 -0.008,-0.0326 -0.0199,-0.0416 -0.0541,-0.0416 -0.024,0 -0.0521,0.008 -0.0624,0.0188 -0.0104,0.0104 -0.0188,0.0337 -0.0188,0.0518 0,0.0181 0.009,0.0417 0.0195,0.0524 0.0107,0.0107 0.0365,0.0174 0.0572,0.0149 z"
       id="path6619" />
  </g>
</svg>
