<?xml version="1.0" encoding="UTF-8" standalone="no"?>
<svg
   version="1.1"
   x="0px"
   y="0px"
   width="53.297459"
   height="32.202682"
   viewBox="0 0 53.297459 32.202682"
   enable-background="new 0 0 96.583 32"
   xml:space="preserve"
   id="svg137"
   xmlns="http://www.w3.org/2000/svg"
   xmlns:svg="http://www.w3.org/2000/svg"
   xmlns:rdf="http://www.w3.org/1999/02/22-rdf-syntax-ns#"
   xmlns:cc="http://creativecommons.org/ns#"
   xmlns:dc="http://purl.org/dc/elements/1.1/"><metadata
   id="metadata143"><rdf:RDF><cc:Work
       rdf:about=""><dc:format>image/svg+xml</dc:format><dc:type
         rdf:resource="http://purl.org/dc/dcmitype/StillImage" /></cc:Work></rdf:RDF></metadata><defs
   id="defs141" />

<g
   id="guides"
   transform="translate(-23.2303,0.14437496)">
</g>
<path
   style="fill:#ffffff;fill-opacity:1;stroke-width:0.0424339"
   d="m 25.844236,31.69663 c -0.297407,-0.01189 -0.731228,-0.04981 -0.964052,-0.08416 -0.232821,-0.03434 -1.128086,-0.169109 -1.989469,-0.299495 -0.861386,-0.130391 -1.804264,-0.272576 -2.095286,-0.315968 -0.291019,-0.0434 -0.566333,-0.10571 -0.611803,-0.138483 -0.04547,-0.03278 -0.159571,-0.06082 -0.253554,-0.06232 -0.09398,-0.0015 -0.374647,-0.03757 -0.623695,-0.08012 -0.256004,-0.04376 -0.509054,-0.112937 -0.582203,-0.159192 -0.07117,-0.045 -0.140829,-0.113255 -0.154811,-0.151686 -0.01398,-0.03843 0.05107,-0.280689 0.14456,-0.538352 0.09349,-0.257657 0.186507,-0.486327 0.206698,-0.508149 0.02019,-0.02182 0.03735,-0.07593 0.03813,-0.12024 7.73e-4,-0.04431 0.0303,-0.140241 0.06562,-0.213181 0.03534,-0.07293 0.20831,-0.512061 0.384419,-0.975832 0.176111,-0.463769 0.41741,-1.108899 0.536223,-1.433614 0.118814,-0.324719 0.234348,-0.628273 0.25674,-0.674564 0.02238,-0.0463 0.08315,-0.207569 0.135017,-0.358387 0.05186,-0.150821 0.106221,-0.302656 0.120794,-0.337417 0.01459,-0.03475 0.111775,-0.290886 0.215997,-0.569174 0.104222,-0.278287 0.301837,-0.807217 0.439147,-1.175397 0.137309,-0.368184 0.249779,-0.676565 0.249931,-0.685296 1.54e-4,-0.0088 -0.181509,-0.01906 -0.403695,-0.02294 -0.391816,-0.0068 -0.405392,-0.01048 -0.451363,-0.116077 -0.03684,-0.08473 -0.03419,-0.143799 0.01193,-0.265041 0.03258,-0.08582 0.226717,-0.487318 0.431355,-0.892237 0.204642,-0.404914 0.445657,-0.887713 0.535589,-1.07288 0.08994,-0.185169 0.205339,-0.440979 0.256456,-0.568469 0.05111,-0.127488 0.118012,-0.339392 0.14866,-0.470891 0.0365,-0.156613 0.04722,-0.36139 0.03109,-0.593622 -0.01603,-0.230587 -0.06247,-0.448926 -0.132861,-0.624545 -0.062,-0.154671 -0.214768,-0.39884 -0.357617,-0.571573 -0.218567,-0.264306 -0.294409,-0.322753 -0.61389,-0.4731 -0.202732,-0.0954 -0.549162,-0.212551 -0.780543,-0.263937 -0.228812,-0.05082 -0.558592,-0.130764 -0.732839,-0.177663 -0.174247,-0.0469 -0.401976,-0.130017 -0.506062,-0.184708 -0.104085,-0.05468 -0.28564,-0.174043 -0.403458,-0.265226 -0.132566,-0.102603 -0.263329,-0.256485 -0.343084,-0.403753 -0.08606,-0.158916 -0.127875,-0.295475 -0.125856,-0.411106 0.0017,-0.09522 0.02543,-0.214465 0.05282,-0.264972 0.02738,-0.05051 0.05565,-0.09846 0.06281,-0.106577 0.0071,-0.0081 0.191196,0.08565 0.408965,0.208355 0.217769,0.122702 0.526675,0.275231 0.686452,0.338944 0.255751,0.101989 0.328632,0.113207 0.609194,0.09378 0.175278,-0.01215 0.500718,-0.05639 0.723202,-0.09831 0.222484,-0.04192 0.50092,-0.121186 0.618748,-0.17613 0.117827,-0.05495 0.299336,-0.180449 0.403356,-0.2789 0.104022,-0.09845 0.238572,-0.283177 0.299002,-0.410506 0.06863,-0.144619 0.124217,-0.358677 0.148094,-0.57036 0.02102,-0.186371 0.05355,-0.445921 0.07228,-0.576777 l 0.03406,-0.237923 -0.560479,-0.347131 c -0.46004,-0.284921 -0.584548,-0.384008 -0.694814,-0.552942 -0.105011,-0.160885 -0.133567,-0.249925 -0.130811,-0.407857 0.0019,-0.111121 0.01583,-0.25837 0.03084,-0.32722 0.015,-0.06885 0.08889,-0.18931 0.164136,-0.26769 0.07525,-0.07838 0.192575,-0.170189 0.260716,-0.204013 0.07046,-0.03497 0.235507,-0.05956 0.382648,-0.05699 0.195481,0.0034 0.315512,0.03364 0.490906,0.123611 0.127685,0.0655 0.274945,0.160371 0.327242,0.210831 0.07625,0.07356 0.107479,0.08182 0.157616,0.04166 0.03438,-0.02753 0.06294,-0.07388 0.06345,-0.102971 5.08e-4,-0.02908 0.101732,-0.239842 0.224948,-0.46833 0.125743,-0.233183 0.282222,-0.60992 0.356673,-0.858747 0.07295,-0.2438188 0.143201,-0.4904262 0.156106,-0.5480128 0.01291,-0.057583 0.05491,-0.1680962 0.09336,-0.245572 l 0.06988,-0.1408709 0.555582,0.02347 0.555585,0.02347 0.656535,0.3382186 c 0.361089,0.1860192 0.806489,0.3812142 0.989776,0.4337691 0.183286,0.05255 0.523984,0.109662 0.757103,0.126902 0.270147,0.01998 0.448046,0.05313 0.490551,0.09141 0.05658,0.05097 0.441058,0.05937 2.535615,0.05548 1.807513,-0.0034 2.48389,0.0083 2.524786,0.0434 0.04074,0.03502 0.669702,0.04739 2.322049,0.04573 1.246398,-0.0013 2.380904,-0.01015 2.521125,-0.01966 0.140218,-0.0095 0.627423,-0.02096 1.082675,-0.02542 0.455249,-0.0045 3.052662,-0.0078 5.772023,-0.0074 2.719364,3.79e-4 5.058061,0.0071 5.197107,0.01488 l 0.252814,0.01421 0.136318,-0.4247401 c 0.07498,-0.23361 0.162661,-0.4547284 0.194858,-0.4913801 0.05018,-0.057123 0.187875,-0.064411 0.964404,-0.051077 0.546814,0.00942 0.915763,0.032247 0.930855,0.057645 0.01374,0.023153 0.05848,0.042657 0.09941,0.043372 0.04092,7.143e-4 0.124781,0.055746 0.186342,0.1222857 0.101104,0.1092882 0.111393,0.1517142 0.106384,0.4387065 l -0.0055,0.317718 0.136271,0.04298 c 0.08401,0.02649 0.171077,0.100551 0.227042,0.193111 0.04993,0.08256 0.140335,0.212688 0.200911,0.289155 0.06059,0.07646 0.154922,0.207551 0.209646,0.291302 0.05473,0.08374 0.1274,0.208611 0.161495,0.277466 0.0341,0.06885 0.07396,0.264778 0.08859,0.435387 0.01462,0.170608 0.01158,0.443625 -0.0067,0.606701 -0.01833,0.163078 -0.04684,0.36311 -0.06333,0.444519 -0.0165,0.08141 -0.05861,0.190223 -0.09357,0.241806 -0.03497,0.05158 -0.07562,0.203656 -0.09032,0.337945 -0.01473,0.134291 -0.03371,0.417775 -0.04223,0.629971 -0.01051,0.264157 -0.03534,0.408873 -0.0784,0.458957 -0.0433,0.05034 -0.06642,0.18759 -0.07416,0.440211 -0.0062,0.201887 -0.0387,0.449056 -0.07224,0.549259 -0.03356,0.100207 -0.103316,0.214303 -0.15504,0.253549 -0.05173,0.03924 -0.109695,0.117829 -0.128824,0.174624 -0.01913,0.05678 -0.09189,0.171868 -0.161717,0.255712 l -0.126946,0.152442 -2.16135,-0.0063 -2.161358,-0.0063 -0.0025,0.141353 c -0.0014,0.07774 -0.02378,0.186052 -0.04984,0.240692 -0.02605,0.05464 -0.108555,0.130844 -0.183327,0.169347 -0.07477,0.0385 -0.298564,0.08576 -0.497309,0.105028 -0.198746,0.01926 -0.394034,0.03459 -0.433976,0.03408 -0.04893,-6.44e-4 -0.08656,-0.05657 -0.115352,-0.171454 -0.02512,-0.100204 -0.0683,-0.170953 -0.10474,-0.17159 -0.037,-6.45e-4 -0.06272,0.03959 -0.06377,0.09979 -9.69e-4,0.05548 -0.03012,0.123585 -0.06478,0.151345 -0.03933,0.03151 -0.285991,0.0554 -0.655858,0.06358 l -0.592831,0.01311 -0.02631,-0.155175 c -0.02307,-0.135991 -0.04147,-0.155442 -0.148884,-0.157317 -0.09161,-0.0016 -0.122912,0.01797 -0.123952,0.07752 -7.65e-4,0.04381 -0.02559,0.09828 -0.05516,0.121027 -0.02957,0.02274 -0.120845,0.0543 -0.202819,0.0701 -0.08197,0.01579 -0.334664,0.03415 -0.561537,0.04076 l -0.412494,0.01203 -0.0242,-0.11992 c -0.0133,-0.06596 -0.03111,-0.143913 -0.03959,-0.173237 -0.0085,-0.02933 -0.08132,-0.05447 -0.161874,-0.05587 -0.128228,-0.0022 -0.150211,0.01324 -0.176631,0.124239 -0.02248,0.09445 -0.0542,0.126374 -0.124393,0.125149 -0.05181,-9.04e-4 -0.11414,0.01761 -0.138502,0.04113 -0.02823,0.02726 -0.750517,0.03933 -1.993156,0.03328 -1.480051,-0.0072 -2.00811,0.0041 -2.195146,0.04695 -0.181993,0.04172 -0.322983,0.115821 -0.540121,0.283888 -0.164128,0.127037 -0.356583,0.324422 -0.435965,0.447137 -0.07817,0.120834 -0.170251,0.314696 -0.20463,0.430808 -0.03439,0.116112 -0.0946,0.363338 -0.133821,0.54939 -0.03922,0.186055 -0.09176,0.434488 -0.116759,0.552077 -0.02501,0.117587 -0.105156,0.335816 -0.178127,0.484953 -0.07297,0.14914 -0.21176,0.384368 -0.308421,0.522737 -0.115366,0.165139 -0.26675,0.31111 -0.440609,0.424862 -0.145673,0.09531 -0.380322,0.223447 -0.521447,0.284744 l -0.256587,0.11146 -2.503728,-0.01459 c -1.728736,-0.01006 -2.565545,2.05e-4 -2.703424,0.03317 -0.119461,0.02856 -0.276002,0.112589 -0.389612,0.209128 -0.111447,0.09469 -0.2196,0.236308 -0.261747,0.342709 -0.0395,0.09973 -0.09107,0.257386 -0.114592,0.350345 -0.02352,0.09296 -0.10418,0.387573 -0.179217,0.654699 -0.07504,0.267125 -0.201365,0.713727 -0.28071,0.992449 -0.07934,0.278721 -0.203636,0.715812 -0.276209,0.971307 -0.07257,0.255497 -0.162035,0.578607 -0.198811,0.718017 -0.03677,0.139414 -0.13877,0.500497 -0.226657,0.802413 -0.08789,0.301915 -0.187234,0.653494 -0.220759,0.781293 -0.03354,0.127798 -0.1251,0.460419 -0.203492,0.739158 -0.0784,0.278737 -0.161524,0.563758 -0.184725,0.633379 -0.02321,0.06963 -0.124677,0.430718 -0.225506,0.802434 -0.100833,0.371715 -0.207127,0.761372 -0.236204,0.865905 -0.02907,0.104532 -0.09759,0.34149 -0.152269,0.526574 l -0.09939,0.336515 0.14296,0.05195 c 0.07863,0.02858 0.171012,0.07608 0.20529,0.105541 0.03429,0.02948 0.0612,0.117329 0.05984,0.195237 -0.0016,0.09024 -0.03607,0.171868 -0.09502,0.224897 -0.0509,0.04579 -0.175819,0.09426 -0.277602,0.107706 -0.101778,0.01348 -0.318634,0.01455 -0.481894,0.0025 -0.163264,-0.01215 -0.297119,-0.0061 -0.297452,0.01291 -3.35e-4,0.01919 -0.243941,0.0251 -0.541344,0.01316 z m 8.487713,-10.920209 c 0.22752,0.0038 0.585738,-0.0098 0.796039,-0.03017 0.226264,-0.02194 0.47092,-0.07574 0.599267,-0.13181 0.119296,-0.05212 0.296464,-0.150299 0.393704,-0.218185 0.09724,-0.06788 0.228456,-0.182685 0.291591,-0.255114 0.06313,-0.07243 0.172494,-0.245685 0.243016,-0.385018 0.07052,-0.139334 0.151402,-0.343392 0.179724,-0.45346 0.02831,-0.110071 0.05044,-0.324283 0.04913,-0.476028 -0.0013,-0.151749 -0.02307,-0.352659 -0.04836,-0.446471 -0.02531,-0.09382 -0.115805,-0.287066 -0.201117,-0.429455 -0.08531,-0.142389 -0.254772,-0.343043 -0.376582,-0.445894 -0.121808,-0.102849 -0.287698,-0.22228 -0.368643,-0.265394 -0.08094,-0.04311 -0.289976,-0.103206 -0.464514,-0.133535 -0.174535,-0.03033 -0.582263,-0.07127 -0.906062,-0.091 -0.495671,-0.03019 -0.585674,-0.02634 -0.56943,0.0243 0.01061,0.03309 -0.02427,0.126946 -0.07755,0.208577 -0.05326,0.08163 -0.159567,0.26746 -0.236224,0.412955 -0.07666,0.145493 -0.181379,0.419881 -0.232703,0.609753 -0.07364,0.272438 -0.08945,0.421344 -0.07496,0.706287 0.0101,0.198585 0.06005,0.495478 0.110988,0.659761 0.05095,0.164287 0.146555,0.395136 0.212468,0.512994 0.06591,0.117863 0.153642,0.26043 0.194952,0.31682 0.04131,0.05639 0.07431,0.147684 0.07335,0.202873 -0.0017,0.09868 0.0051,0.100462 0.411921,0.107218 z m -1.565262,-0.408935 c 0.141207,0.0025 0.211914,-0.0215 0.292237,-0.09907 0.08458,-0.08168 0.106714,-0.145641 0.109705,-0.317011 0.0034,-0.196685 -0.0077,-0.221945 -0.132675,-0.301173 -0.07503,-0.04757 -0.204693,-0.08774 -0.288128,-0.08928 -0.103448,-0.0019 -0.179855,0.02707 -0.240211,0.09114 -0.04867,0.05168 -0.09955,0.150081 -0.113045,0.218692 -0.01351,0.06862 -0.0069,0.173728 0.01469,0.233599 0.02157,0.05987 0.06891,0.142832 0.105194,0.184355 0.04377,0.05009 0.128642,0.0766 0.252239,0.07875 z m -0.07428,-1.094797 c 0.04685,-0.0094 0.132102,-0.06099 0.189447,-0.114534 0.08067,-0.07532 0.105035,-0.141713 0.107683,-0.293413 0.0026,-0.151623 -0.01943,-0.219014 -0.09737,-0.297284 -0.05544,-0.05567 -0.160717,-0.114739 -0.233952,-0.13127 -0.110775,-0.02502 -0.159215,-0.008 -0.288243,0.101394 -0.132502,0.112306 -0.155547,0.157777 -0.158243,0.312253 -0.002,0.117221 0.02635,0.219692 0.08073,0.291367 0.04614,0.0608 0.135834,0.119137 0.199331,0.129619 0.06349,0.01051 0.153778,0.01128 0.200627,0.0017 z m 0.146455,-1.096055 c 0.0469,-0.01217 0.12956,-0.04903 0.183692,-0.08189 0.05414,-0.03285 0.117511,-0.107401 0.140823,-0.165649 0.02332,-0.05825 0.0432,-0.152091 0.04419,-0.208542 9.85e-4,-0.05645 -0.04973,-0.16045 -0.112678,-0.231111 -0.06296,-0.07066 -0.162483,-0.140535 -0.221163,-0.155274 -0.07269,-0.01825 -0.153178,0.0034 -0.252562,0.06834 -0.08023,0.05234 -0.164962,0.149597 -0.188297,0.216147 -0.02867,0.08176 -0.02706,0.175697 0.0049,0.289723 0.03522,0.125496 0.08175,0.184311 0.181578,0.229555 0.07382,0.03344 0.172586,0.05087 0.219485,0.0387 z M 22.120434,12.901527 c 0.0065,-0.0042 0.02251,-0.08006 0.03541,-0.168542 0.0129,-0.0885 0.05373,-0.269845 0.09073,-0.403003 0.037,-0.133157 0.06745,-0.252754 0.06768,-0.265767 2.27e-4,-0.01302 -0.113983,-0.09342 -0.253799,-0.178674 -0.139814,-0.08526 -0.301867,-0.155843 -0.360112,-0.15686 -0.05825,-10e-4 -0.15899,0.02443 -0.223876,0.05656 -0.06488,0.03215 -0.14165,0.108081 -0.170599,0.168782 -0.02894,0.06069 -0.05308,0.152425 -0.05363,0.203838 -5.6e-4,0.05141 0.02178,0.139153 0.04964,0.194983 0.02787,0.05583 0.220751,0.203838 0.428648,0.328915 0.207895,0.125073 0.383363,0.223966 0.389924,0.219761 z M 7.4280357,23.018241 c -0.02913,-0.0032 -0.329011,-0.05509 -0.666425,-0.115046 -0.337418,-0.05996 -0.737393,-0.122154 -0.88884,-0.138207 -0.151442,-0.01605 -0.380033,-0.0497 -0.507979,-0.07477 -0.127943,-0.02508 -0.451663,-0.07944 -0.719379,-0.120802 -0.267712,-0.04137 -0.820101,-0.127609 -1.227535,-0.191632 -0.407432,-0.06403 -0.808085,-0.117587 -0.890336,-0.119023 -0.08226,-0.0014 -0.18679,-0.02967 -0.232296,-0.06274 -0.0455,-0.03308 -0.254183,-0.08357 -0.463718,-0.112196 -0.209541,-0.02865 -0.495325,-0.06593 -0.635084,-0.08286 -0.16254,-0.01968 -0.31078601,-0.06909 -0.41140001,-0.137101 -0.106154,-0.07174 -0.156172,-0.137144 -0.153841,-0.201139 0.0019,-0.05216 0.04974,-0.218159 0.106284,-0.368895 0.05655,-0.15074 0.197457,-0.520692 0.31311901,-0.822123 0.115665,-0.30143 0.277571,-0.728314 0.359797,-0.94863 0.08223,-0.220318 0.179379,-0.476445 0.215902,-0.569177 0.03652,-0.09274 0.149193,-0.386788 0.250386,-0.653456 0.101189,-0.266669 0.320491,-0.854884 0.487345,-1.307144 0.166852,-0.452264 0.396893,-1.068936 0.511198,-1.370391 0.11431,-0.301455 0.236521,-0.60778 0.271585,-0.680722 0.03507,-0.07294 0.06416,-0.156066 0.06466,-0.184717 5.01e-4,-0.02866 0.05052,-0.182456 0.111152,-0.341781 l 0.110248,-0.289684 -0.403201,-0.007 c -0.400789,-0.007 -0.403453,-0.0077 -0.445624,-0.124487 -0.02336,-0.0646 -0.03208,-0.165099 -0.01943,-0.223334 0.01264,-0.05824 0.224656,-0.503343 0.471114,-0.989126 0.246459,-0.485786 0.533774,-1.069715 0.638483,-1.297625 0.104708,-0.227909 0.226358,-0.555883 0.270328,-0.728829 0.06857,-0.269713 0.074,-0.36416 0.03809,-0.663862 -0.02304,-0.192179 -0.04837,-0.3781762 -0.05632,-0.4133265 -0.008,-0.035145 -0.07418,-0.1880552 -0.147158,-0.339785 C 3.7061827,9.1868627 3.5586277,8.9646557 3.4512717,8.8448008 3.3243347,8.7030928 3.1567427,8.5779429 2.9720457,8.4869346 2.8158327,8.4099666 2.5024157,8.2961124 2.2755637,8.2339308 2.0487137,8.1717523 1.7898647,8.1084241 1.7003497,8.0932085 1.6108307,8.0780139 1.4491257,8.0418762 1.3410067,8.0129349 1.2328837,7.9840135 1.0307707,7.9067623 0.89185769,7.841295 c -0.138909,-0.065464 -0.3397,-0.1991349 -0.446199,-0.2970505 -0.106503,-0.097914 -0.253737,-0.2753802 -0.327189,-0.3943663 -0.1191070022,-0.1929361 -0.131017,-0.2415893 -0.110097,-0.4496989 0.01292,-0.1283491 0.04694,-0.2560259 0.07561,-0.2837266 0.04076,-0.039365 0.08157,-0.032541 0.18682,0.031255 0.07407,0.04488 0.295486,0.1684866 0.492038,0.2746771 0.196556,0.1061905 0.43337801,0.2154183 0.52627101,0.2427297 0.0929,0.027295 0.31215,0.048425 0.487243,0.046911 0.175093,-0.00154 0.45613,-0.026543 0.624528,-0.055629 0.168393,-0.029076 0.394655,-0.081215 0.5028,-0.1158386 0.108143,-0.034618 0.267911,-0.098192 0.355039,-0.1412612 0.08713,-0.043066 0.230291,-0.1502907 0.318142,-0.2382699 0.08786,-0.08797 0.212632,-0.2706633 0.277294,-0.4059684 0.08998,-0.1882733 0.133526,-0.376494 0.185567,-0.8020246 0.0541,-0.4424102 0.05743,-0.566671 0.01632,-0.6081429 C 4.0275497,4.6162292 3.7680887,4.4470812 3.4794187,4.2690191 3.0441107,4.000508 2.9345297,3.9117421 2.8371187,3.7487302 2.7495437,3.6021715 2.7208817,3.5001327 2.7244507,3.3475378 c 0.0026,-0.1125532 0.01943,-0.2616818 0.03736,-0.3313975 0.01793,-0.069718 0.05871,-0.1415669 0.09063,-0.1596796 0.03192,-0.018096 0.05853,-0.060618 0.05912,-0.094453 5.91e-4,-0.033845 0.02766,-0.061066 0.06017,-0.060499 0.03252,5.677e-4 0.07108,-0.028634 0.08572,-0.064854 0.01465,-0.03624 0.04349,-0.055039 0.06413,-0.041787 0.02064,0.013242 0.06064,-0.00274 0.08891,-0.035674 0.02826,-0.032882 0.07655,-0.049622 0.107268,-0.037204 0.03075,0.012409 0.06764,0.00428 0.082,-0.018112 0.01437,-0.022353 0.113632,-0.030962 0.220578,-0.019063 0.106946,0.011898 0.292137,0.07265 0.411531,0.1350448 0.119394,0.062403 0.275637,0.1589827 0.347207,0.2146313 0.09756,0.075854 0.142466,0.08926 0.179438,0.05355 0.02713,-0.02619 0.05019,-0.077206 0.05128,-0.1133683 9.73e-4,-0.036169 0.09819,-0.2396079 0.215789,-0.4520988 0.122341,-0.2210496 0.265528,-0.5635608 0.33466,-0.8005273 0.06646,-0.2277979 0.151199,-0.5091349 0.188321,-0.62519965 0.03712,-0.11606383 0.09735,-0.25575601 0.13385,-0.3104313 0.06496,-0.0973211 0.07673,-0.098802 0.560217,-0.0703936 0.435077,0.025567 0.528943,0.0453082 0.788562,0.16579055 0.162081,0.0752202 0.427126,0.20868718 0.588986,0.29658943 0.161861,0.0879082 0.447845,0.21723007 0.635519,0.28739117 0.265588,0.09929 0.448406,0.1353314 0.82475,0.1625936 0.376304,0.027262 0.508709,0.053356 0.597098,0.1176997 0.110355,0.080338 0.184062,0.082555 2.6030413,0.078541 1.811906,-0.00301 2.497105,0.00872 2.517524,0.043273 0.02037,0.034321 0.677297,0.046647 2.402769,0.045041 1.306092,-0.00115 2.460969,-0.020233 2.566397,-0.042427 0.114154,-0.024021 1.487561,-0.031973 3.395576,-0.019662 1.762139,0.011355 4.445295,0.019334 5.962568,0.017704 1.517273,-0.00161 2.773541,-0.016188 2.791715,-0.032373 0.01819,-0.016185 0.08208,-0.1962274 0.142021,-0.4001163 0.05995,-0.2038919 0.142523,-0.40648963 0.183507,-0.45022101 0.06868,-0.0732825 0.142905,-0.0782979 0.948309,-0.0640195 0.480582,0.008519 0.944175,0.0363637 1.0302,0.0618889 0.08603,0.0255053 0.194601,0.096721 0.241271,0.15823984 0.06716,0.0885257 0.08395,0.17478177 0.0805,0.41373707 -0.0042,0.2981924 -0.0026,0.302702 0.131111,0.3679182 0.07451,0.036306 0.177189,0.1335968 0.2282,0.2161856 0.05101,0.082583 0.144349,0.2162512 0.207421,0.2970312 0.06307,0.080783 0.145628,0.199502 0.183461,0.263825 0.03783,0.06432 0.08798,0.1292722 0.111415,0.1443325 0.02343,0.015061 0.07153,0.1337207 0.106867,0.2636952 0.03839,0.1412266 0.06151,0.3932964 0.05744,0.6264408 -0.0037,0.2145714 -0.03712,0.5040859 -0.07424,0.6433674 -0.03709,0.1392769 -0.09648,0.3291213 -0.131981,0.4218698 -0.03551,0.092754 -0.08278,0.4261402 -0.105076,0.740872 -0.0223,0.3147318 -0.06239,0.5982303 -0.08911,0.6300038 -0.02671,0.031759 -0.05202,0.203212 -0.05625,0.3809804 -0.0041,0.1777741 -0.03695,0.4252859 -0.07279,0.5500354 -0.04063,0.1415115 -0.1011,0.2495066 -0.160789,0.2871416 -0.05261,0.033177 -0.117237,0.1220455 -0.143601,0.1974749 -0.02635,0.075432 -0.105845,0.1943493 -0.176624,0.2642617 l -0.128693,0.1271114 -2.143032,-0.0059 -2.143031,-0.0059 -0.0029,0.1686533 c -0.0023,0.1316239 -0.03056,0.1935631 -0.128752,0.2821249 -0.103388,0.09326 -0.205627,0.1257285 -0.573742,0.1822296 -0.246366,0.037816 -0.477448,0.056836 -0.513515,0.042264 -0.03607,-0.014572 -0.06489,-0.066523 -0.06403,-0.1154631 8.54e-4,-0.048933 -0.01784,-0.1267927 -0.04155,-0.1730084 -0.02371,-0.046221 -0.05894,-0.07462 -0.0783,-0.063116 -0.01935,0.011494 -0.04753,0.077392 -0.06258,0.1464331 -0.02269,0.1039928 -0.05505,0.1308761 -0.188591,0.1567435 -0.08865,0.017175 -0.378785,0.027413 -0.644719,0.022771 -0.483339,-0.00844 -0.483529,-0.00848 -0.497164,-0.1147782 -0.0075,-0.058479 -0.02197,-0.1303562 -0.03212,-0.1597108 -0.01017,-0.029362 -0.05785,-0.054068 -0.105978,-0.054908 -0.04813,-8.401e-4 -0.09843,0.031697 -0.111755,0.072321 -0.01332,0.040614 -0.0397,0.1022267 -0.05862,0.1369078 -0.01892,0.034685 -0.118538,0.077883 -0.221426,0.096 -0.102882,0.018117 -0.363133,0.038738 -0.578325,0.045834 l -0.391296,0.012873 -0.0246,-0.1200186 c -0.01355,-0.066007 -0.03306,-0.1535864 -0.04343,-0.1946156 -0.01314,-0.052017 -0.06149,-0.075345 -0.159752,-0.07706 -0.127454,-0.00222 -0.143821,0.011672 -0.171362,0.1455505 -0.0265,0.1286851 -0.0465,0.14773 -0.153308,0.1458656 -0.06757,-0.00118 -0.133144,0.013868 -0.14572,0.033442 -0.01257,0.019594 -0.486746,0.040021 -1.053699,0.045427 -0.566957,0.00542 -1.489099,0.0036 -2.049203,-0.00402 -1.014066,-0.0138 -1.019322,-0.013392 -1.243318,0.094857 -0.12372,0.05978 -0.312995,0.180548 -0.420611,0.2683662 -0.107617,0.087815 -0.263281,0.2577424 -0.345921,0.3776124 -0.08264,0.1198721 -0.180617,0.3216958 -0.217727,0.4485004 -0.03711,0.1268077 -0.09888,0.3732472 -0.137269,0.5476432 -0.0384,0.174396 -0.09238,0.42173 -0.119975,0.549632 -0.02761,0.127902 -0.115328,0.365096 -0.194959,0.527101 -0.07964,0.162006 -0.221171,0.391788 -0.314529,0.510629 -0.09336,0.118836 -0.255037,0.284844 -0.359296,0.368897 -0.104253,0.08406 -0.267428,0.185688 -0.362612,0.225848 -0.09519,0.04017 -0.230711,0.09349 -0.301175,0.118506 -0.07047,0.02502 -0.27163,0.06138 -0.447034,0.08079 -0.175406,0.01941 -1.254458,0.01959 -2.397891,3.71e-4 -1.579656,-0.02661 -2.152467,-0.02224 -2.384985,0.01791 -0.168305,0.02905 -0.369811,0.08862 -0.447789,0.132359 -0.07799,0.04374 -0.181482,0.13627 -0.230009,0.205639 -0.04853,0.06936 -0.122393,0.229378 -0.164143,0.355584 -0.04176,0.126202 -0.128201,0.419529 -0.192114,0.651838 -0.06391,0.232304 -0.166402,0.598157 -0.227752,0.813001 -0.06135,0.214844 -0.161072,0.566421 -0.221597,0.781279 -0.06052,0.214861 -0.154524,0.542663 -0.208882,0.728452 -0.05436,0.185789 -0.12502,0.442383 -0.157025,0.570205 -0.03201,0.127825 -0.13304,0.488925 -0.224524,0.802449 -0.09148,0.313524 -0.193627,0.674606 -0.226984,0.802407 -0.03336,0.127797 -0.135101,0.488889 -0.22609,0.80242 -0.09099,0.313533 -0.1943043,0.684143 -0.2295983,0.823582 -0.03531,0.139436 -0.127297,0.472048 -0.20445,0.739137 -0.07716,0.267089 -0.167508,0.59018 -0.200788,0.717983 -0.0333,0.127801 -0.09971,0.36011 -0.147613,0.516242 -0.04791,0.15613 -0.07724,0.294082 -0.0652,0.306556 0.01205,0.01248 0.04917,0.02316 0.08253,0.02374 0.03334,5.82e-4 0.115388,0.04151 0.18232,0.09096 0.09339,0.06899 0.121108,0.123377 0.11918,0.233846 -0.0016,0.09131 -0.03541,0.173555 -0.09248,0.224885 -0.04948,0.0445 -0.158852,0.09262 -0.243053,0.106894 -0.0842,0.01428 -0.301318,0.01776 -0.482486,0.0077 -0.18117,-0.01 -0.343282,-0.0049 -0.360253,0.01155 -0.01696,0.01638 -0.146978,0.02662 -0.288909,0.02275 -0.141932,-0.0038 -0.348484,-0.02355 -0.459009,-0.04373 -0.110522,-0.02017 -0.201231,-0.02064 -0.20157,-0.0012 -3.43e-4,0.01963 -0.02445,0.03298 -0.05357,0.02969 z M 16.637838,12.063677 c 0.355869,0.0055 0.731156,-0.0076 0.833965,-0.02942 0.102814,-0.02184 0.289036,-0.08581 0.413828,-0.1422 0.124788,-0.0564 0.322207,-0.185267 0.438706,-0.286388 0.126571,-0.109863 0.273951,-0.298674 0.366201,-0.46914 0.08491,-0.156907 0.181241,-0.389857 0.214067,-0.517664 0.03282,-0.127811 0.05691,-0.352494 0.05352,-0.499298 C 18.954789,9.9727643 18.918005,9.7480411 18.8765,9.6201842 18.834975,9.492334 18.745784,9.305271 18.678279,9.2044905 18.610767,9.1037169 18.483387,8.9508385 18.395202,8.8647654 18.307021,8.7786933 18.143247,8.65357 18.031265,8.5867064 17.919283,8.5198419 17.748648,8.448433 17.652073,8.4280135 c -0.09658,-0.020409 -0.504712,-0.055677 -0.906969,-0.078351 -0.678557,-0.038238 -0.731472,-0.035891 -0.732672,0.032868 -7.11e-4,0.040754 -0.09898,0.2371826 -0.218392,0.436515 -0.148267,0.2475131 -0.246358,0.476289 -0.309379,0.7215564 -0.05076,0.1975233 -0.09312,0.4641581 -0.09413,0.5925231 -9.4e-4,0.128365 0.01273,0.319587 0.03052,0.424937 0.01779,0.105351 0.06451,0.306698 0.103799,0.447438 0.03929,0.140737 0.160806,0.399618 0.27003,0.575285 0.109222,0.17567 0.197987,0.353878 0.197251,0.396016 -0.0012,0.07056 0.04976,0.07742 0.6457,0.08688 z m -1.767716,-0.37203 c 0.08038,0.0032 0.168051,-0.03504 0.245901,-0.107059 0.09394,-0.08691 0.121664,-0.150716 0.124016,-0.285474 0.0017,-0.09545 -0.02495,-0.215018 -0.05916,-0.265707 -0.0342,-0.05068 -0.128264,-0.115258 -0.209031,-0.143486 -0.08076,-0.0282 -0.18251,-0.04068 -0.226094,-0.02767 -0.04358,0.01302 -0.122838,0.06844 -0.176117,0.123209 -0.07164,0.07363 -0.09776,0.150886 -0.100302,0.296602 -0.0019,0.108368 0.02082,0.227337 0.05051,0.264382 0.02966,0.03704 0.0925,0.08378 0.139654,0.103851 0.04716,0.02009 0.14193,0.03868 0.210634,0.04137 z m -0.07789,-1.111768 c 0.06227,-0.01996 0.146783,-0.07205 0.187802,-0.115817 0.04102,-0.04377 0.07778,-0.153162 0.08173,-0.243147 0.0039,-0.0921 -0.025,-0.214545 -0.06639,-0.28021 -0.04045,-0.064156 -0.123967,-0.1368174 -0.185598,-0.1614887 -0.06163,-0.024669 -0.160736,-0.0337 -0.220244,-0.020007 -0.05951,0.013664 -0.151847,0.06418 -0.205207,0.1122708 -0.06834,0.061597 -0.09786,0.1360369 -0.09988,0.2518599 -0.0016,0.09044 0.02503,0.220772 0.05914,0.289643 0.03946,0.07968 0.111724,0.139391 0.198723,0.164191 0.07842,0.02233 0.185005,0.02351 0.249945,0.0026 z M 14.8509,9.5268506 c 0.01402,0.00164 0.09113,-0.039405 0.171357,-0.091393 0.08022,-0.051988 0.173562,-0.1496687 0.207424,-0.217061 0.05278,-0.1050399 0.05352,-0.1471475 0.0051,-0.2949721 -0.03768,-0.1151391 -0.09673,-0.1925895 -0.177726,-0.2330722 -0.09547,-0.047714 -0.155339,-0.051069 -0.281161,-0.015749 -0.08792,0.024689 -0.185143,0.07427 -0.216045,0.1102173 -0.0309,0.035936 -0.05916,0.1574626 -0.06279,0.2700533 -0.0047,0.1480577 0.01642,0.2312377 0.07659,0.3005673 0.04577,0.052727 0.121119,0.1121529 0.167455,0.1320706 0.04634,0.019902 0.09573,0.037627 0.109751,0.039351 z M 4.1702317,4.2036595 c 0.01746,0.0027 0.03237,-0.02999 0.03311,-0.072403 7.41e-4,-0.042413 0.04156,-0.218361 0.09071,-0.3909905 0.04914,-0.1726297 0.09005,-0.3267992 0.09085,-0.3426026 9.46e-4,-0.015806 -0.109589,-0.098898 -0.245365,-0.1846553 -0.146345,-0.092438 -0.301881,-0.1568834 -0.381988,-0.1582817 -0.07433,-0.0013 -0.172207,0.016667 -0.217519,0.0399 -0.04531,0.023243 -0.113946,0.1007557 -0.152513,0.1722545 -0.0448,0.083041 -0.06174,0.1794708 -0.04689,0.2669994 0.01277,0.075354 0.06522,0.1764022 0.116546,0.2245562 0.05132,0.048153 0.187425,0.144302 0.302452,0.2136591 0.115024,0.069358 0.247326,0.1487711 0.293999,0.1764749 0.04667,0.027719 0.09915,0.052488 0.116613,0.055084 z M 26.686756,9.5663748 c -0.03111,-5.431e-4 -0.04362,-0.013483 -0.0278,-0.02879 0.01582,-0.015276 0.04127,-0.014832 0.05657,9.875e-4 0.01528,0.015819 0.0022,0.028343 -0.02879,0.027802 z m 0.0082,-0.1583006 c -0.04263,0.040862 -0.04742,0.035898 -0.02335,-0.024181 0.01665,-0.041566 0.0408,-0.064698 0.05364,-0.051412 0.01283,0.013286 -7.99e-4,0.047293 -0.0303,0.075573 z m 0.278769,-0.063045 c -0.01582,0.015276 -0.02834,0.00221 -0.0278,-0.02879 5.43e-4,-0.031115 0.01348,-0.043621 0.02879,-0.027802 0.01528,0.015819 0.01483,0.041285 -9.87e-4,0.056571 z"
   id="path536" /></svg>
