<?xml version="1.0" encoding="UTF-8" standalone="no"?>
<svg
   version="1.1"
   x="0px"
   y="0px"
   width="104"
   height="32.064114"
   viewBox="0 0 104 32.064114"
   enable-background="new 0 0 90 32"
   xml:space="preserve"
   id="svg92"
   xmlns="http://www.w3.org/2000/svg"
   xmlns:svg="http://www.w3.org/2000/svg"
   xmlns:rdf="http://www.w3.org/1999/02/22-rdf-syntax-ns#"
   xmlns:cc="http://creativecommons.org/ns#"
   xmlns:dc="http://purl.org/dc/elements/1.1/"><metadata
   id="metadata98"><rdf:RDF><cc:Work
       rdf:about=""><dc:format>image/svg+xml</dc:format><dc:type
         rdf:resource="http://purl.org/dc/dcmitype/StillImage" /></cc:Work></rdf:RDF></metadata><defs
   id="defs96" />

<g
   id="guides"
   transform="translate(6.8792506,0.1512728)">
</g>
<path
   style="fill:#ffffff;fill-opacity:1;stroke-width:0.105062"
   d="m 38.913712,30.354777 c -0.346707,-0.11951 -0.724932,-0.256592 -0.840502,-0.304628 -0.115573,-0.04803 -0.59251,-0.210883 -1.05987,-0.361885 -1.106343,-0.357459 -1.619228,-0.804401 -1.619228,-1.411043 0,-0.222916 0.314738,-1.316922 0.57504,-1.998801 0.0772,-0.202246 0.243604,-0.722305 0.369773,-1.155689 0.317117,-1.089282 0.371808,-1.267583 0.773408,-2.521505 0.194321,-0.606736 0.454061,-1.434105 0.577199,-1.838596 0.123137,-0.404492 0.322913,-1.042746 0.443946,-1.418345 0.324547,-1.00715 0.37226,-1.848359 0.146828,-2.588634 -0.103137,-0.338677 -0.227383,-0.660692 -0.276104,-0.715587 -0.04871,-0.05489 -0.08859,-0.486957 -0.08859,-0.960137 v -0.860328 l -0.341452,-0.06111 c -0.187801,-0.0336 -0.707861,-0.0248 -1.15569,0.01953 -0.447829,0.04436 -0.814236,0.04296 -0.814236,-0.0031 0,-0.04607 -0.05068,-0.08376 -0.112625,-0.08376 -0.07496,0 -0.08893,0.189682 -0.04173,0.56734 0.06212,0.497214 0.04682,0.574085 -0.123768,0.621922 -0.890101,0.249596 -1.832822,0.534534 -2.138312,0.646305 -1.452537,0.531454 -2.155379,0.681152 -2.224499,0.473797 -0.03115,-0.09341 -1.689101,0.382501 -2.50332,0.718577 -0.144461,0.05962 -0.924551,0.32164 -1.733534,0.582252 -0.808982,0.260612 -1.612711,0.524142 -1.786065,0.585621 -0.469133,0.166376 -2.758892,0.934948 -3.362006,1.128477 -0.288921,0.09272 -1.069013,0.352741 -1.733533,0.577846 -0.664522,0.225103 -1.444612,0.485133 -1.733535,0.577844 -0.288922,0.09272 -1.069012,0.352741 -1.733533,0.577845 -0.664522,0.225103 -1.444612,0.485538 -1.733534,0.578744 -0.853495,0.275337 -2.582292,0.849491 -3.204412,1.06422 -0.317814,0.1097 -1.050626,0.349968 -1.6284712,0.533933 -0.5778443,0.183966 -1.2160996,0.399835 -1.4183458,0.479708 -0.3181357,0.125641 -1.2890665,0.447205 -4.0449121,1.339636 -1.2706847,0.411489 -1.229324,0.382173 -1.1555208,0.819011 0.063101,0.373487 0.051522,0.393156 -0.2691713,0.457294 C 2.2770287,26.550807 1.6476754,26.499141 1.500065,26.3047 1.3960733,26.167674 1.3596451,25.629333 1.3571555,24.192726 1.3510755,20.707687 0.93081626,16.517689 0.22793516,12.935444 c -0.08503,-0.433384 -0.1794348,-1.166195 -0.2097768,-1.628472 -0.069872,-1.064594 0.012379,-1.154402 1.15179594,-1.257521 l 0.8142359,-0.073684 v 0.2861302 0.286129 l 0.6566416,-0.06584 c 0.3611529,-0.0362 1.0821454,-0.09079 1.6022055,-0.121282 2.0030731,-0.117431 6.9471917,-0.4190643 9.4556357,-0.5768545 0.866767,-0.054523 2.426947,-0.1491124 3.467067,-0.2101994 1.040121,-0.061084 2.88397,-0.1800458 4.097445,-0.264353 1.213473,-0.084311 3.021864,-0.2012394 4.018646,-0.2598492 4.090804,-0.2405346 5.438979,-0.3581126 5.567362,-0.4855434 0.0717,-0.071171 0.449926,-0.1580152 0.840501,-0.1929867 0.390573,-0.034971 1.312929,-0.1430959 2.049682,-0.2402762 1.275306,-0.1682176 1.339549,-0.1882481 1.339549,-0.4176624 0,-0.1325342 0.04728,-0.2409713 0.105065,-0.2409713 0.05778,0 0.10579,0.1300152 0.106668,0.2889223 0.0028,0.5124785 0.09934,0.5631931 0.92541,0.4864181 0.802801,-0.074613 1.036944,-0.2500271 0.333734,-0.2500271 -0.476511,0 -0.525095,-0.1228757 -0.255055,-0.6450759 0.09085,-0.1756992 0.138626,-0.3886945 0.106146,-0.473323 -0.03247,-0.084628 0.05866,-0.2808104 0.202523,-0.4359601 0.143863,-0.1551497 0.261569,-0.3180321 0.261569,-0.361961 0,-0.043928 0.07092,-0.07987 0.157595,-0.07987 0.08667,0 0.157594,0.047278 0.157594,0.1050621 0,0.2245166 0.209379,0.066493 1.357269,-1.0243604 0.653663,-0.6211839 1.265759,-1.1615601 1.360216,-1.2008367 0.09445,-0.039272 1.365513,-0.07473 2.82457,-0.078796 l 2.652832,-0.00736 V 3.1646518 2.534276 h 1.838597 c 1.564266,0 1.838597,0.023511 1.838597,0.1575945 0,0.1100688 0.110901,0.1575934 0.367719,0.1575934 0.256819,0 0.367719,-0.047523 0.367719,-0.1575934 0,-0.1050646 0.105065,-0.1575945 0.315188,-0.1575945 0.210126,0 0.315188,0.052526 0.315188,0.1575945 0,0.1138131 0.116736,0.1575934 0.420251,0.1575934 0.303515,0 0.420251,-0.043778 0.420251,-0.1575934 0,-0.098064 0.09923,-0.1575945 0.262656,-0.1575945 0.163432,0 0.262657,0.05954 0.262657,0.1575945 0,0.1138131 0.116737,0.1575934 0.42025,0.1575934 0.303515,0 0.420252,-0.043778 0.420252,-0.1575934 0,-0.1050646 0.105064,-0.1575945 0.315188,-0.1575945 0.210124,0 0.315188,0.052526 0.315188,0.1575945 0,0.1100688 0.110901,0.1575934 0.367718,0.1575934 0.25682,0 0.367719,-0.047523 0.367719,-0.1575934 0,-0.1050646 0.105065,-0.1575945 0.315188,-0.1575945 0.210126,0 0.315189,0.052526 0.315189,0.1575945 0,0.1138131 0.116736,0.1575934 0.42025,0.1575934 0.303515,0 0.420251,-0.043778 0.420251,-0.1575934 0,-0.098064 0.09923,-0.1575945 0.262657,-0.1575945 0.163431,0 0.262656,0.05954 0.262656,0.1575945 0,0.1138131 0.116738,0.1575934 0.42025,0.1575934 0.303515,0 0.420251,-0.043778 0.420251,-0.1575934 0,-0.1362642 0.391067,-0.1575945 2.889224,-0.1575945 h 2.889223 l -0.0033,0.2363912 c -0.0018,0.1300143 -0.117787,0.3664056 -0.257644,0.5253136 L 62.090097,3.584902 h -4.102483 c -2.664948,0 -4.102483,0.036813 -4.102483,0.1050646 0,0.068905 2.241336,0.1050646 6.513883,0.1050646 h 6.513887 V 3.4798433 c 0,-0.2194518 0.05128,-0.315188 0.168835,-0.315188 0.110793,0 0.146908,-0.057139 0.105063,-0.166186 -0.03508,-0.091407 -0.06377,-0.2095979 -0.06377,-0.2626568 0,-0.053061 -0.165474,-0.09647 -0.36772,-0.09647 -0.202245,0 -0.367718,0.047285 -0.367718,0.1050646 0,0.05778 -0.08838,0.1050647 -0.196381,0.1050647 -0.188401,0 -0.324197,-0.4026262 -0.327777,-0.9718294 -0.0015,-0.2226422 0.240583,-0.2413598 0.414296,-0.032045 0.105861,0.1275573 0.615685,0.1461383 3.191009,0.1162973 1.68576,-0.019529 3.181916,-0.044919 3.324791,-0.056414 0.163422,-0.013147 0.341503,0.074124 0.480125,0.2352786 0.121195,0.1408976 0.347064,0.2879798 0.501934,0.3268486 0.277705,0.069703 0.281575,0.08292 0.281575,0.9617032 0,0.5239788 0.04328,0.8910311 0.105065,0.8910311 0.05778,0 0.105065,-0.1181993 0.105065,-0.2626569 V 3.7950288 h 10.202114 10.202112 l -0.05455,0.3939847 c -0.02999,0.2166918 -0.194697,0.9140455 -0.366026,1.5496746 -0.392872,1.4575572 -0.480375,1.9436594 -0.349874,1.9436594 0.105838,0 0.22529,-0.3343761 0.422253,-1.1819549 0.06378,-0.2744763 0.168107,-0.7236192 0.231828,-0.9980951 0.06372,-0.2744766 0.176103,-0.7117994 0.249736,-0.9718293 0.07363,-0.2600311 0.242594,-0.945565 0.375472,-1.5234085 0.132879,-0.5778448 0.309069,-1.1306839 0.391535,-1.2285323 0.34446,-0.408706 1.279322,-0.3562926 1.479453,0.082944 0.07958,0.1746576 0.119575,1.174476 0.119575,2.9891261 0,1.7477485 0.03772,2.7266855 0.105065,2.7266855 0.05778,0 0.105064,-0.047278 0.105064,-0.1050623 0,-0.2548628 0.295247,-0.073444 0.353361,0.2171292 l 0.06444,0.3221919 1.025586,-0.040012 c 0.659833,-0.025742 1.287743,-0.1219111 1.760693,-0.2696606 0.5945,-0.1857247 0.99138,-0.2296488 2.07499,-0.2296488 H 104 v 1.7335293 1.7335343 l -1.28701,-7.99e-4 c -1.00998,-6.3e-4 -1.43398,-0.04762 -1.9699,-0.218315 -0.39329,-0.125266 -1.119517,-0.24238 -1.71241,-0.276148 -0.950701,-0.05414 -1.045188,-0.04179 -1.234486,0.161391 -0.112742,0.12101 -0.204985,0.269279 -0.204985,0.329477 0,0.06021 -0.04729,0.109453 -0.105065,0.109453 -0.05778,0 -0.105065,0.09176 -0.105065,0.203925 0,0.112161 0.04728,0.233143 0.105065,0.268857 0.06731,0.0416 0.103865,1.582128 0.101722,4.287503 -0.0028,3.546401 -0.02804,4.255228 -0.157592,4.426512 -0.150748,0.199303 -0.154254,0.198706 -0.154254,-0.02627 0,-0.227564 -0.01982,-0.230205 -1.727333,-0.230205 -1.038226,0 -1.753239,-0.04191 -1.792265,-0.105064 -0.08429,-0.136391 -33.235579,-0.140482 -33.823343,-0.0042 -0.349555,0.08106 -0.463159,0.06099 -0.735438,-0.130039 -0.177113,-0.124252 -0.337782,-0.263081 -0.357043,-0.308506 -0.01926,-0.04543 -0.08173,-0.0826 -0.138834,-0.0826 -0.05711,0 -0.162989,-0.0591 -0.235318,-0.131329 -0.159944,-0.159729 -0.869319,-0.72782 -1.041974,-0.834451 -0.08275,-0.05111 -0.137195,-0.538467 -0.16161,-1.446772 -0.02025,-0.753336 -0.07292,-1.369703 -0.117047,-1.369703 -0.08703,0 -0.213853,0.773647 -0.213853,1.304571 0,0.181321 -0.06253,0.422934 -0.13893,0.536914 -0.07641,0.11398 -0.199988,0.490905 -0.274616,0.837612 -0.07462,0.346706 -0.197383,0.843127 -0.272795,1.103158 -0.07541,0.26003 -0.197162,0.720993 -0.270559,1.024361 -0.07339,0.303368 -0.166004,0.551578 -0.205787,0.551578 -0.168576,0 -0.313025,-0.315228 -0.260184,-0.567795 0.03138,-0.149988 0.08077,-0.387594 0.109747,-0.528015 0.02898,-0.14042 0.111722,-0.317714 0.183862,-0.393985 0.153866,-0.162671 0.393826,-0.811841 0.393826,-1.065433 0,-0.09702 -0.06586,-0.1764 -0.146353,-0.1764 -0.0805,0 -0.173567,-0.07092 -0.206829,-0.157595 -0.04582,-0.119407 -0.239476,-0.157593 -0.799211,-0.157593 h -0.738742 v 0.315304 c 0,0.229905 -0.113968,0.425903 -0.42076,0.723637 -0.450452,0.437151 -0.597444,0.479263 -2.626057,0.752343 -0.491169,0.06611 -1.119932,0.162909 -1.397252,0.215092 -0.277319,0.05218 -0.864144,0.09488 -1.304053,0.09488 -0.988717,0 -1.538053,-0.277343 -1.98937,-1.004371 l -0.2998,-0.482952 -0.538658,0.04205 c -0.64508,0.05037 -1.106809,0.378982 -1.292601,0.919948 -0.06946,0.202245 -0.167101,0.462276 -0.216977,0.577845 -0.112091,0.259717 -0.442085,1.186684 -0.841534,2.36391 -0.166659,0.491166 -0.426877,1.223979 -0.578258,1.628471 -0.151379,0.404491 -0.411476,1.137303 -0.577986,1.62847 -0.166512,0.49117 -0.451133,1.294898 -0.632493,1.786066 -0.295937,0.801487 -0.323856,0.975526 -0.272348,1.697743 0.06483,0.908989 0.07956,0.88533 -0.762807,1.225641 -0.683457,0.276115 -0.83254,0.275867 -1.640725,-0.0027 z m -34.9318525,-7.4449 c 0.3169989,-0.119165 0.8127526,-0.291049 1.1016749,-0.381963 0.2889224,-0.09092 0.927178,-0.302445 1.4183459,-0.470069 0.4911679,-0.167624 1.2712581,-0.42784 1.7335342,-0.57826 0.4622748,-0.150417 1.2423657,-0.410448 1.7335326,-0.577844 0.4911689,-0.167396 1.2712589,-0.427425 1.7335349,-0.577845 0.462276,-0.150418 1.242365,-0.411041 1.733534,-0.579163 0.491167,-0.168123 1.271258,-0.425945 1.733534,-0.572939 0.462275,-0.146995 1.242366,-0.407025 1.733533,-0.577844 0.491169,-0.17082 1.271259,-0.430849 1.733535,-0.577845 0.462275,-0.146996 1.242366,-0.407025 1.733534,-0.577845 0.491167,-0.17082 1.271259,-0.430849 1.733535,-0.577845 0.462274,-0.146995 1.242365,-0.406029 1.733532,-0.575633 0.491168,-0.169602 1.909516,-0.647379 3.151881,-1.061724 1.242365,-0.414345 2.269328,-0.758395 2.282141,-0.764554 0.01281,-0.0061 -0.118896,-0.386821 -0.29268,-0.845916 -0.378439,-0.999739 -0.396794,-1.226769 -0.151178,-1.869901 0.103532,-0.271102 0.160738,-0.520418 0.127118,-0.554037 -0.03361,-0.03361 -0.997828,0.01372 -2.142687,0.105195 -1.144858,0.09148 -2.90893,0.21528 -3.920158,0.275119 -1.011229,0.05983 -2.606868,0.155391 -3.545865,0.212335 -0.938997,0.05695 -2.48736,0.150815 -3.440803,0.208599 -0.953443,0.05778 -2.525444,0.153424 -3.493333,0.212535 -1.847232,0.112815 -5.3656504,0.348404 -7.8534339,0.525865 -0.8089825,0.05771 -1.6718096,0.104292 -1.9173937,0.103512 l -0.4465161,-0.0015 v 0.521548 c 0,0.28685 0.045007,0.984203 0.1000137,1.549674 0.055009,0.565469 0.1503971,1.690021 0.2119761,2.499004 0.061578,0.808982 0.1583335,2.061854 0.2150101,2.78416 0.056677,0.722306 0.130795,1.67969 0.1647074,2.127519 0.071615,0.945715 0.1116484,0.967545 1.0958404,0.597572 z M 49.250269,19.76033 c 0.382263,-0.0601 1.096886,-0.176498 1.588055,-0.258669 0.491167,-0.08217 1.276158,-0.205868 1.744425,-0.274884 0.468265,-0.06901 0.918059,-0.177187 0.999539,-0.240378 0.374196,-0.290207 0.685158,-1.11299 0.420643,-1.11299 -0.05078,0 -0.125849,-0.720994 -0.166811,-1.602208 -0.05976,-1.285608 -0.04394,-1.690436 0.08005,-2.048721 l 0.15452,-0.446517 h -1.458589 c -0.934727,0 -1.458588,-0.03904 -1.458588,-0.108678 0,-0.06712 -0.190854,-0.08823 -0.499047,-0.05521 -0.274478,0.02941 -0.770897,0.08172 -1.10316,0.116239 -0.579536,0.06022 -0.60411,0.07495 -0.60411,0.362384 0,0.164786 -0.0551,0.538298 -0.122433,0.830026 -0.221819,0.960975 0.196293,2.138515 1.03242,2.907613 0.311835,0.286838 0.456607,0.570385 0.291225,0.570385 -0.119185,0 -0.84329,-0.588269 -1.228566,-0.998094 -0.469122,-0.499017 -1.023271,-1.58872 -1.023271,-2.012205 0,-0.187377 -0.07939,-0.350739 -0.210126,-0.432387 -0.164534,-0.102742 -0.210125,-0.245007 -0.210125,-0.655648 0,-0.502683 -0.01198,-0.524316 -0.288922,-0.521838 -0.224351,0.002 -0.330014,0.08516 -0.472783,0.372037 -0.156715,0.314908 -0.18386,0.680595 -0.18386,2.476924 v 2.107472 l 0.446518,0.444176 c 0.65002,0.646612 1.109493,0.764094 2.272998,0.581174 z m 5.458508,-5.516528 c 0.182535,-0.400618 0.151065,-0.485149 -0.166995,-0.448551 -0.240746,0.02769 -0.294411,0.09018 -0.321845,0.374697 -0.02672,0.277136 0.0047,0.341454 0.166997,0.341454 0.112279,0 0.253368,-0.117319 0.321843,-0.2676 z m 4.915494,-0.653307 c 0.07262,-0.04739 0.13566,-0.573743 0.163309,-1.363648 0.04089,-1.168134 0.02768,-1.291967 -0.143603,-1.346331 -0.347235,-0.110211 -0.400642,0.05251 -0.400642,1.220646 V 13.25065 H 58.61296 c -0.455271,0 -0.630376,0.03892 -0.630376,0.140083 0,0.07704 0.03152,0.171603 0.07004,0.210126 0.09499,0.09499 1.423624,0.08624 1.571644,-0.0103 z m -29.27726,-0.569781 c 0.455006,-0.48839 0.125181,-1.346003 -0.517654,-1.346003 -0.485171,0 -0.739003,0.270649 -0.739003,0.787969 0,0.357146 0.05255,0.497676 0.233502,0.62442 0.331142,0.231941 0.771862,0.203346 1.023155,-0.06638 z m 63.536235,-1.720477 c 0.122658,-0.122658 0.134079,-0.194616 0.04502,-0.283669 -0.06562,-0.06562 -0.11932,-0.275339 -0.11932,-0.466028 0,-0.238142 -0.04936,-0.346707 -0.157594,-0.346707 -0.09805,0 -0.157594,0.09923 -0.157594,0.262657 v 0.262656 h -9.660986 -9.660989 l -0.262657,0.262657 c -0.249834,0.249833 -0.321874,0.262657 -1.475653,0.262657 -0.738622,0 -1.212996,0.04109 -1.212996,0.105064 0,0.06939 3.819779,0.105065 11.249211,0.105065 10.064677,0 11.266514,-0.01731 11.413556,-0.164348 z M 103.2609,9.7904895 c 0.0598,-0.1117685 0.10875,-0.3512693 0.10875,-0.5322207 0,-0.6289673 -0.13634,-0.7354384 -0.94175,-0.7354384 -0.84393,0 -1.05443,0.1392131 -1.05443,0.6973183 0,0.6798641 0.12089,0.7735589 0.99809,0.7735589 0.66421,0 0.7968,-0.030295 0.88934,-0.2032181 z M 85.652428,7.3595157 c 0.200777,-0.1579316 0.276825,-0.3145789 0.276825,-0.5702192 0,-0.2556404 -0.07605,-0.4122877 -0.276825,-0.5702191 -0.255651,-0.2010939 -0.41485,-0.2177509 -2.081175,-0.2177509 -2.03934,0 -2.141709,0.032017 -2.231004,0.6977648 -0.04757,0.3546596 -0.01607,0.4662131 0.184373,0.6529554 0.227691,0.2121272 0.346652,0.2252198 2.046361,0.2252198 1.666598,0 1.825791,-0.016654 2.081445,-0.2177508 z m 5.902451,-0.040131 c 0.141836,-0.1418345 0.257882,-0.352362 0.257882,-0.4678385 0,-0.3449595 -0.220728,-0.7233201 -0.459323,-0.7873499 -0.122971,-0.033 -1.004974,-0.060647 -1.960006,-0.061435 -2.05918,-0.0017 -2.203428,0.04979 -2.203428,0.7865353 0,0.7412213 0.135683,0.7879699 2.286999,0.7879699 1.792257,0 1.823926,-0.00393 2.077876,-0.2578818 z m 4.883259,-0.4512912 c 0.178452,-0.2261359 0.217163,-0.3859424 0.178131,-0.7353808 -0.07177,-0.642604 -0.211178,-0.7617613 -0.891205,-0.7617613 -0.712495,0 -0.857491,0.1536067 -0.862144,0.9133404 -0.004,0.6562236 0.220598,0.8727244 0.905443,0.8727244 0.356626,0 0.485723,-0.05569 0.669775,-0.2889227 z m -25.89687,-3.873136 c 0.142429,-0.093321 0.258962,-0.2115176 0.258962,-0.2626568 0,-0.051136 -0.429445,-0.092976 -0.95432,-0.092976 -1.061481,0 -1.230941,0.1596949 -0.403789,0.380522 0.647389,0.1728354 0.802755,0.1693181 1.099147,-0.024889 z"
   id="path328" /></svg>
