<?xml version="1.0" encoding="UTF-8" standalone="no"?>
<svg
   version="1.1"
   x="0px"
   y="0px"
   width="73.615097"
   height="32"
   viewBox="0 0 73.615097 32"
   enable-background="new 0 0 88.5 32"
   xml:space="preserve"
   id="svg137"
   xmlns="http://www.w3.org/2000/svg"
   xmlns:svg="http://www.w3.org/2000/svg"
   xmlns:rdf="http://www.w3.org/1999/02/22-rdf-syntax-ns#"
   xmlns:cc="http://creativecommons.org/ns#"
   xmlns:dc="http://purl.org/dc/elements/1.1/"><metadata
   id="metadata143"><rdf:RDF><cc:Work
       rdf:about=""><dc:format>image/svg+xml</dc:format><dc:type
         rdf:resource="http://purl.org/dc/dcmitype/StillImage" /></cc:Work></rdf:RDF></metadata><defs
   id="defs141" />
<g
   id="Selected_Items"
   transform="translate(-7.1924745,0.09668463)">
	<g
   id="g133">
		<g
   id="Selected_Items_1_">
			
		</g>
	</g>
</g>
<g
   id="guides"
   transform="translate(-7.1924745,0.09668463)">
</g>
<path
   style="fill:#ffffff;fill-opacity:1;stroke-width:0.053384"
   d="m 46.682397,31.985449 c -0.08495,-0.05821 -0.392862,-0.591187 -0.392862,-0.680019 0,-0.04553 -0.02403,-0.127677 -0.05339,-0.182547 -0.03562,-0.06656 -0.03556,-0.146648 1.6e-4,-0.240625 0.04789,-0.125953 -0.0016,-0.233586 -0.467103,-1.016898 -0.396475,-0.66709 -0.554687,-0.887973 -0.663328,-0.926094 -0.17441,-0.06119 -0.276637,-0.238136 -0.242066,-0.418979 0.03059,-0.15999 -0.03018,-0.300364 -0.523051,-1.2082 -0.306873,-0.565249 -0.404009,-0.700817 -0.545003,-0.760635 -0.213927,-0.09076 -0.29986,-0.244682 -0.253767,-0.454544 0.02862,-0.130279 -0.044,-0.345363 -0.37292,-1.104589 -0.622949,-1.437913 -0.601203,-1.396822 -0.770457,-1.455824 -0.210689,-0.07344 -0.278817,-0.24357 -0.180495,-0.450721 0.07197,-0.151646 0.06378,-0.207308 -0.11792,-0.80076 -0.107402,-0.350781 -0.239726,-0.733876 -0.294053,-0.85132 -0.05432,-0.117445 -0.186517,-0.50181 -0.293758,-0.854145 -0.348213,-1.144046 -0.353002,-1.154564 -0.556112,-1.221414 -0.195744,-0.06443 -0.15855,0.02456 -0.487953,-1.167522 -0.06179,-0.223628 -0.100393,-0.234544 -0.424719,-0.120114 -0.316772,0.111764 -0.670081,0.103987 -0.791488,-0.01742 -0.05363,-0.05363 -0.213223,-0.431982 -0.354667,-0.840799 -0.432079,-1.248841 -0.322692,-1.090666 -1.309511,-1.893536 -0.386569,-0.31451 -0.484546,-0.36933 -0.66163,-0.370196 l -0.207866,-0.001 0.03461,0.414944 c 0.05956,0.714165 -0.137019,1.208682 -0.570436,1.435008 -0.169601,0.08857 -0.554492,0.121143 -3.43754,0.290973 -1.901462,0.112008 -1.997277,0.113042 -2.230263,0.02407 -0.243788,-0.09311 -0.576361,-0.363389 -0.622419,-0.505846 -0.02027,-0.0627 -0.05366,-0.05862 -0.192718,0.02352 -0.227641,0.134471 -0.297822,0.322048 -0.241728,0.64608 0.0622,0.359307 0.01646,0.567618 -0.171225,0.779866 -0.08808,0.09961 -0.184174,0.218294 -0.213536,0.263743 -0.02936,0.04545 -0.1006,0.149746 -0.158309,0.23177 -0.08135,0.115628 -0.106617,0.246366 -0.112455,0.581913 -0.0088,0.509147 -0.03839,0.621918 -0.243095,0.928164 -0.08439,0.126257 -0.153442,0.241339 -0.153442,0.255736 0,0.0394 -0.232786,0.363508 -0.291215,0.40546 -0.02805,0.02014 -0.06763,0.284386 -0.08797,0.587224 -0.03783,0.563281 -0.08695,0.743774 -0.316956,1.164532 -0.125341,0.229295 -0.131317,0.282728 -0.131317,1.174106 v 0.933878 l -0.427072,0.123733 c -0.610013,0.176735 -1.358622,0.241639 -2.375591,0.205964 -1.02939,-0.03611 -1.614817,-0.130471 -2.102817,-0.338938 l -0.351664,-0.150226 -5.93e-4,-0.387034 c -3.2e-4,-0.212869 0.01901,-0.387034 0.04296,-0.387034 0.02395,0 0.07229,-0.306291 0.107416,-0.680646 0.07784,-0.829571 0.197893,-1.347424 0.515497,-2.223609 0.224148,-0.618363 1.220083,-2.743923 1.316593,-2.809918 0.0659,-0.04507 0.403042,-0.805311 0.445419,-1.004411 0.02096,-0.09848 0.02187,-0.309036 0.002,-0.46792 -0.03407,-0.27269 -0.0585,-0.310523 -0.435861,-0.675105 -0.462837,-0.447162 -0.517523,-0.535793 -0.630108,-1.021252 -0.100476,-0.433253 -0.100538,-0.3811 5.87e-4,-0.482225 0.07019,-0.07019 0.244504,-0.08389 1.06768,-0.08389 0.642772,-2e-6 0.983792,-0.01916 0.983792,-0.05528 0,-0.03693 -0.487269,-0.05317 -1.468061,-0.04891 -0.904456,0.0039 -1.468062,0.02617 -1.468062,0.05794 0,0.02905 -0.133915,0.04459 -0.306645,0.03557 -0.294484,-0.01537 -0.307727,-0.02236 -0.333945,-0.176161 -0.02563,-0.150361 -0.0437,-0.161114 -0.295561,-0.175882 -0.26217,-0.01537 -0.269437,-0.01173 -0.320009,0.160152 -0.04922,0.167285 -0.06566,0.176677 -0.33635,0.192167 -0.318548,0.01823 -0.436084,-0.04547 -0.436084,-0.236358 0,-0.111636 -0.02472,-0.126924 -0.205262,-0.126924 -0.385799,0 -0.375204,0.0605 -0.39289,-2.243662 -0.01771,-2.3077649 -0.0059,-2.2359567 -0.423444,-2.566684 l -0.22401,-0.1774437 -0.578803,0.015785 -0.578802,0.015786 -0.03288,-0.1643966 C 18.304002,8.5467063 18.293772,8.5414472 18.016011,8.5414472 h -0.286939 v 0.2309694 c 0,0.1270337 -0.07014,0.4813708 -0.155861,0.7874144 -0.08573,0.3060445 -0.206292,0.759762 -0.267931,1.00826 -0.194699,0.784935 -0.218333,0.853349 -0.331085,0.958392 -0.06249,0.05822 -0.229333,0.118176 -0.385035,0.138373 -0.15112,0.0196 -0.639826,0.09358 -1.086013,0.164405 -1.25497,0.199194 -1.317631,0.188425 -1.506946,-0.258987 -0.07182,-0.169716 -0.153672,-0.271807 -0.246125,-0.306958 -0.08567,-0.03257 -1.405166,-0.05278 -3.458208,-0.05296 -2.1002017,-2.14e-4 -3.391979,-0.02038 -3.516492,-0.05495 -0.2196128,-0.061 -0.3164093,-0.192 -0.5508386,-0.745503 -0.1429622,-0.337551 -0.494279,-0.7473852 -0.6406648,-0.7473852 -0.03667,0 -0.096579,-0.036038 -0.1331312,-0.080078 -0.055078,-0.066366 -0.2519592,-0.080078 -1.1498443,-0.080078 -0.5958631,0 -1.0913953,0.021331 -1.1011827,0.047408 -0.00974,0.026078 -0.1117757,0.092132 -0.2266422,0.1468066 -0.2710707,0.1290103 -0.4103276,0.3233096 -0.4436586,0.6190166 -0.026969,0.23928 0.2656106,2.207144 0.3592842,2.416502 0.041283,0.09228 0.4248476,2.431507 0.6768016,4.127623 l 0.08183,0.550891 -0.1218979,0.129756 C 3.4119,17.661213 3.3664298,17.670119 2.862983,17.670119 c -0.3423036,0 -0.5635136,-0.02296 -0.6031629,-0.06261 -0.047896,-0.0479 -0.094921,-0.0479 -0.2000327,0 C 1.845984,17.704929 1.4249705,17.687179 1.32866,17.576709 1.2837567,17.525189 1.1955285,17.183946 1.1319787,16.81598 1.068593,16.448965 0.99466825,16.100634 0.96770182,16.041912 0.87070402,15.830688 0.16868173,11.323274 0.08803013,10.393879 c -0.1153469,-1.3292084 -0.1180766,-4.8526835 -0.00383,-4.9474974 0.053592,-0.044477 0.239149,-0.059307 0.5827732,-0.046574 0.27728028,0.010271 0.52216427,6.62e-4 0.54418667,-0.021358 0.022022,-0.022021 3.7363047,-0.040038 8.2539608,-0.040038 7.2520172,0 8.2175202,0.00938 8.2446492,0.080076 0.02206,0.057481 0.111964,0.080076 0.318629,0.080076 0.252312,0 0.287901,-0.013198 0.287901,-0.1067681 0,-0.099229 0.03559,-0.1067681 0.503997,-0.1067681 0.278414,0 0.518766,-0.023894 0.536991,-0.053384 0.02122,-0.034322 0.899186,-0.053384 2.458817,-0.053384 h 2.425824 v 0.5570571 c 0,0.3063817 -0.02276,0.6169269 -0.05058,0.6901009 -0.02782,0.073174 -0.469964,0.5491889 -0.982541,1.0578097 -1.046037,1.037967 -1.102238,1.1332482 -1.102238,1.868677 v 0.3639982 h 0.40038 0.40038 V 8.8436827 7.9714701 l 0.760723,-0.661953 c 0.418398,-0.3640748 1.0321,-0.8979413 1.363782,-1.1863711 0.921636,-0.8014492 0.889044,-0.7847416 1.530798,-0.7847416 h 0.544129 L 27.082142,5.0415479 C 27.059782,4.7719987 27.071352,4.730258 27.207852,4.5877836 27.3576,4.4314806 27.360614,4.4308757 27.989553,4.4308757 h 0.631373 L 28.778762,4.2573775 C 28.939927,4.080219 28.975889,3.9580089 28.893438,3.867674 28.787213,3.7512909 28.672807,3.2664769 28.672807,2.9327147 c 0,-0.21392 -0.03212,-0.4196349 -0.07979,-0.5109845 -0.136378,-0.2613605 -0.150022,-0.4661058 -0.04608,-0.691465 0.07239,-0.15695 0.103306,-0.3944652 0.124436,-0.95619658 l 0.02812,-0.7473766 h 0.238181 c 0.200467,0 0.248873,0.0211327 0.305698,0.13346003 0.03714,0.0734033 0.212219,0.69337991 0.389082,1.37772635 0.242794,0.9394734 0.321564,1.3350477 0.321564,1.6148674 0,0.2038305 0.02145,0.3706011 0.04767,0.3706011 0.0782,0 0.112479,-0.1498548 0.112479,-0.4917654 V 2.7087008 l 0.251825,0.028384 c 0.138502,0.015611 0.259481,0.051355 0.268839,0.079431 0.0093,0.028076 0.24805,0.144417 0.530424,0.258536 0.578408,0.2337577 0.570364,0.2235726 0.744045,0.9420418 0.07742,0.3202332 0.121102,0.4136834 0.193423,0.4137263 0.06404,3.8e-5 0.09342,0.042021 0.09342,0.1335155 0,0.1245628 0.0178,0.1334601 0.26692,0.1334601 0.249126,0 0.26692,-0.00889 0.26692,-0.1334601 0,-0.1245627 0.0178,-0.13346 0.266921,-0.13346 0.249125,0 0.26692,0.00889 0.26692,0.13346 0,0.1245628 0.0178,0.1334601 0.26692,0.1334601 0.249126,0 0.26692,-0.00889 0.26692,-0.1334601 0,-0.1245627 0.0178,-0.13346 0.266921,-0.13346 0.249125,0 0.266919,0.00889 0.266919,0.13346 0,0.1261804 0.01601,0.1334601 0.293612,0.1334601 0.277598,0 0.293613,-0.00728 0.293613,-0.1334601 0,-0.1225855 0.01957,-0.13346 0.240229,-0.13346 0.220653,0 0.240227,0.010875 0.240227,0.13346 0,0.1245628 0.0178,0.1334601 0.266921,0.1334601 0.249125,0 0.26692,-0.00889 0.26692,-0.1334601 0,-0.1261805 0.01601,-0.13346 0.293612,-0.13346 0.277597,0 0.293612,0.00728 0.293612,0.13346 0,0.1245628 0.0178,0.1334601 0.26692,0.1334601 0.249127,0 0.266921,-0.00889 0.266921,-0.1334601 0,-0.1225855 0.01957,-0.13346 0.240228,-0.13346 0.220654,0 0.240228,0.010875 0.240228,0.13346 0,0.1261804 0.01601,0.1334601 0.293612,0.1334601 0.277598,0 0.293613,-0.00728 0.293613,-0.1334601 0,-0.1245627 0.0178,-0.13346 0.26692,-0.13346 0.249126,0 0.26692,0.00889 0.26692,0.13346 0,0.1245628 0.0178,0.1334601 0.266921,0.1334601 0.249125,0 0.266919,-0.00889 0.266919,-0.1334601 0,-0.1225855 0.01958,-0.13346 0.240229,-0.13346 0.220654,0 0.240228,0.010875 0.240228,0.13346 0,0.1275286 0.01423,0.1334601 0.320304,0.1334601 0.306069,0 0.320305,-0.00593 0.320305,-0.1334601 0,-0.1225855 0.01957,-0.13346 0.240228,-0.13346 0.220653,0 0.240228,0.010875 0.240228,0.13346 0,0.1245628 0.0178,0.1334601 0.26692,0.1334601 0.249125,0 0.266921,-0.00889 0.266921,-0.1334601 0,-0.1261805 0.01601,-0.13346 0.293612,-0.13346 0.277597,0 0.293612,0.00728 0.293612,0.13346 0,0.1245628 0.0178,0.1334601 0.26692,0.1334601 0.249126,0 0.26692,-0.00889 0.26692,-0.1334601 0,-0.1225855 0.01958,-0.13346 0.240228,-0.13346 0.220655,0 0.240229,0.010875 0.240229,0.13346 0,0.1245628 0.0178,0.1334601 0.26692,0.1334601 0.249126,0 0.26692,-0.00889 0.26692,-0.1334601 0,-0.1261805 0.01601,-0.13346 0.293612,-0.13346 0.277598,0 0.293612,0.00728 0.293612,0.13346 0,0.1245628 0.0178,0.1334601 0.266921,0.1334601 0.249125,0 0.26692,-0.00889 0.26692,-0.1334601 0,-0.1225855 0.01958,-0.13346 0.240228,-0.13346 0.220654,0 0.240228,0.010875 0.240228,0.13346 0,0.1261804 0.01601,0.1334601 0.293613,0.1334601 0.277597,0 0.293612,-0.00728 0.293612,-0.1334601 0,-0.1245627 0.0178,-0.13346 0.26692,-0.13346 0.249126,0 0.266921,0.00889 0.266921,0.13346 0,0.1245628 0.0178,0.1334601 0.266919,0.1334601 0.249127,0 0.266921,-0.00889 0.266921,-0.1334601 0,-0.1245627 0.0178,-0.13346 0.26692,-0.13346 0.249126,0 0.26692,0.00889 0.26692,0.13346 0,0.1261804 0.01601,0.1334601 0.293612,0.1334601 0.277598,0 0.293612,-0.00728 0.293612,-0.1334601 0,-0.1292979 0.01134,-0.13346 0.363701,-0.13346 0.329247,0 0.377361,0.014258 0.507896,0.1505073 0.07931,0.082779 0.129382,0.1653209 0.111276,0.1834263 -0.01811,0.018105 -0.017,0.1486723 0.0025,0.2901486 0.04184,0.3042544 0.168168,0.3902145 0.573445,0.3902145 h 0.256278 l 0.0084,-0.2268821 c 0.01705,-0.4629434 0.03185,-0.5262782 0.153162,-0.6554094 0.123399,-0.1313513 0.128991,-0.1320052 1.129004,-0.1320052 h 1.004991 v 0.13346 c 0,0.1245628 0.0178,0.1334601 0.266921,0.1334601 0.249125,0 0.26692,-0.00889 0.26692,-0.1334601 0,-0.1245627 0.0178,-0.13346 0.26692,-0.13346 0.249126,0 0.26692,0.00889 0.26692,0.13346 0,0.1261804 0.01601,0.1334601 0.293613,0.1334601 0.277596,0 0.293612,-0.00728 0.293612,-0.1334601 0,-0.1225855 0.01958,-0.13346 0.240228,-0.13346 0.220653,0 0.240229,0.010875 0.240229,0.13346 0,0.1261804 0.01601,0.1334601 0.293612,0.1334601 0.277596,0 0.293612,-0.00728 0.293612,-0.1334601 0,-0.1225855 0.01958,-0.13346 0.240228,-0.13346 0.220652,0 0.240228,0.010875 0.240228,0.13346 0,0.1261804 0.01601,0.1334601 0.293612,0.1334601 0.277598,0 0.293612,-0.00728 0.293612,-0.1334601 0,-0.1245627 0.0178,-0.13346 0.266921,-0.13346 0.249127,0 0.26692,0.00889 0.26692,0.13346 0,0.1245628 0.0178,0.1334601 0.26692,0.1334601 0.249128,0 0.26692,-0.00889 0.26692,-0.1334601 0,-0.1225855 0.01958,-0.13346 0.240228,-0.13346 0.220653,0 0.240229,0.010875 0.240229,0.13346 0,0.1261804 0.01601,0.1334601 0.293612,0.1334601 0.277597,0 0.293612,-0.00728 0.293612,-0.1334601 0,-0.1245627 0.0178,-0.13346 0.266921,-0.13346 0.249127,0 0.26692,0.00889 0.26692,0.13346 0,0.1245628 0.0178,0.1334601 0.26692,0.1334601 0.249127,0 0.266921,-0.00889 0.266921,-0.1334601 0,-0.1245627 0.0178,-0.13346 0.266919,-0.13346 0.249128,0 0.266921,0.00889 0.266921,0.13346 0,0.1261804 0.01601,0.1334601 0.293612,0.1334601 0.277597,0 0.293612,-0.00728 0.293612,-0.1334601 0,-0.1225855 0.01958,-0.13346 0.240228,-0.13346 0.220653,0 0.240229,0.010875 0.240229,0.13346 0,0.1245628 0.0178,0.1334601 0.266919,0.1334601 0.249128,0 0.266921,-0.00889 0.266921,-0.1334601 0,-0.1261805 0.01601,-0.13346 0.293612,-0.13346 0.277597,0 0.293612,0.00728 0.293612,0.13346 0,0.1245628 0.0178,0.1334601 0.266921,0.1334601 0.249127,0 0.266919,-0.00889 0.266919,-0.1334601 0,-0.09787 0.02847,-0.13346 0.106769,-0.13346 0.05873,0 0.106768,-0.028715 0.106768,-0.063809 0,-0.035095 0.06141,-0.1279125 0.136476,-0.2062614 L 62.684475,4.0183528 62.570687,3.6805894 C 62.46386,3.363465 62.457251,3.2434765 62.46261,1.716935 62.46571,0.82269502 62.48098,0.07055902 62.49645,0.045522 62.51192,0.0204849 62.710472,0 62.937674,0 c 0.407818,0 0.415606,0.002581 0.610767,0.20244097 l 0.197676,0.20244107 V 1.9107303 c 0,1.3653689 0.02832,1.6805057 0.127749,1.4214063 0.01783,-0.046444 0.0324,-0.2025916 0.0324,-0.3469963 0,-0.2547144 0.0047,-0.2625541 0.156341,-0.2625541 0.08599,0 0.188082,0.031137 0.226882,0.069194 0.03879,0.038056 0.238701,0.1359345 0.44423,0.2175066 0.755005,0.2996532 0.734223,0.2821567 0.864229,0.7276024 0.06426,0.2202059 0.118315,0.4664371 0.120114,0.5471804 l 0.0032,0.1468062 0.520495,0.00156 c 0.500929,0.0015 0.527017,0.00749 0.693992,0.1593997 0.132884,0.1208868 0.173498,0.2017496 0.173498,0.3454314 v 0.1875968 l 1.214487,3.37e-5 c 1.116703,3.11e-5 1.285408,0.012892 2.095324,0.1597369 0.48446,0.087837 0.934888,0.1723593 1.000951,0.1878273 0.106298,0.02489 0.120113,0.061348 0.120113,0.3170067 0,0.2546275 0.0136,0.2909052 0.114665,0.3059414 0.09184,0.013664 0.185114,0.109741 0.238039,0.2451977 0.02354,0.060252 0.178254,-0.073892 0.19136,-0.1659225 0.01492,-0.1046444 0.05307,-0.1170856 0.402676,-0.1312686 0.623776,-0.025307 0.601398,-0.064583 0.601398,1.0555084 0,1.1348206 0.0067,1.1222139 -0.600779,1.1222139 -0.299591,0 -0.368558,-0.016428 -0.392351,-0.093418 -0.05388,-0.1743592 -0.112459,-0.2535295 -0.200388,-0.2708345 -0.0587,-0.011557 -0.0877,0.019341 -0.0877,0.093418 0,0.075093 -0.03433,0.1106822 -0.106768,0.1106822 -0.101057,0 -0.106768,0.035593 -0.106768,0.6661217 v 0.6661227 l 1.00095,0.014521 1.000952,0.014521 0.016,0.9609133 c 0.0088,0.528502 0.0013,1.06301 -0.01662,1.187796 l -0.03262,0.226881 h -0.981656 c -0.839416,0 -0.988524,0.01223 -1.028908,0.08439 -0.09799,0.175088 -0.996419,1.036674 -1.081006,1.036674 -0.04859,0 -0.131838,0.04805 -0.184981,0.106767 -0.08275,0.09144 -0.164423,0.106768 -0.568807,0.106768 h -0.472182 v 0.312031 c 0,0.323121 -0.02953,0.374112 -0.306232,0.528769 -0.06567,0.0367 -0.251385,0.06673 -0.412712,0.06673 -0.268351,0 -0.29617,-0.01136 -0.326817,-0.13346 -0.03012,-0.12003 -0.06027,-0.13346 -0.299624,-0.13346 -0.221234,0 -0.270844,0.01801 -0.294055,0.106768 -0.02187,0.08364 -0.07281,0.106768 -0.235226,0.106768 -0.17172,0 -0.207312,-0.01833 -0.207312,-0.106768 0,-0.0949 -0.03559,-0.106768 -0.320304,-0.106768 -0.284713,0 -0.320305,0.01187 -0.320305,0.106768 0,0.09095 -0.03559,0.106768 -0.240227,0.106768 -0.204638,0 -0.240228,-0.01582 -0.240228,-0.106768 0,-0.09382 -0.03559,-0.106768 -0.293613,-0.106768 -0.258021,0 -0.293612,0.01295 -0.293612,0.106768 0,0.09095 -0.03559,0.106768 -0.240229,0.106768 -0.204636,0 -0.240227,-0.01582 -0.240227,-0.106768 0,-0.09354 -0.03559,-0.106768 -0.287388,-0.106768 -0.242487,0 -0.291744,0.01668 -0.315302,0.106768 -0.02219,0.08483 -0.07282,0.106768 -0.246459,0.106768 -0.182941,0 -0.218533,-0.01739 -0.218533,-0.106768 0,-0.09382 -0.03559,-0.106768 -0.293612,-0.106768 -0.25802,0 -0.293612,0.01295 -0.293612,0.106768 0,0.09127 -0.03559,0.106768 -0.245225,0.106768 -0.200329,0 -0.250339,-0.01955 -0.27315,-0.106768 -0.0232,-0.08872 -0.07281,-0.106768 -0.293612,-0.106768 -0.220791,0 -0.270406,0.01805 -0.293612,0.106768 -0.02187,0.08364 -0.07281,0.106768 -0.235226,0.106768 -0.171721,0 -0.207312,-0.01833 -0.207312,-0.106768 0,-0.0949 -0.03559,-0.106768 -0.320305,-0.106768 -0.284712,0 -0.320304,0.01187 -0.320304,0.106768 0,0.09095 -0.03559,0.106768 -0.240228,0.106768 -0.204637,0 -0.240228,-0.01582 -0.240228,-0.106768 0,-0.09382 -0.03559,-0.106768 -0.293613,-0.106768 -0.25802,0 -0.293612,0.01295 -0.293612,0.106768 0,0.08844 -0.03559,0.106768 -0.207312,0.106768 -0.162409,0 -0.213354,-0.02312 -0.235225,-0.106768 -0.02364,-0.09037 -0.07282,-0.106768 -0.320304,-0.106768 -0.247489,0 -0.296672,0.0164 -0.320305,0.106768 -0.02219,0.08483 -0.07282,0.106768 -0.246458,0.106768 -0.182941,0 -0.218533,-0.01739 -0.218533,-0.106768 0,-0.09382 -0.03559,-0.106768 -0.293612,-0.106768 -0.258021,0 -0.293612,0.01295 -0.293612,0.106768 0,0.08939 -0.03559,0.106768 -0.218533,0.106768 -0.173638,0 -0.224272,-0.02193 -0.246458,-0.106768 -0.02393,-0.0915 -0.07281,-0.106768 -0.341994,-0.106768 -0.278489,0 -0.31408,0.0121 -0.31408,0.106768 0,0.08897 -0.03559,0.106768 -0.213536,0.106768 -0.177946,0 -0.213536,-0.0178 -0.213536,-0.106768 0,-0.09382 -0.03559,-0.106768 -0.293612,-0.106768 -0.258022,0 -0.293613,0.01295 -0.293613,0.106768 0,0.09254 -0.03559,0.106768 -0.26692,0.106768 -0.231329,0 -0.266921,-0.01424 -0.266921,-0.106768 0,-0.09382 -0.03559,-0.106768 -0.293612,-0.106768 -0.25802,0 -0.293612,0.01295 -0.293612,0.106768 0,0.102062 -0.03559,0.106768 -0.807983,0.106768 -0.797631,0 -0.809605,-0.0018 -0.934223,-0.13621 -0.132208,-0.142655 -0.179094,-0.518813 -0.07285,-0.584475 0.125075,-0.0773 0.03503,-0.13346 -0.213973,-0.13346 -0.200629,0 -0.425741,0.06663 -0.90194,0.266921 l -0.634582,0.26692 h -0.63983 -0.63983 l -0.02184,0.493802 c -0.01549,0.35013 -0.04999,0.541308 -0.118607,0.657077 -0.09066,0.152976 -0.418306,0.343874 -0.590192,0.343874 -0.143253,0 -0.140512,0.102871 0.01738,0.652214 0.210221,0.731384 0.211648,0.741129 0.132314,0.903222 -0.06059,0.123788 -0.0488,0.20102 0.09777,0.640608 0.09167,0.274917 0.184481,0.511862 0.206255,0.526542 0.02178,0.01468 0.0674,0.134795 0.101388,0.266921 0.03399,0.132125 0.157954,0.532633 0.275478,0.890017 0.193556,0.588592 0.228302,0.654887 0.368921,0.703907 0.185009,0.0645 0.248861,0.253217 0.166048,0.490774 -0.05269,0.151152 -0.02447,0.23057 0.34178,0.961854 0.293189,0.585401 0.424808,0.797098 0.495582,0.797098 0.05301,0 0.151213,0.0511 0.218247,0.113549 0.103896,0.0968 0.116807,0.147375 0.0875,0.34282 -0.03192,0.212895 -0.0056,0.282423 0.368644,0.973213 0.221664,0.409166 0.403025,0.771387 0.403025,0.804935 0,0.03355 0.0595,0.061 0.13223,0.061 0.183114,0 0.318316,0.21628 0.273931,0.438202 -0.02854,0.142743 0.01885,0.264743 0.295294,0.760099 0.181114,0.324535 0.343612,0.602075 0.361106,0.616756 0.0175,0.01468 0.0716,0.09877 0.120227,0.186845 0.05035,0.09121 0.157931,0.181694 0.249912,0.210198 0.08882,0.02753 0.191222,0.105599 0.22756,0.173498 0.03634,0.0679 0.09204,0.123737 0.123782,0.124085 0.07939,8.71e-4 0.390546,0.593366 0.366438,0.69778 -0.01073,0.04648 -0.19869,0.177919 -0.417693,0.292102 -0.219002,0.114183 -0.398186,0.226817 -0.398186,0.250297 0,0.02349 -0.06607,0.07105 -0.146806,0.105713 -0.08074,0.03466 -0.579217,0.307395 -1.107719,0.606075 -0.528502,0.298682 -1.209072,0.681838 -1.51238,0.851459 -0.303307,0.169622 -0.579569,0.336277 -0.613917,0.370346 -0.06846,0.0679 -0.718312,0.45571 -0.763641,0.45571 -0.01549,0 -0.344521,0.184077 -0.731171,0.40906 -0.386649,0.224982 -0.96725,0.551656 -1.290223,0.725942 -0.322974,0.174285 -0.599236,0.334286 -0.613917,0.355557 -0.04407,0.06386 -0.192975,0.103512 -0.247747,0.06598 z M 33.061445,16.897446 c 3.245871,-0.189871 3.095914,-0.165301 3.349999,-0.5489 0.154397,-0.233096 0.162196,-0.27138 0.162196,-0.79625 0,-0.573725 -0.0134,-0.602356 -0.230392,-0.492169 -0.137988,0.07007 -0.669017,0.617154 -0.970749,1.000099 -0.233038,0.29576 -0.232526,0.295423 -0.342994,0.22551 -0.05992,-0.03791 0.0308,-0.180431 0.427072,-0.670884 0.426101,-0.527381 0.548106,-0.643729 0.796758,-0.759808 0.161487,-0.07538 0.302641,-0.144494 0.313674,-0.153569 0.03149,-0.02589 -0.228835,-0.552705 -0.273636,-0.55376 -0.02202,-5.34e-4 -0.04004,0.06785 -0.04004,0.15193 0,0.094 -0.05421,0.207077 -0.140739,0.293612 -0.124176,0.124175 -0.183017,0.140739 -0.49995,0.140739 -0.403722,0 -0.640528,-0.125772 -0.640528,-0.340194 0,-0.143695 -0.09379,-0.24703 -0.224212,-0.24703 -0.0605,0 -0.09609,-0.03954 -0.09609,-0.106769 0,-0.101492 -0.03559,-0.106767 -0.720685,-0.106767 -0.565713,0 -0.720684,0.01534 -0.720684,0.07132 0,0.04154 -0.131311,0.107832 -0.31448,0.158757 -0.240857,0.06697 -0.362711,0.139638 -0.520495,0.310426 -0.113308,0.122646 -0.249701,0.269056 -0.303095,0.325358 -0.134597,0.141924 -0.249915,0.492404 -0.249915,0.759551 0,0.249074 0.143312,0.723482 0.218555,0.723482 0.02661,0 0.04836,0.03026 0.04836,0.06724 0,0.08203 -0.199994,0.214356 -0.264086,0.174744 -0.02542,-0.0157 -0.124564,-0.190685 -0.220331,-0.388843 -0.16784,-0.347284 -0.175469,-0.392068 -0.211419,-1.241121 -0.02051,-0.48446 -0.0405,-0.886843 -0.04442,-0.894183 -0.0039,-0.0074 -0.247351,-0.01335 -0.540963,-0.01335 -0.484462,0 -0.630681,0.04062 -0.480457,0.13346 0.03253,0.02011 0.05324,0.422772 0.05302,1.030794 l -3.74e-4,0.9978 -0.186479,0.126995 c -0.102559,0.06985 -0.186471,0.147086 -0.186471,0.171641 0,0.08917 0.349043,0.439348 0.506156,0.507806 0.204221,0.08898 -0.06236,0.09502 2.547887,-0.05767 z M 22.106564,12.94563 v -0.400379 h -0.26692 c -0.274246,0 -0.339262,0.06646 -0.200636,0.205081 0.05279,0.05279 0.05012,0.07627 -0.01309,0.115338 -0.068,0.04203 -0.06476,0.05973 0.02263,0.123638 0.100393,0.07341 0.100393,0.0755 -2.67e-4,0.132485 -0.100269,0.05677 -0.100176,0.05948 0.0045,0.13936 0.05873,0.04481 0.184842,0.08222 0.280266,0.08316 l 0.173507,0.0017 z m 28.711443,-0.420229 c 0.02228,-0.195032 -0.05288,-0.269867 -0.227147,-0.22613 -0.106861,0.02682 -0.137368,0.06785 -0.137368,0.184716 0,0.189065 0.04148,0.230351 0.211537,0.21052 0.104833,-0.01222 0.13942,-0.05046 0.152978,-0.169106 z m 3.483048,0.03199 c 0.182707,-0.213389 0.423159,-0.59735 0.423159,-0.675715 0,-0.0658 -0.0619,-0.0838 -0.288049,-0.0838 -0.285936,0 -0.289256,0.0019 -0.453764,0.258249 -0.180753,0.281683 -0.193331,0.337778 -0.110452,0.492638 0.07029,0.131347 0.319733,0.136364 0.429106,0.0086 z m 1.87464,-0.0073 c 0.133348,-0.155743 0.470345,-0.66554 0.470345,-0.711526 0,-0.02241 -0.141632,-0.04075 -0.314742,-0.04075 h -0.314735 l -0.16572,0.258248 c -0.180754,0.281683 -0.193331,0.337778 -0.110452,0.492638 0.07196,0.134467 0.320677,0.135262 0.435304,0.0013 z m 1.831788,0.06102 c 0.0948,-0.06944 0.453615,-0.648786 0.453615,-0.732393 0,-0.06216 -0.06594,-0.0809 -0.28474,-0.0809 -0.284569,0 -0.284857,1.6e-4 -0.484257,0.289691 -0.194788,0.282826 -0.197383,0.292945 -0.109502,0.427072 0.08903,0.135872 0.304396,0.184799 0.424884,0.09653 z m 1.898898,-0.05377 c 0.182705,-0.213388 0.423159,-0.597349 0.423159,-0.675714 0,-0.06579 -0.0619,-0.0838 -0.288051,-0.0838 -0.285934,0 -0.289255,0.0019 -0.453764,0.258248 -0.180753,0.281684 -0.19333,0.337779 -0.110451,0.492639 0.07029,0.131346 0.319732,0.136364 0.429107,0.0086 z m 1.86844,0 c 0.182707,-0.213388 0.423159,-0.597349 0.423159,-0.675714 0,-0.06561 -0.06145,-0.0838 -0.2831,-0.0838 h -0.283106 l -0.21177,0.306959 -0.211769,0.306957 0.107842,0.119563 c 0.129664,0.143762 0.347364,0.156118 0.458744,0.02604 z m 1.903051,-0.02549 c 0.15524,-0.168723 0.441935,-0.634368 0.441935,-0.71779 0,-0.04939 -0.0892,-0.06907 -0.306959,-0.06771 l -0.306958,0.0019 -0.222633,0.328626 -0.222633,0.328626 0.115865,0.122303 c 0.147831,0.156045 0.359947,0.157751 0.501383,0.004 z m 1.821699,0.02157 c 0.164214,-0.164211 0.435293,-0.582575 0.435293,-0.671794 0,-0.06574 -0.06176,-0.0838 -0.286517,-0.0838 -0.275131,0 -0.292134,0.0085 -0.427831,0.213537 -0.07773,0.117444 -0.163233,0.213536 -0.190026,0.213536 -0.09801,0 -0.08845,0.190109 0.01543,0.306958 0.129536,0.145696 0.320443,0.154771 0.453647,0.02157 z m 1.858426,-0.0012 c 0.129488,-0.10816 0.445309,-0.600014 0.445309,-0.693523 0,-0.03765 -0.104863,-0.06083 -0.275148,-0.06083 -0.256307,0 -0.288284,0.01518 -0.467109,0.221765 -0.28994,0.334948 -0.297403,0.358273 -0.161103,0.503357 0.143101,0.152327 0.29878,0.162259 0.458051,0.02923 z m 1.868442,0 c 0.129488,-0.10816 0.445308,-0.600014 0.445308,-0.693523 0,-0.08277 -0.536141,-0.07645 -0.643955,0.0076 -0.09487,0.07395 -0.370342,0.469074 -0.370342,0.531189 0,0.08797 0.219755,0.254436 0.33365,0.252752 0.06606,-9.76e-4 0.171966,-0.04509 0.235339,-0.09802 z M 12.860447,10.826284 c 0.08366,-0.08366 0.0789,-0.258926 -0.01026,-0.376358 -0.06588,-0.08678 -0.260801,-0.09342 -2.743767,-0.09342 -2.358686,0 -2.6827114,0.0099 -2.7567396,0.08389 -0.046144,0.04614 -0.083893,0.128502 -0.083893,0.18303 0,0.05453 0.037749,0.136893 0.083893,0.183032 0.074035,0.07404 0.3988309,0.08389 2.7652936,0.08389 2.014358,0 2.69734,-0.01593 2.745465,-0.06406 z m 9.246117,-0.8701605 c 0,-0.1245626 -0.0178,-0.1334597 -0.26692,-0.1334597 -0.249126,0 -0.266921,0.00891 -0.266921,0.1334597 0,0.1245625 0.0178,0.1334595 0.266921,0.1334595 0.249125,0 0.26692,-0.0089 0.26692,-0.1334595 z M 54.564062,9.3768659 c 0,-0.010261 -0.02642,-0.094527 -0.05872,-0.1871659 -0.05889,-0.1689363 -0.210094,-0.2495835 -0.398513,-0.2125627 -0.120167,0.023611 -0.313417,0.2842289 -0.266749,0.3597414 0.03175,0.051368 0.723978,0.089603 0.723978,0.039987 z M 70.419124,9.2651586 c 0,-0.143808 -0.176248,-0.2966396 -0.34209,-0.2966396 -0.134758,0 -0.351903,0.2033889 -0.351903,0.3296099 0,0.084369 0.04663,0.09746 0.346997,0.09746 0.33239,0 0.346996,-0.00549 0.346996,-0.1304333 z M 2.6248969,7.738808 c 0.075196,-0.040246 0.1032538,-0.1122753 0.1032538,-0.2650415 0,-0.213452 -0.096776,-0.3203044 -0.2901025,-0.3203044 -0.1178868,0 -0.2971215,0.1932189 -0.2971215,0.3203044 0,0.1270855 0.1792347,0.3203034 0.2971215,0.3203034 0.045968,0 0.1300519,-0.024865 0.1868446,-0.055265 z"
   id="path295" /></svg>
