<?xml version="1.0" encoding="UTF-8" standalone="no"?>
<!-- Created with Inkscape (http://www.inkscape.org/) -->

<svg
   width="105.22286"
   height="32.009914"
   viewBox="0 0 27.840215 8.4692903"
   version="1.1"
   id="svg5"
   xmlns="http://www.w3.org/2000/svg"
   xmlns:svg="http://www.w3.org/2000/svg">
  <defs
     id="defs2" />
  <g
     id="layer1"
     transform="translate(-71.865961,-374.89178)">
    <path
       style="fill:#ffffff;stroke-width:0.0196829;fill-opacity:1"
       d="m 77.174786,382.54844 c -0.0051,-0.005 -0.0094,-0.061 -0.0094,-0.12417 v -0.11481 h -0.10821 -0.108256 v -0.1181 c 0,-0.0656 0.0087,-0.1181 0.01968,-0.1181 0.01082,0 0.01968,-0.0221 0.01968,-0.0492 0,-0.0271 -0.0083,-0.0492 -0.01855,-0.0492 -0.0102,0 -0.02128,-0.0376 -0.0246,-0.0837 l -0.0061,-0.0836 -0.162384,-0.006 c -0.103005,-0.004 -0.162384,0.002 -0.162384,0.0148 0,0.0127 -0.06737,0.0205 -0.176454,0.0205 -0.148193,0 -0.179285,-0.006 -0.194135,-0.0344 -0.0097,-0.0189 -0.02348,-0.1133 -0.03056,-0.20967 -0.0085,-0.11501 -0.02246,-0.18266 -0.04075,-0.19683 -0.01662,-0.0129 -0.03202,-0.0732 -0.03817,-0.14954 -0.0057,-0.0704 -0.016,-0.17001 -0.02298,-0.22143 l -0.01268,-0.0935 h -0.127799 c -0.111247,0 -0.129133,0.005 -0.138094,0.0394 -0.0077,0.0294 -0.02685,0.0394 -0.07545,0.0394 -0.04474,0 -0.06715,-0.0101 -0.07152,-0.0324 -0.0057,-0.029 -0.06739,-0.033 -0.592345,-0.0384 -0.612053,-0.006 -0.952921,-0.028 -1.234689,-0.0787 -0.253443,-0.0456 -1.088563,-0.25988 -1.262363,-0.32397 -0.22035,-0.0812 -0.29484,-0.12321 -0.392801,-0.2213 -0.05644,-0.0565 -0.129775,-0.10334 -0.209793,-0.13395 -0.06766,-0.0259 -0.123018,-0.0541 -0.123018,-0.0627 0,-0.009 0.031,-0.0617 0.06889,-0.11794 0.03789,-0.0563 0.06889,-0.10894 0.06889,-0.11706 0,-0.008 -0.03206,-0.0281 -0.07124,-0.0445 l -0.07124,-0.0298 0.05548,-0.0738 c 0.221552,-0.29482 1.234496,-1.61181 1.310446,-1.7038 0.05194,-0.0629 0.104612,-0.15148 0.117044,-0.19683 0.01511,-0.0551 0.01857,-0.17853 0.01043,-0.37244 l -0.01218,-0.28998 0.05008,-0.0126 c 0.02755,-0.007 0.648228,-0.008 1.379291,-0.001 1.315417,0.0111 1.40984,0.0162 1.373762,0.0746 -0.0059,0.01 -8.81e-4,0.0175 0.01122,0.0175 0.0121,0 0.01614,0.009 0.009,0.0211 -0.0072,0.0116 -0.0071,0.0603 3.9e-5,0.10825 l 0.01308,0.0872 h 0.155096 c 0.0853,0 0.16057,0.009 0.16726,0.0197 0.0067,0.0108 0.02556,0.0197 0.04193,0.0197 0.03848,0 0.08601,0.0478 0.08601,0.0864 0,0.0245 0.03402,0.0312 0.182067,0.0358 0.100137,0.003 0.207115,-0.002 0.23773,-0.0116 0.03502,-0.0108 0.07285,-0.009 0.102015,0.004 0.06041,0.0275 0.186773,0.007 0.186773,-0.0298 0,-0.0242 0.09909,-0.0262 0.698744,-0.0141 l 0.698744,0.0141 v -0.15063 -0.15064 h 0.05905 c 0.03248,0 0.05905,0.009 0.05905,0.0197 0,0.0108 0.03543,0.0197 0.07873,0.0197 h 0.07873 v 0.1291 c 0,0.0811 0.0073,0.12457 0.01968,0.11694 0.01118,-0.007 0.01968,-0.10518 0.01968,-0.22752 0,-0.20223 0.0024,-0.21535 0.03937,-0.21535 0.02585,0 0.03937,0.0131 0.03937,0.0382 0,0.044 0.04306,0.0787 0.05461,0.044 0.0086,-0.0259 0.296223,-0.0316 0.521119,-0.0103 0.130197,0.0123 0.132859,0.0137 0.132859,0.069 v 0.0564 l 0.39858,-0.0129 c 0.393234,-0.0127 0.399503,-0.0136 0.467469,-0.0658 0.03789,-0.0291 0.08218,-0.061 0.09842,-0.0709 0.01624,-0.01 0.268671,-0.0225 0.560963,-0.0279 l 0.531439,-0.01 0.0098,-0.0689 0.0098,-0.0689 0.241116,-0.006 0.241115,-0.006 v 0.19744 c 0,0.21292 0.0029,0.2178 0.106975,0.17824 0.0468,-0.0178 0.05049,-0.0282 0.05049,-0.14283 0,-0.1512 0.0247,-0.24301 0.08169,-0.30368 0.03576,-0.0381 0.06317,-0.0461 0.157934,-0.0461 h 0.114666 l 0.002,-0.5462 c 0.0011,-0.30041 0.0081,-0.56835 0.01565,-0.59541 l 0.01369,-0.0492 h 0.284515 0.284515 l 0.0098,0.58395 c 0.0054,0.32116 0.01427,0.5879 0.01968,0.59274 0.0054,0.005 0.02977,0.0192 0.05413,0.0318 0.04412,0.0229 0.04429,0.0249 0.04429,0.51139 v 0.48835 l 1.402408,0.0137 c 0.771325,0.008 2.168566,0.031 3.104982,0.0521 0.936414,0.0211 1.721959,0.0384 1.745653,0.0385 0.0364,1.1e-4 0.04518,-0.0143 0.05664,-0.0933 0.02523,-0.17389 -0.0044,-0.16385 0.466336,-0.15785 l 0.416638,0.005 0.01465,0.0591 c 0.0081,0.0325 0.01984,0.10004 0.02617,0.15013 l 0.01152,0.0911 2.680953,0.0156 c 1.474524,0.009 2.760176,0.0163 2.857003,0.0172 l 0.176048,0.002 0.02782,-0.11318 0.02782,-0.11318 1.242823,0.003 c 0.683553,0.001 1.349111,0.008 1.479019,0.0148 l 0.236195,0.0121 0.02345,0.095 c 0.04498,0.18224 0.06932,0.55819 0.06905,1.06629 -2.23e-4,0.28147 -0.01046,0.62247 -0.02291,0.75779 -0.0236,0.25659 -0.06803,0.50891 -0.09389,0.53315 -0.0083,0.008 -0.674732,0.008 -1.480994,0.001 l -1.465931,-0.0128 -0.02327,-0.10483 c -0.0128,-0.0577 -0.02717,-0.10874 -0.03194,-0.1135 -0.0083,-0.008 -4.217201,-0.046 -5.234061,-0.047 l -0.485737,-4.5e-4 -0.01372,0.11318 c -0.02355,0.19421 0.0065,0.18207 -0.451233,0.18207 -0.392784,0 -0.402371,-9.7e-4 -0.432332,-0.0437 -0.01685,-0.0241 -0.03064,-0.0807 -0.03064,-0.12588 v -0.0821 l -3.16403,0.01 -3.16403,0.01 -0.01131,0.54778 c -0.0084,0.40619 -0.01791,0.55573 -0.03686,0.57855 -0.02189,0.0264 -0.0941,0.0308 -0.504676,0.0308 -0.453556,0 -0.480216,-0.002 -0.499504,-0.0381 -0.01195,-0.0223 -0.02038,-0.18924 -0.02038,-0.4035 0,-0.20098 -0.0075,-0.36543 -0.01663,-0.36543 -0.0091,0 -0.03266,0.0177 -0.05226,0.0394 -0.01959,0.0216 -0.04754,0.0394 -0.0621,0.0394 -0.02044,0 -0.02654,0.046 -0.02678,0.20175 -1.56e-4,0.11096 -0.008,0.21392 -0.01744,0.22881 -0.01326,0.0209 -0.0633,0.0254 -0.221132,0.0197 l -0.20399,-0.007 -0.0058,0.15653 c -0.0032,0.0861 -0.01536,0.16802 -0.02701,0.18207 -0.01509,0.0182 -0.08563,0.0255 -0.245137,0.0255 -0.136173,0 -0.223943,0.008 -0.223943,0.0197 0,0.0108 -0.01772,0.0374 -0.03937,0.0591 -0.03617,0.0362 -0.06561,0.0394 -0.362853,0.0394 -0.177918,0 -0.345119,0.008 -0.37156,0.0183 -0.05715,0.0217 -0.09227,0.11009 -0.09227,0.23216 v 0.0871 l -0.221433,-0.003 c -0.121788,-0.002 -0.51151,-0.002 -0.866048,-10e-4 l -0.644616,0.002 v 0.0776 c 0,0.0427 -0.0089,0.083 -0.01968,0.0897 -0.01082,0.007 -0.01968,0.0293 -0.01968,0.0504 0,0.021 0.0089,0.0382 0.01968,0.0382 0.01094,0 0.01968,0.0525 0.01968,0.1181 0,0.0805 -0.0078,0.11863 -0.0246,0.11977 -0.01353,9.2e-4 -0.0711,2.8e-4 -0.127938,-10e-4 l -0.103336,-0.003 v 0.12936 0.12937 H 78.238151 77.8937 v -0.12958 c 0,-0.0949 -0.0066,-0.1274 -0.0246,-0.12146 -0.01516,0.005 -0.02683,0.0539 -0.03041,0.12734 l -0.0058,0.11921 -0.324375,-0.002 c -0.178407,-8.4e-4 -0.328584,-0.006 -0.333729,-0.0109 z m -0.0094,-0.51454 c 0,-0.0306 -0.01312,-0.0394 -0.05905,-0.0394 -0.03248,0 -0.06569,-0.002 -0.07381,-0.005 -0.0081,-0.003 -0.01759,0.015 -0.02105,0.0394 -0.0056,0.0397 0.002,0.0443 0.07381,0.0443 0.06698,0 0.0801,-0.006 0.0801,-0.0394 z m 0.728268,-0.0607 c 0,-0.0712 -0.0071,-0.0977 -0.0246,-0.092 -0.02635,0.009 -0.04416,0.11865 -0.02661,0.16438 0.0235,0.0612 0.05121,0.0221 0.05121,-0.0724 z m 0.885732,0.0607 c 0,-0.0341 -0.01312,-0.0394 -0.09842,-0.0394 -0.08529,0 -0.09842,0.005 -0.09842,0.0394 0,0.0341 0.01312,0.0394 0.09842,0.0394 0.08529,0 0.09842,-0.005 0.09842,-0.0394 z m -3.097055,-1.19155 c 0.0064,-0.0167 -0.0041,-0.0477 -0.02335,-0.0689 -0.03387,-0.0374 -0.0653,-0.0386 -1.011137,-0.0374 -0.559587,7.1e-4 -0.958436,0.008 -0.934609,0.018 0.07542,0.0305 0.44606,0.0805 0.716227,0.0968 0.146145,0.009 0.485215,0.0172 0.753489,0.0188 0.422438,0.003 0.489326,-10e-4 0.499382,-0.0274 z m 0.396954,-6.7e-4 c 0.01429,-0.005 0.02315,-0.0282 0.01968,-0.0526 -0.0071,-0.0502 -0.06115,-0.0649 -0.166104,-0.0452 -0.06346,0.0119 -0.118773,0.0724 -0.09757,0.10669 0.0096,0.0155 0.187793,0.009 0.243995,-0.009 z m -3.324514,-0.35097 c -0.0045,-0.004 -0.0857,-0.0391 -0.180427,-0.0772 -0.09472,-0.0381 -0.172225,-0.0619 -0.172225,-0.053 0,0.0136 0.210548,0.10905 0.314926,0.14282 0.02983,0.01 0.05285,0.002 0.03773,-0.0127 z m 2.206128,-0.048 c 0,-0.0199 -0.02138,-0.046 -0.04751,-0.0579 -0.0406,-0.0185 -0.0495,-0.0402 -0.06117,-0.14921 -0.0075,-0.0702 -0.0061,-0.25892 0.0032,-0.41946 0.01596,-0.27594 0.01931,-0.29295 0.06117,-0.31132 0.02436,-0.0107 0.04429,-0.0353 0.04429,-0.0547 0,-0.0194 0.01328,-0.0404 0.02952,-0.0466 0.01624,-0.006 0.02952,-0.0242 0.02952,-0.04 0,-0.0158 0.04408,-0.048 0.09795,-0.0717 l 0.09795,-0.043 4.46e-4,-0.14078 c 4.46e-4,-0.14005 7.81e-4,-0.14088 0.06245,-0.16238 0.03409,-0.0119 0.107882,-0.0216 0.163978,-0.0216 0.08619,0 0.105369,-0.007 0.123782,-0.0443 0.01198,-0.0244 0.02572,-0.0797 0.03052,-0.12302 0.0082,-0.074 0.0027,-0.0842 -0.09227,-0.16986 l -0.101002,-0.0911 -0.0066,-0.48952 c -0.0036,-0.26924 -0.01472,-0.49794 -0.0246,-0.50823 -0.0099,-0.0103 -0.01796,-0.0391 -0.01796,-0.064 v -0.0453 h -0.353397 -0.353398 l 0.04831,0.0483 c 0.04638,0.0464 0.04831,0.0586 0.04831,0.30638 0,0.14193 -0.0092,0.27519 -0.02038,0.29613 -0.01753,0.0327 -0.0423,0.0381 -0.177146,0.0381 H 74.39012 v 0.12313 c 0,0.11753 -0.0027,0.12431 -0.05829,0.14893 -0.04066,0.018 -0.09855,0.0894 -0.191401,0.23608 -0.121241,0.19153 -0.132884,0.21906 -0.130541,0.3087 0.0014,0.0541 0.0056,0.12489 0.0093,0.15724 0.0063,0.0552 0.0019,0.0595 -0.07197,0.0698 -0.0433,0.006 -0.102522,0.0267 -0.131599,0.0459 -0.03033,0.0201 -0.163479,0.21553 -0.312368,0.45856 l -0.2595,0.42359 0.01341,0.13609 c 0.01131,0.1148 0.0085,0.13799 -0.01814,0.1482 -0.01735,0.007 -0.08068,-0.007 -0.140739,-0.0297 -0.06006,-0.023 -0.119158,-0.0418 -0.13134,-0.0418 -0.05089,0 0.04518,0.0603 0.192957,0.12111 l 0.157463,0.0648 0.442866,0.0114 c 0.243576,0.006 0.613369,0.0132 0.821762,0.0153 0.356162,0.004 0.378896,0.002 0.378896,-0.0323 z m 21.592165,-0.84723 v -0.0567 l -0.428103,-0.012 c -0.235457,-0.007 -1.511603,-0.0176 -2.835881,-0.0244 l -2.407775,-0.0124 0.0065,0.0565 0.0065,0.0565 0.482232,0.006 c 0.265227,0.003 1.394535,0.0127 2.509572,0.0214 1.115038,0.009 2.171273,0.0173 2.347189,0.0191 l 0.319847,0.003 z m -6.652827,-0.14753 v -0.10586 l -3.139412,0.003 -3.139411,0.003 -1.5e-5,0.0509 -1.4e-5,0.0509 0.682276,0.013 c 0.375253,0.007 0.997479,0.0138 1.382726,0.0147 0.385246,9.1e-4 1.355889,0.0174 2.156985,0.0365 0.801094,0.0192 1.59161,0.0362 1.7567,0.0377 l 0.300165,0.003 z m 0.01583,-0.80725 0.006,-0.11595 -0.744096,0.0146 c -0.409252,0.008 -1.826902,0.0143 -3.150332,0.0139 l -2.406237,-7.2e-4 v 0.0548 0.0548 l 1.500822,0.015 c 0.825453,0.008 2.156264,0.0306 2.957359,0.0497 0.801095,0.0191 1.540681,0.0336 1.643524,0.0322 l 0.186988,-0.002 z m 6.656683,-0.0489 v -0.0566 l -1.41225,-0.0123 c -0.776737,-0.007 -2.05219,-0.0178 -2.83434,-0.0246 l -1.422091,-0.0124 v 0.0615 c 0,0.0338 0.0022,0.0631 0.0049,0.065 0.0083,0.006 2.95866,0.0274 4.349926,0.0318 l 1.313835,0.004 z m -13.3772,-0.8109 c 0.02852,-0.0224 0.05186,-0.0483 0.05186,-0.0575 0,-0.009 -0.02725,-0.044 -0.06056,-0.0773 -0.04046,-0.0405 -0.07998,-0.0606 -0.119075,-0.0606 -0.0669,0 -0.166811,0.0462 -0.180017,0.0832 -0.01318,0.037 0.03889,0.1289 0.07891,0.13934 0.08706,0.0227 0.179415,0.0117 0.228887,-0.0272 z m -7.112722,-0.26763 c 0,-0.004 -0.04872,-0.007 -0.108256,-0.007 -0.09984,0 -0.108256,0.004 -0.108256,0.0453 0,0.0249 0.01021,0.0555 0.02269,0.068 0.01713,0.0171 0.04366,0.008 0.108256,-0.0388 0.04706,-0.0338 0.08557,-0.0644 0.08557,-0.068 z"
       id="path3615" />
  </g>
</svg>
