<?xml version="1.0" encoding="UTF-8" standalone="no"?>
<svg
   version="1.1"
   x="0px"
   y="0px"
   width="81.032616"
   height="31.999954"
   viewBox="0 0 81.032616 31.999954"
   enable-background="new 0 0 88.5 32"
   xml:space="preserve"
   id="svg77"
   xmlns="http://www.w3.org/2000/svg"
   xmlns:svg="http://www.w3.org/2000/svg"
   xmlns:rdf="http://www.w3.org/1999/02/22-rdf-syntax-ns#"
   xmlns:cc="http://creativecommons.org/ns#"
   xmlns:dc="http://purl.org/dc/elements/1.1/"><metadata
   id="metadata83"><rdf:RDF><cc:Work
       rdf:about=""><dc:format>image/svg+xml</dc:format><dc:type
         rdf:resource="http://purl.org/dc/dcmitype/StillImage" /></cc:Work></rdf:RDF></metadata><defs
   id="defs81" />
<g
   id="Selected_Items"
   style="fill:#999999"
   transform="translate(-3.6607717,-0.12218646)">
	<g
   id="g73"
   style="fill:#999999">
		<g
   id="Selected_Items_1_"
   style="fill:#999999">
			
		</g>
	</g>
</g>
<g
   id="guides"
   transform="translate(-3.6607717,-0.12218646)">
</g>
<path
   style="fill:#ffffff;fill-opacity:1;stroke-width:0.0951327"
   d="m 43.608002,31.740302 c -0.02683,-0.171504 -0.09424,-0.825543 -0.149806,-1.45342 -0.05555,-0.627876 -0.14182,-1.505476 -0.191686,-1.950222 -0.04986,-0.444746 -0.134003,-1.193918 -0.186974,-1.664826 -0.05297,-0.470907 -0.12434,-1.166565 -0.158598,-1.545908 l -0.06229,-0.689712 H 42.454395 42.05014 l 0.09239,-0.404315 c 0.05262,-0.23031 0.06437,-0.842922 0.02729,-1.423455 -0.06414,-1.004037 -0.06961,-1.022585 -0.369727,-1.251492 -0.286985,-0.218893 -0.311444,-0.286589 -0.422354,-1.168913 -0.06475,-0.515111 -0.162969,-1.289745 -0.218263,-1.72141 l -0.100535,-0.784847 h -0.656102 c -0.640907,0 -0.656104,0.0057 -0.656104,0.244086 0,0.134248 -0.04954,0.337595 -0.110081,0.451881 -0.115016,0.217113 -0.555533,0.635576 -0.669283,0.635777 -0.03623,6.4e-5 -0.27168,-0.242095 -0.523231,-0.538131 -0.25155,-0.296035 -0.527874,-0.601446 -0.614056,-0.67869 -0.274855,-0.246351 -2.150542,-0.680797 -2.95042,-0.683373 l -0.728794,-0.0023 -0.189115,0.404314 c -0.104015,0.222373 -0.326586,0.703984 -0.494604,1.070244 -0.168016,0.366263 -0.404166,0.879981 -0.524776,1.141595 -0.683366,1.482292 -0.891764,1.940147 -1.039222,2.283187 -0.08996,0.209293 -0.202782,0.454869 -0.250708,0.545724 -0.117475,0.222711 -0.111225,1.283249 0.008,1.356933 0.122897,0.07596 0.122389,0.48481 -8.57e-4,0.715153 -0.09284,0.173473 -0.117129,0.171469 -0.733207,-0.06043 -0.350454,-0.131909 -0.81026,-0.317092 -1.021791,-0.411515 -0.211532,-0.09442 -0.555842,-0.22546 -0.765135,-0.291194 -0.209292,-0.06573 -0.423341,-0.150527 -0.475664,-0.188429 -0.05232,-0.0379 -0.416206,-0.187225 -0.808629,-0.331827 -0.392443,-0.144624 -0.799136,-0.294744 -0.903783,-0.333624 -0.104646,-0.03888 -0.350004,-0.139762 -0.545241,-0.224187 l -0.354975,-0.153502 0.576076,-0.929928 c 0.31684,-0.511463 0.626414,-1.015551 0.687939,-1.120196 0.06153,-0.104646 0.136073,-0.211671 0.165659,-0.237832 0.02959,-0.02616 0.283643,-0.432854 0.564569,-0.903762 0.280927,-0.470908 0.537599,-0.877601 0.570382,-0.903762 0.03278,-0.02616 0.225612,-0.32583 0.428514,-0.66593 0.202899,-0.340101 0.397862,-0.639768 0.433248,-0.665929 0.03538,-0.02616 0.09439,-0.143889 0.131137,-0.261616 0.03673,-0.117727 0.106724,-0.214049 0.155522,-0.214049 0.04879,0 0.08872,-0.04454 0.08872,-0.09898 0,-0.05445 0.07887,-0.214978 0.175266,-0.356748 0.931235,-1.369568 1.211822,-2.021132 1.110033,-2.577663 -0.06629,-0.362282 -0.422756,-1.152446 -0.51993,-1.152446 -0.03139,0 -0.205743,-0.136521 -0.387453,-0.303379 l -0.330384,-0.303381 -3.995578,-0.03439 c -5.412553,-0.04658 -6.226835,0.04512 -8.734214,0.983597 -1.197099,0.44806 -2.021677,0.780608 -2.681725,1.081529 -0.433033,0.197424 -0.71683,0.321553 -1.855091,0.81139 -0.94018,0.404597 -1.216707,0.525567 -1.826088,0.798845 -0.245663,0.110167 -0.490517,0.200305 -0.54412,0.200305 -0.0536,0 -0.237892,0.07719 -0.4095326,0.171529 -0.1716419,0.09434 -0.5261247,0.250439 -0.7877399,0.346886 -0.2616152,0.09644 -0.646904,0.24945 -0.856195,0.340009 -0.824204,0.356623 -1.2699754,0.474312 -1.9991945,0.527812 -0.4178125,0.03066 -0.8504644,0.09945 -0.9614489,0.152893 -0.1945128,0.09366 -0.8372174,0.07181 -1.5819502,-0.05378 -0.2163809,-0.03649 -0.3567481,-0.02238 -0.3567481,0.03588 0,0.05281 -0.085619,0.09603 -0.1902657,0.09603 -0.1249154,0 -0.1902656,-0.06342 -0.1902656,-0.184651 0,-0.101559 -0.042809,-0.21111 -0.095133,-0.243447 -0.052323,-0.03234 -0.095132,0.0021 -0.095132,0.07654 0,0.104279 -0.231918,0.150867 -1.0107635,0.203039 -0.5559199,0.03725 -1.04635555,0.03211 -1.08985673,-0.01139 C 0.59593527,17.192989 0.54139867,15.338244 0.5182433,13.114835 0.49508928,10.891413 0.42859648,8.6655689 0.37048237,8.1684998 0.19026917,6.6270794 0.06703856,5.6578942 0.01817039,5.3976337 -0.07340746,4.9099116 0.14390014,4.8308936 1.5371493,4.8452985 c 0.687761,0.00711 1.5073332,-0.014321 1.8212715,-0.047627 0.3139383,-0.033306 3.8885544,-0.1040491 7.9435912,-0.1572012 6.643775,-0.08708 19.290829,-0.2571871 20.191943,-0.2715803 0.249082,-0.00399 0.356749,-0.048221 0.356749,-0.1465857 0,-0.077484 0.102437,-0.1665971 0.227639,-0.1980205 0.175478,-0.044042 0.253152,-0.1589031 0.338972,-0.50126 0.06124,-0.2442687 0.151029,-0.5939601 0.199547,-0.7770905 0.04852,-0.1831314 0.12905,-0.5470143 0.178958,-0.8086289 0.348577,-1.8272162 0.437638,-1.97701756 1.147806,-1.93062368 l 0.428098,0.0279674 0.02572,1.97400648 0.02572,1.974006 h 0.235094 c 0.132068,0 0.287171,0.083388 0.353918,0.1902652 0.07219,0.1155918 0.221854,0.190266 0.381338,0.190266 0.242846,0 0.262516,-0.028514 0.262516,-0.3805312 V 3.6021293 h 0.38053 c 0.274829,0 0.380532,0.039638 0.380532,0.1426989 0,0.095136 0.09514,0.1426998 0.285399,0.1426998 0.190264,0 0.285398,-0.047568 0.285398,-0.1426998 0,-0.079277 0.08456,-0.1426989 0.190266,-0.1426989 0.105703,0 0.190265,0.063418 0.190265,0.1426989 0,0.095136 0.09514,0.1426998 0.285399,0.1426998 0.190266,0 0.285398,-0.047568 0.285398,-0.1426998 0,-0.088795 0.08985,-0.1426989 0.237832,-0.1426989 0.147986,0 0.237833,0.05391 0.237833,0.1426989 0,0.088794 0.08985,0.1426998 0.237832,0.1426998 0.147985,0 0.237831,-0.05391 0.237831,-0.1426998 0,-0.088795 0.08985,-0.1426989 0.237833,-0.1426989 0.147984,0 0.237832,0.05391 0.237832,0.1426989 0,0.088794 0.08985,0.1426998 0.237831,0.1426998 0.147986,0 0.237833,-0.05391 0.237833,-0.1426998 0,-0.088795 0.08985,-0.1426989 0.237832,-0.1426989 0.147985,0 0.237831,0.05391 0.237831,0.1426989 0,0.096227 0.09627,0.1426998 0.295578,0.1426998 0.223649,0 0.282252,-0.034729 0.240817,-0.1426998 -0.03956,-0.1030944 0.01043,-0.1426989 0.180088,-0.1426989 0.14533,0 0.234847,0.054397 0.234847,0.1426989 0,0.096227 0.09626,0.1426998 0.295576,0.1426998 0.22365,0 0.282252,-0.034729 0.240817,-0.1426998 -0.03956,-0.1030944 0.01043,-0.1426989 0.180087,-0.1426989 0.145332,0 0.234847,0.054397 0.234847,0.1426989 0,0.095136 0.09514,0.1426998 0.285399,0.1426998 0.190266,0 0.285399,-0.047568 0.285399,-0.1426998 0,-0.079277 0.08456,-0.1426989 0.190265,-0.1426989 0.105703,0 0.190266,0.063418 0.190266,0.1426989 0,0.095136 0.09514,0.1426998 0.285398,0.1426998 0.190266,0 0.285398,-0.047568 0.285398,-0.1426998 0,-0.079277 0.08456,-0.1426989 0.190266,-0.1426989 0.105705,0 0.190266,0.063418 0.190266,0.1426989 0,0.099663 0.100414,0.1426998 0.332965,0.1426998 0.232547,0 0.332965,-0.043039 0.332965,-0.1426998 0,-0.079277 0.08456,-0.1426989 0.190266,-0.1426989 0.105702,0 0.190265,0.063418 0.190265,0.1426989 0,0.095136 0.09514,0.1426998 0.285399,0.1426998 0.190265,0 0.285399,-0.047568 0.285399,-0.1426998 0,-0.079277 0.08456,-0.1426989 0.190265,-0.1426989 0.105703,0 0.190267,0.063418 0.190267,0.1426989 0,0.095136 0.09514,0.1426998 0.285397,0.1426998 0.190266,0 0.285398,-0.047568 0.285398,-0.1426998 0,-0.079277 0.08456,-0.1426989 0.190267,-0.1426989 0.105702,0 0.190265,0.063418 0.190265,0.1426989 0,0.095136 0.09514,0.1426998 0.285398,0.1426998 0.194949,0 0.2854,-0.046954 0.2854,-0.1481697 0,-0.1154828 0.08919,-0.1417159 0.404314,-0.1189157 0.392458,0.028397 0.405179,0.039717 0.433841,0.3860012 l 0.02953,0.3567481 2.729326,1.043e-4 c 1.50113,5.94e-5 4.816302,0.028455 7.367051,0.063096 3.498508,0.04752 4.637727,0.03581 4.637727,-0.047675 0,-0.060865 -0.107026,-0.1106676 -0.237833,-0.1106676 -0.309876,0 -0.323344,-0.3262628 -0.02378,-0.5761661 0.258641,-0.2157657 0.634712,-0.2349703 0.88558,-0.04522 0.232501,0.1758553 0.51763,0.185933 0.51763,0.018295 0,-0.297263 0.466813,-0.348235 3.189233,-0.348235 h 2.704602 l 0.15538,0.2371388 c 0.09736,0.1485955 0.133027,0.3262004 0.09551,0.4756649 l -0.05986,0.238524 h -2.281377 c -1.254756,0 -2.281374,0.036141 -2.281374,0.08032 0,0.044178 1.18797,0.1085156 2.639936,0.1429804 1.451964,0.034466 3.249974,0.090295 3.995578,0.1240661 l 1.355643,0.061402 V 4.4248699 c 0,-0.1885272 0.0479,-0.2519499 0.190266,-0.2519499 0.176747,0 0.190795,-0.065902 0.197716,-0.9275447 0.0114,-1.4193621 0.08398,-2.35117484 0.185844,-2.38624844 0.05066,-0.0174411 0.09211,-0.17797773 0.09211,-0.35674806 0,-0.17877054 0.04281,-0.32503722 0.09514,-0.32503722 0.05232,0 0.09514,0.13967332 0.09514,0.31038519 0,0.21460128 0.06889,0.36211091 0.223199,0.47800031 0.224445,0.16855092 0.31058,0.44915132 0.537987,1.75254962 0.05668,0.3248912 0.122009,0.8773336 0.145166,1.2276484 0.02531,0.3828955 0.0996,0.7004601 0.186239,0.7962044 0.09886,0.1092326 0.144136,0.3614135 0.144136,0.8027022 0,0.4993847 0.0426,0.6975864 0.190266,0.8853177 0.226144,0.2874961 0.240192,0.4943815 0.05059,0.7450552 -0.07683,0.101566 -0.141034,0.3794881 -0.142699,0.617605 l -0.003,0.4329401 1.403209,0.1147639 c 0.771765,0.063125 1.880361,0.1144531 2.463548,0.1140742 l 1.060338,-6.898e-4 0.009,1.0836246 0.009,1.0836234 -1.830361,0.01262 c -1.006699,0.0069 -1.980196,0.03503 -2.163327,0.06243 -0.18313,0.02741 -0.472097,0.07116 -0.642147,0.09724 -0.221887,0.03402 -0.309182,0.09772 -0.309182,0.225591 0,0.301248 -0.107357,0.479133 -0.289166,0.479133 -0.09552,0 -0.200121,0.08332 -0.232442,0.185156 -0.0794,0.250193 -0.737339,0.342875 -1.630305,0.229658 -0.534607,-0.06778 -0.729658,-0.05907 -0.862892,0.03856 -0.148077,0.108505 -0.194227,0.09893 -0.330093,-0.06848 -0.306339,-0.377469 -0.460417,-0.251584 -0.460417,0.376173 v 0.570796 h -0.38053 c -0.274829,0 -0.380532,-0.03964 -0.380532,-0.142698 0,-0.22977 -0.537,-0.18708 -0.598361,0.04757 -0.02737,0.104647 -0.112985,0.190265 -0.190266,0.190265 -0.07728,0 -0.1629,-0.08561 -0.190266,-0.190265 -0.03286,-0.125666 -0.129762,-0.190266 -0.285398,-0.190266 -0.155635,0 -0.252536,0.06459 -0.285399,0.190266 -0.06778,0.259206 -0.448099,0.259206 -0.448099,0 0,-0.147985 -0.06342,-0.190266 -0.285399,-0.190266 -0.190265,0 -0.285397,0.04757 -0.285397,0.1427 0,0.07928 -0.08456,0.142698 -0.190267,0.142698 -0.105703,0 -0.190265,-0.06342 -0.190265,-0.142698 0,-0.09514 -0.09514,-0.1427 -0.285398,-0.1427 -0.190267,0 -0.2854,0.04757 -0.2854,0.1427 0,0.185643 -0.343694,0.185643 -0.414933,0 -0.07273,-0.189542 -0.536394,-0.189542 -0.536394,0 0,0.08879 -0.08985,0.142698 -0.237832,0.142698 -0.147985,0 -0.237833,-0.05391 -0.237833,-0.142698 0,-0.0888 -0.08985,-0.1427 -0.237831,-0.1427 -0.147985,0 -0.237832,0.0539 -0.237832,0.1427 0,0.08879 -0.08985,0.142698 -0.237834,0.142698 -0.147984,0 -0.237831,-0.05391 -0.237831,-0.142698 0,-0.0888 -0.08985,-0.1427 -0.237832,-0.1427 -0.147985,0 -0.237832,0.0539 -0.237832,0.1427 0,0.08879 -0.08985,0.142698 -0.237832,0.142698 -0.147985,0 -0.237832,-0.05391 -0.237832,-0.142698 0,-0.223112 -0.443406,-0.181199 -0.50323,0.04757 -0.02977,0.113835 -0.129762,0.190265 -0.248927,0.190265 -0.135749,0 -0.199172,-0.06058 -0.199172,-0.190265 0,-0.147985 -0.06343,-0.190266 -0.285398,-0.190266 -0.221976,0 -0.285399,0.04228 -0.285399,0.190266 0,0.126844 -0.06342,0.190265 -0.190265,0.190265 -0.126844,0 -0.190266,-0.06342 -0.190266,-0.190265 0,-0.147985 -0.06342,-0.190266 -0.285398,-0.190266 -0.190266,0 -0.285399,0.04757 -0.285399,0.1427 0,0.105702 -0.110988,0.142699 -0.428098,0.142699 -0.40781,0 -0.428097,-0.01293 -0.428097,-0.272698 v -0.272695 l -0.642147,0.03569 c -0.35318,0.01963 -1.605366,0.0813 -2.782635,0.137062 -1.177269,0.05575 -2.782636,0.138253 -3.567481,0.183328 -0.784846,0.04508 -2.014997,0.112684 -2.733669,0.150242 l -1.306678,0.06829 -0.19857,-0.25244 c -0.322002,-0.409359 -0.409632,-0.321572 -0.341527,0.342139 0.07393,0.720464 0.21736,2.045277 0.350183,3.234517 0.05405,0.483987 0.159663,1.50072 0.234682,2.259405 0.07502,0.758683 0.180626,1.775416 0.234681,2.259404 0.05406,0.483989 0.142511,1.275969 0.196567,1.759958 0.05406,0.483988 0.159663,1.500721 0.234681,2.259404 0.128087,1.295377 0.207891,2.037484 0.429664,3.995579 0.05038,0.444746 0.119212,1.129703 0.152974,1.522126 0.03376,0.392423 0.09993,0.788413 0.147039,0.879978 0.07281,0.14155 0.0405,0.166483 -0.215845,0.166483 -0.165819,0 -0.456292,0.03983 -0.645493,0.08852 -0.345077,0.08881 -1.248057,0.199533 -3.197987,0.392159 -0.575554,0.05685 -1.26051,0.13931 -1.522125,0.183232 -0.261616,0.04392 -0.518475,0.04583 -0.570798,0.0042 -0.106182,-0.08438 -1.702247,-0.04914 -1.84778,0.04081 -0.05105,0.03155 -0.114782,-0.08295 -0.141615,-0.254454 z M 38.153904,17.277468 c 0.03056,-0.09021 0.411472,-0.11189 1.577619,-0.08981 0.94151,0.01783 1.537331,-0.0064 1.537331,-0.06244 0,-0.05035 0.07688,-0.07144 0.170826,-0.04687 0.158481,0.04144 0.16502,-0.0091 0.09046,-0.69862 -0.179312,-1.658503 -0.278208,-2.102777 -0.535486,-2.405563 -0.292686,-0.344458 -0.289898,-0.344203 -2.60544,-0.237209 l -1.595343,0.07371 -0.05424,0.246952 c -0.02983,0.135823 -0.101093,0.396787 -0.158354,0.579917 -0.09366,0.299525 -0.120626,1.266529 -0.04909,1.759957 0.02606,0.179771 -0.03406,0.191744 -1.090225,0.217069 -0.90728,0.02175 -1.117812,0.05311 -1.117812,0.166482 0,0.112942 0.177559,0.140593 0.927547,0.144449 0.722181,0.0037 1.064453,0.05384 1.545908,0.226399 0.697784,0.250095 1.295361,0.305426 1.356293,0.12558 z m -2.308647,-1.164142 c 0.140723,-0.169561 0.05033,-0.619599 -0.124459,-0.619599 -0.168385,0 -0.35018,0.197552 -0.35018,0.380532 0,0.153983 0.174303,0.38053 0.292777,0.38053 0.03545,0 0.11729,-0.06366 0.181862,-0.141463 z m 0.366286,-1.622969 c 0.175193,-0.384506 0.137999,-0.518755 -0.143722,-0.518755 -0.32264,0 -0.60207,0.249682 -0.60207,0.537975 0,0.189494 0.04784,0.223087 0.317694,0.223087 0.248121,0 0.341874,-0.05307 0.428098,-0.242307 z M 64.433698,4.2068972 c -0.144965,-0.1449647 -0.167615,-0.1449647 -0.312579,0 -0.144964,0.1449638 -0.13364,0.1562894 0.156288,0.1562894 0.289929,0 0.301255,-0.011329 0.156291,-0.1562894 z"
   id="path245" /></svg>
