<?xml version="1.0" encoding="UTF-8" standalone="no"?>
<!-- Created with Inkscape (http://www.inkscape.org/) -->

<svg
   width="104.82594"
   height="32.002182"
   viewBox="0 0 27.735197 8.4672443"
   version="1.1"
   id="svg5"
   xmlns="http://www.w3.org/2000/svg"
   xmlns:svg="http://www.w3.org/2000/svg">
  <defs
     id="defs2" />
  <g
     id="layer1"
     transform="translate(-39.647882,-240.60184)">
    <path
       style="fill:#ffffff;stroke-width:0.0196089;fill-opacity:1"
       d="m 49.842846,248.75431 c -0.124026,-0.036 -0.560815,-0.17592 -0.970641,-0.31086 -1.426499,-0.46967 -4.981986,-1.60259 -5.176754,-1.64951 -0.107848,-0.026 -0.270861,-0.0564 -0.36225,-0.0676 -0.09139,-0.0112 -0.379378,-0.0203 -0.639976,-0.0203 h -0.473814 l -0.09493,0.0637 c -0.05221,0.0351 -0.114604,0.099 -0.138651,0.14202 -0.02405,0.0431 -0.06596,0.14961 -0.09313,0.23677 -0.02718,0.0872 -0.06599,0.17349 -0.08626,0.19183 -0.03314,0.03 -0.09861,0.0331 -0.652434,0.0311 -0.338575,-0.001 -0.718852,-0.007 -0.845061,-0.013 -0.210947,-0.01 -0.234332,-0.0149 -0.28971,-0.062 -0.05024,-0.0427 -0.0683,-0.0838 -0.108807,-0.24732 -0.0749,-0.30241 -0.221665,-1.22229 -0.245593,-1.5393 -0.03004,-0.39794 -0.01727,-2.44074 0.01572,-2.51563 0.01326,-0.0301 0.04845,-0.0761 0.07821,-0.10232 l 0.05412,-0.0476 0.720461,-6.1e-4 c 0.694261,-6e-4 0.721333,7.7e-4 0.744423,0.0377 0.02252,0.0361 0.02518,0.0346 0.04431,-0.0245 l 0.02035,-0.0629 2.421675,0.007 c 2.036496,0.006 2.428585,0.0112 2.465107,0.0343 0.02472,0.0157 0.09364,0.0275 0.159996,0.0275 0.113855,0 0.119867,0.003 0.258532,0.11862 0.07808,0.0652 0.173739,0.13241 0.212573,0.14928 0.04005,0.0174 0.154308,0.0351 0.263981,0.041 0.19094,0.0102 0.193206,0.01 0.180011,-0.0318 -0.01051,-0.0331 0.0249,-0.0944 0.165549,-0.28647 0.0984,-0.1344 0.209319,-0.28076 0.246483,-0.32525 0.04546,-0.0544 0.06757,-0.10099 0.06757,-0.14236 0,-0.052 0.03108,-0.0922 0.201049,-0.26036 0.191693,-0.18962 0.205899,-0.19954 0.305254,-0.2132 0.05731,-0.008 0.191853,-0.008 0.298979,-3.9e-4 l 0.194773,0.0139 v -0.0598 c 0,-0.0329 0.0069,-0.064 0.01532,-0.0693 0.0084,-0.005 0.01741,-0.0368 0.01996,-0.0703 0.0032,-0.0422 -0.0056,-0.0647 -0.02886,-0.0737 -0.01886,-0.007 -0.03686,-0.003 -0.0412,0.0103 -0.0093,0.028 -0.102488,0.0312 -0.102488,0.004 0,-0.0108 -0.02595,-0.0196 -0.05767,-0.0196 -0.03172,0 -0.06256,-0.008 -0.06854,-0.0176 -0.006,-0.01 -0.0053,-0.0457 0.0016,-0.08 0.0097,-0.0485 0.0206,-0.0603 0.04894,-0.0529 0.03185,0.008 0.03675,-0.003 0.03878,-0.0916 0.0013,-0.0556 6.2e-4,-0.11333 -0.0015,-0.12826 -0.0021,-0.0149 0.0015,-0.048 0.0079,-0.0735 0.0097,-0.0388 0.02408,-0.0464 0.08761,-0.0464 0.05118,0 0.07985,0.0101 0.08787,0.031 0.0065,0.0171 0.0119,0.0965 0.0119,0.17648 v 0.14546 h 0.155367 c 0.136534,0 0.162331,0.006 0.212819,0.0483 0.05042,0.0424 0.05905,0.0655 0.0705,0.18875 0.0072,0.0772 0.01782,0.14812 0.02365,0.15755 0.0058,0.009 0.03655,0.0171 0.06827,0.0171 0.0446,0 0.05767,0.009 0.05767,0.0392 0,0.0305 0.01307,0.0392 0.05883,0.0392 0.04575,0 0.05883,-0.009 0.05883,-0.0392 0,-0.0334 0.01307,-0.0392 0.08824,-0.0392 0.07517,0 0.08824,0.006 0.08824,0.0392 0,0.0305 0.01307,0.0392 0.05883,0.0392 0.04575,0 0.05883,-0.009 0.05883,-0.0392 0,-0.0327 0.01307,-0.0392 0.07844,-0.0392 0.06536,0 0.07844,0.007 0.07844,0.0392 0,0.0305 0.01307,0.0392 0.05883,0.0392 0.04575,0 0.05883,-0.009 0.05883,-0.0392 0,-0.0334 0.01307,-0.0392 0.08824,-0.0392 0.07517,0 0.08824,0.006 0.08824,0.0392 0,0.0305 0.01307,0.0392 0.05883,0.0392 0.04575,0 0.05883,-0.009 0.05883,-0.0392 0,-0.0327 0.01307,-0.0392 0.07844,-0.0392 0.06536,0 0.07843,0.007 0.07843,0.0392 0,0.0303 0.01307,0.0392 0.05751,0.0392 0.04028,0 0.06123,-0.0118 0.06995,-0.0392 0.0096,-0.0303 0.02967,-0.0392 0.0882,-0.0392 0.06363,0 0.07675,0.007 0.08202,0.0441 0.0046,0.0323 0.01938,0.0441 0.05529,0.0441 0.03591,0 0.0507,-0.0118 0.05529,-0.0441 0.0053,-0.0372 0.01834,-0.0441 0.08334,-0.0441 0.06322,0 0.07707,0.007 0.07707,0.0381 0,0.0494 0.02975,0.0666 0.08935,0.0516 0.03064,-0.008 0.04791,-0.026 0.04791,-0.0509 0,-0.0321 0.01332,-0.0388 0.07707,-0.0388 0.065,0 0.07805,0.007 0.08334,0.0441 0.0046,0.0323 0.01938,0.0441 0.05529,0.0441 0.03591,0 0.0507,-0.0118 0.05529,-0.0441 0.0063,-0.0441 0.0063,-0.0441 0.408965,-0.0441 h 0.402699 l 0.03801,-0.0483 c 0.03507,-0.0446 0.05274,-0.0488 0.228324,-0.0539 l 0.190314,-0.006 -0.0073,-0.31447 c -0.004,-0.17296 -9.75e-4,-0.38606 0.0068,-0.47356 l 0.01408,-0.15908 h 0.0656 c 0.06485,0 0.06575,0.001 0.07914,0.10841 0.0074,0.0596 0.0093,0.26832 0.004,0.46376 -0.0078,0.29343 -0.0042,0.36643 0.02067,0.41906 0.02351,0.0497 0.04235,0.0637 0.08536,0.0637 0.05281,0 0.05519,0.004 0.05519,0.0935 0,0.0917 -0.0035,0.097 -0.17648,0.26922 -0.09706,0.0966 -0.17648,0.18246 -0.17648,0.19077 0,0.008 0.412522,0.0163 0.916716,0.0178 0.504195,0.001 1.022237,0.008 1.151206,0.0147 0.229771,0.0118 0.234721,0.013 0.24599,0.0611 l 0.0115,0.049 3.136549,0.0118 c 1.725102,0.007 3.421122,0.0131 3.768936,0.0147 l 0.632387,0.003 v 0.13726 0.13726 h 0.723432 c 0.644672,0 0.724741,-0.003 0.735455,-0.0313 0.0104,-0.0271 0.04724,-0.0303 0.271721,-0.0235 0.227603,0.007 0.27526,0.0143 0.385633,0.0607 0.110957,0.0467 0.151508,0.053 0.340907,0.053 0.206933,0 0.216759,0.002 0.262752,0.0516 0.04596,0.0496 0.05314,0.051 0.188533,0.0372 0.07741,-0.008 0.221413,-0.0128 0.319998,-0.0108 0.102117,0.002 0.184442,-0.005 0.191326,-0.0159 0.01569,-0.0254 -0.13707,-0.15618 -0.191475,-0.16394 -0.02454,-0.003 -0.05759,-0.0354 -0.07995,-0.0771 -0.03619,-0.0676 -0.03642,-0.0738 -0.0047,-0.12215 l 0.0334,-0.051 0.289041,0.23483 c 0.288194,0.23413 0.289349,0.23482 0.393112,0.2349 0.105598,6e-5 0.274972,0.0329 0.304046,0.0589 0.02714,0.0243 -0.232389,0.0785 -0.375775,0.0785 -0.106539,0 -0.165262,0.0124 -0.270495,0.0572 -0.07393,0.0315 -0.179601,0.075 -0.234829,0.0968 -0.09142,0.036 -0.104269,0.0369 -0.14341,0.009 -0.04085,-0.0286 -0.04132,-0.032 -0.0093,-0.0674 0.01853,-0.0205 0.0566,-0.0376 0.08458,-0.0381 0.02799,-5e-4 0.07736,-0.013 0.109712,-0.0278 0.05401,-0.0247 0.03996,-0.0271 -0.171579,-0.0285 -0.130446,-9e-4 -0.230404,0.006 -0.230404,0.0167 0,0.01 0.0247,0.0359 0.0549,0.0574 0.04399,0.0313 0.06196,0.0691 0.09045,0.1899 0.01955,0.0829 0.0438,0.18066 0.05387,0.21716 l 0.01832,0.0664 0.758924,0.002 c 0.417409,0.001 0.785396,0.008 0.81775,0.0149 0.05803,0.0124 0.05883,0.0143 0.05883,0.13985 v 0.12726 H 65.897701 64.41232 l 6e-6,0.0404 c 2e-6,0.0222 -0.01107,0.0555 -0.02461,0.074 -0.0226,0.0309 -0.0809,0.0332 -0.710823,0.0278 -0.568423,-0.005 -0.713801,-0.0119 -0.846962,-0.0408 -0.08841,-0.0192 -0.205152,-0.0322 -0.259414,-0.0289 l -0.09866,0.006 0.07494,0.0948 0.07494,0.0948 -0.06111,0.25813 -0.06111,0.25814 -0.215233,0.01 -0.215234,0.01 -0.558854,0.81786 c -0.30737,0.44982 -0.591871,0.85161 -0.632225,0.89286 -0.04036,0.0413 -0.121282,0.10405 -0.17984,0.13954 -0.2033,0.12321 -0.210371,0.12378 -1.450439,0.11579 -1.070359,-0.007 -1.12873,-0.009 -1.316123,-0.0507 -0.107849,-0.0239 -0.279917,-0.0734 -0.382373,-0.10985 -0.102457,-0.0365 -0.751022,-0.28432 -1.441256,-0.55074 -0.690234,-0.26642 -1.299091,-0.49821 -1.353015,-0.51509 -0.133944,-0.0419 -0.419165,-0.0401 -0.563918,0.004 -0.0621,0.0188 -0.161151,0.0666 -0.22011,0.10621 -0.05896,0.0397 -0.268456,0.227 -0.46555,0.41632 -0.197094,0.18932 -0.400176,0.37278 -0.451292,0.40768 -0.05112,0.0349 -0.152593,0.0866 -0.225503,0.11491 -0.123693,0.048 -0.159191,0.052 -0.530492,0.0603 -0.361383,0.008 -0.401468,0.006 -0.436467,-0.026 -0.0212,-0.0192 -0.0488,-0.0691 -0.06134,-0.11097 -0.01954,-0.0652 -0.01804,-0.0808 0.01046,-0.10934 0.02727,-0.0273 0.103313,-0.0374 0.422583,-0.056 0.520887,-0.0305 0.548707,-0.0428 0.849961,-0.37594 0.173788,-0.19221 0.230413,-0.31284 0.230413,-0.49087 0,-0.0624 -0.02091,-0.1829 -0.04667,-0.26888 -0.05145,-0.17174 -0.04419,-0.21562 0.03917,-0.23654 0.02761,-0.007 0.360458,-0.008 0.739671,-0.001 0.535664,0.009 0.722285,0.0186 0.836544,0.0437 0.09732,0.0214 0.279097,0.0356 0.537369,0.0418 0.531433,0.0128 0.498718,0.0276 0.748231,-0.3401 0.10718,-0.15796 0.197493,-0.29367 0.200694,-0.30158 0.0032,-0.008 -0.09386,-0.0176 -0.215698,-0.0216 l -0.221519,-0.007 -0.176626,-0.12242 c -0.11176,-0.0775 -0.196376,-0.12242 -0.230405,-0.12242 h -0.05378 v 0.30423 0.30422 l -0.06373,0.0389 c -0.05826,0.0355 -0.09961,0.0389 -0.481568,0.0389 l -0.417839,5e-5 -0.07927,-0.0637 -0.07927,-0.0637 -0.599057,-0.006 -0.599057,-0.006 -0.05711,0.0548 c -0.05449,0.0522 -0.06664,0.0549 -0.264888,0.0587 l -0.207779,0.004 -0.08095,0.0794 -0.08094,0.0795 h -0.285905 -0.285906 l -0.03369,0.12008 c -0.07362,0.2624 -0.05885,0.53964 0.04252,0.79801 0.02674,0.0682 0.04368,0.12887 0.03763,0.13492 -0.006,0.006 -0.07088,-0.01 -0.14406,-0.0357 -0.128816,-0.0452 -0.133895,-0.0495 -0.159131,-0.13492 -0.01434,-0.0485 -0.04035,-0.13627 -0.0578,-0.19498 -0.01745,-0.0587 -0.06308,-0.15265 -0.10139,-0.20877 -0.06748,-0.0988 -0.190119,-0.21766 -0.207125,-0.20066 -0.0217,0.0217 -1.146917,3.12824 -1.146917,3.16646 0,0.024 0.01705,0.0729 0.03788,0.10854 0.03368,0.0576 0.03494,0.0718 0.0114,0.12703 -0.0445,0.10451 -0.07375,0.10767 -0.323806,0.035 z m -1.312792,-0.98204 c 0.05496,-0.0299 0.125534,-0.0867 0.156835,-0.12625 0.0313,-0.0395 0.07989,-0.14585 0.107972,-0.2363 0.14382,-0.46321 0.198076,-0.61586 0.303373,-0.85355 0.113411,-0.25601 0.233864,-0.48287 0.368132,-0.69333 0.03784,-0.0593 0.08489,-0.14315 0.104558,-0.18629 0.04264,-0.0935 0.04723,-0.26018 0.0097,-0.35011 -0.04325,-0.10352 -0.141482,-0.20046 -0.250777,-0.24747 -0.09956,-0.0428 -0.121632,-0.0439 -1.132557,-0.0542 -0.753,-0.008 -1.060714,-0.004 -1.141149,0.0126 -0.154971,0.0326 -0.308128,0.12953 -0.384245,0.24327 -0.06258,0.0935 -0.0964,0.19172 -0.311917,0.90569 -0.09722,0.32209 -0.112655,0.39516 -0.113892,0.53925 -0.0012,0.14414 0.0059,0.18163 0.05289,0.2773 0.05938,0.12091 0.183491,0.24735 0.301588,0.30724 0.04151,0.0211 0.415207,0.14596 0.830426,0.27758 0.415219,0.13161 0.763767,0.24279 0.774552,0.24705 0.01078,0.004 0.06574,0.004 0.122118,-2.2e-4 0.06245,-0.005 0.141561,-0.0292 0.202434,-0.0623 z m -7.031988,-1.05368 c 0.03468,-0.0459 0.0675,-0.15877 0.128561,-0.44233 0.06292,-0.29217 0.07889,-0.40163 0.06864,-0.47061 -0.0073,-0.0494 -0.06959,-0.34069 -0.138321,-0.64723 -0.108712,-0.48488 -0.13233,-0.56647 -0.181643,-0.62748 -0.03117,-0.0386 -0.08663,-0.0878 -0.123235,-0.10936 -0.05664,-0.0334 -0.101809,-0.0392 -0.303231,-0.0392 -0.223428,0 -0.241095,0.003 -0.31558,0.0522 -0.0434,0.0287 -0.09373,0.0834 -0.111845,0.12159 -0.03202,0.0675 -0.02992,0.0891 0.0751,0.7714 0.164829,1.07095 0.199472,1.26855 0.234157,1.33562 0.04867,0.0941 0.133035,0.12956 0.335238,0.14086 0.09707,0.005 0.201032,0.002 0.231039,-0.007 0.03001,-0.009 0.07551,-0.0446 0.101126,-0.0784 z M 60.4719,246.23042 c 0.04909,-0.0291 0.107414,-0.0729 0.129599,-0.0975 0.08083,-0.0894 0.545224,-0.7736 0.609224,-0.8976 0.07121,-0.13797 0.132162,-0.35855 0.10204,-0.3693 -0.01007,-0.004 -0.01831,-0.0279 -0.01831,-0.0539 0,-0.0422 -0.0086,-0.0474 -0.07844,-0.0474 -0.07059,0 -0.07844,0.005 -0.07844,0.049 0,0.0411 -0.0092,0.049 -0.05746,0.049 -0.04466,0 -0.05886,-0.01 -0.06373,-0.0441 -0.0053,-0.0374 -0.01829,-0.0441 -0.0847,-0.0441 -0.06641,0 -0.0794,0.007 -0.0847,0.0441 -0.0049,0.0343 -0.01907,0.0441 -0.06373,0.0441 -0.04822,0 -0.05746,-0.008 -0.05746,-0.049 0,-0.0441 -0.0078,-0.049 -0.07844,-0.049 -0.07059,0 -0.07843,0.005 -0.07843,0.049 0,0.0429 -0.0085,0.049 -0.06863,0.049 -0.06013,0 -0.06863,-0.006 -0.06863,-0.049 0,-0.0441 -0.0078,-0.049 -0.07843,-0.049 -0.07059,0 -0.07844,0.005 -0.07844,0.049 0,0.0411 -0.0092,0.049 -0.05746,0.049 -0.04466,0 -0.05886,-0.01 -0.06373,-0.0441 -0.0053,-0.0374 -0.01829,-0.0441 -0.0847,-0.0441 -0.06641,0 -0.0794,0.007 -0.0847,0.0441 -0.0049,0.0343 -0.01907,0.0441 -0.06373,0.0441 -0.04822,0 -0.05746,-0.008 -0.05746,-0.049 0,-0.0441 -0.0078,-0.049 -0.07844,-0.049 -0.07059,0 -0.07844,0.005 -0.07844,0.049 0,0.0429 -0.0085,0.049 -0.06863,0.049 -0.06013,0 -0.06863,-0.006 -0.06863,-0.049 0,-0.0441 -0.0078,-0.049 -0.07843,-0.049 -0.07059,0 -0.07844,0.005 -0.07844,0.049 0,0.0414 -0.0092,0.049 -0.05883,0.049 -0.04968,0 -0.05883,-0.008 -0.05883,-0.049 0,-0.044 -0.0079,-0.049 -0.07707,-0.049 -0.065,0 -0.07805,0.007 -0.08334,0.0441 -0.0048,0.0338 -0.02115,0.0455 -0.07,0.0503 -0.05692,0.005 -0.06373,7.8e-4 -0.06373,-0.0441 0,-0.0456 -0.0073,-0.0503 -0.07843,-0.0503 -0.06536,0 -0.07844,0.007 -0.07844,0.0392 0,0.0318 -0.01307,0.0392 -0.06863,0.0392 -0.05556,0 -0.06863,-0.007 -0.06863,-0.0392 0,-0.0319 -0.01307,-0.0392 -0.07047,-0.0392 -0.05398,0 -0.07287,0.009 -0.08072,0.0392 -0.0073,0.0278 -0.02675,0.0392 -0.0668,0.0392 -0.04347,0 -0.05654,-0.009 -0.05654,-0.0392 0,-0.0327 -0.01307,-0.0392 -0.07843,-0.0392 -0.06536,0 -0.07844,0.007 -0.07844,0.0392 0,0.0318 -0.01307,0.0392 -0.06863,0.0392 -0.05556,0 -0.06863,-0.007 -0.06863,-0.0392 0,-0.0327 -0.01307,-0.0392 -0.07843,-0.0392 -0.06536,0 -0.07844,0.007 -0.07844,0.0392 0,0.0318 -0.01307,0.0392 -0.06863,0.0392 -0.05556,0 -0.06863,-0.007 -0.06863,-0.0392 0,-0.0317 -0.01307,-0.0392 -0.06863,-0.0392 -0.05556,0 -0.06863,0.007 -0.06863,0.0392 0,0.0369 -0.01307,0.0392 -0.22391,0.0392 h -0.223909 l -0.06532,-0.069 c -0.03595,-0.038 -0.06973,-0.0975 -0.07513,-0.13236 -0.0081,-0.0526 -0.0195,-0.0645 -0.06683,-0.0699 -0.03136,-0.004 -0.08557,-10e-4 -0.120466,0.005 -0.05688,0.0107 -0.09238,0.055 -0.343028,0.42809 -0.153771,0.22891 -0.297544,0.43617 -0.319495,0.46057 -0.02429,0.027 -0.03272,0.0511 -0.02154,0.0615 0.0101,0.009 0.322797,0.12968 0.694877,0.26729 1.250062,0.46232 1.23444,0.45849 1.951087,0.47934 0.280407,0.008 0.730432,0.0136 1.000054,0.012 l 0.490223,-0.003 z m -17.466275,0.0232 c 0.04121,-0.0114 0.108572,-0.0512 0.149701,-0.0884 0.07906,-0.0714 0.07494,-0.0609 0.263771,-0.67634 0.09343,-0.30453 0.173739,-0.41158 0.378164,-0.50409 0.06651,-0.0301 0.183119,-0.0349 1.066481,-0.0436 l 0.991811,-0.01 0.07199,-0.0549 c 0.08781,-0.067 0.130779,-0.14558 0.130779,-0.23915 0,-0.0502 -0.01424,-0.0837 -0.0493,-0.11624 -0.02712,-0.0251 -0.07675,-0.0512 -0.1103,-0.0579 -0.03355,-0.007 -0.716954,-0.0122 -1.518677,-0.0122 -1.414703,0 -1.4608,0.001 -1.563595,0.0396 -0.05826,0.0218 -0.12094,0.0562 -0.1393,0.0765 -0.03159,0.0349 -0.03068,0.0422 0.01694,0.1362 0.02768,0.0546 0.05033,0.11228 0.05033,0.12814 0,0.0408 -0.214736,0.83605 -0.236998,0.87764 -0.01013,0.0189 -0.07661,0.067 -0.147728,0.10674 -0.127079,0.0711 -0.129117,0.0735 -0.118196,0.14078 0.01439,0.0887 0.09286,0.20092 0.174013,0.24886 0.09525,0.0563 0.455097,0.0856 0.590115,0.0481 z m -0.49441,-0.99636 c 0.06178,-0.23059 0.107964,-0.43063 0.102621,-0.44455 -0.01255,-0.0327 -0.05321,-0.0481 -0.08131,-0.0307 -0.01213,0.007 -0.07211,0.20065 -0.133273,0.42923 -0.09287,0.34707 -0.107026,0.42065 -0.08582,0.44621 0.06043,0.0728 0.08361,0.0259 0.197783,-0.4002 z m 17.438423,-0.7201 c 0.02137,-0.008 0.03102,-0.0372 0.03103,-0.0931 l 1.5e-5,-0.0812 -0.460824,0.006 -0.460825,0.006 v 0.064 c 0,0.0352 0.01059,0.0746 0.02353,0.0875 0.01679,0.0168 0.139956,0.0235 0.429792,0.0235 0.223444,0 0.420219,-0.005 0.437279,-0.0119 z m 1.325935,-0.0259 c -0.01114,-0.0208 -0.04895,-0.0583 -0.08403,-0.0833 -0.05794,-0.0413 -0.08842,-0.0461 -0.33339,-0.0519 l -0.269623,-0.006 v 0.0662 c 0,0.0364 0.01059,0.0768 0.02353,0.0897 0.01644,0.0164 0.123037,0.0235 0.353651,0.0235 0.320078,0 0.329502,-0.001 0.30986,-0.0378 z m 1.593446,-0.7254 c 0.02619,-0.01 0.05296,-0.032 0.05949,-0.049 0.01022,-0.0266 -0.01082,-0.0309 -0.151519,-0.0309 -0.157732,0 -0.163224,0.002 -0.158759,0.0441 0.0025,0.0243 0.0058,0.0463 0.0071,0.049 0.0067,0.0132 0.202017,0.003 0.243662,-0.0132 z M 49.917328,243.1335 c 0.0035,-0.0182 -0.0096,-0.0491 -0.02916,-0.0686 -0.03264,-0.0326 -0.06779,-0.0347 -0.433353,-0.0257 -0.41837,0.0103 -0.434475,0.0141 -0.435247,0.10332 -2.78e-4,0.0323 0.03012,0.0343 0.445545,0.0294 0.400322,-0.005 0.446495,-0.009 0.452211,-0.0384 z m 10.673706,-0.12695 c 0.02002,-0.0242 0.02091,-0.0346 0.0035,-0.0405 -0.01288,-0.004 -0.01855,-0.0206 -0.01261,-0.036 0.0092,-0.0239 -0.05395,-0.0281 -0.421582,-0.0281 -0.424582,0 -0.432934,7.9e-4 -0.462908,0.0436 -0.06488,0.0926 -0.06018,0.0937 0.418079,0.0937 0.394397,0 0.451856,-0.004 0.475517,-0.0326 z m -10.235088,-0.005 c 0.0036,-0.0102 0.128288,-0.0504 0.277096,-0.0895 0.239997,-0.063 0.292609,-0.0704 0.465755,-0.0649 0.107357,0.003 0.195175,1.7e-4 0.195152,-0.007 -6.1e-5,-0.016 0.03267,-0.006 -0.489835,-0.1527 -0.231638,-0.0651 -0.436796,-0.1234 -0.455907,-0.12947 -0.03138,-0.01 -0.03475,0.005 -0.03475,0.15457 0,0.10869 -0.0084,0.1725 -0.02451,0.18569 -0.01348,0.0111 -0.06422,0.0303 -0.112751,0.0428 -0.145407,0.0374 -0.156871,0.0418 -0.156871,0.0609 0,0.024 0.328118,0.0238 0.336619,-1.6e-4 z m 2.200284,-0.12124 c 0.01711,-0.0856 0.0153,-0.21325 -0.003,-0.21325 -0.0084,0 -0.07136,0.0566 -0.139903,0.12575 -0.116599,0.11764 -0.121617,0.12632 -0.07787,0.13459 0.02572,0.005 0.08316,0.0101 0.127647,0.0115 0.07569,0.002 0.08167,-10e-4 0.09314,-0.0586 z m -0.447484,-0.0108 c 0.07349,-0.025 0.141658,-0.0768 0.287823,-0.21866 0.105339,-0.10222 0.191525,-0.19334 0.191525,-0.2025 0,-0.009 -0.502968,-0.0166 -1.117708,-0.0166 -0.702194,0 -1.117708,0.007 -1.117708,0.0189 0,0.0104 0.03309,0.028 0.07353,0.0392 0.04044,0.0112 0.377961,0.10762 0.75004,0.21434 0.37208,0.10673 0.712438,0.195 0.756353,0.19616 0.04391,0.001 0.123178,-0.0127 0.176141,-0.0307 z m -3.377252,-1.54379 c 0.01226,-0.0319 -0.0042,-0.0546 -0.0287,-0.0394 -0.02227,0.0138 -0.02177,0.0669 6.37e-4,0.0669 0.0096,0 0.02226,-0.0124 0.02806,-0.0275 z"
       id="path2931" />
  </g>
</svg>
