<?xml version="1.0" encoding="UTF-8" standalone="no"?>
<!-- Created with Inkscape (http://www.inkscape.org/) -->

<svg
   width="22.746244mm"
   height="8.4668598mm"
   viewBox="0 0 22.746244 8.4668599"
   version="1.1"
   id="svg5"
   xmlns="http://www.w3.org/2000/svg"
   xmlns:svg="http://www.w3.org/2000/svg">
  <defs
     id="defs2" />
  <g
     id="layer1"
     transform="translate(-93.227006,-64.417486)">
    <path
       style="fill:#ffffff;stroke-width:0.016127;fill-opacity:1"
       d="m 107.67847,72.863669 c -0.0187,-0.01366 -0.0688,-0.168056 -0.15042,-0.463328 -0.11396,-0.41228 -0.12077,-0.445696 -0.0987,-0.484203 0.0215,-0.03753 0.0195,-0.05922 -0.0218,-0.234164 -0.11552,-0.489184 -0.25086,-1.223029 -0.31304,-1.697422 -0.0194,-0.147844 -0.034,-0.212215 -0.0469,-0.207231 -0.0104,0.004 -0.0873,0.02709 -0.1709,0.05137 -0.53401,0.155012 -0.54204,0.158725 -0.60256,0.278424 -0.0148,0.02928 -0.0369,0.05705 -0.049,0.06171 -0.0121,0.0047 -0.0709,0.127016 -0.1306,0.271912 -0.10003,0.242804 -0.11119,0.262472 -0.1424,0.25099 -0.0186,-0.0069 -0.0468,-0.03457 -0.0627,-0.0616 -0.0285,-0.04851 -0.0283,-0.0497 0.0114,-0.09253 0.0302,-0.03262 0.038,-0.05464 0.0311,-0.0887 -0.007,-0.03567 -0.001,-0.04939 0.0267,-0.06447 0.0306,-0.01639 0.0344,-0.0281 0.0259,-0.08115 -0.006,-0.0353 -0.003,-0.0663 0.006,-0.07198 0.009,-0.0055 0.0162,-0.02045 0.0162,-0.03323 0,-0.0198 -0.0865,-0.02328 -0.58461,-0.02352 -0.64174,-3.2e-4 -0.73971,-0.01044 -0.87849,-0.09089 -0.0424,-0.02456 -0.20766,-0.128604 -0.36732,-0.231209 -0.38748,-0.24902 -0.41123,-0.263225 -0.41123,-0.245955 0,0.0082 0.025,0.03269 0.0557,0.05447 l 0.0557,0.0396 -0.6377,1.120083 c -0.35073,0.616045 -0.64771,1.145482 -0.65994,1.176527 -0.0122,0.03104 -0.0415,0.14353 -0.0649,0.249968 -0.0235,0.106438 -0.0559,0.219611 -0.0721,0.251495 -0.0162,0.03188 -0.0548,0.0803 -0.0859,0.107581 -0.0412,0.03613 -0.0666,0.04704 -0.0937,0.04016 -0.0204,-0.0052 -0.10975,-0.04932 -0.19845,-0.09804 -0.28953,-0.159043 -1.33612,-0.748274 -1.43526,-0.808049 -0.0532,-0.03208 -0.10596,-0.0776 -0.11725,-0.101155 -0.0173,-0.03602 -0.0162,-0.05393 0.007,-0.112526 0.0151,-0.03833 0.0416,-0.09146 0.0588,-0.11807 0.0172,-0.02661 0.1196,-0.115446 0.22756,-0.197414 0.10797,-0.08197 0.21847,-0.172683 0.24557,-0.201587 0.0776,-0.08276 1.23291,-1.893816 1.27766,-2.002844 0.0321,-0.07829 0.0401,-0.125223 0.0398,-0.234917 -2.6e-4,-0.0991 -0.0103,-0.165692 -0.0362,-0.240335 -0.0288,-0.08298 -0.0316,-0.10589 -0.0146,-0.116674 0.0116,-0.0074 0.0266,-0.01353 0.0332,-0.01367 0.007,-1.37e-4 0.0121,-0.0075 0.0121,-0.01637 0,-0.0089 -0.0217,-0.01613 -0.0481,-0.01613 -0.0556,0 -0.0762,-0.01809 -0.29732,-0.261201 -0.0979,-0.107689 -0.18217,-0.184739 -0.22422,-0.205068 -0.0656,-0.03173 -0.11422,-0.03304 -1.89776,-0.05095 -1.006727,-0.01011 -1.968299,-0.01353 -2.136826,-0.0076 -0.168527,0.0059 -0.665641,0.028 -1.104698,0.04901 -0.583224,0.02791 -0.820009,0.04492 -0.878921,0.06311 -0.04435,0.0137 -0.126193,0.0548 -0.181874,0.09133 -0.05568,0.03653 -0.110111,0.06305 -0.120953,0.05893 -0.01486,-0.0057 -0.02084,0.05168 -0.02431,0.233065 -0.0025,0.132308 0.0035,0.285567 0.01347,0.340576 0.02278,0.126061 0.07968,0.288182 0.134164,0.382239 0.02683,0.04632 0.04211,0.09694 0.04223,0.13994 1.83e-4,0.05315 -0.0085,0.0742 -0.04096,0.09974 -0.05775,0.04542 -0.380422,0.150052 -0.46285,0.150081 l -0.06851,1.6e-5 -0.175443,0.66387 c -0.09649,0.365129 -0.185545,0.683759 -0.197891,0.708068 -0.04241,0.08349 -0.07944,0.09438 -0.3751,0.110308 -0.210164,0.01132 -0.29346,0.02233 -0.356202,0.04706 -0.06686,0.02636 -0.119866,0.03229 -0.288771,0.03229 -0.181553,0 -0.211833,-0.0039 -0.247351,-0.03184 -0.04597,-0.03616 -0.06997,-0.116529 -0.0844,-0.282641 -0.02151,-0.247693 -0.09105,-1.875837 -0.105391,-2.467428 -0.0095,-0.391191 -0.0096,-0.90939 -2.74e-4,-1.370794 0.0162,-0.803154 0.02525,-0.888812 0.09801,-0.92775 0.03888,-0.02081 0.476606,-0.02022 0.515684,6.93e-4 0.01682,0.009 0.05186,0.01885 0.07787,0.02188 0.026,0.003 0.07062,0.02212 0.09914,0.04244 0.05157,0.03672 0.05257,0.03678 0.175073,0.01094 0.158984,-0.03353 0.354597,-0.05032 0.427333,-0.03668 0.03149,0.0059 0.0946,0.03587 0.140244,0.06659 0.04565,0.03072 0.08952,0.05585 0.0975,0.05585 0.008,0 0.01451,-0.03991 0.01451,-0.0887 0,-0.0672 0.0078,-0.09652 0.03226,-0.120952 0.01774,-0.01774 0.04012,-0.03225 0.04974,-0.03225 0.0096,0 0.679087,-0.06135 1.487714,-0.136328 0.808627,-0.07498 1.557316,-0.144035 1.663754,-0.153453 0.106438,-0.0094 0.492328,-0.02046 0.857532,-0.02454 0.639892,-0.0071 0.667128,-0.0087 0.749905,-0.04311 0.07834,-0.03256 0.117584,-0.03614 0.446312,-0.04075 0.19822,-0.0028 0.36765,-0.0095 0.3765,-0.015 0.009,-0.0055 0.0599,-0.005 0.11338,0.0011 0.0535,0.0061 0.17801,0.0058 0.27664,-4.57e-4 l 0.17935,-0.01146 0.0759,-0.118128 0.0759,-0.118129 0.22246,-0.0045 0.22246,-0.0045 0.0493,-0.266096 c 0.0271,-0.146352 0.0581,-0.282257 0.0689,-0.302011 0.0108,-0.01975 0.0345,-0.04388 0.0527,-0.05362 0.0203,-0.01086 0.1121,-0.01616 0.2375,-0.0137 l 0.20442,0.004 0.0666,-0.0673 c 0.0367,-0.03702 0.0771,-0.0673 0.0899,-0.0673 0.0128,0 0.0896,0.03229 0.17068,0.07177 0.12612,0.06138 0.15093,0.0801 0.17152,0.129381 0.0137,0.03281 0.046,0.06961 0.0749,0.08547 0.0279,0.01532 0.0661,0.03972 0.0848,0.05422 0.0369,0.0286 0.0443,0.016 -0.14368,0.244512 -0.0131,0.01594 -0.0197,0.03563 -0.0147,0.04376 0.005,0.0081 -0.006,0.02957 -0.0237,0.04763 -0.0181,0.01806 -0.0328,0.04736 -0.0328,0.0651 0,0.02786 0.0108,0.03225 0.0789,0.03225 0.081,0 0.0985,0.01421 0.0985,0.0801 0,0.02314 0.0181,0.03133 0.0884,0.04012 0.0486,0.0061 0.0958,0.0065 0.10482,9.06e-4 0.009,-0.0056 0.0164,-0.03511 0.0164,-0.06563 v -0.05549 h 0.0887 0.0887 v 0.06451 0.06451 h 0.10482 0.10483 v -0.06451 -0.06451 h 0.087 c 0.0924,0 0.10655,0.01196 0.10655,0.09002 0,0.03725 0.005,0.039 0.10483,0.039 h 0.10482 v -0.06451 -0.06451 h 0.0887 0.0887 v 0.06524 0.06525 l 0.10886,-0.0048 0.10885,-0.0048 0.005,-0.06048 0.005,-0.06048 h 0.0877 0.0877 v 0.06451 0.06451 h 0.10483 0.10483 v -0.05644 -0.05644 h 0.0887 0.0887 v 0.05644 0.05644 h 0.11289 0.11289 v -0.05644 -0.05644 h 0.0887 0.0887 v 0.05644 0.05644 h 0.10482 0.10483 v -0.05644 -0.05644 h 0.0887 0.0887 v 0.05644 0.05644 h 0.11289 0.11289 v -0.05644 -0.05644 h 0.0887 0.0887 v 0.05644 0.05644 h 0.1038 0.10381 l 0.005,-0.05241 c 0.005,-0.05182 0.006,-0.05247 0.0978,-0.05725 l 0.0927,-0.0048 v 0.06608 0.06608 l 0.1008,-0.0048 0.10079,-0.0048 0.005,-0.06048 0.005,-0.06048 h 0.0877 0.0877 v 0.06451 0.06451 h 0.10385 0.10386 l 0.005,-0.06048 0.005,-0.06048 0.0927,-0.0048 0.0927,-0.0048 v 0.06608 0.06608 l 0.10079,-0.0048 0.10079,-0.0048 0.005,-0.06048 0.005,-0.06048 h 0.0877 0.0877 v 0.06451 0.06451 h 0.10483 c 0.10012,0 0.10482,-0.0018 0.10482,-0.039 0,-0.07805 0.0142,-0.09002 0.10656,-0.09002 h 0.087 v 0.06451 0.06451 h 0.095 c 0.0988,0 0.11462,-0.01131 0.11462,-0.08195 0,-0.02706 0.0121,-0.03093 0.0968,-0.03093 h 0.0968 v 0.05644 0.05644 h 0.0957 0.0957 l 0.005,-0.05241 0.005,-0.05241 0.29432,-0.0044 0.29432,-0.0044 v 0.05681 0.05681 h 0.0957 0.0958 l 0.005,-0.05241 c 0.005,-0.05167 0.006,-0.05248 0.0958,-0.05719 l 0.0908,-0.0048 0.0107,0.05719 c 0.0107,0.05698 0.011,0.05719 0.0964,0.05719 0.0828,0 0.0861,-0.0017 0.1006,-0.05241 0.0144,-0.05042 0.0185,-0.0526 0.10715,-0.05725 l 0.0922,-0.0048 v 0.06612 0.06612 l 0.0927,-0.0048 c 0.0925,-0.0048 0.0927,-0.005 0.10079,-0.06128 l 0.008,-0.05644 0.1008,-0.0048 0.10079,-0.0048 v 0.06528 0.06528 h 0.0859 c 0.0858,0 0.0859,-3.7e-5 0.10079,-0.06048 0.0149,-0.06032 0.0152,-0.06049 0.10767,-0.06531 l 0.0927,-0.0048 v 0.06531 0.06531 h 0.0968 c 0.0916,0 0.0968,-0.0021 0.0968,-0.039 0,-0.0794 0.0135,-0.09002 0.11462,-0.09002 h 0.095 v 0.06451 0.06451 h 0.0887 c 0.0819,0 0.0887,-0.0029 0.0887,-0.03723 0,-0.02048 0.01,-0.05058 0.0217,-0.06689 0.0176,-0.02411 0.0361,-0.02803 0.0988,-0.02097 0.0811,0.0091 0.10469,0.02906 0.10509,0.0888 1.8e-4,0.02545 0.01,0.03628 0.0325,0.03628 0.0276,0 0.0323,-0.01075 0.0323,-0.07533 0,-0.04747 -0.01,-0.08624 -0.0267,-0.104825 -0.0249,-0.02751 -0.0246,-0.03176 0.004,-0.06325 0.0392,-0.04331 0.0732,-0.184408 0.0803,-0.332721 0.003,-0.06408 0.0137,-0.131852 0.0238,-0.150601 0.01,-0.01875 0.0439,-0.06247 0.0752,-0.09717 l 0.057,-0.06308 h 0.20858 c 0.22133,0 0.26414,0.01078 0.33019,0.08313 0.063,0.06907 0.23603,0.326893 0.27425,0.408738 0.0267,0.05726 0.0377,0.109856 0.0378,0.181429 1.8e-4,0.09672 0.002,0.100794 0.0405,0.100794 h 0.0403 v 0.161269 0.16127 h 0.0482 c 0.0265,0 0.0864,0.01451 0.13305,0.03225 0.0467,0.01774 0.10955,0.03225 0.13975,0.03225 0.0616,9e-6 0.58121,0.185766 0.60629,0.21675 0.009,0.01096 0.027,0.01999 0.0403,0.02007 0.0133,8.2e-5 0.23578,0.07841 0.49439,0.174075 l 0.4702,0.17393 0.0104,0.06909 c 0.007,0.04667 0.002,0.08849 -0.0146,0.128865 -0.0184,0.04392 -0.025,0.117347 -0.025,0.276862 0,0.1628 0.005,0.215461 0.0195,0.210578 0.0107,-0.0036 0.0271,-0.04229 0.0364,-0.08601 l 0.0168,-0.0795 0.13598,-0.0047 c 0.10924,-0.0038 0.13871,1.83e-4 0.1499,0.02016 0.008,0.01369 0.0299,0.025 0.0494,0.02514 0.0195,1.37e-4 0.0453,0.0065 0.0573,0.01409 0.0127,0.008 0.0416,0.0064 0.0689,-0.0039 0.038,-0.01434 0.0632,-0.01177 0.13136,0.01335 0.0616,0.02272 0.13866,0.03274 0.28591,0.03715 0.16148,0.0048 0.2056,0.01122 0.22175,0.03208 0.0144,0.01867 0.0202,0.109941 0.0202,0.322365 0,0.173425 -0.007,0.309265 -0.0167,0.327521 -0.0151,0.02817 -0.0354,0.03119 -0.20959,0.03119 -0.154,0 -0.21258,0.0068 -0.29054,0.03379 -0.0673,0.02328 -0.1112,0.02985 -0.14118,0.02113 -0.0681,-0.01983 -0.15329,-0.0067 -0.17714,0.02739 -0.018,0.02566 -0.042,0.03057 -0.14992,0.03057 -0.12309,0 -0.12916,-0.0017 -0.14422,-0.04137 -0.009,-0.02275 -0.0157,-0.06267 -0.0157,-0.0887 0,-0.03132 -0.008,-0.04733 -0.0242,-0.04733 -0.0202,0 -0.0242,0.033 -0.0242,0.200251 0,0.164417 0.006,0.213715 0.0323,0.275496 0.0177,0.04138 0.0323,0.09613 0.0323,0.121665 0,0.07279 -0.0637,0.327443 -0.0853,0.3412 -0.0107,0.0068 -0.22813,0.0125 -0.48314,0.01263 l -0.46365,2.28e-4 v -0.039 c 0,-0.07651 -0.0148,-0.09002 -0.0985,-0.09002 h -0.0789 v 0.05472 c 0,0.03502 -0.009,0.05824 -0.0255,0.06451 -0.014,0.0054 -0.0648,0.0098 -0.11289,0.0098 h -0.0874 v -0.06451 -0.06451 h -0.0788 c -0.0773,0 -0.079,0.0011 -0.0894,0.05644 l -0.0106,0.05644 h -0.1041 -0.10409 v -0.05644 -0.05644 h -0.0877 c -0.0871,0 -0.0877,3.2e-4 -0.0927,0.05241 l -0.005,0.05241 -0.10886,0.0048 -0.10886,0.0048 v -0.05718 -0.05718 h -0.0877 c -0.0871,0 -0.0877,3.2e-4 -0.0927,0.05241 -0.005,0.05241 -0.005,0.05241 -0.10585,0.05721 l -0.1008,0.0048 v -0.05721 -0.05721 h -0.0887 c -0.0767,0 -0.0887,0.0042 -0.0887,0.03093 0,0.07177 -0.0152,0.08195 -0.12268,0.08195 h -0.1031 v -0.06449 -0.06451 h -0.0877 -0.0877 l -0.005,0.06048 -0.005,0.06048 -0.10079,0.0048 -0.1008,0.0048 v -0.06608 -0.06608 l -0.0927,0.0048 c -0.0925,0.0048 -0.0928,0.005 -0.10079,0.06128 l -0.008,0.05644 -0.10079,0.0048 -0.10079,0.0048 v -0.06528 -0.06528 h -0.0887 -0.0887 v 0.05472 c 0,0.03502 -0.009,0.05824 -0.0255,0.06451 -0.014,0.0054 -0.0612,0.0098 -0.10483,0.0098 h -0.0793 v -0.06451 -0.06451 h -0.0958 -0.0958 l -0.005,0.06048 -0.005,0.06048 h -0.52413 c -0.37201,0 -0.54325,0.0058 -0.59003,0.02007 -0.0362,0.01104 -0.10967,0.04836 -0.16318,0.08294 -0.1583,0.102319 -0.27768,0.298632 -0.30449,0.500732 l -0.0109,0.08235 0.0908,0.09522 c 0.0499,0.05237 0.0908,0.107119 0.0908,0.121665 0,0.04508 -0.029,0.08357 -0.0784,0.104024 -0.026,0.01079 -0.1261,0.03219 -0.22236,0.04756 l -0.17502,0.02795 0.005,0.05545 c 0.0112,0.125864 0.0868,0.624742 0.13975,0.922856 0.0312,0.175501 0.0899,0.469415 0.13045,0.653143 0.0678,0.307073 0.078,0.338611 0.12638,0.390496 0.046,0.04934 0.0644,0.09959 0.14607,0.399189 0.0591,0.216783 0.0901,0.359026 0.0844,0.387047 -0.0156,0.07656 -0.0583,0.16352 -0.0877,0.178486 -0.0155,0.0079 -0.10082,0.03433 -0.18952,0.05871 -0.0887,0.02437 -0.39423,0.1125 -0.67897,0.195839 -0.28473,0.08334 -0.52101,0.151525 -0.52507,0.151525 -0.004,0 -0.02,-0.0092 -0.0354,-0.02049 z M 105.928,69.99286 c 0.0485,-0.03257 0.0737,-0.08233 0.21884,-0.431397 0.10265,-0.246898 0.16452,-0.417212 0.1653,-0.455054 7.8e-4,-0.03731 -0.01,-0.07146 -0.027,-0.08916 -0.0155,-0.01578 -0.0713,-0.07796 -0.1239,-0.138186 -0.0526,-0.06023 -0.11575,-0.11989 -0.14031,-0.132585 -0.0358,-0.01852 -0.14013,-0.02308 -0.52761,-0.02308 h -0.48297 l -0.0421,0.11692 c -0.0231,0.06431 -0.0493,0.156011 -0.0581,0.203789 -0.0337,0.183402 -0.009,0.447173 0.0556,0.602002 0.0239,0.05694 0.0235,0.06077 -0.007,0.07717 -0.0218,0.01165 -0.042,0.01203 -0.0623,0.0012 -0.0442,-0.02366 -0.12623,-0.121691 -0.16437,-0.196441 -0.0528,-0.103565 -0.0951,-0.326727 -0.0959,-0.506267 -5.4e-4,-0.123738 -0.008,-0.177221 -0.0318,-0.229809 -0.0307,-0.06772 -0.0321,-0.06854 -0.11407,-0.06854 -0.05,0 -0.10202,0.01121 -0.13092,0.02822 -0.0527,0.03103 -0.20608,0.253189 -0.26769,0.387764 -0.0774,0.169141 -0.0433,0.385342 0.0817,0.517467 0.0614,0.06496 0.44694,0.321384 0.52733,0.350779 0.0416,0.01523 0.20282,0.02082 0.61447,0.02135 0.55491,7.04e-4 0.55834,5.03e-4 0.61283,-0.03611 z m 5.83607,-2.257244 c -1.8e-4,-0.0377 -0.006,-0.07712 -0.0124,-0.08761 -0.009,-0.01358 -0.12467,-0.02055 -0.40294,-0.02419 l -0.39082,-0.0051 2e-5,0.07338 c 10e-6,0.04036 0.009,0.08209 0.0194,0.09273 0.014,0.01397 0.12615,0.01935 0.40318,0.01935 h 0.38382 l -2.3e-4,-0.06854 z m 2.20965,-0.0031 c 0,-0.03939 -0.008,-0.07631 -0.0169,-0.08205 -0.009,-0.0057 -0.18708,-0.013 -0.39511,-0.01616 l -0.37824,-0.0057 v 0.07702 c 0,0.04236 0.005,0.08186 0.0108,0.08778 0.006,0.0059 0.18371,0.01075 0.39511,0.01075 h 0.38436 z m -2.2094,-1.271758 c 0,-0.03814 -0.009,-0.07805 -0.0194,-0.0887 -0.014,-0.01397 -0.12615,-0.01935 -0.40318,-0.01935 h -0.38382 v 0.07177 c 0,0.05134 0.008,0.07645 0.0282,0.08821 0.0169,0.0098 0.17863,0.01663 0.40318,0.01693 l 0.37495,4.89e-4 z m 1.23863,-0.0073 -0.005,-0.0766 -0.11693,-0.0047 -0.11692,-0.0047 v 0.06199 c 0,0.03409 0.009,0.0707 0.0194,0.08134 0.011,0.01099 0.0636,0.01935 0.12183,0.01935 h 0.10249 z m -10.31121,-1.787214 c 0.0139,-0.01394 0.0253,-0.0282 0.0253,-0.03169 0,-0.0159 -0.0647,-0.03866 -0.0863,-0.03037 -0.028,0.01075 -0.0469,0.05146 -0.0338,0.07272 0.0143,0.02309 0.0669,0.01716 0.0947,-0.01067 z"
       id="path2429" />
  </g>
</svg>
