<?xml version="1.0" encoding="UTF-8" standalone="no"?>
<svg
   version="1.1"
   id="Layer_1"
   x="0px"
   y="0px"
   width="79.788994"
   height="31.999996"
   viewBox="0 0 79.788991 31.999997"
   enable-background="new 0 0 92.592 39.134"
   xml:space="preserve"
   xmlns="http://www.w3.org/2000/svg"
   xmlns:svg="http://www.w3.org/2000/svg"
   xmlns:rdf="http://www.w3.org/1999/02/22-rdf-syntax-ns#"
   xmlns:cc="http://creativecommons.org/ns#"
   xmlns:dc="http://purl.org/dc/elements/1.1/"><metadata
   id="metadata176"><rdf:RDF><cc:Work
       rdf:about=""><dc:format>image/svg+xml</dc:format><dc:type
         rdf:resource="http://purl.org/dc/dcmitype/StillImage" /></cc:Work></rdf:RDF></metadata><defs
   id="defs174" />

<path
   style="fill:#ffffff;fill-opacity:1;stroke-width:0.132454"
   d="m 51.387141,31.675225 c -0.249752,-0.426323 -0.710407,-1.263748 -1.467526,-2.667827 -1.114177,-2.06624 -2.815873,-6.393986 -3.619675,-9.20554 -0.541522,-1.894142 -0.791306,-2.85036 -0.881654,-3.375134 -0.170633,-0.991091 -0.439699,-1.182579 -1.184708,-0.84313 -0.312167,0.142233 -0.42268,0.406905 -0.544594,1.30428 -0.04539,0.334114 -0.351562,1.077008 -0.41693,1.011641 -0.03383,-0.03383 0.03267,-0.429114 0.147769,-0.878408 0.115103,-0.449294 0.20928,-0.871688 0.20928,-0.938654 0,-0.06697 -0.32645,-0.121756 -0.725443,-0.121756 -0.850378,0 -0.892611,0.04535 -1.518626,1.630429 -0.606519,1.535723 -1.012259,2.27667 -1.377886,2.516238 -0.244391,0.16013 -0.807168,0.235074 -2.226818,0.296536 l -1.899776,0.08225 -0.982705,-0.480169 c -0.540487,-0.264093 -1.056158,-0.451982 -1.145935,-0.417531 -0.404578,0.155252 -3.258315,5.836499 -3.312277,6.594118 -0.03933,0.552194 -0.135616,0.771797 -0.338391,0.771797 -0.115816,0 -0.975339,-0.487941 -4.982564,-2.828542 -0.382461,-0.223394 -0.695383,-0.457448 -0.695383,-0.520123 0,-0.10589 1.195508,-1.939198 2.116473,-3.245604 0.220083,-0.31219 0.40015,-0.591087 0.40015,-0.619769 0,-0.02868 0.362311,-0.599286 0.805138,-1.268008 1.78945,-2.702293 1.995302,-3.357036 1.413463,-4.495721 -0.387635,-0.758618 -0.805889,-1.048688 -1.657551,-1.149554 -0.456352,-0.05405 -0.693504,-0.143768 -0.693504,-0.262367 0,-0.144212 -0.408126,-0.180231 -2.042201,-0.180231 -2.120183,0 -2.461229,0.04571 -2.461229,0.329857 0,0.343594 -1.310366,0.460115 -1.625902,0.144579 -0.11999,-0.11999 -0.215578,-0.616064 -0.264647,-1.373449 -0.06629,-1.023205 -0.122389,-1.234795 -0.40952,-1.5446156 -0.309627,-0.334093 -0.383131,-0.3527 -1.059472,-0.268197 -0.649196,0.08112 -0.745353,0.06103 -0.90096,-0.188131 -0.173133,-0.27723 -0.212525,-0.278935 -6.445301,-0.278935 H 5.327133 l -0.433635,0.409018 c -0.238499,0.224959 -0.570343,0.4782756 -0.737432,0.5629286 -0.6820564,0.345551 -0.8186959,0.736492 -0.9406611,2.691338 -0.18847,3.02078 -0.7094824,5.738634 -1.2012938,6.266532 -0.2884108,0.309572 -0.7772949,0.534037 -1.1631301,0.534037 -0.3917986,0 -1.0761572,-1.352039 -0.7777188,-1.536484 0.070977,-0.04387 0.094155,-0.170689 0.051507,-0.281828 -0.042648,-0.11114 -0.00841,-0.285363 0.076072,-0.387164 0.084488,-0.101801 0.1158353,-0.222873 0.069661,-0.269047 -0.046174,-0.04617 -0.013797,-0.168484 0.071948,-0.271802 0.1205442,-0.145246 0.1166795,-0.212089 -0.01704,-0.294732 -0.1338431,-0.08272 -0.1169451,-0.13978 0.074744,-0.25239 0.1993851,-0.11713 0.2126412,-0.168579 0.067977,-0.263825 -0.1335542,-0.08793 -0.1397396,-0.143024 -0.024083,-0.214502 0.085594,-0.0529 0.1197405,-0.189696 0.075881,-0.303989 -0.043858,-0.114294 -0.00705,-0.252732 0.081794,-0.307641 0.1258265,-0.07777 0.123233,-0.145988 -0.011732,-0.308611 -0.1140907,-0.13747 -0.1229981,-0.208776 -0.02608,-0.208776 0.080954,0 0.1470336,-0.134109 0.1468445,-0.298021 C 0.7083157,12.350808 0.8233046,5.4793866 0.8616914,5.4515175 1.1695489,5.2280043 2.0539609,5.0333718 2.435967,5.1050663 c 0.2549736,0.047853 0.8808179,0.1634246 1.390765,0.2568242 1.38896,0.2543961 1.390765,0.2561246 1.390765,1.331704 v 0.9225169 h 5.877638 c 3.232701,0 6.063902,-0.037255 6.291557,-0.082784 0.366377,-0.073277 0.413918,-0.134604 0.413918,-0.5339725 0,-0.278869 0.07588,-0.4803069 0.19868,-0.5274295 0.109275,-0.041931 0.198681,-0.1938165 0.198681,-0.3375202 0,-0.2427284 0.06113,-0.2547332 0.86095,-0.1690794 0.85876,0.091966 0.860949,0.091341 0.860949,-0.2457423 0,-0.3832826 0.152213,-0.7722358 0.527755,-1.3485911 0.142401,-0.2185493 0.355167,-0.5680499 0.47281,-0.7766688 l 0.213898,-0.3793068 1.346462,0.078196 c 0.740554,0.043009 2.270329,0.094487 3.399497,0.1143989 l 2.053035,0.036204 0.06893,-0.7755034 c 0.05357,-0.6026038 0.138046,-0.831468 0.378922,-1.0265173 0.462455,-0.3744732 1.469354,-0.3196602 2.598583,0.1414601 0.928055,0.378972 0.968932,0.4324907 0.787754,1.0314053 -0.06615,0.2186805 -0.03609,0.2980208 0.112936,0.2980208 0.1117,0 0.22542,0.066985 0.25271,0.1488587 0.03478,0.1043277 1.04846,0.1538575 3.388548,0.1655677 3.097973,0.015504 3.338933,-1.91e-5 3.338991,-0.2150862 5.3e-5,-0.1950079 -0.12606,-0.2317942 -0.794661,-0.2317942 -0.59099,0 -0.794722,-0.047302 -0.794722,-0.1845092 0,-0.2247055 0.439822,-0.4166058 0.505213,-0.2204324 0.05934,0.1780131 0.554417,0.184782 0.554417,0.00756 0,-0.072851 0.119208,-0.1324531 0.264908,-0.1324531 0.145699,0 0.264907,0.059607 0.264907,0.1324531 0,0.191942 0.496689,0.1629701 0.567699,-0.03311 0.04797,-0.1324531 0.116042,-0.1324531 0.340376,0 0.337177,0.1990812 0.681371,0.2158084 0.681371,0.03311 0,-0.072851 0.08941,-0.1324531 0.19868,-0.1324531 0.109276,0 0.198682,0.059607 0.198682,0.1324531 0,0.072851 0.14901,0.1324539 0.331134,0.1324539 0.182124,0 0.331135,-0.059607 0.331135,-0.1324539 0,-0.072851 0.08941,-0.1324531 0.19868,-0.1324531 0.109275,0 0.198681,0.059607 0.198681,0.1324531 0,0.072851 0.149011,0.1324539 0.331134,0.1324539 0.182125,0 0.331135,-0.059607 0.331135,-0.1324539 0,-0.072851 0.08941,-0.1324531 0.198681,-0.1324531 0.109274,0 0.198681,0.059607 0.198681,0.1324531 0,0.072851 0.14901,0.1324539 0.331134,0.1324539 0.182124,0 0.331135,-0.059607 0.331135,-0.1324539 0,-0.072851 0.08941,-0.1324531 0.19868,-0.1324531 0.109275,0 0.198681,0.059607 0.198681,0.1324531 0,0.072851 0.149011,0.1324539 0.331134,0.1324539 0.182125,0 0.331135,-0.059607 0.331135,-0.1324539 0,-0.072851 0.08941,-0.1324531 0.198681,-0.1324531 0.109274,0 0.198681,0.059607 0.198681,0.1324531 0,0.072851 0.149011,0.1324539 0.331134,0.1324539 0.182124,0 0.331135,-0.059607 0.331135,-0.1324539 0,-0.072851 0.08941,-0.1324531 0.19868,-0.1324531 0.109274,0 0.198681,0.059607 0.198681,0.1324531 0,0.072851 0.149011,0.1324539 0.331135,0.1324539 0.182124,0 0.331135,-0.059607 0.331135,-0.1324539 0,-0.072851 0.08941,-0.1324531 0.19868,-0.1324531 0.109274,0 0.198681,0.059607 0.198681,0.1324531 0,0.072851 0.149011,0.1324539 0.331134,0.1324539 0.182124,0 0.331135,-0.059607 0.331135,-0.1324539 0,-0.072851 0.08941,-0.1324531 0.19868,-0.1324531 0.109275,0 0.198682,0.059607 0.198682,0.1324531 0,0.072851 0.14901,0.1324539 0.331134,0.1324539 0.182124,0 0.331135,-0.059607 0.331135,-0.1324539 0,-0.072851 0.08941,-0.1324531 0.19868,-0.1324531 0.109274,0 0.198681,0.059607 0.198681,0.1324531 0,0.1867625 0.496684,0.1656207 0.559835,-0.023829 0.104467,-0.3134053 0.499796,0.010037 0.499796,0.4089184 0,0.363831 0.04231,0.3985273 0.562928,0.4615758 0.309611,0.037499 4.837846,0.101186 10.062745,0.1415345 l 9.499818,0.073364 0.03686,-1.8222045 L 70.583457,0 h 0.453454 0.453455 l 0.36661,1.2583112 c 0.201635,0.6920712 0.370107,1.505252 0.374381,1.8070688 0.0051,0.3601237 0.07607,0.5749657 0.206453,0.6249987 0.153784,0.059016 0.19868,0.3166268 0.19868,1.1400288 0,0.8572865 -0.03857,1.0637875 -0.19868,1.0637875 -0.146315,0 -0.198681,0.1526564 -0.198681,0.5791901 v 0.5791901 l 0.695383,0.066968 c 0.38246,0.03683 1.295301,0.036421 2.028536,-8.69e-4 1.723611,-0.087773 1.941061,0.012558 1.885766,0.8700782 l -0.04003,0.620789 -1.24336,0.03832 c -0.821667,0.02532 -1.337042,0.103941 -1.519578,0.231795 -0.357836,0.250638 -0.747089,0.247923 -0.747089,-0.0052 0,-0.143492 -0.14717,-0.198681 -0.529815,-0.198681 -0.441512,0 -0.529815,0.04415 -0.529815,0.264908 0,0.23724 -0.0883,0.264907 -0.845501,0.264907 -0.734107,0 -0.854628,-0.0349 -0.914777,-0.264907 -0.08924,-0.341259 -0.358983,-0.34476 -0.358983,-0.0047 0,0.143136 0.119208,0.324046 0.264907,0.402022 0.154912,0.08291 0.264908,0.277335 0.264908,0.468248 v 0.3264746 h 1.840183 c 1.471997,0 1.854699,-0.03783 1.912739,-0.1890786 0.07401,-0.192865 0.57311,-0.245446 3.962513,-0.417455 l 1.423879,-0.07226 V 11.38277 13.311614 H 78.33982 c -0.82324,0 -1.484533,-0.05721 -1.531036,-0.132454 -0.04502,-0.07285 -0.614782,-0.132454 -1.266129,-0.132454 -0.701209,0 -1.184267,-0.05403 -1.184267,-0.132454 0,-0.08295 -0.816799,-0.132454 -2.185488,-0.132454 -1.914756,0 -2.185488,0.02624 -2.185488,0.211856 0,0.189062 -0.302824,0.206583 -2.814643,0.162852 -1.881034,-0.03275 -2.90957,-0.102464 -3.100826,-0.210179 -0.157402,-0.08865 -0.416474,-0.371991 -0.575717,-0.629653 -0.549907,-0.88977 -0.408255,-0.872771 -7.010163,-0.841268 -5.399766,0.02577 -5.976358,0.0077 -6.288251,-0.196624 -0.216561,-0.141896 -0.34338,-0.34616 -0.34338,-0.553072 0,-0.255868 -0.06837,-0.32808 -0.310605,-0.32808 -0.170833,0 -0.404983,0.104306 -0.520333,0.231794 -0.186936,0.206606 -0.189672,0.325347 -0.02519,1.092744 0.228781,1.067328 0.243137,1.884538 0.03673,2.090942 -0.121188,0.121187 -0.117837,0.361993 0.01464,1.053007 0.291345,1.519619 0.907682,3.867161 1.452343,5.531775 0.481483,1.471528 0.694638,2.064705 1.454387,4.047318 0.155115,0.404785 0.86995,1.910922 1.588521,3.34697 l 1.306492,2.610996 -1.40306,0.7591 c -1.897536,1.026625 -1.777763,0.996819 -2.061234,0.512941 z M 39.731649,19.567118 c 0.151163,-0.125867 0.439486,-0.616275 0.640716,-1.089798 0.201232,-0.473522 0.45008,-1.04877 0.552995,-1.278329 0.102916,-0.229559 0.18712,-0.535183 0.18712,-0.679163 0,-0.495705 -0.285216,-0.569085 -2.060361,-0.530083 l -1.692284,0.03718 -0.24717,0.442868 c -0.403241,0.722505 -0.444036,1.473444 -0.119858,2.206303 0.33413,0.755354 0.245448,0.948712 -0.186955,0.407628 -0.404348,-0.505985 -0.588416,-1.300367 -0.500054,-2.158099 0.06635,-0.644112 0.04827,-0.701179 -0.267936,-0.845249 -0.186503,-0.08497 -0.434809,-0.117772 -0.551792,-0.07289 -0.302617,0.116125 -1.163503,1.99576 -1.180611,2.577713 -0.01364,0.464218 0.02138,0.50581 0.714146,0.848153 0.687216,0.339598 0.833571,0.360072 2.582849,0.361304 1.563881,0.001 1.897406,-0.03455 2.129195,-0.227544 z M 70.517227,6.4902502 c 0,-0.5077398 -0.03925,-0.5960424 -0.264907,-0.5960424 -0.278613,0 -0.339979,0.3024172 -0.181424,0.8940632 0.14732,0.5497255 0.446331,0.3500725 0.446331,-0.2980208 z M 31.04599,2.1855009 c 0,-0.1942656 -0.0883,-0.2649076 -0.331134,-0.2649076 -0.311666,0 -0.443908,0.2404382 -0.242832,0.4415129 0.197626,0.1976264 0.573966,0.081828 0.573966,-0.1766053 z"
   id="path392" /></svg>
