<?xml version="1.0" encoding="UTF-8" standalone="no"?>
<!-- Created with Inkscape (http://www.inkscape.org/) -->

<svg
   width="76.295464"
   height="32.003338"
   viewBox="0 0 20.186506 8.4675503"
   version="1.1"
   id="svg5"
   xmlns="http://www.w3.org/2000/svg"
   xmlns:svg="http://www.w3.org/2000/svg">
  <defs
     id="defs2" />
  <g
     id="layer1"
     transform="translate(-193.20911,-984.73955)">
    <path
       style="fill:#ffffff;stroke-width:0.015366;fill-opacity:1"
       d="m 199.00806,993.2071 c -0.008,0 -0.0186,-0.007 -0.0239,-0.0156 -0.005,-0.009 -0.0161,-0.0116 -0.024,-0.007 -0.008,0.005 -0.0143,0.003 -0.0143,-0.004 0,-0.007 -0.0156,-0.0195 -0.0346,-0.0278 -0.0277,-0.0122 -0.0506,-0.0638 -0.11584,-0.26102 -0.0447,-0.13523 -0.15279,-0.4672 -0.24019,-0.73774 -0.0874,-0.27053 -0.19045,-0.61627 -0.22897,-0.7683 -0.0385,-0.15203 -0.0908,-0.3836 -0.1162,-0.51459 -0.0254,-0.131 -0.0599,-0.33844 -0.0767,-0.46098 -0.0168,-0.12255 -0.0378,-0.30233 -0.0466,-0.39952 -0.009,-0.0972 -0.0201,-0.22934 -0.0252,-0.29366 l -0.009,-0.11695 -0.10261,-0.009 c -0.0672,-0.006 -0.20589,-0.044 -0.40199,-0.11049 -0.17693,-0.06 -0.30157,-0.0949 -0.30475,-0.0854 -0.003,0.0101 -0.0741,0.0162 -0.1885,0.0162 -0.11183,0 -0.18311,-0.006 -0.18311,-0.0154 0,-0.01 -0.10163,-0.0154 -0.27415,-0.0154 -0.19506,0 -0.29548,0.006 -0.3481,0.0222 -0.0407,0.0122 -0.10758,0.0451 -0.14869,0.073 -0.0424,0.0288 -0.20934,0.20314 -0.38563,0.40276 -0.17099,0.19362 -0.34949,0.38424 -0.39668,0.42361 -0.049,0.0409 -0.14783,0.0988 -0.23049,0.13504 -0.0796,0.0349 -0.18544,0.0741 -0.23524,0.087 -0.0734,0.0191 -0.19737,0.0236 -0.65361,0.0237 -0.31902,0 -0.58563,-0.006 -0.61513,-0.0148 -0.0286,-0.008 -0.0722,-0.0341 -0.0969,-0.0575 -0.0246,-0.0234 -0.0557,-0.0633 -0.0691,-0.0887 -0.0198,-0.0377 -0.0377,-0.30326 -0.0976,-1.45209 -0.0403,-0.77329 -0.0808,-1.4613 -0.09,-1.52891 -0.009,-0.0676 -0.0182,-0.22319 -0.0201,-0.34574 -0.003,-0.2134 -0.002,-0.22551 0.035,-0.28687 0.0211,-0.0352 0.16067,-0.20843 0.3101,-0.38489 0.14942,-0.17646 0.30644,-0.35334 0.34892,-0.39308 0.0425,-0.0397 0.0896,-0.0734 0.10478,-0.0749 0.0152,-0.001 0.0414,-0.004 0.0583,-0.006 0.0169,-0.002 1.21488,-0.004 2.66216,-0.005 2.52986,-0.002 2.63143,-0.003 2.63143,-0.03 0,-0.0153 0.0194,-0.0464 0.0431,-0.0691 0.0423,-0.0405 0.0468,-0.0413 0.24586,-0.0413 h 0.20276 v 0.0461 c 0,0.041 0.005,0.0461 0.0461,0.0461 0.0253,0 0.0461,-0.006 0.0461,-0.0137 0,-0.008 -0.0104,-0.0177 -0.0231,-0.0226 -0.0127,-0.005 -0.023,-0.0268 -0.023,-0.0488 0,-0.0219 0.006,-0.0516 0.0131,-0.0658 0.007,-0.0142 0.008,-0.0674 0.002,-0.11808 -0.006,-0.0507 -0.0157,-0.10353 -0.0217,-0.11739 -0.009,-0.0194 0.009,-0.0366 0.0758,-0.0749 0.0694,-0.0397 0.0928,-0.0635 0.11624,-0.11821 0.0162,-0.0377 0.0294,-0.0852 0.0294,-0.10566 0,-0.032 0.007,-0.0371 0.0525,-0.0371 0.0289,0 0.0635,-0.004 0.0768,-0.009 0.0185,-0.007 0.0243,-0.0319 0.0244,-0.10372 9e-5,-0.0519 0.004,-0.1307 0.01,-0.17507 0.01,-0.0794 0.0105,-0.0807 0.0613,-0.0807 h 0.0516 l 3.5e-4,0.18055 3.4e-4,0.18055 0.0434,0.0231 c 0.0239,0.0127 0.0825,0.0662 0.13026,0.11895 l 0.0869,0.0959 v 0.1286 c 0,0.0707 0.004,0.16068 0.01,0.19989 0.008,0.062 0.0145,0.0713 0.0461,0.0713 0.0301,0 0.0363,0.008 0.0363,0.0461 0,0.0444 0.003,0.0461 0.0692,0.0461 0.0666,0 0.0692,-0.002 0.0692,-0.0461 0,-0.0451 0.002,-0.0461 0.0768,-0.0461 0.0751,0 0.0768,10e-4 0.0768,0.0461 0,0.0444 0.003,0.0461 0.0691,0.0461 0.0666,0 0.0691,-0.002 0.0691,-0.0461 0,-0.0451 0.002,-0.0461 0.0772,-0.0461 0.0735,0 0.0777,0.002 0.0864,0.0461 0.009,0.0428 0.014,0.0461 0.0764,0.0461 0.0644,0 0.0672,-0.002 0.0672,-0.0461 0,-0.0451 0.002,-0.0461 0.0768,-0.0461 0.0751,0 0.0768,10e-4 0.0768,0.0461 0,0.0444 0.003,0.0461 0.0692,0.0461 0.0666,0 0.0691,-0.002 0.0691,-0.0461 0,-0.0451 0.002,-0.0461 0.0768,-0.0461 0.0751,0 0.0768,10e-4 0.0768,0.0461 0,0.0442 0.003,0.0461 0.0672,0.0461 0.0627,0 0.0679,-0.003 0.0766,-0.0469 0.009,-0.0453 0.0119,-0.0468 0.0826,-0.0423 0.0671,0.004 0.0736,0.008 0.0781,0.0469 0.004,0.039 0.0101,0.0423 0.073,0.0423 0.0655,0 0.0681,-0.002 0.0681,-0.0461 0,-0.0451 0.002,-0.0461 0.0768,-0.0461 0.0751,0 0.0768,10e-4 0.0768,0.0461 0,0.0444 0.003,0.0461 0.0691,0.0461 0.0666,0 0.0691,-0.002 0.0691,-0.0461 0,-0.0451 0.002,-0.0461 0.0768,-0.0461 0.0751,0 0.0768,10e-4 0.0768,0.0461 0,0.0451 0.002,0.0461 0.0768,0.0461 0.0751,0 0.0768,-10e-4 0.0768,-0.0461 0,-0.0451 0.002,-0.0461 0.0768,-0.0461 0.0751,0 0.0768,10e-4 0.0768,0.0461 0,0.0444 0.003,0.0461 0.0692,0.0461 0.0666,0 0.0692,-0.002 0.0692,-0.0461 0,-0.0451 0.002,-0.0461 0.0768,-0.0461 0.0751,0 0.0768,10e-4 0.0768,0.0461 0,0.0451 0.002,0.0461 0.0768,0.0461 0.0751,0 0.0768,-10e-4 0.0768,-0.0461 0,-0.0444 0.003,-0.0461 0.0691,-0.0461 0.0666,0 0.0692,0.002 0.0692,0.0461 0,0.0451 0.002,0.0461 0.0768,0.0461 0.0751,0 0.0768,-10e-4 0.0768,-0.0461 0,-0.0451 0.002,-0.0461 0.0768,-0.0461 0.0751,0 0.0768,10e-4 0.0768,0.0461 0,0.0451 0.002,0.0461 0.0768,0.0461 0.0751,0 0.0768,-10e-4 0.0768,-0.0461 0,-0.0444 0.003,-0.0461 0.0691,-0.0461 0.0666,0 0.0691,0.002 0.0691,0.0461 0,0.0451 0.002,0.0461 0.0768,0.0461 0.0751,0 0.0768,-10e-4 0.0768,-0.0461 0,-0.0444 0.003,-0.0461 0.0692,-0.0461 0.0666,0 0.0692,0.002 0.0692,0.0461 0,0.0451 0.002,0.0461 0.0772,0.0461 0.0735,0 0.0777,-0.002 0.0864,-0.0461 0.009,-0.0428 0.014,-0.0461 0.0764,-0.0461 0.0645,0 0.0672,0.002 0.0672,0.0461 0,0.0451 0.002,0.0461 0.0768,0.0461 0.0751,0 0.0768,-10e-4 0.0768,-0.0461 0,-0.0444 0.003,-0.0461 0.0692,-0.0461 0.0666,0 0.0691,0.002 0.0691,0.0461 0,0.0451 0.002,0.0461 0.0768,0.0461 0.0751,0 0.0768,-10e-4 0.0768,-0.0461 0,-0.0451 0.002,-0.0461 0.0768,-0.0461 0.0751,0 0.0768,10e-4 0.0768,0.0461 0,0.0451 0.002,0.0461 0.0768,0.0461 0.0751,0 0.0768,-10e-4 0.0768,-0.0461 0,-0.0444 0.003,-0.0461 0.0692,-0.0461 0.0666,0 0.0691,0.002 0.0691,0.0461 0,0.0451 0.002,0.0461 0.0768,0.0461 0.0751,0 0.0768,-10e-4 0.0768,-0.0461 0,-0.0444 0.003,-0.0461 0.0691,-0.0461 0.0666,0 0.0692,0.002 0.0692,0.0461 0,0.0456 8.5e-4,0.0461 0.0845,0.0461 0.0837,0 0.0845,-4.6e-4 0.0845,-0.0461 0,-0.0444 0.003,-0.0461 0.0691,-0.0461 0.0666,0 0.0692,0.002 0.0692,0.0461 0,0.0451 0.002,0.0461 0.0768,0.0461 0.0751,0 0.0768,-10e-4 0.0768,-0.0461 v -0.0461 h 0.21551 0.21551 l 0.009,0.0461 c 0.009,0.0436 0.0132,0.0461 0.0841,0.0461 0.073,0 0.0749,-10e-4 0.0749,-0.0461 0,-0.0444 0.003,-0.0461 0.0692,-0.0461 0.0666,0 0.0691,0.002 0.0691,0.0461 0,0.0456 8.5e-4,0.0461 0.0845,0.0461 0.0837,0 0.0845,-4.6e-4 0.0845,-0.0461 0,-0.0435 0.003,-0.0461 0.0615,-0.0461 0.0581,0 0.0615,0.003 0.0615,0.0461 0,0.0456 8.6e-4,0.0461 0.0845,0.0461 0.0837,0 0.0845,-4.6e-4 0.0845,-0.0461 0,-0.0444 0.003,-0.0461 0.0691,-0.0461 0.0666,0 0.0692,0.002 0.0692,0.0461 0,0.0456 8.6e-4,0.0461 0.0845,0.0461 0.0837,0 0.0845,-4.6e-4 0.0845,-0.0461 0,-0.0435 0.003,-0.0461 0.0615,-0.0461 0.058,0 0.0615,0.003 0.0615,0.0461 0,0.0456 8.5e-4,0.0461 0.0845,0.0461 0.0837,0 0.0845,-4.6e-4 0.0845,-0.0461 0,-0.0444 0.003,-0.0461 0.0691,-0.0461 0.0666,0 0.0692,0.002 0.0692,0.0461 0,0.0456 8.5e-4,0.0461 0.0845,0.0461 0.0837,0 0.0845,-4.6e-4 0.0845,-0.0461 0,-0.0435 0.003,-0.0461 0.0615,-0.0461 0.058,0 0.0615,0.003 0.0615,0.0461 0,0.0456 8.6e-4,0.0461 0.0845,0.0461 0.0837,0 0.0845,-4.6e-4 0.0845,-0.0461 v -0.0461 h 0.18131 c 0.12054,0 0.1875,0.006 0.19976,0.0184 0.0101,0.0101 0.0184,0.0309 0.0184,0.0461 0,0.0238 0.0139,0.0276 0.0999,0.0276 h 0.0999 v -0.14455 -0.14455 l 0.0785,-0.0706 c 0.0748,-0.0673 0.0828,-0.0706 0.17067,-0.0706 0.0824,0 0.0908,-0.003 0.0793,-0.0269 -0.007,-0.0148 -0.0151,-0.1582 -0.018,-0.31869 -0.005,-0.28411 -0.004,-0.29251 0.0283,-0.31885 0.0238,-0.0193 0.0606,-0.027 0.1285,-0.027 0.0535,0 0.10317,0.008 0.11354,0.0184 0.0134,0.0133 0.0184,0.12297 0.0184,0.39664 v 0.3782 l 0.0461,0.0442 c 0.0387,0.0371 0.0461,0.056 0.0461,0.11812 v 0.074 l 0.10372,-1.3e-4 c 0.0571,-9e-5 0.14933,0.0116 0.20508,0.0258 l 0.10135,0.026 0.01,0.33142 c 0.006,0.18228 0.01,0.47188 0.0101,0.64357 v 0.31215 l 0.0461,0.0388 c 0.0254,0.0213 0.0461,0.0485 0.0461,0.0605 0,0.0182 0.0754,0.0217 0.46867,0.0217 h 0.46866 v -0.036 c 0,-0.0198 0.0126,-0.0475 0.0281,-0.0615 0.0234,-0.0212 0.0648,-0.0254 0.24662,-0.0254 0.16809,0 0.22923,0.006 0.26496,0.024 0.0344,0.0178 0.0517,0.0196 0.0668,0.007 0.0142,-0.0118 0.17707,-0.0156 0.53596,-0.0125 0.39778,0.003 0.52012,0.009 0.53551,0.0244 0.015,0.015 0.0198,0.0909 0.0195,0.30318 -3.5e-4,0.20775 -0.006,0.28839 -0.02,0.30271 -0.0148,0.0148 -0.14366,0.0206 -0.53505,0.0239 -0.37357,0.003 -0.52147,-4.6e-4 -0.53699,-0.0133 -0.0165,-0.0137 -0.0302,-0.012 -0.0594,0.007 -0.0307,0.0201 -0.0818,0.0249 -0.2666,0.0249 -0.202,0 -0.23161,-0.003 -0.25408,-0.0281 -0.014,-0.0155 -0.0254,-0.0431 -0.0254,-0.0615 v -0.0334 l -0.43409,-10e-6 -0.43409,-10e-6 0.004,0.46715 c 0.004,0.41137 0.001,0.47007 -0.0203,0.49172 -0.0206,0.0206 -0.0674,0.0246 -0.29238,0.0246 h -0.26781 v 0.17364 c 0,0.11456 -0.006,0.17991 -0.0184,0.19207 -0.0123,0.0123 -0.0792,0.0184 -0.19976,0.0184 h -0.18132 v -0.0461 c 0,-0.0456 -8.6e-4,-0.0461 -0.0845,-0.0461 -0.0837,0 -0.0845,4.6e-4 -0.0845,0.0461 0,0.0444 -0.003,0.0461 -0.0692,0.0461 -0.0666,0 -0.0691,-0.002 -0.0691,-0.0461 0,-0.0451 -0.002,-0.0461 -0.0768,-0.0461 -0.0751,0 -0.0768,10e-4 -0.0768,0.0461 0,0.0444 -0.003,0.0461 -0.0692,0.0461 -0.0666,0 -0.0691,-0.002 -0.0691,-0.0461 0,-0.0456 -8.6e-4,-0.0461 -0.0845,-0.0461 -0.0837,0 -0.0845,4.6e-4 -0.0845,0.0461 0,0.0435 -0.003,0.0461 -0.0615,0.0461 -0.0581,0 -0.0615,-0.003 -0.0615,-0.0461 0,-0.0456 -8.5e-4,-0.0461 -0.0845,-0.0461 -0.0837,0 -0.0845,4.6e-4 -0.0845,0.0461 0,0.0444 -0.003,0.0461 -0.0691,0.0461 -0.0666,0 -0.0692,-0.002 -0.0692,-0.0461 0,-0.0456 -8.6e-4,-0.0461 -0.0845,-0.0461 -0.0837,0 -0.0845,4.6e-4 -0.0845,0.0461 0,0.0435 -0.003,0.0461 -0.0615,0.0461 -0.0581,0 -0.0615,-0.003 -0.0615,-0.0461 0,-0.0456 -8.5e-4,-0.0461 -0.0845,-0.0461 -0.0837,0 -0.0845,4.6e-4 -0.0845,0.0461 0,0.0444 -0.003,0.0461 -0.0691,0.0461 -0.0666,0 -0.0692,-0.002 -0.0692,-0.0461 0,-0.0456 -8.5e-4,-0.0461 -0.0845,-0.0461 -0.0837,0 -0.0845,4.6e-4 -0.0845,0.0461 v 0.0461 h -0.25353 -0.25354 l -5e-4,-0.0653 c -4.6e-4,-0.0597 -0.005,-0.0675 -0.0555,-0.0911 -0.0523,-0.0245 -0.0554,-0.0244 -0.0623,0.002 -0.005,0.019 -0.0278,0.0311 -0.0713,0.0379 -0.0352,0.006 -0.12667,0.0404 -0.20329,0.0775 -0.0971,0.0471 -0.16713,0.0946 -0.23117,0.15691 -0.0505,0.0492 -0.13959,0.15853 -0.19799,0.24304 -0.0584,0.0845 -0.48193,0.68955 -0.94117,1.34453 -0.45924,0.65498 -0.86291,1.21651 -0.89704,1.24785 -0.0341,0.0313 -0.0998,0.0711 -0.14587,0.0884 -0.0471,0.0176 -0.12088,0.0314 -0.16834,0.0314 -0.0594,0 -0.12425,-0.0154 -0.21839,-0.052 -0.0736,-0.0286 -0.49307,-0.20181 -0.9321,-0.3849 -0.43903,-0.18309 -0.83959,-0.35502 -0.89014,-0.38208 -0.0506,-0.027 -0.10518,-0.0673 -0.1214,-0.0894 -0.0266,-0.0363 -0.0277,-0.0491 -0.0117,-0.13061 0.01,-0.0497 0.0219,-0.10073 0.0269,-0.11341 0.005,-0.0127 0.0108,-0.03 0.0128,-0.0384 0.002,-0.008 0.0186,-0.0741 0.0367,-0.14598 0.0181,-0.0718 0.0647,-0.22741 0.10356,-0.34573 0.0388,-0.11832 0.10774,-0.30713 0.15316,-0.41958 0.0454,-0.11246 0.13162,-0.30261 0.19155,-0.42257 0.0599,-0.11996 0.14741,-0.2838 0.19442,-0.36409 0.047,-0.0803 0.12663,-0.20739 0.17694,-0.28246 0.0503,-0.0751 0.10584,-0.16841 0.12339,-0.20744 0.0224,-0.0498 0.0322,-0.10425 0.0329,-0.18236 5.2e-4,-0.0613 -0.004,-0.1114 -0.0103,-0.1114 -0.006,0 -0.025,-0.0268 -0.0417,-0.0596 -0.0167,-0.0328 -0.0629,-0.0882 -0.10269,-0.12323 -0.0444,-0.0391 -0.10312,-0.0726 -0.15216,-0.0868 -0.0681,-0.0198 -0.21561,-0.0226 -1.00013,-0.0189 l -0.92026,0.004 -0.088,0.0432 c -0.0484,0.0238 -0.1081,0.0676 -0.13261,0.0973 -0.0245,0.0297 -0.0873,0.1334 -0.13961,0.23035 -0.0933,0.17308 -0.0949,0.17786 -0.0846,0.2638 0.006,0.0481 0.0297,0.13247 0.0532,0.1874 0.0284,0.0663 0.0464,0.14148 0.0534,0.22366 0.008,0.095 0.006,0.12758 -0.01,0.14012 -0.0113,0.009 -0.0533,0.0199 -0.0932,0.0241 -0.0471,0.005 -0.0782,0.001 -0.0882,-0.0109 -0.009,-0.0103 -0.0224,-0.0838 -0.0307,-0.16326 -0.008,-0.0795 -0.0153,-0.15665 -0.0155,-0.17144 -1.7e-4,-0.0148 -0.006,-0.0269 -0.0124,-0.0269 -0.007,0 -0.0463,0.0695 -0.0881,0.15432 -0.0418,0.0849 -0.0911,0.16861 -0.10973,0.18608 -0.0245,0.023 -0.0617,0.034 -0.13474,0.0399 l -0.10094,0.008 v 0.0646 c 0,0.0355 0.0105,0.17459 0.0233,0.30906 0.0128,0.13446 0.0371,0.33091 0.0541,0.43655 0.0169,0.10565 0.0447,0.25777 0.0618,0.33805 0.017,0.0803 0.0554,0.23933 0.0852,0.35342 0.0298,0.1141 0.16145,0.5311 0.29256,0.92668 0.18648,0.56261 0.23452,0.72388 0.22064,0.74062 -0.01,0.0118 -0.0431,0.0295 -0.0742,0.0394 -0.031,0.01 -0.0702,0.0302 -0.0871,0.045 -0.0169,0.0148 -0.0566,0.0352 -0.0882,0.0453 -0.0316,0.0101 -0.08,0.0209 -0.10756,0.0239 -0.0275,0.003 -0.21828,0.0671 -0.42385,0.14239 -0.20557,0.0753 -0.38547,0.14693 -0.39979,0.15918 -0.0143,0.0123 -0.0687,0.0382 -0.12081,0.0577 -0.0521,0.0195 -0.10139,0.0314 -0.10944,0.0264 -0.008,-0.005 -0.0881,0.0185 -0.17789,0.0523 -0.0898,0.0337 -0.16966,0.0613 -0.1775,0.0613 z m 5.3313,-1.50061 c 0.0296,-0.005 0.0691,-0.0183 0.0879,-0.0301 0.0188,-0.0118 0.0612,-0.0577 0.0944,-0.102 0.0331,-0.0443 0.41465,-0.58539 0.84783,-1.20233 0.43317,-0.61695 0.7972,-1.14456 0.80894,-1.17247 0.0132,-0.0313 0.0175,-0.0713 0.0113,-0.10433 -0.006,-0.0295 -0.0759,-0.16913 -0.15627,-0.31035 -0.0804,-0.14123 -0.15739,-0.26985 -0.17104,-0.28583 -0.0137,-0.016 -0.0525,-0.0418 -0.0863,-0.0573 -0.0491,-0.0226 -0.10024,-0.0283 -0.25426,-0.0286 l -0.1928,-3.5e-4 -0.0553,0.0576 c -0.0304,0.0317 -0.0689,0.0853 -0.0855,0.11909 -0.0167,0.0338 -0.039,0.0984 -0.0496,0.14361 -0.0108,0.046 -0.0152,0.11359 -0.01,0.15366 0.005,0.0393 0.0245,0.11437 0.0428,0.16674 0.0275,0.0787 0.0299,0.0994 0.0135,0.11909 -0.0166,0.02 -0.0657,0.0239 -0.30281,0.0239 -0.2611,0 -0.28631,0.002 -0.32557,0.0315 -0.0361,0.0267 -0.0494,0.0289 -0.0877,0.0142 -0.0249,-0.01 -0.0751,-0.0173 -0.11165,-0.0174 -0.0472,-4e-5 -0.0837,0.0119 -0.12603,0.0412 -0.047,0.0325 -0.0675,0.0629 -0.0973,0.14342 -0.0208,0.0562 -0.0414,0.14301 -0.046,0.19296 -0.006,0.0712 -0.0203,0.10831 -0.064,0.17176 -0.0397,0.0576 -0.12403,0.26694 -0.29281,0.72662 -0.17769,0.48396 -0.23706,0.66334 -0.23706,0.71623 0,0.0404 0.0132,0.0965 0.0309,0.1311 0.017,0.0333 0.0498,0.0702 0.073,0.0821 0.0232,0.0119 0.16311,0.0719 0.31101,0.1335 0.1479,0.0616 0.29311,0.12083 0.32269,0.13171 0.0296,0.0109 0.078,0.0159 0.10756,0.0111 z m 5.27256,-2.87869 c 0.35828,0 0.38198,-0.002 0.39663,-0.0291 0.0111,-0.0208 0.0102,-0.0335 -0.003,-0.0444 -0.0104,-0.008 -0.18188,-0.0202 -0.3811,-0.0263 -0.32767,-0.01 -0.36467,-0.009 -0.38799,0.0147 -0.0142,0.0142 -0.0258,0.0345 -0.0258,0.0452 0,0.0107 0.005,0.024 0.0102,0.0296 0.006,0.006 0.18172,0.0103 0.3913,0.0103 z m -2.39912,-2.01295 c 0.0444,0 0.0615,-0.006 0.0615,-0.0231 0,-0.0203 0.14001,-0.0231 1.16782,-0.0231 h 1.16782 v -0.10756 -0.10756 h -1.16782 -1.16782 v -0.0464 c 0,-0.0345 -0.01,-0.0509 -0.038,-0.0637 -0.029,-0.0132 -0.0435,-0.0127 -0.0615,0.002 -0.0129,0.0107 -0.0235,0.0391 -0.0235,0.063 v 0.0435 l -0.3931,0.005 c -0.36849,0.004 -0.39445,0.006 -0.41488,0.0344 -0.012,0.0164 -0.0218,0.045 -0.0218,0.0636 0,0.0186 0.0132,0.0501 0.0293,0.0701 0.0292,0.0362 0.0308,0.0363 0.41489,0.0409 0.32456,0.004 0.38553,0.008 0.38553,0.0269 0,0.0158 0.018,0.0223 0.0615,0.0223 z"
       id="path6870" />
  </g>
</svg>
