<?xml version="1.0" encoding="UTF-8" standalone="no"?>
<!-- Created with Inkscape (http://www.inkscape.org/) -->

<svg
   width="80.270515"
   height="32.003262"
   viewBox="0 0 21.238239 8.4675301"
   version="1.1"
   id="svg5"
   xmlns="http://www.w3.org/2000/svg"
   xmlns:svg="http://www.w3.org/2000/svg">
  <defs
     id="defs2" />
  <g
     id="layer1"
     transform="translate(-189.08947,-900.12217)">
    <path
       style="fill:#ffffff;stroke-width:0.0152594;fill-opacity:1"
       d="m 194.23587,908.58729 c -0.0105,0 -0.0191,-0.0108 -0.0191,-0.0244 0,-0.0192 -0.009,-0.0224 -0.042,-0.0146 -0.0231,0.006 -0.0917,0.0141 -0.15259,0.019 -0.0929,0.008 -0.11064,0.005 -0.11064,-0.0142 0,-0.0128 -0.0103,-0.0272 -0.0229,-0.032 -0.0126,-0.005 -0.0332,-0.005 -0.0458,0 -0.0203,0.008 -0.0229,-0.19447 -0.0229,-1.76403 v -1.7728 l -0.13352,0.006 c -0.0995,0.005 -0.16073,0.0169 -0.24034,0.0485 -0.0588,0.0233 -0.29565,0.10701 -0.52645,0.18605 -0.2308,0.079 -0.42767,0.14654 -0.4375,0.15002 -0.0134,0.005 -0.0128,0.0232 0.003,0.0743 0.0174,0.0577 0.0172,0.0726 -0.001,0.0989 -0.0136,0.0195 -0.0852,0.0521 -0.19333,0.0881 -0.14715,0.049 -0.18042,0.0664 -0.23273,0.12153 -0.0336,0.0354 -0.0844,0.0721 -0.11291,0.0815 -0.0285,0.009 -0.0713,0.0171 -0.095,0.0171 -0.0282,0 -0.0506,-0.0119 -0.0647,-0.0343 -0.0118,-0.0189 -0.0334,-0.071 -0.0478,-0.11589 -0.0225,-0.0697 -0.0311,-0.0806 -0.0589,-0.0747 -0.018,0.004 -0.24027,0.0731 -0.49406,0.15405 -0.43027,0.13723 -0.47,0.14717 -0.58825,0.14717 -0.0697,0 -0.13334,0.006 -0.14132,0.0135 -0.008,0.007 -0.23426,0.0184 -0.50286,0.0242 -0.48547,0.0106 -0.48861,0.0105 -0.53034,-0.0223 -0.026,-0.0204 -0.0484,-0.0587 -0.059,-0.10052 -0.009,-0.0371 -0.0231,-0.0675 -0.0304,-0.0675 -0.007,0 -0.0272,-0.0137 -0.044,-0.0305 -0.0168,-0.0168 -0.0305,-0.044 -0.0305,-0.0604 0,-0.0165 0.0147,-0.0436 0.0326,-0.0603 0.0269,-0.0251 0.0311,-0.0418 0.0239,-0.0956 -0.005,-0.0359 -0.0174,-0.0681 -0.0279,-0.0716 -0.0106,-0.004 -0.035,-0.0222 -0.0544,-0.0416 -0.0194,-0.0194 -0.0352,-0.0429 -0.0352,-0.0523 0,-0.009 0.0207,-0.0378 0.046,-0.0632 l 0.046,-0.046 -0.0384,-0.0302 c -0.0211,-0.0166 -0.0384,-0.0453 -0.0384,-0.0639 0,-0.0185 -0.0106,-0.0488 -0.0236,-0.0673 -0.0178,-0.0253 -0.0196,-0.0411 -0.008,-0.0637 0.009,-0.0165 0.031,-0.0404 0.0492,-0.0532 l 0.0331,-0.0232 -0.0424,-0.0393 c -0.0302,-0.028 -0.04,-0.0489 -0.034,-0.0729 0.005,-0.0203 -0.003,-0.0486 -0.0202,-0.0713 -0.0221,-0.0291 -0.0249,-0.0447 -0.0127,-0.0687 0.009,-0.0171 0.0295,-0.0419 0.0463,-0.0553 0.0302,-0.024 0.0301,-0.0247 -0.01,-0.0645 -0.0293,-0.0293 -0.0378,-0.05 -0.0313,-0.0761 0.006,-0.0228 3.6e-4,-0.0429 -0.0149,-0.0556 -0.0131,-0.0109 -0.0239,-0.033 -0.0239,-0.0492 0,-0.0161 0.0172,-0.0465 0.0382,-0.0675 0.021,-0.021 0.0382,-0.0447 0.0382,-0.0527 0,-0.008 -0.009,-0.0146 -0.0204,-0.0146 -0.0112,0 -0.0274,-0.0154 -0.036,-0.0343 -0.0106,-0.0233 -0.0105,-0.0455 4e-5,-0.069 0.0127,-0.0283 0.009,-0.0404 -0.0174,-0.0655 -0.0182,-0.0169 -0.033,-0.0445 -0.033,-0.0614 0,-0.0168 0.0174,-0.0468 0.0388,-0.0666 l 0.0388,-0.036 -0.0388,-0.0418 c -0.0213,-0.023 -0.0388,-0.0468 -0.0388,-0.0528 0,-0.006 0.0133,-0.0279 0.0296,-0.0486 0.0228,-0.029 0.0293,-0.0601 0.0281,-0.13558 -10e-4,-0.0656 0.0221,-0.20374 0.0699,-0.41836 0.0393,-0.17625 0.0921,-0.40285 0.11742,-0.50356 0.0253,-0.10071 0.0528,-0.20047 0.0611,-0.22169 0.008,-0.0212 0.0303,-0.048 0.0488,-0.0596 0.0279,-0.0174 0.22351,-0.0204 1.14621,-0.0176 0.98534,0.003 1.11678,0.006 1.14942,0.0276 0.0203,0.0133 0.13695,0.14008 0.25926,0.28177 0.12232,0.14169 0.23476,0.26423 0.24987,0.27231 0.0153,0.008 0.18171,0.0147 0.37619,0.0147 h 0.34873 l 0.004,-0.0489 c 0.002,-0.0269 0.0155,-0.0619 0.0299,-0.0779 0.0144,-0.0159 0.0448,-0.0385 0.0674,-0.0503 0.0345,-0.0178 0.28611,-0.0213 1.53791,-0.0213 1.31637,0 1.50348,0.003 1.5532,0.0236 0.0311,0.013 0.072,0.0382 0.091,0.056 0.019,0.0178 0.0367,0.0295 0.0394,0.026 0.003,-0.004 0.0113,-0.0339 0.0191,-0.0675 l 0.0143,-0.061 0.13352,-0.004 0.13352,-0.004 v -0.22568 c 0,-0.15865 0.0116,-0.30917 0.039,-0.50679 0.0215,-0.1546 0.0529,-0.34523 0.0698,-0.42361 0.0169,-0.0784 0.044,-0.17337 0.0602,-0.21108 0.017,-0.0396 0.0294,-0.10353 0.0294,-0.15123 0,-0.0773 0.002,-0.0827 0.037,-0.0827 0.0225,0 0.039,0.01 0.042,0.0256 0.005,0.0238 0.007,0.0238 0.0311,-5.5e-4 0.0144,-0.0144 0.0728,-0.0482 0.12971,-0.0752 l 0.10354,-0.049 0.309,0.005 0.30901,0.005 v -0.15955 -0.15956 l 0.0475,-0.0399 c 0.0446,-0.0376 0.047,-0.0447 0.0393,-0.11962 -0.004,-0.0438 -0.004,-0.17579 0.002,-0.29329 l 0.0103,-0.21363 0.0801,-0.003 0.0801,-0.003 0.004,0.19353 c 0.002,0.10645 0.002,0.23989 -4e-5,0.29654 -0.003,0.0914 -6.2e-4,0.103 0.0244,0.103 0.0155,0 0.0406,0.0137 0.0558,0.0305 0.0177,0.0196 0.047,0.0305 0.0816,0.0305 0.0378,0 0.0668,0.0123 0.0968,0.041 0.038,0.0364 0.0428,0.0517 0.0428,0.13733 l -1e-5,0.0963 h 0.0534 c 0.0468,0 0.0534,-0.005 0.0534,-0.0381 0,-0.0334 0.007,-0.0381 0.0534,-0.0381 0.0468,0 0.0534,0.005 0.0534,0.0381 0,0.0356 0.005,0.0381 0.0763,0.0381 0.0712,0 0.0763,-0.003 0.0763,-0.0381 0,-0.0343 0.006,-0.0381 0.061,-0.0381 0.0549,0 0.061,0.004 0.061,0.0381 0,0.0356 0.005,0.0381 0.0763,0.0381 0.0712,0 0.0763,-0.003 0.0763,-0.0381 0,-0.0334 0.007,-0.0381 0.0534,-0.0381 0.0468,0 0.0534,0.005 0.0534,0.0381 0,0.0356 0.005,0.0381 0.0763,0.0381 0.0712,0 0.0763,-0.003 0.0763,-0.0381 0,-0.0343 0.006,-0.0381 0.061,-0.0381 0.0549,0 0.061,0.004 0.061,0.0381 0,0.0356 0.005,0.0381 0.0763,0.0381 0.0712,0 0.0763,-0.003 0.0763,-0.0381 0,-0.0334 0.007,-0.0381 0.0534,-0.0381 0.0468,0 0.0534,0.005 0.0534,0.0381 0,0.0356 0.005,0.0381 0.0763,0.0381 0.0712,0 0.0763,-0.003 0.0763,-0.0381 0,-0.0343 0.006,-0.0381 0.061,-0.0381 0.0549,0 0.061,0.004 0.061,0.0381 0,0.0356 0.005,0.0381 0.0763,0.0381 0.0712,0 0.0763,-0.003 0.0763,-0.0381 0,-0.0334 0.007,-0.0381 0.0534,-0.0381 0.0468,0 0.0534,0.005 0.0534,0.0381 0,0.0356 0.005,0.0381 0.0763,0.0381 0.0712,0 0.0763,-0.003 0.0763,-0.0381 0,-0.0343 0.006,-0.0381 0.061,-0.0381 0.0549,0 0.061,0.004 0.061,0.0381 0,0.035 0.006,0.0381 0.0684,0.0381 0.0602,0 0.0695,-0.005 0.0779,-0.0381 0.008,-0.0313 0.0189,-0.0381 0.0613,-0.0381 0.045,0 0.0517,0.005 0.0517,0.0381 0,0.0356 0.005,0.0381 0.0763,0.0381 0.0712,0 0.0763,-0.003 0.0763,-0.0381 0,-0.0334 0.007,-0.0381 0.0534,-0.0381 0.0468,0 0.0534,0.005 0.0534,0.0381 0,0.0356 0.005,0.0381 0.0763,0.0381 0.0712,0 0.0763,-0.003 0.0763,-0.0381 0,-0.0343 0.006,-0.0381 0.061,-0.0381 0.0549,0 0.061,0.004 0.061,0.0381 0,0.0356 0.005,0.0381 0.0763,0.0381 0.0712,0 0.0763,-0.003 0.0763,-0.0381 0,-0.0334 0.007,-0.0381 0.0534,-0.0381 h 0.0534 v 0.0763 0.0763 h 0.34334 c 0.33316,0 0.34333,9.1e-4 0.34333,0.0305 0,0.025 0.0104,0.0306 0.0572,0.0312 0.0315,3.5e-4 0.0871,0.006 0.12355,0.0135 0.0365,0.007 0.086,0.0274 0.11001,0.0451 0.0373,0.0276 0.0649,0.0323 0.18927,0.0323 h 0.14558 v -0.0431 c 0,-0.0253 0.0146,-0.0568 0.0353,-0.0763 0.0334,-0.0314 0.0493,-0.0332 0.29755,-0.0332 h 0.26225 v -0.0763 -0.0763 h 0.061 c 0.0549,0 0.061,0.004 0.061,0.0381 0,0.035 0.006,0.0381 0.0687,0.0381 0.0631,0 0.0687,-0.003 0.0687,-0.0381 0,-0.035 0.006,-0.0381 0.0687,-0.0381 0.0631,0 0.0687,0.003 0.0687,0.0381 0,0.035 0.006,0.0381 0.0687,0.0381 0.0631,0 0.0687,-0.003 0.0687,-0.0381 0,-0.0343 0.006,-0.0381 0.061,-0.0381 0.0549,0 0.061,0.004 0.061,0.0381 0,0.035 0.006,0.0381 0.0687,0.0381 0.0631,0 0.0687,-0.003 0.0687,-0.0381 0,-0.0343 0.006,-0.0381 0.0607,-0.0381 0.0521,0 0.0621,0.005 0.0703,0.0381 0.005,0.021 0.0191,0.0381 0.0308,0.0381 0.0159,0 0.0212,-0.0242 0.0212,-0.0963 0,-0.0856 0.005,-0.10088 0.0428,-0.13733 0.0301,-0.0288 0.059,-0.041 0.0971,-0.041 0.0312,0 0.0708,-0.013 0.0931,-0.0305 0.0213,-0.0168 0.0446,-0.0305 0.0516,-0.0306 0.007,-2e-5 0.0148,-0.084 0.0171,-0.18659 0.002,-0.1026 0.0102,-0.19254 0.0176,-0.19988 0.008,-0.008 0.032,-0.004 0.0568,0.007 0.0323,0.0154 0.047,0.0366 0.0573,0.0829 0.009,0.0399 0.0253,0.0673 0.0458,0.0763 0.0276,0.0122 0.0326,0.0294 0.0365,0.12804 0.003,0.0627 0.01,0.11763 0.0161,0.12207 0.006,0.004 0.0232,0.025 0.0374,0.0458 0.0199,0.0291 0.0258,0.0718 0.0258,0.18692 v 0.1492 h 0.16519 c 0.15294,0 0.16765,0.003 0.19837,0.0353 0.0258,0.0274 0.0332,0.0541 0.0332,0.11934 v 0.084 l 0.11826,0.0181 c 0.0688,0.0105 0.15777,0.0374 0.21264,0.0642 0.058,0.0283 0.12085,0.0756 0.16303,0.12249 0.0378,0.042 0.0765,0.10015 0.0861,0.12924 0.0154,0.0466 0.0236,0.0529 0.0697,0.0529 h 0.0522 v 0.48891 c 0,0.45879 -0.002,0.49259 -0.0305,0.54873 -0.0186,0.0364 -0.0305,0.0899 -0.0305,0.13673 0,0.0483 0.007,0.0769 0.0178,0.0769 0.01,0 0.12822,-0.0141 0.26322,-0.0313 l 0.24547,-0.0312 0.0992,0.0372 c 0.0987,0.037 0.0992,0.0375 0.10394,0.10119 0.004,0.0499 0.01,0.062 0.028,0.0551 0.0128,-0.005 0.0261,-0.009 0.0296,-0.009 0.004,0 0.006,-0.0172 0.006,-0.0381 v -0.0381 h 0.15259 c 0.13477,0 0.15271,0.003 0.1536,0.0267 5.5e-4,0.0147 3.5e-4,0.0885 -3.9e-4,0.16404 -0.001,0.13216 -0.003,0.13892 -0.047,0.1793 -0.0332,0.0305 -0.0615,0.042 -0.10397,0.042 -0.0478,0 -0.0616,-0.007 -0.0761,-0.0391 -0.0152,-0.0333 -0.0262,-0.0384 -0.0749,-0.0343 l -0.0572,0.005 -0.004,0.0936 -0.005,0.0936 0.0579,0.0117 c 0.0318,0.006 0.50939,0.0142 1.06121,0.0172 l 1.0033,0.006 v -0.0384 c 0,-0.0367 0.004,-0.0384 0.0914,-0.0384 0.0749,0 0.0949,-0.006 0.11049,-0.0305 0.0114,-0.0183 0.0356,-0.0305 0.0603,-0.0305 0.0227,0 0.0455,0.007 0.0506,0.0153 0.005,0.008 0.0257,0.0153 0.0457,0.0153 0.0218,0 0.0398,0.0112 0.0451,0.0281 0.008,0.026 0.0451,0.0295 0.49315,0.0464 0.26632,0.01 0.50601,0.0216 0.53265,0.0258 0.0474,0.007 0.0487,0.01 0.0592,0.10781 0.006,0.0552 0.006,0.1457 3.9e-4,0.20121 -0.006,0.0555 -0.0124,0.10294 -0.0148,0.10541 -0.002,0.002 -0.24074,0.0153 -0.5295,0.0284 -0.41951,0.0191 -0.52745,0.0283 -0.53721,0.0456 -0.007,0.0119 -0.0252,0.0217 -0.0411,0.0217 -0.0159,0 -0.0331,0.007 -0.0383,0.0153 -0.005,0.008 -0.032,0.0153 -0.0596,0.0153 -0.0308,0 -0.0608,-0.0118 -0.0778,-0.0305 -0.0211,-0.0233 -0.047,-0.0305 -0.10919,-0.0305 -0.0714,0 -0.0816,-0.004 -0.0816,-0.0305 0,-0.0302 -0.0102,-0.0305 -0.97997,-0.0305 -0.72042,0 -1.0013,0.005 -1.06053,0.0187 -0.0595,0.0138 -0.0806,0.0257 -0.0806,0.0455 0,0.0247 -0.0286,0.0271 -0.36171,0.0309 l -0.36171,0.004 -0.0413,0.18503 c -0.0227,0.10177 -0.0516,0.20478 -0.0642,0.2289 -0.0126,0.0241 -0.0424,0.062 -0.0662,0.0841 -0.0238,0.0221 -0.066,0.0516 -0.0936,0.0656 -0.0276,0.014 -0.10662,0.0319 -0.17548,0.0398 -0.0722,0.008 -0.97225,0.0144 -2.128,0.0145 -1.77004,9e-5 -2.0028,0.003 -2.0028,0.023 0,0.0126 -0.007,0.0229 -0.0153,0.0229 -0.008,0 -0.0153,0.0273 -0.0153,0.0607 0,0.0503 -0.006,0.0622 -0.0343,0.0693 -0.0189,0.005 -0.10644,0.007 -0.19456,0.004 l -0.16022,-0.004 -0.005,-0.0496 c -0.003,-0.0273 -0.011,-0.0496 -0.0185,-0.0496 -0.008,0 -0.0209,0.0133 -0.0296,0.0295 -0.009,0.0162 -0.0158,0.0424 -0.0158,0.0582 0,0.0158 0.0206,0.0439 0.0458,0.0625 0.0252,0.0186 0.0664,0.0747 0.0916,0.12451 0.0352,0.0696 0.0457,0.11107 0.0457,0.17882 -5e-5,0.0485 -0.008,0.11494 -0.0166,0.14765 -0.009,0.0327 -0.0404,0.0954 -0.0696,0.1394 -0.0292,0.044 -0.0805,0.10195 -0.11399,0.12888 -0.0335,0.0269 -0.10159,0.0655 -0.15129,0.0857 -0.0562,0.0228 -0.1208,0.0367 -0.17079,0.0366 -0.0442,-9e-5 -0.27997,-0.0339 -0.52387,-0.0752 -0.2439,-0.0413 -0.46906,-0.0873 -0.50036,-0.10218 -0.0363,-0.0173 -0.0734,-0.054 -0.1027,-0.10157 -0.0252,-0.0409 -0.0523,-0.10884 -0.0603,-0.15087 -0.01,-0.0527 -0.009,-0.0985 0.003,-0.14752 0.01,-0.0391 0.0406,-0.10126 0.0685,-0.13814 0.028,-0.0369 0.0509,-0.0751 0.0509,-0.0848 0,-0.01 -0.009,-0.0287 -0.0191,-0.0421 -0.0105,-0.0133 -0.0345,-0.0289 -0.0534,-0.0345 -0.0253,-0.008 -0.0343,-0.004 -0.0343,0.0137 0,0.0176 -0.0156,0.0239 -0.0594,0.0239 -0.0387,0 -0.0625,-0.008 -0.0682,-0.0229 -0.005,-0.0134 -0.028,-0.0229 -0.055,-0.0229 -0.0438,0 -0.0463,0.003 -0.0463,0.061 0,0.0593 0.002,0.061 0.0519,0.061 h 0.0519 l 0.008,0.20219 c 0.005,0.1112 0.0128,0.22741 0.0183,0.25824 0.01,0.0547 0.008,0.0574 -0.0751,0.11255 -0.0498,0.0331 -0.10358,0.0858 -0.12963,0.12706 -0.0245,0.0388 -0.0558,0.11042 -0.0697,0.15913 -0.0178,0.0625 -0.0222,0.11463 -0.0152,0.17709 0.009,0.0801 0.007,0.0918 -0.026,0.12285 -0.0198,0.0189 -0.0514,0.0446 -0.0701,0.0572 -0.0187,0.0126 -0.0549,0.0613 -0.0803,0.10827 -0.0255,0.047 -0.0541,0.12795 -0.0637,0.17994 -0.0126,0.0681 -0.0129,0.11731 -10e-4,0.17616 0.009,0.0467 0.0106,0.0921 0.003,0.10602 -0.007,0.0134 -0.0464,0.0474 -0.0872,0.0755 -0.0491,0.0338 -0.0933,0.0835 -0.13092,0.14713 -0.0486,0.0821 -0.0582,0.1138 -0.0663,0.21888 -0.005,0.0676 -0.0153,0.12645 -0.0224,0.13085 -0.007,0.004 -0.013,0.0306 -0.013,0.0582 0,0.0287 -0.0116,0.0607 -0.0271,0.0747 -0.0149,0.0135 -0.0552,0.029 -0.0896,0.0345 -0.0493,0.008 -0.13113,-0.008 -0.3867,-0.0765 -0.1783,-0.0476 -0.3597,-0.0997 -0.40312,-0.11599 -0.0439,-0.0164 -0.10345,-0.055 -0.13418,-0.0869 -0.0304,-0.0315 -0.0667,-0.0848 -0.0808,-0.11836 -0.0189,-0.0452 -0.026,-0.11066 -0.0271,-0.25178 -10e-4,-0.14461 0.007,-0.22805 0.0322,-0.34498 0.0186,-0.0848 0.0297,-0.16467 0.0248,-0.17741 -0.005,-0.0127 0.002,-0.0669 0.0159,-0.12043 0.0136,-0.0535 0.0513,-0.17039 0.0838,-0.25976 0.0325,-0.0894 0.0814,-0.20268 0.10871,-0.25178 0.0273,-0.0491 0.0769,-0.13048 0.11034,-0.18084 0.0334,-0.0503 0.0885,-0.12589 0.12239,-0.16785 0.0339,-0.042 0.11478,-0.13234 0.17965,-0.20084 0.0866,-0.0915 0.12263,-0.14194 0.13559,-0.1901 0.01,-0.0361 0.0134,-0.0923 0.008,-0.12503 -0.005,-0.0327 -0.0196,-0.079 -0.0319,-0.10285 -0.0123,-0.0239 -0.0448,-0.0649 -0.072,-0.0913 -0.0273,-0.0263 -0.0914,-0.0671 -0.14259,-0.0906 -0.0879,-0.0404 -0.0926,-0.0452 -0.0862,-0.089 0.007,-0.0448 0.004,-0.0467 -0.0673,-0.0589 -0.0407,-0.007 -0.16331,-0.0115 -0.27241,-0.0102 -0.14222,0.002 -0.23689,0.0116 -0.33443,0.0348 -0.0748,0.0178 -0.19312,0.0591 -0.26288,0.0918 -0.0697,0.0327 -0.17842,0.0951 -0.24147,0.13869 -0.0631,0.0436 -0.15763,0.12487 -0.21016,0.18063 -0.0525,0.0557 -0.12832,0.14742 -0.16842,0.2037 -0.0401,0.0563 -0.10533,0.16941 -0.14496,0.25139 -0.0649,0.13432 -0.0721,0.15963 -0.072,0.25609 4e-5,0.0682 0.0101,0.13164 0.0278,0.17493 0.0152,0.0373 0.0478,0.0908 0.0724,0.11879 0.0246,0.028 0.0447,0.0568 0.0447,0.0639 0,0.007 -0.012,0.0271 -0.0267,0.0443 -0.0147,0.0172 -0.064,0.042 -0.10952,0.0551 -0.075,0.0216 -0.0863,0.0216 -0.11906,9e-5 -0.0199,-0.0131 -0.0773,-0.08 -0.12753,-0.14876 -0.0502,-0.0688 -0.10478,-0.14196 -0.12127,-0.16267 -0.0165,-0.0207 -0.03,-0.0476 -0.03,-0.0598 0,-0.0122 -0.005,-0.0169 -0.0115,-0.0106 -0.006,0.006 -0.0114,0.57569 -0.0114,1.26526 v 1.25375 l -0.0458,9.6e-4 c -0.0252,5.2e-4 -0.0605,0.002 -0.0785,0.004 -0.0204,0.002 -0.0361,0.0165 -0.0418,0.0392 -0.007,0.0275 -0.0255,0.0404 -0.0771,0.0534 -0.0374,0.009 -0.0752,0.0171 -0.0841,0.0171 -0.009,0 -0.0161,-0.0103 -0.0161,-0.0229 0,-0.0126 -0.009,-0.023 -0.0191,-0.0231 -0.0105,-8e-5 -0.18044,0.039 -0.37767,0.0868 -0.19723,0.0478 -0.36355,0.0943 -0.36961,0.10318 -0.006,0.009 -0.017,0.0252 -0.0244,0.0362 -0.007,0.011 -0.0642,0.0332 -0.12632,0.0493 -0.0621,0.0161 -0.12156,0.0294 -0.13205,0.0296 z m 6.33241,-2.8312 c 0.061,-0.004 0.13539,-0.0214 0.18311,-0.0426 0.0442,-0.0196 0.10289,-0.0547 0.13043,-0.078 0.0275,-0.0233 0.0709,-0.0725 0.0963,-0.10944 0.0254,-0.0369 0.0567,-0.10252 0.0695,-0.14577 0.0155,-0.0521 0.0198,-0.10208 0.0129,-0.14807 -0.006,-0.0382 -0.0272,-0.10057 -0.0477,-0.1386 -0.0205,-0.038 -0.0542,-0.0925 -0.0749,-0.12099 -0.0207,-0.0285 -0.0376,-0.0699 -0.0376,-0.092 0,-0.0221 0.0107,-0.0554 0.0238,-0.074 0.0237,-0.0338 0.0236,-0.0339 -0.0624,-0.0339 -0.0706,0 -0.0911,0.006 -0.11355,0.0338 -0.0151,0.0186 -0.0238,0.0432 -0.0194,0.0546 0.004,0.0114 0.0232,0.0265 0.0417,0.0336 0.03,0.0114 0.0357,0.0302 0.0513,0.16723 0.01,0.0849 0.0176,0.16788 0.0176,0.18437 0,0.026 -0.0107,0.03 -0.0806,0.03 h -0.0805 l -0.017,-0.10775 c -0.01,-0.0633 -0.0381,-0.14986 -0.0682,-0.20982 -0.0424,-0.0844 -0.0603,-0.10499 -0.10352,-0.11896 -0.0288,-0.009 -0.0574,-0.0308 -0.0637,-0.0477 -0.01,-0.0263 -0.0305,-0.0324 -0.14162,-0.0417 -0.0716,-0.006 -0.13639,-0.007 -0.14391,-0.002 -0.008,0.005 -0.0177,0.055 -0.0227,0.11195 -0.005,0.0569 -0.0231,0.14405 -0.0404,0.19362 -0.0173,0.0496 -0.0314,0.11824 -0.0313,0.1526 5e-5,0.0343 0.007,0.0874 0.0155,0.11788 0.008,0.0305 0.0323,0.0804 0.053,0.11086 l 0.0376,0.0555 -0.0453,-0.0335 c -0.0249,-0.0184 -0.0622,-0.058 -0.0829,-0.088 -0.0207,-0.03 -0.0494,-0.082 -0.0639,-0.11552 -0.0167,-0.0389 -0.0278,-0.11087 -0.0306,-0.19837 -0.002,-0.0755 -0.005,-0.17682 -0.005,-0.22508 l -6.7e-4,-0.0877 h -0.21022 -0.21022 l 0.006,0.0613 c 0.003,0.0337 -0.002,0.0705 -0.011,0.0816 -0.0127,0.0153 -0.009,0.027 0.0136,0.0478 0.0176,0.016 0.0305,0.047 0.0305,0.0737 0,0.0283 -0.0221,0.0781 -0.0572,0.1292 -0.0524,0.0761 -0.0571,0.0916 -0.0564,0.18423 7e-4,0.0824 0.009,0.11469 0.0437,0.17413 0.0236,0.0401 0.0644,0.0844 0.0907,0.0984 0.0263,0.014 0.24012,0.058 0.47511,0.0979 0.32134,0.0545 0.45274,0.0708 0.53002,0.0655 z m 9.14063,-1.81071 0.17167,-0.004 0.004,-0.12075 c 0.003,-0.0863 -0.001,-0.12432 -0.0153,-0.13328 -0.0109,-0.007 -0.0769,-0.0126 -0.14665,-0.0128 -0.0698,-1.3e-4 -0.14017,0.007 -0.15641,0.0156 -0.0254,0.0136 -0.0295,0.0328 -0.0295,0.13783 v 0.12204 z m 0.37386,2.1e-4 0.103,-0.005 0.005,-0.12075 c 0.003,-0.0863 -10e-4,-0.12433 -0.0153,-0.13329 -0.0109,-0.007 -0.046,-0.0126 -0.078,-0.0128 -0.032,-1.3e-4 -0.0715,0.007 -0.0877,0.0156 -0.0254,0.0136 -0.0295,0.0328 -0.0295,0.13803 v 0.12223 z m -3.1626,-0.61248 c 0.0424,-0.006 0.0714,-0.0212 0.0953,-0.0511 0.0189,-0.0236 0.0344,-0.0544 0.0344,-0.0685 0,-0.0141 -0.0188,-0.0405 -0.0419,-0.0587 -0.0335,-0.0264 -0.0558,-0.0316 -0.11003,-0.0255 -0.0454,0.005 -0.0771,0.0188 -0.0954,0.0413 -0.015,0.0186 -0.0273,0.0496 -0.0273,0.0691 0,0.0204 0.0178,0.0494 0.042,0.0684 0.0328,0.0258 0.0553,0.0313 0.10291,0.0249 z m -7.38512,-0.34574 c 1.09459,0 1.77737,-0.005 1.77737,-0.0143 0,-0.008 -0.0223,-0.0164 -0.0496,-0.0191 l -0.0496,-0.005 0.004,-0.16022 c 0.002,-0.0881 0.0112,-0.2083 0.0196,-0.26704 0.008,-0.0588 0.0347,-0.14802 0.0584,-0.19838 0.0237,-0.0503 0.0731,-0.12102 0.10991,-0.15704 0.0368,-0.036 0.10767,-0.0859 0.15755,-0.11081 0.0692,-0.0346 0.0936,-0.0408 0.10288,-0.0261 0.007,0.0118 0.002,0.0268 -0.0142,0.0386 -0.0145,0.0106 -0.0532,0.045 -0.0859,0.0763 -0.0327,0.0313 -0.072,0.0844 -0.0874,0.11797 -0.0154,0.0336 -0.0279,0.0919 -0.0279,0.1297 0,0.0378 0.0135,0.0983 0.0299,0.13459 0.0164,0.0362 0.0443,0.0842 0.0618,0.10648 0.0175,0.0223 0.0503,0.0527 0.0728,0.0675 0.0316,0.0208 0.0737,0.0271 0.18581,0.0276 0.0797,3.5e-4 0.23342,0.007 0.34154,0.0141 0.1352,0.009 0.20339,0.0203 0.2184,0.0353 0.012,0.012 0.0224,0.0427 0.0232,0.0682 7.2e-4,0.0255 -0.0139,0.0677 -0.0325,0.0939 l -0.0338,0.0475 h 0.17653 0.17652 v -0.0609 c 0,-0.0335 -0.0179,-0.10558 -0.0398,-0.16022 -0.0219,-0.0546 -0.0427,-0.0993 -0.0463,-0.0993 -0.004,0 -0.0303,0.01 -0.0594,0.0221 l -0.053,0.0221 -0.0679,-0.14039 c -0.0373,-0.0772 -0.082,-0.19174 -0.0992,-0.25452 -0.0172,-0.0628 -0.0313,-0.12233 -0.0313,-0.13234 0,-0.01 0.0243,-0.0262 0.054,-0.036 0.0456,-0.015 0.0524,-0.0229 0.0436,-0.0508 -0.006,-0.0181 -0.0329,-0.0913 -0.0604,-0.16266 l -0.05,-0.12971 h -2.1032 c -1.99472,0 -2.1073,10e-4 -2.18285,0.0278 -0.0441,0.0154 -0.11248,0.0573 -0.15315,0.0938 -0.0406,0.0365 -0.0937,0.106 -0.11871,0.15534 -0.0432,0.0853 -0.0451,0.0974 -0.0429,0.27237 0.001,0.10071 0.0137,0.26895 0.0276,0.37386 0.0139,0.10491 0.0353,0.20619 0.0476,0.22507 l 0.0223,0.0343 z m 3.61613,0 c 0.0865,0 0.14497,-0.006 0.14497,-0.0153 0,-0.008 0.0103,-0.0153 0.0229,-0.0153 0.0189,0 0.0229,-0.028 0.0229,-0.16022 v -0.16023 h 0.0534 c 0.0367,0 0.0534,-0.007 0.0534,-0.0223 0,-0.0123 0.0133,-0.0295 0.0295,-0.0381 0.0162,-0.009 0.0785,-0.0158 0.13833,-0.0158 0.0599,0 0.12211,0.007 0.13834,0.0158 0.0162,0.009 0.0295,0.0258 0.0295,0.038 0,0.0189 0.0862,0.0228 0.5913,0.0262 l 0.5913,0.004 0.005,0.07 0.005,0.07 -0.27785,0.0101 c -0.15282,0.006 -0.41614,0.0101 -0.58517,0.0101 -0.21868,0 -0.3126,0.005 -0.32563,0.0183 -0.0101,0.0101 -0.0183,0.0444 -0.0183,0.0763 0,0.0509 0.004,0.058 0.0364,0.058 0.0235,0 0.0392,-0.0108 0.0443,-0.0305 0.007,-0.0265 0.0207,-0.0305 0.10478,-0.0303 0.0532,1.3e-4 0.10459,0.005 0.11411,0.0115 0.01,0.006 0.0199,0.0249 0.0231,0.0417 0.006,0.0297 0.0179,0.0305 0.45735,0.0304 0.35886,-9e-5 0.45664,-0.004 0.47659,-0.0209 0.0219,-0.0182 0.0251,-0.0636 0.0249,-0.35847 -1.8e-4,-0.23555 -0.006,-0.36119 -0.0209,-0.41548 -0.0114,-0.0428 -0.0387,-0.10857 -0.0608,-0.14615 -0.022,-0.0376 -0.0677,-0.0906 -0.10155,-0.11777 -0.0338,-0.0272 -0.094,-0.0644 -0.13361,-0.0827 -0.0696,-0.0321 -0.0928,-0.0335 -0.66262,-0.0378 l -0.59052,-0.004 -0.12432,0.38029 -0.12432,0.38028 -0.10154,0.028 c -0.0558,0.0154 -0.10668,0.0266 -0.11298,0.0248 -0.006,-0.002 -0.0114,0.0826 -0.0114,0.18748 v 0.19075 z"
       id="path6368" />
  </g>
</svg>
